<svg width="33" height="33" viewBox="0 0 33 33" fill="none" xmlns="http://www.w3.org/2000/svg">
<g clip-path="url(#clip0_13297_12696)">
<path d="M30.5006 14.6157H28.9395V16.1784H30.5006V14.6157Z" fill="#0E0E11"/>
<path d="M30.5006 13.0688H28.9395V14.6157H30.5006V13.0688Z" fill="#0E0E11"/>
<path d="M30.5006 11.5061H28.9395V13.0688H30.5006V11.5061Z" fill="#0E0E11"/>
<path d="M30.5006 9.9585H28.9395V11.5053H30.5006V9.9585Z" fill="#0E0E11"/>
<path d="M28.9395 16.1785H27.3784V17.7253H28.9395V16.1785Z" fill="#0E0E11"/>
<path d="M28.9395 14.6157H27.3784V16.1784H28.9395V14.6157Z" fill="#EA9E09"/>
<path d="M28.9395 13.0688H27.3784V14.6157H28.9395V13.0688Z" fill="#EA9E09"/>
<path d="M28.9395 11.5061H27.3784V13.0688H28.9395V11.5061Z" fill="#EA9E09"/>
<path d="M28.9395 9.9585H27.3784V11.5053H28.9395V9.9585Z" fill="#EA9E09"/>
<path d="M28.9395 8.39575H27.3784V9.95845H28.9395V8.39575Z" fill="#0E0E11"/>
<path d="M27.3787 17.7253H25.8335V19.288H27.3787V17.7253Z" fill="#0E0E11"/>
<path d="M27.3787 16.1785H25.8335V17.7253H27.3787V16.1785Z" fill="#EA9E09"/>
<path d="M27.3787 14.6157H25.8335V16.1784H27.3787V14.6157Z" fill="#FFFF00"/>
<path d="M27.3787 13.0688H25.8335V14.6157H27.3787V13.0688Z" fill="#0E0E11"/>
<path d="M27.3787 11.5061H25.8335V13.0688H27.3787V11.5061Z" fill="#0E0E11"/>
<path d="M27.3787 9.9585H25.8335V11.5053H27.3787V9.9585Z" fill="#FFFF00"/>
<path d="M27.3787 8.39575H25.8335V9.95845H27.3787V8.39575Z" fill="#FFFF00"/>
<path d="M27.3787 6.83325H25.8335V8.39595H27.3787V6.83325Z" fill="#0E0E11"/>
<path d="M25.8341 17.7253H24.2729V19.288H25.8341V17.7253Z" fill="#0E0E11"/>
<path d="M25.8341 16.1785H24.2729V17.7253H25.8341V16.1785Z" fill="#EA9E09"/>
<path d="M25.8341 14.6157H24.2729V16.1784H25.8341V14.6157Z" fill="#0E0E11"/>
<path d="M25.8341 9.9585H24.2729V11.5053H25.8341V9.9585Z" fill="#0E0E11"/>
<path d="M25.8341 8.39575H24.2729V9.95845H25.8341V8.39575Z" fill="#FFFF00"/>
<path d="M25.8341 6.83325H24.2729V8.39595H25.8341V6.83325Z" fill="#FFFF00"/>
<path d="M25.8341 5.28638H24.2729V6.8332H25.8341V5.28638Z" fill="#0E0E11"/>
<path d="M24.2728 19.2878H22.7275V20.8347H24.2728V19.2878Z" fill="#0E0E11"/>
<path d="M24.2728 17.7253H22.7275V19.288H24.2728V17.7253Z" fill="#EA9E09"/>
<path d="M24.2728 16.1785H22.7275V17.7253H24.2728V16.1785Z" fill="#FFFF00"/>
<path d="M24.2728 14.6157H22.7275V16.1784H24.2728V14.6157Z" fill="#0E0E11"/>
<path d="M24.2728 8.39575H22.7275V9.95845H24.2728V8.39575Z" fill="#0E0E11"/>
<path d="M24.2728 6.83325H22.7275V8.39595H24.2728V6.83325Z" fill="#FFFF00"/>
<path d="M24.2728 5.28638H22.7275V6.8332H24.2728V5.28638Z" fill="#FFFF00"/>
<path d="M24.2728 3.72363H22.7275V5.28633H24.2728V3.72363Z" fill="#0E0E11"/>
<path d="M22.7276 19.2878H21.1665V20.8347H22.7276V19.2878Z" fill="#0E0E11"/>
<path d="M22.7276 17.7253H21.1665V19.288H22.7276V17.7253Z" fill="#EA9E09"/>
<path d="M22.7276 16.1785H21.1665V17.7253H22.7276V16.1785Z" fill="#FFFF00"/>
<path d="M22.7276 14.6157H21.1665V16.1784H22.7276V14.6157Z" fill="#0E0E11"/>
<path d="M22.7276 6.83325H21.1665V8.39595H22.7276V6.83325Z" fill="#0E0E11"/>
<path d="M22.7276 5.28638H21.1665V6.8332H22.7276V5.28638Z" fill="#FFFF00"/>
<path d="M22.7276 3.72363H21.1665V5.28633H22.7276V3.72363Z" fill="#0E0E11"/>
<path d="M21.1676 17.7253H19.6064V19.288H21.1676V17.7253Z" fill="#0E0E11"/>
<path d="M21.1676 16.1785H19.6064V17.7253H21.1676V16.1785Z" fill="#EA9E09"/>
<path d="M21.1676 14.6157H19.6064V16.1784H21.1676V14.6157Z" fill="#FFFF00"/>
<path d="M21.1676 13.0688H19.6064V14.6157H21.1676V13.0688Z" fill="#0E0E11"/>
<path d="M21.1676 6.83325H19.6064V8.39595H21.1676V6.83325Z" fill="#0E0E11"/>
<path d="M21.1676 5.28638H19.6064V6.8332H21.1676V5.28638Z" fill="#FFFF00"/>
<path d="M21.1676 3.72363H19.6064V5.28633H21.1676V3.72363Z" fill="#0E0E11"/>
<path d="M19.6063 17.7253H18.061V19.288H19.6063V17.7253Z" fill="#0E0E11"/>
<path d="M19.6063 16.1785H18.061V17.7253H19.6063V16.1785Z" fill="#EA9E09"/>
<path d="M19.6063 14.6157H18.061V16.1784H19.6063V14.6157Z" fill="#FFFF00"/>
<path d="M19.6063 13.0688H18.061V14.6157H19.6063V13.0688Z" fill="#FFFF00"/>
<path d="M19.6063 11.5061H18.061V13.0688H19.6063V11.5061Z" fill="#0E0E11"/>
<path d="M19.6063 9.9585H18.061V11.5053H19.6063V9.9585Z" fill="#0E0E11"/>
<path d="M19.6063 8.39575H18.061V9.95845H19.6063V8.39575Z" fill="#0E0E11"/>
<path d="M19.6063 6.83325H18.061V8.39595H19.6063V6.83325Z" fill="#FFFF00"/>
<path d="M19.6063 5.28638H18.061V6.8332H19.6063V5.28638Z" fill="white"/>
<path d="M19.6063 3.72363H18.061V5.28633H19.6063V3.72363Z" fill="#0E0E11"/>
<path d="M18.0611 19.2878H16.5V20.8347H18.0611V19.2878Z" fill="#0E0E11"/>
<path d="M18.0611 17.7253H16.5V19.288H18.0611V17.7253Z" fill="#EA9E09"/>
<path d="M18.0611 16.1785H16.5V17.7253H18.0611V16.1785Z" fill="#FFFF00"/>
<path d="M18.0611 14.6157H16.5V16.1784H18.0611V14.6157Z" fill="white"/>
<path d="M18.0611 13.0688H16.5V14.6157H18.0611V13.0688Z" fill="white"/>
<path d="M18.0611 11.5061H16.5V13.0688H18.0611V11.5061Z" fill="#FFFF00"/>
<path d="M18.0611 9.9585H16.5V11.5053H18.0611V9.9585Z" fill="#FFFF00"/>
<path d="M18.0611 8.39575H16.5V9.95845H18.0611V8.39575Z" fill="white"/>
<path d="M18.0611 6.83325H16.5V8.39595H18.0611V6.83325Z" fill="white"/>
<path d="M18.0611 5.28638H16.5V6.8332H18.0611V5.28638Z" fill="#0E0E11"/>
<path d="M16.5006 20.8347H14.9395V22.3974H16.5006V20.8347Z" fill="#0E0E11"/>
<path d="M16.5006 19.2878H14.9395V20.8347H16.5006V19.2878Z" fill="#EA9E09"/>
<path d="M16.5006 17.7253H14.9395V19.288H16.5006V17.7253Z" fill="#FFFF00"/>
<path d="M16.5006 16.1785H14.9395V17.7253H16.5006V16.1785Z" fill="white"/>
<path d="M16.5006 14.6157H14.9395V16.1784H16.5006V14.6157Z" fill="#0E0E11"/>
<path d="M16.5006 13.0688H14.9395V14.6157H16.5006V13.0688Z" fill="#0E0E11"/>
<path d="M16.5006 11.5061H14.9395V13.0688H16.5006V11.5061Z" fill="white"/>
<path d="M16.5006 9.9585H14.9395V11.5053H16.5006V9.9585Z" fill="white"/>
<path d="M16.5006 8.39575H14.9395V9.95845H16.5006V8.39575Z" fill="#0E0E11"/>
<path d="M16.5006 6.83325H14.9395V8.39595H16.5006V6.83325Z" fill="#0E0E11"/>
<path d="M14.9398 22.3975H13.3945V23.9443H14.9398V22.3975Z" fill="#0E0E11"/>
<path d="M14.9398 20.8347H13.3945V22.3974H14.9398V20.8347Z" fill="#EA9E09"/>
<path d="M14.9398 19.2878H13.3945V20.8347H14.9398V19.2878Z" fill="#FFFF00"/>
<path d="M14.9398 17.7253H13.3945V19.288H14.9398V17.7253Z" fill="white"/>
<path d="M14.9398 16.1785H13.3945V17.7253H14.9398V16.1785Z" fill="#0E0E11"/>
<path d="M14.9398 11.5061H13.3945V13.0688H14.9398V11.5061Z" fill="#0E0E11"/>
<path d="M14.9398 9.9585H13.3945V11.5053H14.9398V9.9585Z" fill="#0E0E11"/>
<path d="M13.3946 23.9451H11.8335V25.5078H13.3946V23.9451Z" fill="#0E0E11"/>
<path d="M13.3946 22.3975H11.8335V23.9443H13.3946V22.3975Z" fill="#EA9E09"/>
<path d="M13.3946 20.8347H11.8335V22.3974H13.3946V20.8347Z" fill="#FFFF00"/>
<path d="M13.3946 19.2878H11.8335V20.8347H13.3946V19.2878Z" fill="white"/>
<path d="M13.3946 17.7253H11.8335V19.288H13.3946V17.7253Z" fill="#0E0E11"/>
<path d="M11.8341 25.5078H10.2729V27.0546H11.8341V25.5078Z" fill="#0E0E11"/>
<path d="M11.8341 23.9451H10.2729V25.5078H11.8341V23.9451Z" fill="#EA9E09"/>
<path d="M11.8341 22.3975H10.2729V23.9443H11.8341V22.3975Z" fill="#FFFF00"/>
<path d="M11.8341 20.8347H10.2729V22.3974H11.8341V20.8347Z" fill="white"/>
<path d="M11.8341 19.2878H10.2729V20.8347H11.8341V19.2878Z" fill="#0E0E11"/>
<path d="M10.2728 27.0547H8.72754V28.6174H10.2728V27.0547Z" fill="#0E0E11"/>
<path d="M10.2728 25.5078H8.72754V27.0546H10.2728V25.5078Z" fill="#EA9E09"/>
<path d="M10.2728 23.9451H8.72754V25.5078H10.2728V23.9451Z" fill="#FFFF00"/>
<path d="M10.2728 22.3975H8.72754V23.9443H10.2728V22.3975Z" fill="#FFFF00"/>
<path d="M10.2728 20.8347H8.72754V22.3974H10.2728V20.8347Z" fill="#FFFF00"/>
<path d="M10.2728 19.2878H8.72754V20.8347H10.2728V19.2878Z" fill="white"/>
<path d="M10.2728 17.7253H8.72754V19.288H10.2728V17.7253Z" fill="#0E0E11"/>
<path d="M8.72762 28.6172H7.1665V30.164H8.72762V28.6172Z" fill="#0E0E11"/>
<path d="M8.72762 27.0547H7.1665V28.6174H8.72762V27.0547Z" fill="#EA9E09"/>
<path d="M8.72762 25.5078H7.1665V27.0546H8.72762V25.5078Z" fill="#FFFF00"/>
<path d="M8.72762 23.9451H7.1665V25.5078H8.72762V23.9451Z" fill="#FFFF00"/>
<path d="M8.72762 22.3975H7.1665V23.9443H8.72762V22.3975Z" fill="#FFFF00"/>
<path d="M8.72762 20.8347H7.1665V22.3974H8.72762V20.8347Z" fill="#FFFF00"/>
<path d="M8.72762 19.2878H7.1665V20.8347H8.72762V19.2878Z" fill="white"/>
<path d="M8.72762 17.7253H7.1665V19.288H8.72762V17.7253Z" fill="#0E0E11"/>
<path d="M7.16681 27.0547H5.62158V28.6174H7.16681V27.0547Z" fill="#0E0E11"/>
<path d="M7.16681 25.5078H5.62158V27.0546H7.16681V25.5078Z" fill="#EA9E09"/>
<path d="M7.16681 23.9451H5.62158V25.5078H7.16681V23.9451Z" fill="#FFFF00"/>
<path d="M7.16681 22.3975H5.62158V23.9443H7.16681V22.3975Z" fill="white"/>
<path d="M7.16681 20.8347H5.62158V22.3974H7.16681V20.8347Z" fill="#0E0E11"/>
<path d="M7.16681 19.2878H5.62158V20.8347H7.16681V19.2878Z" fill="#0E0E11"/>
<path d="M7.16681 17.7253H5.62158V19.288H7.16681V17.7253Z" fill="#0E0E11"/>
<path d="M5.62215 25.5078H4.06104V27.0546H5.62215V25.5078Z" fill="#0E0E11"/>
<path d="M5.62215 23.9451H4.06104V25.5078H5.62215V23.9451Z" fill="#FFFF00"/>
<path d="M5.62215 22.3975H4.06104V23.9443H5.62215V22.3975Z" fill="white"/>
<path d="M5.62215 20.8347H4.06104V22.3974H5.62215V20.8347Z" fill="#0E0E11"/>
<path d="M4.06111 23.9451H2.5V25.5078H4.06111V23.9451Z" fill="#0E0E11"/>
<path d="M4.06111 22.3975H2.5V23.9443H4.06111V22.3975Z" fill="#0E0E11"/>
<path d="M4.06111 20.8347H2.5V22.3974H4.06111V20.8347Z" fill="#0E0E11"/>
</g>
<defs>
<clipPath id="clip0_13297_12696">
<rect width="28" height="26.4405" fill="white" transform="translate(2.5 3.72363)"/>
</clipPath>
</defs>
</svg>
