<svg width="117" height="49" viewBox="0 0 117 49" fill="none" xmlns="http://www.w3.org/2000/svg">
<g clip-path="url(#clip0_13324_13120)">
<path d="M8.82143 0.5H5.99756V3.32388H8.82143V0.5Z" fill="#3B2D7D"/>
<path d="M11.6454 0.5H8.82153V3.32388H11.6454V0.5Z" fill="#3B2D7D"/>
<path d="M14.4691 0.5H11.6453V3.32388H14.4691V0.5Z" fill="#3B2D7D"/>
<path d="M17.2921 0.5H14.4683V3.32388H17.2921V0.5Z" fill="#3B2D7D"/>
<path d="M20.1161 0.5H17.2922V3.32388H20.1161V0.5Z" fill="#3B2D7D"/>
<path d="M22.9398 0.5H20.116V3.32388H22.9398V0.5Z" fill="#3B2D7D"/>
<path d="M25.7628 0.5H22.939V3.32388H25.7628V0.5Z" fill="#3B2D7D"/>
<path d="M28.5866 0.5H25.7627V3.32388H28.5866V0.5Z" fill="#3B2D7D"/>
<path d="M31.4105 0.5H28.5867V3.32388H31.4105V0.5Z" fill="#3B2D7D"/>
<path d="M34.2333 0.5H31.4094V3.32388H34.2333V0.5Z" fill="#3B2D7D"/>
<path d="M37.0573 0.5H34.2334V3.32388H37.0573V0.5Z" fill="#3B2D7D"/>
<path d="M39.8812 0.5H37.0574V3.32388H39.8812V0.5Z" fill="#3B2D7D"/>
<path d="M42.704 0.5H39.8801V3.32388H42.704V0.5Z" fill="#3B2D7D"/>
<path d="M45.528 0.5H42.7041V3.32388H45.528V0.5Z" fill="#3B2D7D"/>
<path d="M48.3517 0.5H45.5278V3.32388H48.3517V0.5Z" fill="#3B2D7D"/>
<path d="M51.1747 0.5H48.3508V3.32388H51.1747V0.5Z" fill="#3B2D7D"/>
<path d="M53.9987 0.5H51.1748V3.32388H53.9987V0.5Z" fill="#3B2D7D"/>
<path d="M56.8224 0.5H53.9985V3.32388H56.8224V0.5Z" fill="#3B2D7D"/>
<path d="M76.5866 0.5H73.7627V3.32388H76.5866V0.5Z" fill="#3B2D7D"/>
<path d="M79.4105 0.5H76.5867V3.32388H79.4105V0.5Z" fill="#3B2D7D"/>
<path d="M82.2345 0.5H79.4106V3.32388H82.2345V0.5Z" fill="#3B2D7D"/>
<path d="M85.0573 0.5H82.2334V3.32388H85.0573V0.5Z" fill="#3B2D7D"/>
<path d="M87.8812 0.5H85.0574V3.32388H87.8812V0.5Z" fill="#3B2D7D"/>
<path d="M90.705 0.5H87.8811V3.32388H90.705V0.5Z" fill="#3B2D7D"/>
<path d="M93.528 0.5H90.7041V3.32388H93.528V0.5Z" fill="#3B2D7D"/>
<path d="M96.3517 0.5H93.5278V3.32388H96.3517V0.5Z" fill="#3B2D7D"/>
<path d="M99.1757 0.5H96.3518V3.32388H99.1757V0.5Z" fill="#3B2D7D"/>
<path d="M101.999 0.5H99.1748V3.32388H101.999V0.5Z" fill="#3B2D7D"/>
<path d="M104.822 0.5H101.999V3.32388H104.822V0.5Z" fill="#3B2D7D"/>
<path d="M107.646 0.5H104.823V3.32388H107.646V0.5Z" fill="#3B2D7D"/>
<path d="M110.469 0.5H107.645V3.32388H110.469V0.5Z" fill="#3B2D7D"/>
<path d="M5.99868 3.32385H3.1748V6.14773H5.99868V3.32385Z" fill="#3B2D7D"/>
<path d="M8.82143 3.32385H5.99756V6.14773H8.82143V3.32385Z" fill="#4C39C4"/>
<path d="M11.6454 3.32385H8.82153V6.14773H11.6454V3.32385Z" fill="#4C39C4"/>
<path d="M14.4691 3.32385H11.6453V6.14773H14.4691V3.32385Z" fill="#4C39C4"/>
<path d="M17.2921 3.32385H14.4683V6.14773H17.2921V3.32385Z" fill="#4C39C4"/>
<path d="M20.1161 3.32385H17.2922V6.14773H20.1161V3.32385Z" fill="#E3EAFA"/>
<path d="M22.9398 3.32385H20.116V6.14773H22.9398V3.32385Z" fill="#E3EAFA"/>
<path d="M25.7628 3.32385H22.939V6.14773H25.7628V3.32385Z" fill="#A7ACE5"/>
<path d="M28.5866 3.32385H25.7627V6.14773H28.5866V3.32385Z" fill="#A7ACE5"/>
<path d="M31.4105 3.32385H28.5867V6.14773H31.4105V3.32385Z" fill="#A7ACE5"/>
<path d="M34.2333 3.32385H31.4094V6.14773H34.2333V3.32385Z" fill="#A7ACE5"/>
<path d="M37.0573 3.32385H34.2334V6.14773H37.0573V3.32385Z" fill="#A7ACE5"/>
<path d="M39.8812 3.32385H37.0574V6.14773H39.8812V3.32385Z" fill="#A7ACE5"/>
<path d="M42.704 3.32385H39.8801V6.14773H42.704V3.32385Z" fill="#A7ACE5"/>
<path d="M45.528 3.32385H42.7041V6.14773H45.528V3.32385Z" fill="#A7ACE5"/>
<path d="M48.3517 3.32385H45.5278V6.14773H48.3517V3.32385Z" fill="#A7ACE5"/>
<path d="M51.1747 3.32385H48.3508V6.14773H51.1747V3.32385Z" fill="#A7ACE5"/>
<path d="M53.9987 3.32385H51.1748V6.14773H53.9987V3.32385Z" fill="#A7ACE5"/>
<path d="M56.8224 3.32385H53.9985V6.14773H56.8224V3.32385Z" fill="#A7ACE5"/>
<path d="M76.5866 3.32385H73.7627V6.14773H76.5866V3.32385Z" fill="#A7ACE5"/>
<path d="M79.4105 3.32385H76.5867V6.14773H79.4105V3.32385Z" fill="#A7ACE5"/>
<path d="M82.2345 3.32385H79.4106V6.14773H82.2345V3.32385Z" fill="#A7ACE5"/>
<path d="M85.0573 3.32385H82.2334V6.14773H85.0573V3.32385Z" fill="#A7ACE5"/>
<path d="M87.8812 3.32385H85.0574V6.14773H87.8812V3.32385Z" fill="#A7ACE5"/>
<path d="M90.705 3.32385H87.8811V6.14773H90.705V3.32385Z" fill="#A7ACE5"/>
<path d="M93.528 3.32385H90.7041V6.14773H93.528V3.32385Z" fill="#A7ACE5"/>
<path d="M96.3517 3.32385H93.5278V6.14773H96.3517V3.32385Z" fill="#A7ACE5"/>
<path d="M99.1757 3.32385H96.3518V6.14773H99.1757V3.32385Z" fill="#A7ACE5"/>
<path d="M101.999 3.32385H99.1748V6.14773H101.999V3.32385Z" fill="#4C39C4"/>
<path d="M104.822 3.32385H101.999V6.14773H104.822V3.32385Z" fill="#4C39C4"/>
<path d="M107.646 3.32385H104.823V6.14773H107.646V3.32385Z" fill="#4C39C4"/>
<path d="M110.469 3.32385H107.645V6.14773H110.469V3.32385Z" fill="#4C39C4"/>
<path d="M113.293 3.32385H110.469V6.14773H113.293V3.32385Z" fill="#3B2D7D"/>
<path d="M3.17471 6.14673H0.35083V8.9706H3.17471V6.14673Z" fill="#3B2D7D"/>
<path d="M5.99868 6.14673H3.1748V8.9706H5.99868V6.14673Z" fill="#4C39C4"/>
<path d="M8.82143 6.14673H5.99756V8.9706H8.82143V6.14673Z" fill="#4C39C4"/>
<path d="M11.6454 6.14673H8.82153V8.9706H11.6454V6.14673Z" fill="#4C39C4"/>
<path d="M14.4691 6.14673H11.6453V8.9706H14.4691V6.14673Z" fill="#4C39C4"/>
<path d="M17.2921 6.14673H14.4683V8.9706H17.2921V6.14673Z" fill="#E3EAFA"/>
<path d="M20.1161 6.14673H17.2922V8.9706H20.1161V6.14673Z" fill="#5D58F2"/>
<path d="M22.9398 6.14673H20.116V8.9706H22.9398V6.14673Z" fill="#5D58F2"/>
<path d="M25.7628 6.14673H22.939V8.9706H25.7628V6.14673Z" fill="#5D58F2"/>
<path d="M28.5866 6.14673H25.7627V8.9706H28.5866V6.14673Z" fill="#5D58F2"/>
<path d="M31.4105 6.14673H28.5867V8.9706H31.4105V6.14673Z" fill="#5D58F2"/>
<path d="M34.2333 6.14673H31.4094V8.9706H34.2333V6.14673Z" fill="#5D58F2"/>
<path d="M37.0573 6.14673H34.2334V8.9706H37.0573V6.14673Z" fill="#5D58F2"/>
<path d="M39.8812 6.14673H37.0574V8.9706H39.8812V6.14673Z" fill="#5D58F2"/>
<path d="M42.704 6.14673H39.8801V8.9706H42.704V6.14673Z" fill="#5D58F2"/>
<path d="M45.528 6.14673H42.7041V8.9706H45.528V6.14673Z" fill="#5D58F2"/>
<path d="M48.3517 6.14673H45.5278V8.9706H48.3517V6.14673Z" fill="#5D58F2"/>
<path d="M51.1747 6.14673H48.3508V8.9706H51.1747V6.14673Z" fill="#5D58F2"/>
<path d="M53.9987 6.14673H51.1748V8.9706H53.9987V6.14673Z" fill="#5D58F2"/>
<path d="M56.8224 6.14673H53.9985V8.9706H56.8224V6.14673Z" fill="#5D58F2"/>
<path d="M76.5866 6.14673H73.7627V8.9706H76.5866V6.14673Z" fill="#5D58F2"/>
<path d="M79.4105 6.14673H76.5867V8.9706H79.4105V6.14673Z" fill="#5D58F2"/>
<path d="M82.2345 6.14673H79.4106V8.9706H82.2345V6.14673Z" fill="#5D58F2"/>
<path d="M85.0573 6.14673H82.2334V8.9706H85.0573V6.14673Z" fill="#5D58F2"/>
<path d="M87.8812 6.14673H85.0574V8.9706H87.8812V6.14673Z" fill="#5D58F2"/>
<path d="M90.705 6.14673H87.8811V8.9706H90.705V6.14673Z" fill="#5D58F2"/>
<path d="M93.528 6.14673H90.7041V8.9706H93.528V6.14673Z" fill="#5D58F2"/>
<path d="M96.3517 6.14673H93.5278V8.9706H96.3517V6.14673Z" fill="#5D58F2"/>
<path d="M99.1757 6.14673H96.3518V8.9706H99.1757V6.14673Z" fill="#5D58F2"/>
<path d="M101.999 6.14673H99.1748V8.9706H101.999V6.14673Z" fill="#A7ACE5"/>
<path d="M104.822 6.14673H101.999V8.9706H104.822V6.14673Z" fill="#4C39C4"/>
<path d="M107.646 6.14673H104.823V8.9706H107.646V6.14673Z" fill="#4C39C4"/>
<path d="M110.469 6.14673H107.645V8.9706H110.469V6.14673Z" fill="#4C39C4"/>
<path d="M113.293 6.14673H110.469V8.9706H113.293V6.14673Z" fill="#4C39C4"/>
<path d="M116.117 6.14673H113.293V8.9706H116.117V6.14673Z" fill="#3B2D7D"/>
<path d="M3.17471 8.9707H0.35083V11.7946H3.17471V8.9707Z" fill="#3B2D7D"/>
<path d="M5.99868 8.9707H3.1748V11.7946H5.99868V8.9707Z" fill="#4C39C4"/>
<path d="M8.82143 8.9707H5.99756V11.7946H8.82143V8.9707Z" fill="#4C39C4"/>
<path d="M11.6454 8.9707H8.82153V11.7946H11.6454V8.9707Z" fill="#4C39C4"/>
<path d="M14.4691 8.9707H11.6453V11.7946H14.4691V8.9707Z" fill="#4C39C4"/>
<path d="M17.2921 8.9707H14.4683V11.7946H17.2921V8.9707Z" fill="#E3EAFA"/>
<path d="M20.1161 8.9707H17.2922V11.7946H20.1161V8.9707Z" fill="#5D58F2"/>
<path d="M22.9398 8.9707H20.116V11.7946H22.9398V8.9707Z" fill="#5D58F2"/>
<path d="M25.7628 8.9707H22.939V11.7946H25.7628V8.9707Z" fill="#5D58F2"/>
<path d="M28.5866 8.9707H25.7627V11.7946H28.5866V8.9707Z" fill="#5D58F2"/>
<path d="M31.4105 8.9707H28.5867V11.7946H31.4105V8.9707Z" fill="#5D58F2"/>
<path d="M34.2333 8.9707H31.4094V11.7946H34.2333V8.9707Z" fill="#5D58F2"/>
<path d="M37.0573 8.9707H34.2334V11.7946H37.0573V8.9707Z" fill="#5D58F2"/>
<path d="M39.8812 8.9707H37.0574V11.7946H39.8812V8.9707Z" fill="#5D58F2"/>
<path d="M42.704 8.9707H39.8801V11.7946H42.704V8.9707Z" fill="#5D58F2"/>
<path d="M45.528 8.9707H42.7041V11.7946H45.528V8.9707Z" fill="#5D58F2"/>
<path d="M48.3517 8.9707H45.5278V11.7946H48.3517V8.9707Z" fill="#5D58F2"/>
<path d="M51.1747 8.9707H48.3508V11.7946H51.1747V8.9707Z" fill="#5D58F2"/>
<path d="M53.9987 8.9707H51.1748V11.7946H53.9987V8.9707Z" fill="#5D58F2"/>
<path d="M56.8224 8.9707H53.9985V11.7946H56.8224V8.9707Z" fill="#5D58F2"/>
<path d="M76.5866 8.9707H73.7627V11.7946H76.5866V8.9707Z" fill="#5D58F2"/>
<path d="M79.4105 8.9707H76.5867V11.7946H79.4105V8.9707Z" fill="#5D58F2"/>
<path d="M82.2345 8.9707H79.4106V11.7946H82.2345V8.9707Z" fill="#5D58F2"/>
<path d="M85.0573 8.9707H82.2334V11.7946H85.0573V8.9707Z" fill="#5D58F2"/>
<path d="M87.8812 8.9707H85.0574V11.7946H87.8812V8.9707Z" fill="#5D58F2"/>
<path d="M90.705 8.9707H87.8811V11.7946H90.705V8.9707Z" fill="#5D58F2"/>
<path d="M93.528 8.9707H90.7041V11.7946H93.528V8.9707Z" fill="#5D58F2"/>
<path d="M96.3517 8.9707H93.5278V11.7946H96.3517V8.9707Z" fill="#5D58F2"/>
<path d="M99.1757 8.9707H96.3518V11.7946H99.1757V8.9707Z" fill="#5D58F2"/>
<path d="M101.999 8.9707H99.1748V11.7946H101.999V8.9707Z" fill="#A7ACE5"/>
<path d="M104.822 8.9707H101.999V11.7946H104.822V8.9707Z" fill="#4C39C4"/>
<path d="M107.646 8.9707H104.823V11.7946H107.646V8.9707Z" fill="#4C39C4"/>
<path d="M110.469 8.9707H107.645V11.7946H110.469V8.9707Z" fill="#4C39C4"/>
<path d="M113.293 8.9707H110.469V11.7946H113.293V8.9707Z" fill="#4C39C4"/>
<path d="M116.117 8.9707H113.293V11.7946H116.117V8.9707Z" fill="#3B2D7D"/>
<path d="M3.17471 11.7946H0.35083V14.6184H3.17471V11.7946Z" fill="#3B2D7D"/>
<path d="M5.99868 11.7946H3.1748V14.6184H5.99868V11.7946Z" fill="#4C39C4"/>
<path d="M8.82143 11.7946H5.99756V14.6184H8.82143V11.7946Z" fill="#4C39C4"/>
<path d="M11.6454 11.7946H8.82153V14.6184H11.6454V11.7946Z" fill="#4C39C4"/>
<path d="M14.4691 11.7946H11.6453V14.6184H14.4691V11.7946Z" fill="#4C39C4"/>
<path d="M17.2921 11.7946H14.4683V14.6184H17.2921V11.7946Z" fill="#A7ACE5"/>
<path d="M20.1161 11.7946H17.2922V14.6184H20.1161V11.7946Z" fill="#5D58F2"/>
<path d="M22.9398 11.7946H20.116V14.6184H22.9398V11.7946Z" fill="#5D58F2"/>
<path d="M25.7628 11.7946H22.939V14.6184H25.7628V11.7946Z" fill="#5D58F2"/>
<path d="M28.5866 11.7946H25.7627V14.6184H28.5866V11.7946Z" fill="#5D58F2"/>
<path d="M31.4105 11.7946H28.5867V14.6184H31.4105V11.7946Z" fill="#5D58F2"/>
<path d="M34.2333 11.7946H31.4094V14.6184H34.2333V11.7946Z" fill="#5D58F2"/>
<path d="M37.0573 11.7946H34.2334V14.6184H37.0573V11.7946Z" fill="#5D58F2"/>
<path d="M39.8812 11.7946H37.0574V14.6184H39.8812V11.7946Z" fill="#5D58F2"/>
<path d="M42.704 11.7946H39.8801V14.6184H42.704V11.7946Z" fill="#5D58F2"/>
<path d="M45.528 11.7946H42.7041V14.6184H45.528V11.7946Z" fill="#5D58F2"/>
<path d="M48.3517 11.7946H45.5278V14.6184H48.3517V11.7946Z" fill="#5D58F2"/>
<path d="M51.1747 11.7946H48.3508V14.6184H51.1747V11.7946Z" fill="#5D58F2"/>
<path d="M53.9987 11.7946H51.1748V14.6184H53.9987V11.7946Z" fill="#5D58F2"/>
<path d="M56.8224 11.7946H53.9985V14.6184H56.8224V11.7946Z" fill="#5D58F2"/>
<path d="M76.5866 11.7946H73.7627V14.6184H76.5866V11.7946Z" fill="#5D58F2"/>
<path d="M79.4105 11.7946H76.5867V14.6184H79.4105V11.7946Z" fill="#5D58F2"/>
<path d="M82.2345 11.7946H79.4106V14.6184H82.2345V11.7946Z" fill="#5D58F2"/>
<path d="M85.0573 11.7946H82.2334V14.6184H85.0573V11.7946Z" fill="#5D58F2"/>
<path d="M87.8812 11.7946H85.0574V14.6184H87.8812V11.7946Z" fill="#5D58F2"/>
<path d="M90.705 11.7946H87.8811V14.6184H90.705V11.7946Z" fill="#5D58F2"/>
<path d="M93.528 11.7946H90.7041V14.6184H93.528V11.7946Z" fill="#5D58F2"/>
<path d="M96.3517 11.7946H93.5278V14.6184H96.3517V11.7946Z" fill="#5D58F2"/>
<path d="M99.1757 11.7946H96.3518V14.6184H99.1757V11.7946Z" fill="#5D58F2"/>
<path d="M101.999 11.7946H99.1748V14.6184H101.999V11.7946Z" fill="#A7ACE5"/>
<path d="M104.822 11.7946H101.999V14.6184H104.822V11.7946Z" fill="#4C39C4"/>
<path d="M107.646 11.7946H104.823V14.6184H107.646V11.7946Z" fill="#4C39C4"/>
<path d="M110.469 11.7946H107.645V14.6184H110.469V11.7946Z" fill="#4C39C4"/>
<path d="M113.293 11.7946H110.469V14.6184H113.293V11.7946Z" fill="#4C39C4"/>
<path d="M116.117 11.7946H113.293V14.6184H116.117V11.7946Z" fill="#3B2D7D"/>
<path d="M3.17471 14.6174H0.35083V17.4413H3.17471V14.6174Z" fill="#3B2D7D"/>
<path d="M5.99868 14.6174H3.1748V17.4413H5.99868V14.6174Z" fill="#4C39C4"/>
<path d="M8.82143 14.6174H5.99756V17.4413H8.82143V14.6174Z" fill="#4C39C4"/>
<path d="M11.6454 14.6174H8.82153V17.4413H11.6454V14.6174Z" fill="#4C39C4"/>
<path d="M14.4691 14.6174H11.6453V17.4413H14.4691V14.6174Z" fill="#4C39C4"/>
<path d="M17.2921 14.6174H14.4683V17.4413H17.2921V14.6174Z" fill="#A7ACE5"/>
<path d="M20.1161 14.6174H17.2922V17.4413H20.1161V14.6174Z" fill="#5D58F2"/>
<path d="M22.9398 14.6174H20.116V17.4413H22.9398V14.6174Z" fill="#5D58F2"/>
<path d="M25.7628 14.6174H22.939V17.4413H25.7628V14.6174Z" fill="#5D58F2"/>
<path d="M28.5866 14.6174H25.7627V17.4413H28.5866V14.6174Z" fill="#5D58F2"/>
<path d="M31.4105 14.6174H28.5867V17.4413H31.4105V14.6174Z" fill="#5D58F2"/>
<path d="M34.2333 14.6174H31.4094V17.4413H34.2333V14.6174Z" fill="#5D58F2"/>
<path d="M37.0573 14.6174H34.2334V17.4413H37.0573V14.6174Z" fill="#5D58F2"/>
<path d="M39.8812 14.6174H37.0574V17.4413H39.8812V14.6174Z" fill="#5D58F2"/>
<path d="M42.704 14.6174H39.8801V17.4413H42.704V14.6174Z" fill="#5D58F2"/>
<path d="M45.528 14.6174H42.7041V17.4413H45.528V14.6174Z" fill="#5D58F2"/>
<path d="M48.3517 14.6174H45.5278V17.4413H48.3517V14.6174Z" fill="#5D58F2"/>
<path d="M51.1747 14.6174H48.3508V17.4413H51.1747V14.6174Z" fill="#5D58F2"/>
<path d="M53.9987 14.6174H51.1748V17.4413H53.9987V14.6174Z" fill="#5D58F2"/>
<path d="M56.8224 14.6174H53.9985V17.4413H56.8224V14.6174Z" fill="#5D58F2"/>
<path d="M76.5866 14.6174H73.7627V17.4413H76.5866V14.6174Z" fill="#5D58F2"/>
<path d="M79.4105 14.6174H76.5867V17.4413H79.4105V14.6174Z" fill="#5D58F2"/>
<path d="M82.2345 14.6174H79.4106V17.4413H82.2345V14.6174Z" fill="#5D58F2"/>
<path d="M85.0573 14.6174H82.2334V17.4413H85.0573V14.6174Z" fill="#5D58F2"/>
<path d="M87.8812 14.6174H85.0574V17.4413H87.8812V14.6174Z" fill="#5D58F2"/>
<path d="M90.705 14.6174H87.8811V17.4413H90.705V14.6174Z" fill="#5D58F2"/>
<path d="M93.528 14.6174H90.7041V17.4413H93.528V14.6174Z" fill="#5D58F2"/>
<path d="M96.3517 14.6174H93.5278V17.4413H96.3517V14.6174Z" fill="#5D58F2"/>
<path d="M99.1757 14.6174H96.3518V17.4413H99.1757V14.6174Z" fill="#5D58F2"/>
<path d="M101.999 14.6174H99.1748V17.4413H101.999V14.6174Z" fill="#A7ACE5"/>
<path d="M104.822 14.6174H101.999V17.4413H104.822V14.6174Z" fill="#4C39C4"/>
<path d="M107.646 14.6174H104.823V17.4413H107.646V14.6174Z" fill="#4C39C4"/>
<path d="M110.469 14.6174H107.645V17.4413H110.469V14.6174Z" fill="#4C39C4"/>
<path d="M113.293 14.6174H110.469V17.4413H113.293V14.6174Z" fill="#4C39C4"/>
<path d="M116.117 14.6174H113.293V17.4413H116.117V14.6174Z" fill="#3B2D7D"/>
<path d="M3.17471 17.4413H0.35083V20.2652H3.17471V17.4413Z" fill="#3B2D7D"/>
<path d="M5.99868 17.4413H3.1748V20.2652H5.99868V17.4413Z" fill="#4C39C4"/>
<path d="M8.82143 17.4413H5.99756V20.2652H8.82143V17.4413Z" fill="#4C39C4"/>
<path d="M11.6454 17.4413H8.82153V20.2652H11.6454V17.4413Z" fill="#4C39C4"/>
<path d="M14.4691 17.4413H11.6453V20.2652H14.4691V17.4413Z" fill="#4C39C4"/>
<path d="M17.2921 17.4413H14.4683V20.2652H17.2921V17.4413Z" fill="#A7ACE5"/>
<path d="M20.1161 17.4413H17.2922V20.2652H20.1161V17.4413Z" fill="#5D58F2"/>
<path d="M22.9398 17.4413H20.116V20.2652H22.9398V17.4413Z" fill="#5D58F2"/>
<path d="M25.7628 17.4413H22.939V20.2652H25.7628V17.4413Z" fill="#5D58F2"/>
<path d="M28.5866 17.4413H25.7627V20.2652H28.5866V17.4413Z" fill="#5D58F2"/>
<path d="M31.4105 17.4413H28.5867V20.2652H31.4105V17.4413Z" fill="#5D58F2"/>
<path d="M34.2333 17.4413H31.4094V20.2652H34.2333V17.4413Z" fill="#5D58F2"/>
<path d="M37.0573 17.4413H34.2334V20.2652H37.0573V17.4413Z" fill="#5D58F2"/>
<path d="M39.8812 17.4413H37.0574V20.2652H39.8812V17.4413Z" fill="#5D58F2"/>
<path d="M42.704 17.4413H39.8801V20.2652H42.704V17.4413Z" fill="#5D58F2"/>
<path d="M45.528 17.4413H42.7041V20.2652H45.528V17.4413Z" fill="#5D58F2"/>
<path d="M48.3517 17.4413H45.5278V20.2652H48.3517V17.4413Z" fill="#5D58F2"/>
<path d="M51.1747 17.4413H48.3508V20.2652H51.1747V17.4413Z" fill="#5D58F2"/>
<path d="M53.9987 17.4413H51.1748V20.2652H53.9987V17.4413Z" fill="#5D58F2"/>
<path d="M56.8224 17.4413H53.9985V20.2652H56.8224V17.4413Z" fill="#5D58F2"/>
<path d="M76.5866 17.4413H73.7627V20.2652H76.5866V17.4413Z" fill="#5D58F2"/>
<path d="M79.4105 17.4413H76.5867V20.2652H79.4105V17.4413Z" fill="#5D58F2"/>
<path d="M82.2345 17.4413H79.4106V20.2652H82.2345V17.4413Z" fill="#5D58F2"/>
<path d="M85.0573 17.4413H82.2334V20.2652H85.0573V17.4413Z" fill="#5D58F2"/>
<path d="M87.8812 17.4413H85.0574V20.2652H87.8812V17.4413Z" fill="#5D58F2"/>
<path d="M90.705 17.4413H87.8811V20.2652H90.705V17.4413Z" fill="#5D58F2"/>
<path d="M93.528 17.4413H90.7041V20.2652H93.528V17.4413Z" fill="#5D58F2"/>
<path d="M96.3517 17.4413H93.5278V20.2652H96.3517V17.4413Z" fill="#5D58F2"/>
<path d="M99.1757 17.4413H96.3518V20.2652H99.1757V17.4413Z" fill="#5D58F2"/>
<path d="M101.999 17.4413H99.1748V20.2652H101.999V17.4413Z" fill="#A7ACE5"/>
<path d="M104.822 17.4413H101.999V20.2652H104.822V17.4413Z" fill="#4C39C4"/>
<path d="M107.646 17.4413H104.823V20.2652H107.646V17.4413Z" fill="#4C39C4"/>
<path d="M110.469 17.4413H107.645V20.2652H110.469V17.4413Z" fill="#4C39C4"/>
<path d="M113.293 17.4413H110.469V20.2652H113.293V17.4413Z" fill="#4C39C4"/>
<path d="M116.117 17.4413H113.293V20.2652H116.117V17.4413Z" fill="#3B2D7D"/>
<path d="M3.17471 20.2651H0.35083V23.089H3.17471V20.2651Z" fill="#3B2D7D"/>
<path d="M5.99868 20.2651H3.1748V23.089H5.99868V20.2651Z" fill="#4C39C4"/>
<path d="M8.82143 20.2651H5.99756V23.089H8.82143V20.2651Z" fill="#4C39C4"/>
<path d="M11.6454 20.2651H8.82153V23.089H11.6454V20.2651Z" fill="#4C39C4"/>
<path d="M14.4691 20.2651H11.6453V23.089H14.4691V20.2651Z" fill="#4C39C4"/>
<path d="M17.2921 20.2651H14.4683V23.089H17.2921V20.2651Z" fill="#A7ACE5"/>
<path d="M20.1161 20.2651H17.2922V23.089H20.1161V20.2651Z" fill="#5D58F2"/>
<path d="M22.9398 20.2651H20.116V23.089H22.9398V20.2651Z" fill="#5D58F2"/>
<path d="M25.7628 20.2651H22.939V23.089H25.7628V20.2651Z" fill="#5D58F2"/>
<path d="M28.5866 20.2651H25.7627V23.089H28.5866V20.2651Z" fill="#5D58F2"/>
<path d="M31.4105 20.2651H28.5867V23.089H31.4105V20.2651Z" fill="#5D58F2"/>
<path d="M34.2333 20.2651H31.4094V23.089H34.2333V20.2651Z" fill="#5D58F2"/>
<path d="M37.0573 20.2651H34.2334V23.089H37.0573V20.2651Z" fill="#5D58F2"/>
<path d="M39.8812 20.2651H37.0574V23.089H39.8812V20.2651Z" fill="#5D58F2"/>
<path d="M42.704 20.2651H39.8801V23.089H42.704V20.2651Z" fill="#5D58F2"/>
<path d="M45.528 20.2651H42.7041V23.089H45.528V20.2651Z" fill="#5D58F2"/>
<path d="M48.3517 20.2651H45.5278V23.089H48.3517V20.2651Z" fill="#5D58F2"/>
<path d="M51.1747 20.2651H48.3508V23.089H51.1747V20.2651Z" fill="#5D58F2"/>
<path d="M53.9987 20.2651H51.1748V23.089H53.9987V20.2651Z" fill="#5D58F2"/>
<path d="M56.8224 20.2651H53.9985V23.089H56.8224V20.2651Z" fill="#5D58F2"/>
<path d="M76.5866 20.2651H73.7627V23.089H76.5866V20.2651Z" fill="#5D58F2"/>
<path d="M79.4105 20.2651H76.5867V23.089H79.4105V20.2651Z" fill="#5D58F2"/>
<path d="M82.2345 20.2651H79.4106V23.089H82.2345V20.2651Z" fill="#5D58F2"/>
<path d="M85.0573 20.2651H82.2334V23.089H85.0573V20.2651Z" fill="#5D58F2"/>
<path d="M87.8812 20.2651H85.0574V23.089H87.8812V20.2651Z" fill="#5D58F2"/>
<path d="M90.705 20.2651H87.8811V23.089H90.705V20.2651Z" fill="#5D58F2"/>
<path d="M93.528 20.2651H90.7041V23.089H93.528V20.2651Z" fill="#5D58F2"/>
<path d="M96.3517 20.2651H93.5278V23.089H96.3517V20.2651Z" fill="#5D58F2"/>
<path d="M99.1757 20.2651H96.3518V23.089H99.1757V20.2651Z" fill="#5D58F2"/>
<path d="M101.999 20.2651H99.1748V23.089H101.999V20.2651Z" fill="#A7ACE5"/>
<path d="M104.822 20.2651H101.999V23.089H104.822V20.2651Z" fill="#4C39C4"/>
<path d="M107.646 20.2651H104.823V23.089H107.646V20.2651Z" fill="#4C39C4"/>
<path d="M110.469 20.2651H107.645V23.089H110.469V20.2651Z" fill="#4C39C4"/>
<path d="M113.293 20.2651H110.469V23.089H113.293V20.2651Z" fill="#4C39C4"/>
<path d="M116.117 20.2651H113.293V23.089H116.117V20.2651Z" fill="#3B2D7D"/>
<path d="M3.17471 23.088H0.35083V25.9119H3.17471V23.088Z" fill="#3B2D7D"/>
<path d="M5.99868 23.088H3.1748V25.9119H5.99868V23.088Z" fill="#4C39C4"/>
<path d="M8.82143 23.088H5.99756V25.9119H8.82143V23.088Z" fill="#4C39C4"/>
<path d="M11.6454 23.088H8.82153V25.9119H11.6454V23.088Z" fill="#4C39C4"/>
<path d="M14.4691 23.088H11.6453V25.9119H14.4691V23.088Z" fill="#4C39C4"/>
<path d="M17.2921 23.088H14.4683V25.9119H17.2921V23.088Z" fill="#A7ACE5"/>
<path d="M20.1161 23.088H17.2922V25.9119H20.1161V23.088Z" fill="#5D58F2"/>
<path d="M22.9398 23.088H20.116V25.9119H22.9398V23.088Z" fill="#5D58F2"/>
<path d="M25.7628 23.088H22.939V25.9119H25.7628V23.088Z" fill="#5D58F2"/>
<path d="M28.5866 23.088H25.7627V25.9119H28.5866V23.088Z" fill="#5D58F2"/>
<path d="M31.4105 23.088H28.5867V25.9119H31.4105V23.088Z" fill="#5D58F2"/>
<path d="M34.2333 23.088H31.4094V25.9119H34.2333V23.088Z" fill="#5D58F2"/>
<path d="M37.0573 23.088H34.2334V25.9119H37.0573V23.088Z" fill="#5D58F2"/>
<path d="M39.8812 23.088H37.0574V25.9119H39.8812V23.088Z" fill="#5D58F2"/>
<path d="M42.704 23.088H39.8801V25.9119H42.704V23.088Z" fill="#5D58F2"/>
<path d="M45.528 23.088H42.7041V25.9119H45.528V23.088Z" fill="#5D58F2"/>
<path d="M48.3517 23.088H45.5278V25.9119H48.3517V23.088Z" fill="#5D58F2"/>
<path d="M51.1747 23.088H48.3508V25.9119H51.1747V23.088Z" fill="#5D58F2"/>
<path d="M53.9987 23.088H51.1748V25.9119H53.9987V23.088Z" fill="#5D58F2"/>
<path d="M56.8224 23.088H53.9985V25.9119H56.8224V23.088Z" fill="#5D58F2"/>
<path d="M76.5866 23.088H73.7627V25.9119H76.5866V23.088Z" fill="#5D58F2"/>
<path d="M79.4105 23.088H76.5867V25.9119H79.4105V23.088Z" fill="#5D58F2"/>
<path d="M82.2345 23.088H79.4106V25.9119H82.2345V23.088Z" fill="#5D58F2"/>
<path d="M85.0573 23.088H82.2334V25.9119H85.0573V23.088Z" fill="#5D58F2"/>
<path d="M87.8812 23.088H85.0574V25.9119H87.8812V23.088Z" fill="#5D58F2"/>
<path d="M90.705 23.088H87.8811V25.9119H90.705V23.088Z" fill="#5D58F2"/>
<path d="M93.528 23.088H90.7041V25.9119H93.528V23.088Z" fill="#5D58F2"/>
<path d="M96.3517 23.088H93.5278V25.9119H96.3517V23.088Z" fill="#5D58F2"/>
<path d="M99.1757 23.088H96.3518V25.9119H99.1757V23.088Z" fill="#5D58F2"/>
<path d="M101.999 23.088H99.1748V25.9119H101.999V23.088Z" fill="#A7ACE5"/>
<path d="M104.822 23.088H101.999V25.9119H104.822V23.088Z" fill="#4C39C4"/>
<path d="M107.646 23.088H104.823V25.9119H107.646V23.088Z" fill="#4C39C4"/>
<path d="M110.469 23.088H107.645V25.9119H110.469V23.088Z" fill="#4C39C4"/>
<path d="M113.293 23.088H110.469V25.9119H113.293V23.088Z" fill="#4C39C4"/>
<path d="M116.117 23.088H113.293V25.9119H116.117V23.088Z" fill="#3B2D7D"/>
<path d="M3.17471 25.912H0.35083V28.7359H3.17471V25.912Z" fill="#3B2D7D"/>
<path d="M5.99868 25.912H3.1748V28.7359H5.99868V25.912Z" fill="#4C39C4"/>
<path d="M8.82143 25.912H5.99756V28.7359H8.82143V25.912Z" fill="#4C39C4"/>
<path d="M11.6454 25.912H8.82153V28.7359H11.6454V25.912Z" fill="#4C39C4"/>
<path d="M14.4691 25.912H11.6453V28.7359H14.4691V25.912Z" fill="#4C39C4"/>
<path d="M17.2921 25.912H14.4683V28.7359H17.2921V25.912Z" fill="#A7ACE5"/>
<path d="M20.1161 25.912H17.2922V28.7359H20.1161V25.912Z" fill="#5D58F2"/>
<path d="M22.9398 25.912H20.116V28.7359H22.9398V25.912Z" fill="#5D58F2"/>
<path d="M25.7628 25.912H22.939V28.7359H25.7628V25.912Z" fill="#5D58F2"/>
<path d="M28.5866 25.912H25.7627V28.7359H28.5866V25.912Z" fill="#5D58F2"/>
<path d="M31.4105 25.912H28.5867V28.7359H31.4105V25.912Z" fill="#5D58F2"/>
<path d="M34.2333 25.912H31.4094V28.7359H34.2333V25.912Z" fill="#5D58F2"/>
<path d="M37.0573 25.912H34.2334V28.7359H37.0573V25.912Z" fill="#5D58F2"/>
<path d="M39.8812 25.912H37.0574V28.7359H39.8812V25.912Z" fill="#5D58F2"/>
<path d="M42.704 25.912H39.8801V28.7359H42.704V25.912Z" fill="#5D58F2"/>
<path d="M45.528 25.912H42.7041V28.7359H45.528V25.912Z" fill="#5D58F2"/>
<path d="M48.3517 25.912H45.5278V28.7359H48.3517V25.912Z" fill="#5D58F2"/>
<path d="M51.1747 25.912H48.3508V28.7359H51.1747V25.912Z" fill="#5D58F2"/>
<path d="M53.9987 25.912H51.1748V28.7359H53.9987V25.912Z" fill="#5D58F2"/>
<path d="M56.8224 25.912H53.9985V28.7359H56.8224V25.912Z" fill="#5D58F2"/>
<path d="M76.5866 25.912H73.7627V28.7359H76.5866V25.912Z" fill="#5D58F2"/>
<path d="M79.4105 25.912H76.5867V28.7359H79.4105V25.912Z" fill="#5D58F2"/>
<path d="M82.2345 25.912H79.4106V28.7359H82.2345V25.912Z" fill="#5D58F2"/>
<path d="M85.0573 25.912H82.2334V28.7359H85.0573V25.912Z" fill="#5D58F2"/>
<path d="M87.8812 25.912H85.0574V28.7359H87.8812V25.912Z" fill="#5D58F2"/>
<path d="M90.705 25.912H87.8811V28.7359H90.705V25.912Z" fill="#5D58F2"/>
<path d="M93.528 25.912H90.7041V28.7359H93.528V25.912Z" fill="#5D58F2"/>
<path d="M96.3517 25.912H93.5278V28.7359H96.3517V25.912Z" fill="#5D58F2"/>
<path d="M99.1757 25.912H96.3518V28.7359H99.1757V25.912Z" fill="#5D58F2"/>
<path d="M101.999 25.912H99.1748V28.7359H101.999V25.912Z" fill="#E3EAFA"/>
<path d="M104.822 25.912H101.999V28.7359H104.822V25.912Z" fill="#4C39C4"/>
<path d="M107.646 25.912H104.823V28.7359H107.646V25.912Z" fill="#4C39C4"/>
<path d="M110.469 25.912H107.645V28.7359H110.469V25.912Z" fill="#4C39C4"/>
<path d="M113.293 25.912H110.469V28.7359H113.293V25.912Z" fill="#4C39C4"/>
<path d="M116.117 25.912H113.293V28.7359H116.117V25.912Z" fill="#3B2D7D"/>
<path d="M3.17471 28.7358H0.35083V31.5597H3.17471V28.7358Z" fill="#3B2D7D"/>
<path d="M5.99868 28.7358H3.1748V31.5597H5.99868V28.7358Z" fill="#4C39C4"/>
<path d="M8.82143 28.7358H5.99756V31.5597H8.82143V28.7358Z" fill="#4C39C4"/>
<path d="M11.6454 28.7358H8.82153V31.5597H11.6454V28.7358Z" fill="#4C39C4"/>
<path d="M14.4691 28.7358H11.6453V31.5597H14.4691V28.7358Z" fill="#4C39C4"/>
<path d="M17.2921 28.7358H14.4683V31.5597H17.2921V28.7358Z" fill="#A7ACE5"/>
<path d="M20.1161 28.7358H17.2922V31.5597H20.1161V28.7358Z" fill="#5D58F2"/>
<path d="M22.9398 28.7358H20.116V31.5597H22.9398V28.7358Z" fill="#5D58F2"/>
<path d="M25.7628 28.7358H22.939V31.5597H25.7628V28.7358Z" fill="#5D58F2"/>
<path d="M28.5866 28.7358H25.7627V31.5597H28.5866V28.7358Z" fill="#5D58F2"/>
<path d="M31.4105 28.7358H28.5867V31.5597H31.4105V28.7358Z" fill="#5D58F2"/>
<path d="M34.2333 28.7358H31.4094V31.5597H34.2333V28.7358Z" fill="#5D58F2"/>
<path d="M37.0573 28.7358H34.2334V31.5597H37.0573V28.7358Z" fill="#5D58F2"/>
<path d="M39.8812 28.7358H37.0574V31.5597H39.8812V28.7358Z" fill="#5D58F2"/>
<path d="M42.704 28.7358H39.8801V31.5597H42.704V28.7358Z" fill="#5D58F2"/>
<path d="M45.528 28.7358H42.7041V31.5597H45.528V28.7358Z" fill="#5D58F2"/>
<path d="M48.3517 28.7358H45.5278V31.5597H48.3517V28.7358Z" fill="#5D58F2"/>
<path d="M51.1747 28.7358H48.3508V31.5597H51.1747V28.7358Z" fill="#5D58F2"/>
<path d="M53.9987 28.7358H51.1748V31.5597H53.9987V28.7358Z" fill="#5D58F2"/>
<path d="M56.8224 28.7358H53.9985V31.5597H56.8224V28.7358Z" fill="#5D58F2"/>
<path d="M76.5866 28.7358H73.7627V31.5597H76.5866V28.7358Z" fill="#5D58F2"/>
<path d="M79.4105 28.7358H76.5867V31.5597H79.4105V28.7358Z" fill="#5D58F2"/>
<path d="M82.2345 28.7358H79.4106V31.5597H82.2345V28.7358Z" fill="#5D58F2"/>
<path d="M85.0573 28.7358H82.2334V31.5597H85.0573V28.7358Z" fill="#5D58F2"/>
<path d="M87.8812 28.7358H85.0574V31.5597H87.8812V28.7358Z" fill="#5D58F2"/>
<path d="M90.705 28.7358H87.8811V31.5597H90.705V28.7358Z" fill="#5D58F2"/>
<path d="M93.528 28.7358H90.7041V31.5597H93.528V28.7358Z" fill="#5D58F2"/>
<path d="M96.3517 28.7358H93.5278V31.5597H96.3517V28.7358Z" fill="#5D58F2"/>
<path d="M99.1757 28.7358H96.3518V31.5597H99.1757V28.7358Z" fill="#5D58F2"/>
<path d="M101.999 28.7358H99.1748V31.5597H101.999V28.7358Z" fill="#E3EAFA"/>
<path d="M104.822 28.7358H101.999V31.5597H104.822V28.7358Z" fill="#4C39C4"/>
<path d="M107.646 28.7358H104.823V31.5597H107.646V28.7358Z" fill="#4C39C4"/>
<path d="M110.469 28.7358H107.645V31.5597H110.469V28.7358Z" fill="#4C39C4"/>
<path d="M113.293 28.7358H110.469V31.5597H113.293V28.7358Z" fill="#4C39C4"/>
<path d="M116.117 28.7358H113.293V31.5597H116.117V28.7358Z" fill="#3B2D7D"/>
<path d="M3.17471 31.5587H0.35083V34.3826H3.17471V31.5587Z" fill="#3B2D7D"/>
<path d="M5.99868 31.5587H3.1748V34.3826H5.99868V31.5587Z" fill="#4C39C4"/>
<path d="M8.82143 31.5587H5.99756V34.3826H8.82143V31.5587Z" fill="#4C39C4"/>
<path d="M11.6454 31.5587H8.82153V34.3826H11.6454V31.5587Z" fill="#4C39C4"/>
<path d="M14.4691 31.5587H11.6453V34.3826H14.4691V31.5587Z" fill="#4C39C4"/>
<path d="M17.2921 31.5587H14.4683V34.3826H17.2921V31.5587Z" fill="#3B2D7D"/>
<path d="M20.1161 31.5587H17.2922V34.3826H20.1161V31.5587Z" fill="#A7ACE5"/>
<path d="M22.9398 31.5587H20.116V34.3826H22.9398V31.5587Z" fill="#A7ACE5"/>
<path d="M25.7628 31.5587H22.939V34.3826H25.7628V31.5587Z" fill="#A7ACE5"/>
<path d="M28.5866 31.5587H25.7627V34.3826H28.5866V31.5587Z" fill="#A7ACE5"/>
<path d="M31.4105 31.5587H28.5867V34.3826H31.4105V31.5587Z" fill="#A7ACE5"/>
<path d="M34.2333 31.5587H31.4094V34.3826H34.2333V31.5587Z" fill="#A7ACE5"/>
<path d="M37.0573 31.5587H34.2334V34.3826H37.0573V31.5587Z" fill="#A7ACE5"/>
<path d="M39.8812 31.5587H37.0574V34.3826H39.8812V31.5587Z" fill="#A7ACE5"/>
<path d="M42.704 31.5587H39.8801V34.3826H42.704V31.5587Z" fill="#A7ACE5"/>
<path d="M45.528 31.5587H42.7041V34.3826H45.528V31.5587Z" fill="#A7ACE5"/>
<path d="M48.3517 31.5587H45.5278V34.3826H48.3517V31.5587Z" fill="#A7ACE5"/>
<path d="M51.1747 31.5587H48.3508V34.3826H51.1747V31.5587Z" fill="#A7ACE5"/>
<path d="M53.9987 31.5587H51.1748V34.3826H53.9987V31.5587Z" fill="#A7ACE5"/>
<path d="M56.8224 31.5587H53.9985V34.3826H56.8224V31.5587Z" fill="#A7ACE5"/>
<path d="M76.5866 31.5587H73.7627V34.3826H76.5866V31.5587Z" fill="#A7ACE5"/>
<path d="M79.4105 31.5587H76.5867V34.3826H79.4105V31.5587Z" fill="#A7ACE5"/>
<path d="M82.2345 31.5587H79.4106V34.3826H82.2345V31.5587Z" fill="#A7ACE5"/>
<path d="M85.0573 31.5587H82.2334V34.3826H85.0573V31.5587Z" fill="#A7ACE5"/>
<path d="M87.8812 31.5587H85.0574V34.3826H87.8812V31.5587Z" fill="#A7ACE5"/>
<path d="M90.705 31.5587H87.8811V34.3826H90.705V31.5587Z" fill="#A7ACE5"/>
<path d="M93.528 31.5587H90.7041V34.3826H93.528V31.5587Z" fill="#A7ACE5"/>
<path d="M96.3517 31.5587H93.5278V34.3826H96.3517V31.5587Z" fill="#E3EAFA"/>
<path d="M99.1757 31.5587H96.3518V34.3826H99.1757V31.5587Z" fill="#E3EAFA"/>
<path d="M101.999 31.5587H99.1748V34.3826H101.999V31.5587Z" fill="#3B2D7D"/>
<path d="M104.822 31.5587H101.999V34.3826H104.822V31.5587Z" fill="#4C39C4"/>
<path d="M107.646 31.5587H104.823V34.3826H107.646V31.5587Z" fill="#4C39C4"/>
<path d="M110.469 31.5587H107.645V34.3826H110.469V31.5587Z" fill="#4C39C4"/>
<path d="M113.293 31.5587H110.469V34.3826H113.293V31.5587Z" fill="#4C39C4"/>
<path d="M116.117 31.5587H113.293V34.3826H116.117V31.5587Z" fill="#3B2D7D"/>
<path d="M3.17471 34.3826H0.35083V37.2064H3.17471V34.3826Z" fill="#3B2D7D"/>
<path d="M5.99868 34.3826H3.1748V37.2064H5.99868V34.3826Z" fill="#4C39C4"/>
<path d="M8.82143 34.3826H5.99756V37.2064H8.82143V34.3826Z" fill="#4C39C4"/>
<path d="M11.6454 34.3826H8.82153V37.2064H11.6454V34.3826Z" fill="#4C39C4"/>
<path d="M14.4691 34.3826H11.6453V37.2064H14.4691V34.3826Z" fill="#3B2D7D"/>
<path d="M17.2921 34.3826H14.4683V37.2064H17.2921V34.3826Z" fill="#4C39C4"/>
<path d="M20.1161 34.3826H17.2922V37.2064H20.1161V34.3826Z" fill="#4C39C4"/>
<path d="M22.9398 34.3826H20.116V37.2064H22.9398V34.3826Z" fill="#4C39C4"/>
<path d="M25.7628 34.3826H22.939V37.2064H25.7628V34.3826Z" fill="#4C39C4"/>
<path d="M28.5866 34.3826H25.7627V37.2064H28.5866V34.3826Z" fill="#4C39C4"/>
<path d="M31.4105 34.3826H28.5867V37.2064H31.4105V34.3826Z" fill="#4C39C4"/>
<path d="M34.2333 34.3826H31.4094V37.2064H34.2333V34.3826Z" fill="#4C39C4"/>
<path d="M37.0573 34.3826H34.2334V37.2064H37.0573V34.3826Z" fill="#4C39C4"/>
<path d="M39.8812 34.3826H37.0574V37.2064H39.8812V34.3826Z" fill="#4C39C4"/>
<path d="M42.704 34.3826H39.8801V37.2064H42.704V34.3826Z" fill="#4C39C4"/>
<path d="M45.528 34.3826H42.7041V37.2064H45.528V34.3826Z" fill="#4C39C4"/>
<path d="M48.3517 34.3826H45.5278V37.2064H48.3517V34.3826Z" fill="#4C39C4"/>
<path d="M51.1747 34.3826H48.3508V37.2064H51.1747V34.3826Z" fill="#4C39C4"/>
<path d="M53.9987 34.3826H51.1748V37.2064H53.9987V34.3826Z" fill="#4C39C4"/>
<path d="M56.8224 34.3826H53.9985V37.2064H56.8224V34.3826Z" fill="#4C39C4"/>
<path d="M76.5866 34.3826H73.7627V37.2064H76.5866V34.3826Z" fill="#4C39C4"/>
<path d="M79.4105 34.3826H76.5867V37.2064H79.4105V34.3826Z" fill="#4C39C4"/>
<path d="M82.2345 34.3826H79.4106V37.2064H82.2345V34.3826Z" fill="#4C39C4"/>
<path d="M85.0573 34.3826H82.2334V37.2064H85.0573V34.3826Z" fill="#4C39C4"/>
<path d="M87.8812 34.3826H85.0574V37.2064H87.8812V34.3826Z" fill="#4C39C4"/>
<path d="M90.705 34.3826H87.8811V37.2064H90.705V34.3826Z" fill="#4C39C4"/>
<path d="M93.528 34.3826H90.7041V37.2064H93.528V34.3826Z" fill="#4C39C4"/>
<path d="M96.3517 34.3826H93.5278V37.2064H96.3517V34.3826Z" fill="#4C39C4"/>
<path d="M99.1757 34.3826H96.3518V37.2064H99.1757V34.3826Z" fill="#4C39C4"/>
<path d="M101.999 34.3826H99.1748V37.2064H101.999V34.3826Z" fill="#4C39C4"/>
<path d="M104.822 34.3826H101.999V37.2064H104.822V34.3826Z" fill="#3B2D7D"/>
<path d="M107.646 34.3826H104.823V37.2064H107.646V34.3826Z" fill="#4C39C4"/>
<path d="M110.469 34.3826H107.645V37.2064H110.469V34.3826Z" fill="#4C39C4"/>
<path d="M113.293 34.3826H110.469V37.2064H113.293V34.3826Z" fill="#4C39C4"/>
<path d="M116.117 34.3826H113.293V37.2064H116.117V34.3826Z" fill="#3B2D7D"/>
<path d="M3.17471 37.2064H0.35083V40.0303H3.17471V37.2064Z" fill="#3B2D7D"/>
<path d="M5.99868 37.2064H3.1748V40.0303H5.99868V37.2064Z" fill="#4C39C4"/>
<path d="M8.82143 37.2064H5.99756V40.0303H8.82143V37.2064Z" fill="#4C39C4"/>
<path d="M11.6454 37.2064H8.82153V40.0303H11.6454V37.2064Z" fill="#3B2D7D"/>
<path d="M14.4691 37.2064H11.6453V40.0303H14.4691V37.2064Z" fill="#4C39C4"/>
<path d="M17.2921 37.2064H14.4683V40.0303H17.2921V37.2064Z" fill="#4C39C4"/>
<path d="M20.1161 37.2064H17.2922V40.0303H20.1161V37.2064Z" fill="#4C39C4"/>
<path d="M22.9398 37.2064H20.116V40.0303H22.9398V37.2064Z" fill="#4C39C4"/>
<path d="M25.7628 37.2064H22.939V40.0303H25.7628V37.2064Z" fill="#4C39C4"/>
<path d="M28.5866 37.2064H25.7627V40.0303H28.5866V37.2064Z" fill="#4C39C4"/>
<path d="M31.4105 37.2064H28.5867V40.0303H31.4105V37.2064Z" fill="#4C39C4"/>
<path d="M34.2333 37.2064H31.4094V40.0303H34.2333V37.2064Z" fill="#4C39C4"/>
<path d="M37.0573 37.2064H34.2334V40.0303H37.0573V37.2064Z" fill="#4C39C4"/>
<path d="M39.8812 37.2064H37.0574V40.0303H39.8812V37.2064Z" fill="#4C39C4"/>
<path d="M42.704 37.2064H39.8801V40.0303H42.704V37.2064Z" fill="#4C39C4"/>
<path d="M45.528 37.2064H42.7041V40.0303H45.528V37.2064Z" fill="#4C39C4"/>
<path d="M48.3517 37.2064H45.5278V40.0303H48.3517V37.2064Z" fill="#4C39C4"/>
<path d="M51.1747 37.2064H48.3508V40.0303H51.1747V37.2064Z" fill="#4C39C4"/>
<path d="M53.9987 37.2064H51.1748V40.0303H53.9987V37.2064Z" fill="#4C39C4"/>
<path d="M56.8224 37.2064H53.9985V40.0303H56.8224V37.2064Z" fill="#4C39C4"/>
<path d="M76.5866 37.2064H73.7627V40.0303H76.5866V37.2064Z" fill="#4C39C4"/>
<path d="M79.4105 37.2064H76.5867V40.0303H79.4105V37.2064Z" fill="#4C39C4"/>
<path d="M82.2345 37.2064H79.4106V40.0303H82.2345V37.2064Z" fill="#4C39C4"/>
<path d="M85.0573 37.2064H82.2334V40.0303H85.0573V37.2064Z" fill="#4C39C4"/>
<path d="M87.8812 37.2064H85.0574V40.0303H87.8812V37.2064Z" fill="#4C39C4"/>
<path d="M90.705 37.2064H87.8811V40.0303H90.705V37.2064Z" fill="#4C39C4"/>
<path d="M93.528 37.2064H90.7041V40.0303H93.528V37.2064Z" fill="#4C39C4"/>
<path d="M96.3517 37.2064H93.5278V40.0303H96.3517V37.2064Z" fill="#4C39C4"/>
<path d="M99.1757 37.2064H96.3518V40.0303H99.1757V37.2064Z" fill="#4C39C4"/>
<path d="M101.999 37.2064H99.1748V40.0303H101.999V37.2064Z" fill="#4C39C4"/>
<path d="M104.822 37.2064H101.999V40.0303H104.822V37.2064Z" fill="#4C39C4"/>
<path d="M107.646 37.2064H104.823V40.0303H107.646V37.2064Z" fill="#3B2D7D"/>
<path d="M110.469 37.2064H107.645V40.0303H110.469V37.2064Z" fill="#4C39C4"/>
<path d="M113.293 37.2064H110.469V40.0303H113.293V37.2064Z" fill="#4C39C4"/>
<path d="M116.117 37.2064H113.293V40.0303H116.117V37.2064Z" fill="#3B2D7D"/>
<path d="M3.17471 40.0293H0.35083V42.8532H3.17471V40.0293Z" fill="#3B2D7D"/>
<path d="M5.99868 40.0293H3.1748V42.8532H5.99868V40.0293Z" fill="#4C39C4"/>
<path d="M8.82143 40.0293H5.99756V42.8532H8.82143V40.0293Z" fill="#3B2D7D"/>
<path d="M11.6454 40.0293H8.82153V42.8532H11.6454V40.0293Z" fill="#4C39C4"/>
<path d="M14.4691 40.0293H11.6453V42.8532H14.4691V40.0293Z" fill="#4C39C4"/>
<path d="M17.2921 40.0293H14.4683V42.8532H17.2921V40.0293Z" fill="#4C39C4"/>
<path d="M20.1161 40.0293H17.2922V42.8532H20.1161V40.0293Z" fill="#4C39C4"/>
<path d="M22.9398 40.0293H20.116V42.8532H22.9398V40.0293Z" fill="#4C39C4"/>
<path d="M25.7628 40.0293H22.939V42.8532H25.7628V40.0293Z" fill="#4C39C4"/>
<path d="M28.5866 40.0293H25.7627V42.8532H28.5866V40.0293Z" fill="#4C39C4"/>
<path d="M31.4105 40.0293H28.5867V42.8532H31.4105V40.0293Z" fill="#4C39C4"/>
<path d="M34.2333 40.0293H31.4094V42.8532H34.2333V40.0293Z" fill="#4C39C4"/>
<path d="M37.0573 40.0293H34.2334V42.8532H37.0573V40.0293Z" fill="#4C39C4"/>
<path d="M39.8812 40.0293H37.0574V42.8532H39.8812V40.0293Z" fill="#4C39C4"/>
<path d="M42.704 40.0293H39.8801V42.8532H42.704V40.0293Z" fill="#4C39C4"/>
<path d="M45.528 40.0293H42.7041V42.8532H45.528V40.0293Z" fill="#4C39C4"/>
<path d="M48.3517 40.0293H45.5278V42.8532H48.3517V40.0293Z" fill="#4C39C4"/>
<path d="M51.1747 40.0293H48.3508V42.8532H51.1747V40.0293Z" fill="#4C39C4"/>
<path d="M53.9987 40.0293H51.1748V42.8532H53.9987V40.0293Z" fill="#4C39C4"/>
<path d="M56.8224 40.0293H53.9985V42.8532H56.8224V40.0293Z" fill="#4C39C4"/>
<path d="M76.5866 40.0293H73.7627V42.8532H76.5866V40.0293Z" fill="#4C39C4"/>
<path d="M79.4105 40.0293H76.5867V42.8532H79.4105V40.0293Z" fill="#4C39C4"/>
<path d="M82.2345 40.0293H79.4106V42.8532H82.2345V40.0293Z" fill="#4C39C4"/>
<path d="M85.0573 40.0293H82.2334V42.8532H85.0573V40.0293Z" fill="#4C39C4"/>
<path d="M87.8812 40.0293H85.0574V42.8532H87.8812V40.0293Z" fill="#4C39C4"/>
<path d="M90.705 40.0293H87.8811V42.8532H90.705V40.0293Z" fill="#4C39C4"/>
<path d="M93.528 40.0293H90.7041V42.8532H93.528V40.0293Z" fill="#4C39C4"/>
<path d="M96.3517 40.0293H93.5278V42.8532H96.3517V40.0293Z" fill="#4C39C4"/>
<path d="M99.1757 40.0293H96.3518V42.8532H99.1757V40.0293Z" fill="#4C39C4"/>
<path d="M101.999 40.0293H99.1748V42.8532H101.999V40.0293Z" fill="#4C39C4"/>
<path d="M104.822 40.0293H101.999V42.8532H104.822V40.0293Z" fill="#4C39C4"/>
<path d="M107.646 40.0293H104.823V42.8532H107.646V40.0293Z" fill="#4C39C4"/>
<path d="M110.469 40.0293H107.645V42.8532H110.469V40.0293Z" fill="#3B2D7D"/>
<path d="M113.293 40.0293H110.469V42.8532H113.293V40.0293Z" fill="#4C39C4"/>
<path d="M116.117 40.0293H113.293V42.8532H116.117V40.0293Z" fill="#3B2D7D"/>
<path d="M5.99868 42.8533H3.1748V45.6771H5.99868V42.8533Z" fill="#3B2D7D"/>
<path d="M8.82143 42.8533H5.99756V45.6771H8.82143V42.8533Z" fill="#4C39C4"/>
<path d="M11.6454 42.8533H8.82153V45.6771H11.6454V42.8533Z" fill="#4C39C4"/>
<path d="M14.4691 42.8533H11.6453V45.6771H14.4691V42.8533Z" fill="#4C39C4"/>
<path d="M17.2921 42.8533H14.4683V45.6771H17.2921V42.8533Z" fill="#4C39C4"/>
<path d="M20.1161 42.8533H17.2922V45.6771H20.1161V42.8533Z" fill="#4C39C4"/>
<path d="M22.9398 42.8533H20.116V45.6771H22.9398V42.8533Z" fill="#4C39C4"/>
<path d="M25.7628 42.8533H22.939V45.6771H25.7628V42.8533Z" fill="#4C39C4"/>
<path d="M28.5866 42.8533H25.7627V45.6771H28.5866V42.8533Z" fill="#4C39C4"/>
<path d="M31.4105 42.8533H28.5867V45.6771H31.4105V42.8533Z" fill="#4C39C4"/>
<path d="M34.2333 42.8533H31.4094V45.6771H34.2333V42.8533Z" fill="#4C39C4"/>
<path d="M37.0573 42.8533H34.2334V45.6771H37.0573V42.8533Z" fill="#4C39C4"/>
<path d="M39.8812 42.8533H37.0574V45.6771H39.8812V42.8533Z" fill="#4C39C4"/>
<path d="M42.704 42.8533H39.8801V45.6771H42.704V42.8533Z" fill="#4C39C4"/>
<path d="M45.528 42.8533H42.7041V45.6771H45.528V42.8533Z" fill="#4C39C4"/>
<path d="M48.3517 42.8533H45.5278V45.6771H48.3517V42.8533Z" fill="#4C39C4"/>
<path d="M51.1747 42.8533H48.3508V45.6771H51.1747V42.8533Z" fill="#4C39C4"/>
<path d="M53.9987 42.8533H51.1748V45.6771H53.9987V42.8533Z" fill="#4C39C4"/>
<path d="M56.8224 42.8533H53.9985V45.6771H56.8224V42.8533Z" fill="#4C39C4"/>
<path d="M76.5866 42.8533H73.7627V45.6771H76.5866V42.8533Z" fill="#4C39C4"/>
<path d="M79.4105 42.8533H76.5867V45.6771H79.4105V42.8533Z" fill="#4C39C4"/>
<path d="M82.2345 42.8533H79.4106V45.6771H82.2345V42.8533Z" fill="#4C39C4"/>
<path d="M85.0573 42.8533H82.2334V45.6771H85.0573V42.8533Z" fill="#4C39C4"/>
<path d="M87.8812 42.8533H85.0574V45.6771H87.8812V42.8533Z" fill="#4C39C4"/>
<path d="M90.705 42.8533H87.8811V45.6771H90.705V42.8533Z" fill="#4C39C4"/>
<path d="M93.528 42.8533H90.7041V45.6771H93.528V42.8533Z" fill="#4C39C4"/>
<path d="M96.3517 42.8533H93.5278V45.6771H96.3517V42.8533Z" fill="#4C39C4"/>
<path d="M99.1757 42.8533H96.3518V45.6771H99.1757V42.8533Z" fill="#4C39C4"/>
<path d="M101.999 42.8533H99.1748V45.6771H101.999V42.8533Z" fill="#4C39C4"/>
<path d="M104.822 42.8533H101.999V45.6771H104.822V42.8533Z" fill="#4C39C4"/>
<path d="M107.646 42.8533H104.823V45.6771H107.646V42.8533Z" fill="#4C39C4"/>
<path d="M110.469 42.8533H107.645V45.6771H110.469V42.8533Z" fill="#4C39C4"/>
<path d="M113.293 42.8533H110.469V45.6771H113.293V42.8533Z" fill="#3B2D7D"/>
<path d="M8.82143 45.6771H5.99756V48.501H8.82143V45.6771Z" fill="#3B2D7D"/>
<path d="M11.6454 45.6771H8.82153V48.501H11.6454V45.6771Z" fill="#3B2D7D"/>
<path d="M14.4691 45.6771H11.6453V48.501H14.4691V45.6771Z" fill="#3B2D7D"/>
<path d="M17.2921 45.6771H14.4683V48.501H17.2921V45.6771Z" fill="#3B2D7D"/>
<path d="M20.1161 45.6771H17.2922V48.501H20.1161V45.6771Z" fill="#3B2D7D"/>
<path d="M22.9398 45.6771H20.116V48.501H22.9398V45.6771Z" fill="#3B2D7D"/>
<path d="M25.7628 45.6771H22.939V48.501H25.7628V45.6771Z" fill="#3B2D7D"/>
<path d="M28.5866 45.6771H25.7627V48.501H28.5866V45.6771Z" fill="#3B2D7D"/>
<path d="M31.4105 45.6771H28.5867V48.501H31.4105V45.6771Z" fill="#3B2D7D"/>
<path d="M34.2333 45.6771H31.4094V48.501H34.2333V45.6771Z" fill="#3B2D7D"/>
<path d="M37.0573 45.6771H34.2334V48.501H37.0573V45.6771Z" fill="#3B2D7D"/>
<path d="M39.8812 45.6771H37.0574V48.501H39.8812V45.6771Z" fill="#3B2D7D"/>
<path d="M42.704 45.6771H39.8801V48.501H42.704V45.6771Z" fill="#3B2D7D"/>
<path d="M45.528 45.6771H42.7041V48.501H45.528V45.6771Z" fill="#3B2D7D"/>
<path d="M48.3517 45.6771H45.5278V48.501H48.3517V45.6771Z" fill="#3B2D7D"/>
<path d="M51.1747 45.6771H48.3508V48.501H51.1747V45.6771Z" fill="#3B2D7D"/>
<path d="M53.9987 45.6771H51.1748V48.501H53.9987V45.6771Z" fill="#3B2D7D"/>
<path d="M56.8224 45.6771H53.9985V48.501H56.8224V45.6771Z" fill="#3B2D7D"/>
<path d="M59.6454 0.5H56.8215V3.32388H59.6454V0.5Z" fill="#3B2D7D"/>
<path d="M62.4691 0.5H59.6453V3.32388H62.4691V0.5Z" fill="#3B2D7D"/>
<path d="M65.2931 0.5H62.4692V3.32388H65.2931V0.5Z" fill="#3B2D7D"/>
<path d="M59.6454 3.32385H56.8215V6.14773H59.6454V3.32385Z" fill="#A7ACE5"/>
<path d="M62.4691 3.32385H59.6453V6.14773H62.4691V3.32385Z" fill="#A7ACE5"/>
<path d="M65.2931 3.32385H62.4692V6.14773H65.2931V3.32385Z" fill="#A7ACE5"/>
<path d="M59.6454 6.14673H56.8215V8.9706H59.6454V6.14673Z" fill="#5D58F2"/>
<path d="M62.4691 6.14673H59.6453V8.9706H62.4691V6.14673Z" fill="#5D58F2"/>
<path d="M65.2931 6.14673H62.4692V8.9706H65.2931V6.14673Z" fill="#5D58F2"/>
<path d="M59.6454 8.9707H56.8215V11.7946H59.6454V8.9707Z" fill="#5D58F2"/>
<path d="M62.4691 8.9707H59.6453V11.7946H62.4691V8.9707Z" fill="#5D58F2"/>
<path d="M65.2931 8.9707H62.4692V11.7946H65.2931V8.9707Z" fill="#5D58F2"/>
<path d="M59.6454 11.7946H56.8215V14.6184H59.6454V11.7946Z" fill="#5D58F2"/>
<path d="M62.4691 11.7946H59.6453V14.6184H62.4691V11.7946Z" fill="#5D58F2"/>
<path d="M65.2931 11.7946H62.4692V14.6184H65.2931V11.7946Z" fill="#5D58F2"/>
<path d="M59.6454 14.6174H56.8215V17.4413H59.6454V14.6174Z" fill="#5D58F2"/>
<path d="M62.4691 14.6174H59.6453V17.4413H62.4691V14.6174Z" fill="#5D58F2"/>
<path d="M65.2931 14.6174H62.4692V17.4413H65.2931V14.6174Z" fill="#5D58F2"/>
<path d="M59.6454 17.4413H56.8215V20.2652H59.6454V17.4413Z" fill="#5D58F2"/>
<path d="M62.4691 17.4413H59.6453V20.2652H62.4691V17.4413Z" fill="#5D58F2"/>
<path d="M65.2931 17.4413H62.4692V20.2652H65.2931V17.4413Z" fill="#5D58F2"/>
<path d="M59.6454 20.2651H56.8215V23.089H59.6454V20.2651Z" fill="#5D58F2"/>
<path d="M62.4691 20.2651H59.6453V23.089H62.4691V20.2651Z" fill="#5D58F2"/>
<path d="M65.2931 20.2651H62.4692V23.089H65.2931V20.2651Z" fill="#5D58F2"/>
<path d="M59.6454 23.088H56.8215V25.9119H59.6454V23.088Z" fill="#5D58F2"/>
<path d="M62.4691 23.088H59.6453V25.9119H62.4691V23.088Z" fill="#5D58F2"/>
<path d="M65.2931 23.088H62.4692V25.9119H65.2931V23.088Z" fill="#5D58F2"/>
<path d="M59.6454 25.912H56.8215V28.7359H59.6454V25.912Z" fill="#5D58F2"/>
<path d="M62.4691 25.912H59.6453V28.7359H62.4691V25.912Z" fill="#5D58F2"/>
<path d="M65.2931 25.912H62.4692V28.7359H65.2931V25.912Z" fill="#5D58F2"/>
<path d="M59.6454 28.7358H56.8215V31.5597H59.6454V28.7358Z" fill="#5D58F2"/>
<path d="M62.4691 28.7358H59.6453V31.5597H62.4691V28.7358Z" fill="#5D58F2"/>
<path d="M65.2931 28.7358H62.4692V31.5597H65.2931V28.7358Z" fill="#5D58F2"/>
<path d="M59.6454 31.5587H56.8215V34.3826H59.6454V31.5587Z" fill="#A7ACE5"/>
<path d="M62.4691 31.5587H59.6453V34.3826H62.4691V31.5587Z" fill="#A7ACE5"/>
<path d="M65.2931 31.5587H62.4692V34.3826H65.2931V31.5587Z" fill="#A7ACE5"/>
<path d="M59.6454 34.3826H56.8215V37.2064H59.6454V34.3826Z" fill="#4C39C4"/>
<path d="M62.4691 34.3826H59.6453V37.2064H62.4691V34.3826Z" fill="#4C39C4"/>
<path d="M65.2931 34.3826H62.4692V37.2064H65.2931V34.3826Z" fill="#4C39C4"/>
<path d="M59.6454 37.2064H56.8215V40.0303H59.6454V37.2064Z" fill="#4C39C4"/>
<path d="M62.4691 37.2064H59.6453V40.0303H62.4691V37.2064Z" fill="#4C39C4"/>
<path d="M65.2931 37.2064H62.4692V40.0303H65.2931V37.2064Z" fill="#4C39C4"/>
<path d="M59.6454 40.0293H56.8215V42.8532H59.6454V40.0293Z" fill="#4C39C4"/>
<path d="M62.4691 40.0293H59.6453V42.8532H62.4691V40.0293Z" fill="#4C39C4"/>
<path d="M65.2931 40.0293H62.4692V42.8532H65.2931V40.0293Z" fill="#4C39C4"/>
<path d="M59.6454 42.8533H56.8215V45.6771H59.6454V42.8533Z" fill="#4C39C4"/>
<path d="M62.4691 42.8533H59.6453V45.6771H62.4691V42.8533Z" fill="#4C39C4"/>
<path d="M65.2931 42.8533H62.4692V45.6771H65.2931V42.8533Z" fill="#4C39C4"/>
<path d="M59.6454 45.6771H56.8215V48.501H59.6454V45.6771Z" fill="#3B2D7D"/>
<path d="M62.4691 45.6771H59.6453V48.501H62.4691V45.6771Z" fill="#3B2D7D"/>
<path d="M65.2931 45.6771H62.4692V48.501H65.2931V45.6771Z" fill="#3B2D7D"/>
<path d="M68.1161 0.5H65.2922V3.32388H68.1161V0.5Z" fill="#3B2D7D"/>
<path d="M70.9398 0.5H68.116V3.32388H70.9398V0.5Z" fill="#3B2D7D"/>
<path d="M73.7638 0.5H70.9399V3.32388H73.7638V0.5Z" fill="#3B2D7D"/>
<path d="M68.1161 3.32385H65.2922V6.14773H68.1161V3.32385Z" fill="#A7ACE5"/>
<path d="M70.9398 3.32385H68.116V6.14773H70.9398V3.32385Z" fill="#A7ACE5"/>
<path d="M73.7638 3.32385H70.9399V6.14773H73.7638V3.32385Z" fill="#A7ACE5"/>
<path d="M68.1161 6.14673H65.2922V8.9706H68.1161V6.14673Z" fill="#5D58F2"/>
<path d="M70.9398 6.14673H68.116V8.9706H70.9398V6.14673Z" fill="#5D58F2"/>
<path d="M73.7638 6.14673H70.9399V8.9706H73.7638V6.14673Z" fill="#5D58F2"/>
<path d="M68.1161 8.9707H65.2922V11.7946H68.1161V8.9707Z" fill="#5D58F2"/>
<path d="M70.9398 8.9707H68.116V11.7946H70.9398V8.9707Z" fill="#5D58F2"/>
<path d="M73.7638 8.9707H70.9399V11.7946H73.7638V8.9707Z" fill="#5D58F2"/>
<path d="M68.1161 11.7946H65.2922V14.6184H68.1161V11.7946Z" fill="#5D58F2"/>
<path d="M70.9398 11.7946H68.116V14.6184H70.9398V11.7946Z" fill="#5D58F2"/>
<path d="M73.7638 11.7946H70.9399V14.6184H73.7638V11.7946Z" fill="#5D58F2"/>
<path d="M68.1161 14.6174H65.2922V17.4413H68.1161V14.6174Z" fill="#5D58F2"/>
<path d="M70.9398 14.6174H68.116V17.4413H70.9398V14.6174Z" fill="#5D58F2"/>
<path d="M73.7638 14.6174H70.9399V17.4413H73.7638V14.6174Z" fill="#5D58F2"/>
<path d="M68.1161 17.4413H65.2922V20.2652H68.1161V17.4413Z" fill="#5D58F2"/>
<path d="M70.9398 17.4413H68.116V20.2652H70.9398V17.4413Z" fill="#5D58F2"/>
<path d="M73.7638 17.4413H70.9399V20.2652H73.7638V17.4413Z" fill="#5D58F2"/>
<path d="M68.1161 20.2651H65.2922V23.089H68.1161V20.2651Z" fill="#5D58F2"/>
<path d="M70.9398 20.2651H68.116V23.089H70.9398V20.2651Z" fill="#5D58F2"/>
<path d="M73.7638 20.2651H70.9399V23.089H73.7638V20.2651Z" fill="#5D58F2"/>
<path d="M68.1161 23.088H65.2922V25.9119H68.1161V23.088Z" fill="#5D58F2"/>
<path d="M70.9398 23.088H68.116V25.9119H70.9398V23.088Z" fill="#5D58F2"/>
<path d="M73.7638 23.088H70.9399V25.9119H73.7638V23.088Z" fill="#5D58F2"/>
<path d="M68.1161 25.912H65.2922V28.7359H68.1161V25.912Z" fill="#5D58F2"/>
<path d="M70.9398 25.912H68.116V28.7359H70.9398V25.912Z" fill="#5D58F2"/>
<path d="M73.7638 25.912H70.9399V28.7359H73.7638V25.912Z" fill="#5D58F2"/>
<path d="M68.1161 28.7358H65.2922V31.5597H68.1161V28.7358Z" fill="#5D58F2"/>
<path d="M70.9398 28.7358H68.116V31.5597H70.9398V28.7358Z" fill="#5D58F2"/>
<path d="M73.7638 28.7358H70.9399V31.5597H73.7638V28.7358Z" fill="#5D58F2"/>
<path d="M68.1161 31.5587H65.2922V34.3826H68.1161V31.5587Z" fill="#A7ACE5"/>
<path d="M70.9398 31.5587H68.116V34.3826H70.9398V31.5587Z" fill="#A7ACE5"/>
<path d="M73.7638 31.5587H70.9399V34.3826H73.7638V31.5587Z" fill="#A7ACE5"/>
<path d="M68.1161 34.3826H65.2922V37.2064H68.1161V34.3826Z" fill="#4C39C4"/>
<path d="M70.9398 34.3826H68.116V37.2064H70.9398V34.3826Z" fill="#4C39C4"/>
<path d="M73.7638 34.3826H70.9399V37.2064H73.7638V34.3826Z" fill="#4C39C4"/>
<path d="M68.1161 37.2064H65.2922V40.0303H68.1161V37.2064Z" fill="#4C39C4"/>
<path d="M70.9398 37.2064H68.116V40.0303H70.9398V37.2064Z" fill="#4C39C4"/>
<path d="M73.7638 37.2064H70.9399V40.0303H73.7638V37.2064Z" fill="#4C39C4"/>
<path d="M68.1161 40.0293H65.2922V42.8532H68.1161V40.0293Z" fill="#4C39C4"/>
<path d="M70.9398 40.0293H68.116V42.8532H70.9398V40.0293Z" fill="#4C39C4"/>
<path d="M73.7638 40.0293H70.9399V42.8532H73.7638V40.0293Z" fill="#4C39C4"/>
<path d="M68.1161 42.8533H65.2922V45.6771H68.1161V42.8533Z" fill="#4C39C4"/>
<path d="M70.9398 42.8533H68.116V45.6771H70.9398V42.8533Z" fill="#4C39C4"/>
<path d="M73.7638 42.8533H70.9399V45.6771H73.7638V42.8533Z" fill="#4C39C4"/>
<path d="M68.1161 45.6771H65.2922V48.501H68.1161V45.6771Z" fill="#3B2D7D"/>
<path d="M70.9398 45.6771H68.116V48.501H70.9398V45.6771Z" fill="#3B2D7D"/>
<path d="M73.7638 45.6771H70.9399V48.501H73.7638V45.6771Z" fill="#3B2D7D"/>
<path d="M76.5866 45.6771H73.7627V48.501H76.5866V45.6771Z" fill="#3B2D7D"/>
<path d="M79.4105 45.6771H76.5867V48.501H79.4105V45.6771Z" fill="#3B2D7D"/>
<path d="M82.2345 45.6771H79.4106V48.501H82.2345V45.6771Z" fill="#3B2D7D"/>
<path d="M85.0573 45.6771H82.2334V48.501H85.0573V45.6771Z" fill="#3B2D7D"/>
<path d="M87.8812 45.6771H85.0574V48.501H87.8812V45.6771Z" fill="#3B2D7D"/>
<path d="M90.705 45.6771H87.8811V48.501H90.705V45.6771Z" fill="#3B2D7D"/>
<path d="M93.528 45.6771H90.7041V48.501H93.528V45.6771Z" fill="#3B2D7D"/>
<path d="M96.3517 45.6771H93.5278V48.501H96.3517V45.6771Z" fill="#3B2D7D"/>
<path d="M99.1757 45.6771H96.3518V48.501H99.1757V45.6771Z" fill="#3B2D7D"/>
<path d="M101.999 45.6771H99.1748V48.501H101.999V45.6771Z" fill="#3B2D7D"/>
<path d="M104.822 45.6771H101.999V48.501H104.822V45.6771Z" fill="#3B2D7D"/>
<path d="M107.646 45.6771H104.823V48.501H107.646V45.6771Z" fill="#3B2D7D"/>
<path d="M110.469 45.6771H107.645V48.501H110.469V45.6771Z" fill="#3B2D7D"/>
<path d="M31.8163 25.8973H24.0847V11.722H33.1052V13.011H34.3942V24.6093H33.1052V25.8983H31.8163V25.8973ZM30.5274 23.3204H31.8163V14.2999H26.6616V23.3204H30.5274Z" fill="#FAF3D4"/>
<path d="M38.2589 14.2989H36.97V11.722H39.5468V14.2989H38.2579H38.2589ZM38.2589 25.8973H36.97V15.5878H39.5468V25.8973H38.2579H38.2589Z" fill="#FAF3D4"/>
<path d="M47.2795 25.8973H42.1248V23.3205H47.2795V22.0315H43.4137V20.7426H42.1248V16.8768H43.4137V15.5879H49.8573V18.1648H44.7026V19.4537H48.5684V20.7426H49.8573V24.6084H48.5684V25.8973H47.2795Z" fill="#FAF3D4"/>
<path d="M57.5891 25.8973H53.7233V24.6084H52.4343V16.8768H53.7233V15.5879H58.878V16.8768H60.1669V19.4537H57.59V18.1648H55.0132V23.3195H57.59V22.0306H60.1669V24.6074H58.878V25.8964H57.5891V25.8973Z" fill="#FAF3D4"/>
<path d="M67.8984 25.8973H64.0326V24.6084H62.7437V16.8768H64.0326V15.5879H69.1873V16.8768H70.4762V24.6084H69.1873V25.8973H67.8984ZM66.6095 23.3205H67.8984V18.1657H65.3215V23.3205H66.6104H66.6095Z" fill="#FAF3D4"/>
<path d="M74.3422 25.8973H73.0532V15.5879H79.4969V16.8768H80.7858V19.4537H78.2089V18.1648H75.6321V25.8964H74.3431L74.3422 25.8973Z" fill="#FAF3D4"/>
<path d="M91.0951 25.8973H89.8062V24.6084H88.5173V25.8973H84.6515V24.6084H83.3625V16.8768H84.6515V15.5878H88.5173V16.8768H89.8062V11.722H92.3831V25.8973H91.0941H91.0951ZM87.2293 23.3204H88.5183V22.0315H89.8072V19.4546H88.5183V18.1657H85.9414V23.3204H87.2303H87.2293Z" fill="#FAF3D4"/>
</g>
<defs>
<clipPath id="clip0_13324_13120">
<rect width="115.765" height="48" fill="white" transform="translate(0.35083 0.5)"/>
</clipPath>
</defs>
</svg>
