<svg width="148" height="48" viewBox="0 0 148 48" fill="none" xmlns="http://www.w3.org/2000/svg">
<g clip-path="url(#clip0_13294_8968)">
<path d="M8.8229 0H5.99902V2.82388H8.8229V0Z" fill="#243840"/>
<path d="M11.6471 0H8.82324V2.82388H11.6471V0Z" fill="#243840"/>
<path d="M14.4713 0H11.6475V2.82388H14.4713V0Z" fill="#243840"/>
<path d="M17.2936 0H14.4697V2.82388H17.2936V0Z" fill="#243840"/>
<path d="M20.1178 0H17.2939V2.82388H20.1178V0Z" fill="#243840"/>
<path d="M22.942 0H20.1182V2.82388H22.942V0Z" fill="#243840"/>
<path d="M25.7643 0H22.9404V2.82388H25.7643V0Z" fill="#243840"/>
<path d="M28.5885 0H25.7646V2.82388H28.5885V0Z" fill="#243840"/>
<path d="M31.4118 0H28.5879V2.82388H31.4118V0Z" fill="#243840"/>
<path d="M34.235 0H31.4111V2.82388H34.235V0Z" fill="#243840"/>
<path d="M37.0592 0H34.2354V2.82388H37.0592V0Z" fill="#243840"/>
<path d="M39.8825 0H37.0586V2.82388H39.8825V0Z" fill="#243840"/>
<path d="M42.7057 0H39.8818V2.82388H42.7057V0Z" fill="#243840"/>
<path d="M45.5299 0H42.7061V2.82388H45.5299V0Z" fill="#243840"/>
<path d="M48.3532 0H45.5293V2.82388H48.3532V0Z" fill="#243840"/>
<path d="M51.1764 0H48.3525V2.82388H51.1764V0Z" fill="#243840"/>
<path d="M54.0006 0H51.1768V2.82388H54.0006V0Z" fill="#243840"/>
<path d="M56.8239 0H54V2.82388H56.8239V0Z" fill="#243840"/>
<path d="M59.6471 0H56.8232V2.82388H59.6471V0Z" fill="#243840"/>
<path d="M62.4713 0H59.6475V2.82388H62.4713V0Z" fill="#243840"/>
<path d="M65.2946 0H62.4707V2.82388H65.2946V0Z" fill="#243840"/>
<path d="M68.1178 0H65.2939V2.82388H68.1178V0Z" fill="#243840"/>
<path d="M70.942 0H68.1182V2.82388H70.942V0Z" fill="#243840"/>
<path d="M73.7653 0H70.9414V2.82388H73.7653V0Z" fill="#243840"/>
<path d="M76.5885 0H73.7646V2.82388H76.5885V0Z" fill="#243840"/>
<path d="M79.4118 0H76.5879V2.82388H79.4118V0Z" fill="#243840"/>
<path d="M82.236 0H79.4121V2.82388H82.236V0Z" fill="#243840"/>
<path d="M85.0592 0H82.2354V2.82388H85.0592V0Z" fill="#243840"/>
<path d="M87.8825 0H85.0586V2.82388H87.8825V0Z" fill="#243840"/>
<path d="M90.7067 0H87.8828V2.82388H90.7067V0Z" fill="#243840"/>
<path d="M93.5299 0H90.7061V2.82388H93.5299V0Z" fill="#243840"/>
<path d="M96.3532 0H93.5293V2.82388H96.3532V0Z" fill="#243840"/>
<path d="M99.1774 0H96.3535V2.82388H99.1774V0Z" fill="#243840"/>
<path d="M102.001 0H99.1768V2.82388H102.001V0Z" fill="#243840"/>
<path d="M104.824 0H102V2.82388H104.824V0Z" fill="#243840"/>
<path d="M107.648 0H104.824V2.82388H107.648V0Z" fill="#243840"/>
<path d="M118.942 0H116.118V2.82388H118.942V0Z" fill="#243840"/>
<path d="M121.765 0H118.941V2.82388H121.765V0Z" fill="#243840"/>
<path d="M124.59 0H121.766V2.82388H124.59V0Z" fill="#243840"/>
<path d="M127.412 0H124.588V2.82388H127.412V0Z" fill="#243840"/>
<path d="M130.236 0H127.412V2.82388H130.236V0Z" fill="#243840"/>
<path d="M133.06 0H130.236V2.82388H133.06V0Z" fill="#243840"/>
<path d="M135.882 0H133.059V2.82388H135.882V0Z" fill="#243840"/>
<path d="M138.707 0H135.883V2.82388H138.707V0Z" fill="#243840"/>
<path d="M141.531 0H138.707V2.82388H141.531V0Z" fill="#243840"/>
<path d="M6.00063 2.82385H3.17676V5.64773H6.00063V2.82385Z" fill="#243840"/>
<path d="M8.8229 2.82385H5.99902V5.64773H8.8229V2.82385Z" fill="#3F646E"/>
<path d="M11.6471 2.82385H8.82324V5.64773H11.6471V2.82385Z" fill="#3F646E"/>
<path d="M14.4713 2.82385H11.6475V5.64773H14.4713V2.82385Z" fill="#3F646E"/>
<path d="M17.2936 2.82385H14.4697V5.64773H17.2936V2.82385Z" fill="#3F646E"/>
<path d="M20.1178 2.82385H17.2939V5.64773H20.1178V2.82385Z" fill="#FAF1D4"/>
<path d="M22.942 2.82385H20.1182V5.64773H22.942V2.82385Z" fill="#FAF1D4"/>
<path d="M25.7643 2.82385H22.9404V5.64773H25.7643V2.82385Z" fill="#D6E162"/>
<path d="M28.5885 2.82385H25.7646V5.64773H28.5885V2.82385Z" fill="#D6E162"/>
<path d="M31.4118 2.82385H28.5879V5.64773H31.4118V2.82385Z" fill="#D6E162"/>
<path d="M34.235 2.82385H31.4111V5.64773H34.235V2.82385Z" fill="#D6E162"/>
<path d="M37.0592 2.82385H34.2354V5.64773H37.0592V2.82385Z" fill="#D6E162"/>
<path d="M39.8825 2.82385H37.0586V5.64773H39.8825V2.82385Z" fill="#D6E162"/>
<path d="M42.7057 2.82385H39.8818V5.64773H42.7057V2.82385Z" fill="#D6E162"/>
<path d="M45.5299 2.82385H42.7061V5.64773H45.5299V2.82385Z" fill="#D6E162"/>
<path d="M48.3532 2.82385H45.5293V5.64773H48.3532V2.82385Z" fill="#D6E162"/>
<path d="M51.1764 2.82385H48.3525V5.64773H51.1764V2.82385Z" fill="#D6E162"/>
<path d="M54.0006 2.82385H51.1768V5.64773H54.0006V2.82385Z" fill="#D6E162"/>
<path d="M56.8239 2.82385H54V5.64773H56.8239V2.82385Z" fill="#D6E162"/>
<path d="M59.6471 2.82385H56.8232V5.64773H59.6471V2.82385Z" fill="#D6E162"/>
<path d="M62.4713 2.82385H59.6475V5.64773H62.4713V2.82385Z" fill="#D6E162"/>
<path d="M65.2946 2.82385H62.4707V5.64773H65.2946V2.82385Z" fill="#D6E162"/>
<path d="M68.1178 2.82385H65.2939V5.64773H68.1178V2.82385Z" fill="#D6E162"/>
<path d="M70.942 2.82385H68.1182V5.64773H70.942V2.82385Z" fill="#D6E162"/>
<path d="M73.7653 2.82385H70.9414V5.64773H73.7653V2.82385Z" fill="#D6E162"/>
<path d="M76.5885 2.82385H73.7646V5.64773H76.5885V2.82385Z" fill="#D6E162"/>
<path d="M79.4118 2.82385H76.5879V5.64773H79.4118V2.82385Z" fill="#D6E162"/>
<path d="M82.236 2.82385H79.4121V5.64773H82.236V2.82385Z" fill="#D6E162"/>
<path d="M85.0592 2.82385H82.2354V5.64773H85.0592V2.82385Z" fill="#D6E162"/>
<path d="M87.8825 2.82385H85.0586V5.64773H87.8825V2.82385Z" fill="#D6E162"/>
<path d="M90.7067 2.82385H87.8828V5.64773H90.7067V2.82385Z" fill="#D6E162"/>
<path d="M93.5299 2.82385H90.7061V5.64773H93.5299V2.82385Z" fill="#D6E162"/>
<path d="M96.3532 2.82385H93.5293V5.64773H96.3532V2.82385Z" fill="#D6E162"/>
<path d="M99.1774 2.82385H96.3535V5.64773H99.1774V2.82385Z" fill="#D6E162"/>
<path d="M102.001 2.82385H99.1768V5.64773H102.001V2.82385Z" fill="#D6E162"/>
<path d="M104.824 2.82385H102V5.64773H104.824V2.82385Z" fill="#D6E162"/>
<path d="M107.648 2.82385H104.824V5.64773H107.648V2.82385Z" fill="#D6E162"/>
<path d="M118.942 2.82385H116.118V5.64773H118.942V2.82385Z" fill="#D6E162"/>
<path d="M121.765 2.82385H118.941V5.64773H121.765V2.82385Z" fill="#D6E162"/>
<path d="M124.59 2.82385H121.766V5.64773H124.59V2.82385Z" fill="#D6E162"/>
<path d="M127.412 2.82385H124.588V5.64773H127.412V2.82385Z" fill="#D6E162"/>
<path d="M130.236 2.82385H127.412V5.64773H130.236V2.82385Z" fill="#D6E162"/>
<path d="M133.06 2.82385H130.236V5.64773H133.06V2.82385Z" fill="#3F646E"/>
<path d="M135.882 2.82385H133.059V5.64773H135.882V2.82385Z" fill="#3F646E"/>
<path d="M138.707 2.82385H135.883V5.64773H138.707V2.82385Z" fill="#3F646E"/>
<path d="M141.531 2.82385H138.707V5.64773H141.531V2.82385Z" fill="#3F646E"/>
<path d="M144.353 2.82385H141.529V5.64773H144.353V2.82385Z" fill="#243840"/>
<path d="M3.17641 5.64679H0.352539V8.47066H3.17641V5.64679Z" fill="#243840"/>
<path d="M6.00063 5.64679H3.17676V8.47066H6.00063V5.64679Z" fill="#3F646E"/>
<path d="M8.8229 5.64679H5.99902V8.47066H8.8229V5.64679Z" fill="#3F646E"/>
<path d="M11.6471 5.64679H8.82324V8.47066H11.6471V5.64679Z" fill="#3F646E"/>
<path d="M14.4713 5.64679H11.6475V8.47066H14.4713V5.64679Z" fill="#3F646E"/>
<path d="M17.2936 5.64679H14.4697V8.47066H17.2936V5.64679Z" fill="#FAF1D4"/>
<path d="M20.1178 5.64679H17.2939V8.47066H20.1178V5.64679Z" fill="#6BB37C"/>
<path d="M22.942 5.64679H20.1182V8.47066H22.942V5.64679Z" fill="#6BB37C"/>
<path d="M25.7643 5.64679H22.9404V8.47066H25.7643V5.64679Z" fill="#6BB37C"/>
<path d="M28.5885 5.64679H25.7646V8.47066H28.5885V5.64679Z" fill="#6BB37C"/>
<path d="M31.4118 5.64679H28.5879V8.47066H31.4118V5.64679Z" fill="#6BB37C"/>
<path d="M34.235 5.64679H31.4111V8.47066H34.235V5.64679Z" fill="#6BB37C"/>
<path d="M37.0592 5.64679H34.2354V8.47066H37.0592V5.64679Z" fill="#6BB37C"/>
<path d="M39.8825 5.64679H37.0586V8.47066H39.8825V5.64679Z" fill="#6BB37C"/>
<path d="M42.7057 5.64679H39.8818V8.47066H42.7057V5.64679Z" fill="#6BB37C"/>
<path d="M45.5299 5.64679H42.7061V8.47066H45.5299V5.64679Z" fill="#6BB37C"/>
<path d="M48.3532 5.64679H45.5293V8.47066H48.3532V5.64679Z" fill="#6BB37C"/>
<path d="M51.1764 5.64679H48.3525V8.47066H51.1764V5.64679Z" fill="#6BB37C"/>
<path d="M54.0006 5.64679H51.1768V8.47066H54.0006V5.64679Z" fill="#6BB37C"/>
<path d="M56.8239 5.64679H54V8.47066H56.8239V5.64679Z" fill="#6BB37C"/>
<path d="M59.6471 5.64679H56.8232V8.47066H59.6471V5.64679Z" fill="#6BB37C"/>
<path d="M62.4713 5.64679H59.6475V8.47066H62.4713V5.64679Z" fill="#6BB37C"/>
<path d="M65.2946 5.64679H62.4707V8.47066H65.2946V5.64679Z" fill="#6BB37C"/>
<path d="M68.1178 5.64679H65.2939V8.47066H68.1178V5.64679Z" fill="#6BB37C"/>
<path d="M70.942 5.64679H68.1182V8.47066H70.942V5.64679Z" fill="#6BB37C"/>
<path d="M73.7653 5.64679H70.9414V8.47066H73.7653V5.64679Z" fill="#6BB37C"/>
<path d="M76.5885 5.64679H73.7646V8.47066H76.5885V5.64679Z" fill="#6BB37C"/>
<path d="M79.4118 5.64679H76.5879V8.47066H79.4118V5.64679Z" fill="#6BB37C"/>
<path d="M82.236 5.64679H79.4121V8.47066H82.236V5.64679Z" fill="#6BB37C"/>
<path d="M85.0592 5.64679H82.2354V8.47066H85.0592V5.64679Z" fill="#6BB37C"/>
<path d="M87.8825 5.64679H85.0586V8.47066H87.8825V5.64679Z" fill="#6BB37C"/>
<path d="M90.7067 5.64679H87.8828V8.47066H90.7067V5.64679Z" fill="#6BB37C"/>
<path d="M93.5299 5.64679H90.7061V8.47066H93.5299V5.64679Z" fill="#6BB37C"/>
<path d="M96.3532 5.64679H93.5293V8.47066H96.3532V5.64679Z" fill="#6BB37C"/>
<path d="M99.1774 5.64679H96.3535V8.47066H99.1774V5.64679Z" fill="#6BB37C"/>
<path d="M102.001 5.64679H99.1768V8.47066H102.001V5.64679Z" fill="#6BB37C"/>
<path d="M104.824 5.64679H102V8.47066H104.824V5.64679Z" fill="#6BB37C"/>
<path d="M107.648 5.64679H104.824V8.47066H107.648V5.64679Z" fill="#6BB37C"/>
<path d="M118.942 5.64679H116.118V8.47066H118.942V5.64679Z" fill="#6BB37C"/>
<path d="M121.765 5.64679H118.941V8.47066H121.765V5.64679Z" fill="#6BB37C"/>
<path d="M124.59 5.64679H121.766V8.47066H124.59V5.64679Z" fill="#6BB37C"/>
<path d="M127.412 5.64679H124.588V8.47066H127.412V5.64679Z" fill="#6BB37C"/>
<path d="M130.236 5.64679H127.412V8.47066H130.236V5.64679Z" fill="#6BB37C"/>
<path d="M133.06 5.64679H130.236V8.47066H133.06V5.64679Z" fill="#D6E162"/>
<path d="M135.882 5.64679H133.059V8.47066H135.882V5.64679Z" fill="#3F646E"/>
<path d="M138.707 5.64679H135.883V8.47066H138.707V5.64679Z" fill="#3F646E"/>
<path d="M141.531 5.64679H138.707V8.47066H141.531V5.64679Z" fill="#3F646E"/>
<path d="M144.353 5.64679H141.529V8.47066H144.353V5.64679Z" fill="#3F646E"/>
<path d="M147.177 5.64679H144.354V8.47066H147.177V5.64679Z" fill="#243840"/>
<path d="M3.17641 8.47064H0.352539V11.2945H3.17641V8.47064Z" fill="#243840"/>
<path d="M6.00063 8.47064H3.17676V11.2945H6.00063V8.47064Z" fill="#3F646E"/>
<path d="M8.8229 8.47064H5.99902V11.2945H8.8229V8.47064Z" fill="#3F646E"/>
<path d="M11.6471 8.47064H8.82324V11.2945H11.6471V8.47064Z" fill="#3F646E"/>
<path d="M14.4713 8.47064H11.6475V11.2945H14.4713V8.47064Z" fill="#3F646E"/>
<path d="M17.2936 8.47064H14.4697V11.2945H17.2936V8.47064Z" fill="#FAF1D4"/>
<path d="M20.1178 8.47064H17.2939V11.2945H20.1178V8.47064Z" fill="#6BB37C"/>
<path d="M22.942 8.47064H20.1182V11.2945H22.942V8.47064Z" fill="#6BB37C"/>
<path d="M25.7643 8.47064H22.9404V11.2945H25.7643V8.47064Z" fill="#6BB37C"/>
<path d="M28.5885 8.47064H25.7646V11.2945H28.5885V8.47064Z" fill="#6BB37C"/>
<path d="M31.4118 8.47064H28.5879V11.2945H31.4118V8.47064Z" fill="#6BB37C"/>
<path d="M34.235 8.47064H31.4111V11.2945H34.235V8.47064Z" fill="#6BB37C"/>
<path d="M37.0592 8.47064H34.2354V11.2945H37.0592V8.47064Z" fill="#6BB37C"/>
<path d="M39.8825 8.47064H37.0586V11.2945H39.8825V8.47064Z" fill="#6BB37C"/>
<path d="M42.7057 8.47064H39.8818V11.2945H42.7057V8.47064Z" fill="#6BB37C"/>
<path d="M45.5299 8.47064H42.7061V11.2945H45.5299V8.47064Z" fill="#6BB37C"/>
<path d="M48.3532 8.47064H45.5293V11.2945H48.3532V8.47064Z" fill="#6BB37C"/>
<path d="M51.1764 8.47064H48.3525V11.2945H51.1764V8.47064Z" fill="#6BB37C"/>
<path d="M54.0006 8.47064H51.1768V11.2945H54.0006V8.47064Z" fill="#6BB37C"/>
<path d="M56.8239 8.47064H54V11.2945H56.8239V8.47064Z" fill="#6BB37C"/>
<path d="M59.6471 8.47064H56.8232V11.2945H59.6471V8.47064Z" fill="#6BB37C"/>
<path d="M62.4713 8.47064H59.6475V11.2945H62.4713V8.47064Z" fill="#6BB37C"/>
<path d="M65.2946 8.47064H62.4707V11.2945H65.2946V8.47064Z" fill="#6BB37C"/>
<path d="M68.1178 8.47064H65.2939V11.2945H68.1178V8.47064Z" fill="#6BB37C"/>
<path d="M70.942 8.47064H68.1182V11.2945H70.942V8.47064Z" fill="#6BB37C"/>
<path d="M73.7653 8.47064H70.9414V11.2945H73.7653V8.47064Z" fill="#6BB37C"/>
<path d="M76.5885 8.47064H73.7646V11.2945H76.5885V8.47064Z" fill="#6BB37C"/>
<path d="M79.4118 8.47064H76.5879V11.2945H79.4118V8.47064Z" fill="#6BB37C"/>
<path d="M82.236 8.47064H79.4121V11.2945H82.236V8.47064Z" fill="#6BB37C"/>
<path d="M85.0592 8.47064H82.2354V11.2945H85.0592V8.47064Z" fill="#6BB37C"/>
<path d="M87.8825 8.47064H85.0586V11.2945H87.8825V8.47064Z" fill="#6BB37C"/>
<path d="M90.7067 8.47064H87.8828V11.2945H90.7067V8.47064Z" fill="#6BB37C"/>
<path d="M93.5299 8.47064H90.7061V11.2945H93.5299V8.47064Z" fill="#6BB37C"/>
<path d="M96.3532 8.47064H93.5293V11.2945H96.3532V8.47064Z" fill="#6BB37C"/>
<path d="M99.1774 8.47064H96.3535V11.2945H99.1774V8.47064Z" fill="#6BB37C"/>
<path d="M102.001 8.47064H99.1768V11.2945H102.001V8.47064Z" fill="#6BB37C"/>
<path d="M104.824 8.47064H102V11.2945H104.824V8.47064Z" fill="#6BB37C"/>
<path d="M107.648 8.47064H104.824V11.2945H107.648V8.47064Z" fill="#6BB37C"/>
<path d="M118.942 8.47064H116.118V11.2945H118.942V8.47064Z" fill="#6BB37C"/>
<path d="M121.765 8.47064H118.941V11.2945H121.765V8.47064Z" fill="#6BB37C"/>
<path d="M124.59 8.47064H121.766V11.2945H124.59V8.47064Z" fill="#6BB37C"/>
<path d="M127.412 8.47064H124.588V11.2945H127.412V8.47064Z" fill="#6BB37C"/>
<path d="M130.236 8.47064H127.412V11.2945H130.236V8.47064Z" fill="#6BB37C"/>
<path d="M133.06 8.47064H130.236V11.2945H133.06V8.47064Z" fill="#D6E162"/>
<path d="M135.882 8.47064H133.059V11.2945H135.882V8.47064Z" fill="#3F646E"/>
<path d="M138.707 8.47064H135.883V11.2945H138.707V8.47064Z" fill="#3F646E"/>
<path d="M141.531 8.47064H138.707V11.2945H141.531V8.47064Z" fill="#3F646E"/>
<path d="M144.353 8.47064H141.529V11.2945H144.353V8.47064Z" fill="#3F646E"/>
<path d="M147.177 8.47064H144.354V11.2945H147.177V8.47064Z" fill="#243840"/>
<path d="M3.17641 11.2945H0.352539V14.1184H3.17641V11.2945Z" fill="#243840"/>
<path d="M6.00063 11.2945H3.17676V14.1184H6.00063V11.2945Z" fill="#3F646E"/>
<path d="M8.8229 11.2945H5.99902V14.1184H8.8229V11.2945Z" fill="#3F646E"/>
<path d="M11.6471 11.2945H8.82324V14.1184H11.6471V11.2945Z" fill="#3F646E"/>
<path d="M14.4713 11.2945H11.6475V14.1184H14.4713V11.2945Z" fill="#3F646E"/>
<path d="M17.2936 11.2945H14.4697V14.1184H17.2936V11.2945Z" fill="#D6E162"/>
<path d="M20.1178 11.2945H17.2939V14.1184H20.1178V11.2945Z" fill="#6BB37C"/>
<path d="M22.942 11.2945H20.1182V14.1184H22.942V11.2945Z" fill="#6BB37C"/>
<path d="M25.7643 11.2945H22.9404V14.1184H25.7643V11.2945Z" fill="#6BB37C"/>
<path d="M28.5885 11.2945H25.7646V14.1184H28.5885V11.2945Z" fill="#6BB37C"/>
<path d="M31.4118 11.2945H28.5879V14.1184H31.4118V11.2945Z" fill="#6BB37C"/>
<path d="M34.235 11.2945H31.4111V14.1184H34.235V11.2945Z" fill="#6BB37C"/>
<path d="M37.0592 11.2945H34.2354V14.1184H37.0592V11.2945Z" fill="#6BB37C"/>
<path d="M39.8825 11.2945H37.0586V14.1184H39.8825V11.2945Z" fill="#6BB37C"/>
<path d="M42.7057 11.2945H39.8818V14.1184H42.7057V11.2945Z" fill="#6BB37C"/>
<path d="M45.5299 11.2945H42.7061V14.1184H45.5299V11.2945Z" fill="#6BB37C"/>
<path d="M48.3532 11.2945H45.5293V14.1184H48.3532V11.2945Z" fill="#6BB37C"/>
<path d="M51.1764 11.2945H48.3525V14.1184H51.1764V11.2945Z" fill="#6BB37C"/>
<path d="M54.0006 11.2945H51.1768V14.1184H54.0006V11.2945Z" fill="#6BB37C"/>
<path d="M56.8239 11.2945H54V14.1184H56.8239V11.2945Z" fill="#6BB37C"/>
<path d="M59.6471 11.2945H56.8232V14.1184H59.6471V11.2945Z" fill="#6BB37C"/>
<path d="M62.4713 11.2945H59.6475V14.1184H62.4713V11.2945Z" fill="#6BB37C"/>
<path d="M65.2946 11.2945H62.4707V14.1184H65.2946V11.2945Z" fill="#6BB37C"/>
<path d="M68.1178 11.2945H65.2939V14.1184H68.1178V11.2945Z" fill="#6BB37C"/>
<path d="M70.942 11.2945H68.1182V14.1184H70.942V11.2945Z" fill="#6BB37C"/>
<path d="M73.7653 11.2945H70.9414V14.1184H73.7653V11.2945Z" fill="#6BB37C"/>
<path d="M76.5885 11.2945H73.7646V14.1184H76.5885V11.2945Z" fill="#6BB37C"/>
<path d="M79.4118 11.2945H76.5879V14.1184H79.4118V11.2945Z" fill="#6BB37C"/>
<path d="M82.236 11.2945H79.4121V14.1184H82.236V11.2945Z" fill="#6BB37C"/>
<path d="M85.0592 11.2945H82.2354V14.1184H85.0592V11.2945Z" fill="#6BB37C"/>
<path d="M87.8825 11.2945H85.0586V14.1184H87.8825V11.2945Z" fill="#6BB37C"/>
<path d="M90.7067 11.2945H87.8828V14.1184H90.7067V11.2945Z" fill="#6BB37C"/>
<path d="M93.5299 11.2945H90.7061V14.1184H93.5299V11.2945Z" fill="#6BB37C"/>
<path d="M96.3532 11.2945H93.5293V14.1184H96.3532V11.2945Z" fill="#6BB37C"/>
<path d="M99.1774 11.2945H96.3535V14.1184H99.1774V11.2945Z" fill="#6BB37C"/>
<path d="M102.001 11.2945H99.1768V14.1184H102.001V11.2945Z" fill="#6BB37C"/>
<path d="M104.824 11.2945H102V14.1184H104.824V11.2945Z" fill="#6BB37C"/>
<path d="M107.648 11.2945H104.824V14.1184H107.648V11.2945Z" fill="#6BB37C"/>
<path d="M118.942 11.2945H116.118V14.1184H118.942V11.2945Z" fill="#6BB37C"/>
<path d="M121.765 11.2945H118.941V14.1184H121.765V11.2945Z" fill="#6BB37C"/>
<path d="M124.59 11.2945H121.766V14.1184H124.59V11.2945Z" fill="#6BB37C"/>
<path d="M127.412 11.2945H124.588V14.1184H127.412V11.2945Z" fill="#6BB37C"/>
<path d="M130.236 11.2945H127.412V14.1184H130.236V11.2945Z" fill="#6BB37C"/>
<path d="M133.06 11.2945H130.236V14.1184H133.06V11.2945Z" fill="#D6E162"/>
<path d="M135.882 11.2945H133.059V14.1184H135.882V11.2945Z" fill="#3F646E"/>
<path d="M138.707 11.2945H135.883V14.1184H138.707V11.2945Z" fill="#3F646E"/>
<path d="M141.531 11.2945H138.707V14.1184H141.531V11.2945Z" fill="#3F646E"/>
<path d="M144.353 11.2945H141.529V14.1184H144.353V11.2945Z" fill="#3F646E"/>
<path d="M147.177 11.2945H144.354V14.1184H147.177V11.2945Z" fill="#243840"/>
<path d="M3.17641 14.1174H0.352539V16.9413H3.17641V14.1174Z" fill="#243840"/>
<path d="M6.00063 14.1174H3.17676V16.9413H6.00063V14.1174Z" fill="#3F646E"/>
<path d="M8.8229 14.1174H5.99902V16.9413H8.8229V14.1174Z" fill="#3F646E"/>
<path d="M11.6471 14.1174H8.82324V16.9413H11.6471V14.1174Z" fill="#3F646E"/>
<path d="M14.4713 14.1174H11.6475V16.9413H14.4713V14.1174Z" fill="#3F646E"/>
<path d="M17.2936 14.1174H14.4697V16.9413H17.2936V14.1174Z" fill="#D6E162"/>
<path d="M20.1178 14.1174H17.2939V16.9413H20.1178V14.1174Z" fill="#6BB37C"/>
<path d="M22.942 14.1174H20.1182V16.9413H22.942V14.1174Z" fill="#6BB37C"/>
<path d="M25.7643 14.1174H22.9404V16.9413H25.7643V14.1174Z" fill="#6BB37C"/>
<path d="M28.5885 14.1174H25.7646V16.9413H28.5885V14.1174Z" fill="#6BB37C"/>
<path d="M31.4118 14.1174H28.5879V16.9413H31.4118V14.1174Z" fill="#6BB37C"/>
<path d="M34.235 14.1174H31.4111V16.9413H34.235V14.1174Z" fill="#6BB37C"/>
<path d="M37.0592 14.1174H34.2354V16.9413H37.0592V14.1174Z" fill="#6BB37C"/>
<path d="M39.8825 14.1174H37.0586V16.9413H39.8825V14.1174Z" fill="#6BB37C"/>
<path d="M42.7057 14.1174H39.8818V16.9413H42.7057V14.1174Z" fill="#6BB37C"/>
<path d="M45.5299 14.1174H42.7061V16.9413H45.5299V14.1174Z" fill="#6BB37C"/>
<path d="M48.3532 14.1174H45.5293V16.9413H48.3532V14.1174Z" fill="#6BB37C"/>
<path d="M51.1764 14.1174H48.3525V16.9413H51.1764V14.1174Z" fill="#6BB37C"/>
<path d="M54.0006 14.1174H51.1768V16.9413H54.0006V14.1174Z" fill="#6BB37C"/>
<path d="M56.8239 14.1174H54V16.9413H56.8239V14.1174Z" fill="#6BB37C"/>
<path d="M59.6471 14.1174H56.8232V16.9413H59.6471V14.1174Z" fill="#6BB37C"/>
<path d="M62.4713 14.1174H59.6475V16.9413H62.4713V14.1174Z" fill="#6BB37C"/>
<path d="M65.2946 14.1174H62.4707V16.9413H65.2946V14.1174Z" fill="#6BB37C"/>
<path d="M68.1178 14.1174H65.2939V16.9413H68.1178V14.1174Z" fill="#6BB37C"/>
<path d="M70.942 14.1174H68.1182V16.9413H70.942V14.1174Z" fill="#6BB37C"/>
<path d="M73.7653 14.1174H70.9414V16.9413H73.7653V14.1174Z" fill="#6BB37C"/>
<path d="M76.5885 14.1174H73.7646V16.9413H76.5885V14.1174Z" fill="#6BB37C"/>
<path d="M79.4118 14.1174H76.5879V16.9413H79.4118V14.1174Z" fill="#6BB37C"/>
<path d="M82.236 14.1174H79.4121V16.9413H82.236V14.1174Z" fill="#6BB37C"/>
<path d="M85.0592 14.1174H82.2354V16.9413H85.0592V14.1174Z" fill="#6BB37C"/>
<path d="M87.8825 14.1174H85.0586V16.9413H87.8825V14.1174Z" fill="#6BB37C"/>
<path d="M90.7067 14.1174H87.8828V16.9413H90.7067V14.1174Z" fill="#6BB37C"/>
<path d="M93.5299 14.1174H90.7061V16.9413H93.5299V14.1174Z" fill="#6BB37C"/>
<path d="M96.3532 14.1174H93.5293V16.9413H96.3532V14.1174Z" fill="#6BB37C"/>
<path d="M99.1774 14.1174H96.3535V16.9413H99.1774V14.1174Z" fill="#6BB37C"/>
<path d="M102.001 14.1174H99.1768V16.9413H102.001V14.1174Z" fill="#6BB37C"/>
<path d="M104.824 14.1174H102V16.9413H104.824V14.1174Z" fill="#6BB37C"/>
<path d="M107.648 14.1174H104.824V16.9413H107.648V14.1174Z" fill="#6BB37C"/>
<path d="M118.942 14.1174H116.118V16.9413H118.942V14.1174Z" fill="#6BB37C"/>
<path d="M121.765 14.1174H118.941V16.9413H121.765V14.1174Z" fill="#6BB37C"/>
<path d="M124.59 14.1174H121.766V16.9413H124.59V14.1174Z" fill="#6BB37C"/>
<path d="M127.412 14.1174H124.588V16.9413H127.412V14.1174Z" fill="#6BB37C"/>
<path d="M130.236 14.1174H127.412V16.9413H130.236V14.1174Z" fill="#6BB37C"/>
<path d="M133.06 14.1174H130.236V16.9413H133.06V14.1174Z" fill="#D6E162"/>
<path d="M135.882 14.1174H133.059V16.9413H135.882V14.1174Z" fill="#3F646E"/>
<path d="M138.707 14.1174H135.883V16.9413H138.707V14.1174Z" fill="#3F646E"/>
<path d="M141.531 14.1174H138.707V16.9413H141.531V14.1174Z" fill="#3F646E"/>
<path d="M144.353 14.1174H141.529V16.9413H144.353V14.1174Z" fill="#3F646E"/>
<path d="M147.177 14.1174H144.354V16.9413H147.177V14.1174Z" fill="#243840"/>
<path d="M3.17641 16.9413H0.352539V19.7652H3.17641V16.9413Z" fill="#243840"/>
<path d="M6.00063 16.9413H3.17676V19.7652H6.00063V16.9413Z" fill="#3F646E"/>
<path d="M8.8229 16.9413H5.99902V19.7652H8.8229V16.9413Z" fill="#3F646E"/>
<path d="M11.6471 16.9413H8.82324V19.7652H11.6471V16.9413Z" fill="#3F646E"/>
<path d="M14.4713 16.9413H11.6475V19.7652H14.4713V16.9413Z" fill="#3F646E"/>
<path d="M17.2936 16.9413H14.4697V19.7652H17.2936V16.9413Z" fill="#D6E162"/>
<path d="M20.1178 16.9413H17.2939V19.7652H20.1178V16.9413Z" fill="#6BB37C"/>
<path d="M22.942 16.9413H20.1182V19.7652H22.942V16.9413Z" fill="#6BB37C"/>
<path d="M25.7643 16.9413H22.9404V19.7652H25.7643V16.9413Z" fill="#6BB37C"/>
<path d="M28.5885 16.9413H25.7646V19.7652H28.5885V16.9413Z" fill="#6BB37C"/>
<path d="M31.4118 16.9413H28.5879V19.7652H31.4118V16.9413Z" fill="#6BB37C"/>
<path d="M34.235 16.9413H31.4111V19.7652H34.235V16.9413Z" fill="#6BB37C"/>
<path d="M37.0592 16.9413H34.2354V19.7652H37.0592V16.9413Z" fill="#6BB37C"/>
<path d="M39.8825 16.9413H37.0586V19.7652H39.8825V16.9413Z" fill="#6BB37C"/>
<path d="M42.7057 16.9413H39.8818V19.7652H42.7057V16.9413Z" fill="#6BB37C"/>
<path d="M45.5299 16.9413H42.7061V19.7652H45.5299V16.9413Z" fill="#6BB37C"/>
<path d="M48.3532 16.9413H45.5293V19.7652H48.3532V16.9413Z" fill="#6BB37C"/>
<path d="M51.1764 16.9413H48.3525V19.7652H51.1764V16.9413Z" fill="#6BB37C"/>
<path d="M54.0006 16.9413H51.1768V19.7652H54.0006V16.9413Z" fill="#6BB37C"/>
<path d="M56.8239 16.9413H54V19.7652H56.8239V16.9413Z" fill="#6BB37C"/>
<path d="M59.6471 16.9413H56.8232V19.7652H59.6471V16.9413Z" fill="#6BB37C"/>
<path d="M62.4713 16.9413H59.6475V19.7652H62.4713V16.9413Z" fill="#6BB37C"/>
<path d="M65.2946 16.9413H62.4707V19.7652H65.2946V16.9413Z" fill="#6BB37C"/>
<path d="M68.1178 16.9413H65.2939V19.7652H68.1178V16.9413Z" fill="#6BB37C"/>
<path d="M70.942 16.9413H68.1182V19.7652H70.942V16.9413Z" fill="#6BB37C"/>
<path d="M73.7653 16.9413H70.9414V19.7652H73.7653V16.9413Z" fill="#6BB37C"/>
<path d="M76.5885 16.9413H73.7646V19.7652H76.5885V16.9413Z" fill="#6BB37C"/>
<path d="M79.4118 16.9413H76.5879V19.7652H79.4118V16.9413Z" fill="#6BB37C"/>
<path d="M82.236 16.9413H79.4121V19.7652H82.236V16.9413Z" fill="#6BB37C"/>
<path d="M85.0592 16.9413H82.2354V19.7652H85.0592V16.9413Z" fill="#6BB37C"/>
<path d="M87.8825 16.9413H85.0586V19.7652H87.8825V16.9413Z" fill="#6BB37C"/>
<path d="M90.7067 16.9413H87.8828V19.7652H90.7067V16.9413Z" fill="#6BB37C"/>
<path d="M93.5299 16.9413H90.7061V19.7652H93.5299V16.9413Z" fill="#6BB37C"/>
<path d="M96.3532 16.9413H93.5293V19.7652H96.3532V16.9413Z" fill="#6BB37C"/>
<path d="M99.1774 16.9413H96.3535V19.7652H99.1774V16.9413Z" fill="#6BB37C"/>
<path d="M102.001 16.9413H99.1768V19.7652H102.001V16.9413Z" fill="#6BB37C"/>
<path d="M104.824 16.9413H102V19.7652H104.824V16.9413Z" fill="#6BB37C"/>
<path d="M107.648 16.9413H104.824V19.7652H107.648V16.9413Z" fill="#6BB37C"/>
<path d="M118.942 16.9413H116.118V19.7652H118.942V16.9413Z" fill="#6BB37C"/>
<path d="M121.765 16.9413H118.941V19.7652H121.765V16.9413Z" fill="#6BB37C"/>
<path d="M124.59 16.9413H121.766V19.7652H124.59V16.9413Z" fill="#6BB37C"/>
<path d="M127.412 16.9413H124.588V19.7652H127.412V16.9413Z" fill="#6BB37C"/>
<path d="M130.236 16.9413H127.412V19.7652H130.236V16.9413Z" fill="#6BB37C"/>
<path d="M133.06 16.9413H130.236V19.7652H133.06V16.9413Z" fill="#D6E162"/>
<path d="M135.882 16.9413H133.059V19.7652H135.882V16.9413Z" fill="#3F646E"/>
<path d="M138.707 16.9413H135.883V19.7652H138.707V16.9413Z" fill="#3F646E"/>
<path d="M141.531 16.9413H138.707V19.7652H141.531V16.9413Z" fill="#3F646E"/>
<path d="M144.353 16.9413H141.529V19.7652H144.353V16.9413Z" fill="#3F646E"/>
<path d="M147.177 16.9413H144.354V19.7652H147.177V16.9413Z" fill="#243840"/>
<path d="M3.17641 19.7651H0.352539V22.589H3.17641V19.7651Z" fill="#243840"/>
<path d="M6.00063 19.7651H3.17676V22.589H6.00063V19.7651Z" fill="#3F646E"/>
<path d="M8.8229 19.7651H5.99902V22.589H8.8229V19.7651Z" fill="#3F646E"/>
<path d="M11.6471 19.7651H8.82324V22.589H11.6471V19.7651Z" fill="#3F646E"/>
<path d="M14.4713 19.7651H11.6475V22.589H14.4713V19.7651Z" fill="#3F646E"/>
<path d="M17.2936 19.7651H14.4697V22.589H17.2936V19.7651Z" fill="#D6E162"/>
<path d="M20.1178 19.7651H17.2939V22.589H20.1178V19.7651Z" fill="#6BB37C"/>
<path d="M22.942 19.7651H20.1182V22.589H22.942V19.7651Z" fill="#6BB37C"/>
<path d="M25.7643 19.7651H22.9404V22.589H25.7643V19.7651Z" fill="#6BB37C"/>
<path d="M28.5885 19.7651H25.7646V22.589H28.5885V19.7651Z" fill="#6BB37C"/>
<path d="M31.4118 19.7651H28.5879V22.589H31.4118V19.7651Z" fill="#6BB37C"/>
<path d="M34.235 19.7651H31.4111V22.589H34.235V19.7651Z" fill="#6BB37C"/>
<path d="M37.0592 19.7651H34.2354V22.589H37.0592V19.7651Z" fill="#6BB37C"/>
<path d="M39.8825 19.7651H37.0586V22.589H39.8825V19.7651Z" fill="#6BB37C"/>
<path d="M42.7057 19.7651H39.8818V22.589H42.7057V19.7651Z" fill="#6BB37C"/>
<path d="M45.5299 19.7651H42.7061V22.589H45.5299V19.7651Z" fill="#6BB37C"/>
<path d="M48.3532 19.7651H45.5293V22.589H48.3532V19.7651Z" fill="#6BB37C"/>
<path d="M51.1764 19.7651H48.3525V22.589H51.1764V19.7651Z" fill="#6BB37C"/>
<path d="M54.0006 19.7651H51.1768V22.589H54.0006V19.7651Z" fill="#6BB37C"/>
<path d="M56.8239 19.7651H54V22.589H56.8239V19.7651Z" fill="#6BB37C"/>
<path d="M59.6471 19.7651H56.8232V22.589H59.6471V19.7651Z" fill="#6BB37C"/>
<path d="M62.4713 19.7651H59.6475V22.589H62.4713V19.7651Z" fill="#6BB37C"/>
<path d="M65.2946 19.7651H62.4707V22.589H65.2946V19.7651Z" fill="#6BB37C"/>
<path d="M68.1178 19.7651H65.2939V22.589H68.1178V19.7651Z" fill="#6BB37C"/>
<path d="M70.942 19.7651H68.1182V22.589H70.942V19.7651Z" fill="#6BB37C"/>
<path d="M73.7653 19.7651H70.9414V22.589H73.7653V19.7651Z" fill="#6BB37C"/>
<path d="M76.5885 19.7651H73.7646V22.589H76.5885V19.7651Z" fill="#6BB37C"/>
<path d="M79.4118 19.7651H76.5879V22.589H79.4118V19.7651Z" fill="#6BB37C"/>
<path d="M82.236 19.7651H79.4121V22.589H82.236V19.7651Z" fill="#6BB37C"/>
<path d="M85.0592 19.7651H82.2354V22.589H85.0592V19.7651Z" fill="#6BB37C"/>
<path d="M87.8825 19.7651H85.0586V22.589H87.8825V19.7651Z" fill="#6BB37C"/>
<path d="M90.7067 19.7651H87.8828V22.589H90.7067V19.7651Z" fill="#6BB37C"/>
<path d="M93.5299 19.7651H90.7061V22.589H93.5299V19.7651Z" fill="#6BB37C"/>
<path d="M96.3532 19.7651H93.5293V22.589H96.3532V19.7651Z" fill="#6BB37C"/>
<path d="M99.1774 19.7651H96.3535V22.589H99.1774V19.7651Z" fill="#6BB37C"/>
<path d="M102.001 19.7651H99.1768V22.589H102.001V19.7651Z" fill="#6BB37C"/>
<path d="M104.824 19.7651H102V22.589H104.824V19.7651Z" fill="#6BB37C"/>
<path d="M107.648 19.7651H104.824V22.589H107.648V19.7651Z" fill="#6BB37C"/>
<path d="M118.942 19.7651H116.118V22.589H118.942V19.7651Z" fill="#6BB37C"/>
<path d="M121.765 19.7651H118.941V22.589H121.765V19.7651Z" fill="#6BB37C"/>
<path d="M124.59 19.7651H121.766V22.589H124.59V19.7651Z" fill="#6BB37C"/>
<path d="M127.412 19.7651H124.588V22.589H127.412V19.7651Z" fill="#6BB37C"/>
<path d="M130.236 19.7651H127.412V22.589H130.236V19.7651Z" fill="#6BB37C"/>
<path d="M133.06 19.7651H130.236V22.589H133.06V19.7651Z" fill="#D6E162"/>
<path d="M135.882 19.7651H133.059V22.589H135.882V19.7651Z" fill="#3F646E"/>
<path d="M138.707 19.7651H135.883V22.589H138.707V19.7651Z" fill="#3F646E"/>
<path d="M141.531 19.7651H138.707V22.589H141.531V19.7651Z" fill="#3F646E"/>
<path d="M144.353 19.7651H141.529V22.589H144.353V19.7651Z" fill="#3F646E"/>
<path d="M147.177 19.7651H144.354V22.589H147.177V19.7651Z" fill="#243840"/>
<path d="M3.17641 22.5881H0.352539V25.412H3.17641V22.5881Z" fill="#243840"/>
<path d="M6.00063 22.5881H3.17676V25.412H6.00063V22.5881Z" fill="#3F646E"/>
<path d="M8.8229 22.5881H5.99902V25.412H8.8229V22.5881Z" fill="#3F646E"/>
<path d="M11.6471 22.5881H8.82324V25.412H11.6471V22.5881Z" fill="#3F646E"/>
<path d="M14.4713 22.5881H11.6475V25.412H14.4713V22.5881Z" fill="#3F646E"/>
<path d="M17.2936 22.5881H14.4697V25.412H17.2936V22.5881Z" fill="#D6E162"/>
<path d="M20.1178 22.5881H17.2939V25.412H20.1178V22.5881Z" fill="#6BB37C"/>
<path d="M22.942 22.5881H20.1182V25.412H22.942V22.5881Z" fill="#6BB37C"/>
<path d="M25.7643 22.5881H22.9404V25.412H25.7643V22.5881Z" fill="#6BB37C"/>
<path d="M28.5885 22.5881H25.7646V25.412H28.5885V22.5881Z" fill="#6BB37C"/>
<path d="M31.4118 22.5881H28.5879V25.412H31.4118V22.5881Z" fill="#6BB37C"/>
<path d="M34.235 22.5881H31.4111V25.412H34.235V22.5881Z" fill="#6BB37C"/>
<path d="M37.0592 22.5881H34.2354V25.412H37.0592V22.5881Z" fill="#6BB37C"/>
<path d="M39.8825 22.5881H37.0586V25.412H39.8825V22.5881Z" fill="#6BB37C"/>
<path d="M42.7057 22.5881H39.8818V25.412H42.7057V22.5881Z" fill="#6BB37C"/>
<path d="M45.5299 22.5881H42.7061V25.412H45.5299V22.5881Z" fill="#6BB37C"/>
<path d="M48.3532 22.5881H45.5293V25.412H48.3532V22.5881Z" fill="#6BB37C"/>
<path d="M51.1764 22.5881H48.3525V25.412H51.1764V22.5881Z" fill="#6BB37C"/>
<path d="M54.0006 22.5881H51.1768V25.412H54.0006V22.5881Z" fill="#6BB37C"/>
<path d="M56.8239 22.5881H54V25.412H56.8239V22.5881Z" fill="#6BB37C"/>
<path d="M59.6471 22.5881H56.8232V25.412H59.6471V22.5881Z" fill="#6BB37C"/>
<path d="M62.4713 22.5881H59.6475V25.412H62.4713V22.5881Z" fill="#6BB37C"/>
<path d="M65.2946 22.5881H62.4707V25.412H65.2946V22.5881Z" fill="#6BB37C"/>
<path d="M68.1178 22.5881H65.2939V25.412H68.1178V22.5881Z" fill="#6BB37C"/>
<path d="M70.942 22.5881H68.1182V25.412H70.942V22.5881Z" fill="#6BB37C"/>
<path d="M73.7653 22.5881H70.9414V25.412H73.7653V22.5881Z" fill="#6BB37C"/>
<path d="M76.5885 22.5881H73.7646V25.412H76.5885V22.5881Z" fill="#6BB37C"/>
<path d="M79.4118 22.5881H76.5879V25.412H79.4118V22.5881Z" fill="#6BB37C"/>
<path d="M82.236 22.5881H79.4121V25.412H82.236V22.5881Z" fill="#6BB37C"/>
<path d="M85.0592 22.5881H82.2354V25.412H85.0592V22.5881Z" fill="#6BB37C"/>
<path d="M87.8825 22.5881H85.0586V25.412H87.8825V22.5881Z" fill="#6BB37C"/>
<path d="M90.7067 22.5881H87.8828V25.412H90.7067V22.5881Z" fill="#6BB37C"/>
<path d="M93.5299 22.5881H90.7061V25.412H93.5299V22.5881Z" fill="#6BB37C"/>
<path d="M96.3532 22.5881H93.5293V25.412H96.3532V22.5881Z" fill="#6BB37C"/>
<path d="M99.1774 22.5881H96.3535V25.412H99.1774V22.5881Z" fill="#6BB37C"/>
<path d="M102.001 22.5881H99.1768V25.412H102.001V22.5881Z" fill="#6BB37C"/>
<path d="M104.824 22.5881H102V25.412H104.824V22.5881Z" fill="#6BB37C"/>
<path d="M107.648 22.5881H104.824V25.412H107.648V22.5881Z" fill="#6BB37C"/>
<path d="M118.942 22.5881H116.118V25.412H118.942V22.5881Z" fill="#6BB37C"/>
<path d="M121.765 22.5881H118.941V25.412H121.765V22.5881Z" fill="#6BB37C"/>
<path d="M124.59 22.5881H121.766V25.412H124.59V22.5881Z" fill="#6BB37C"/>
<path d="M127.412 22.5881H124.588V25.412H127.412V22.5881Z" fill="#6BB37C"/>
<path d="M130.236 22.5881H127.412V25.412H130.236V22.5881Z" fill="#6BB37C"/>
<path d="M133.06 22.5881H130.236V25.412H133.06V22.5881Z" fill="#D6E162"/>
<path d="M135.882 22.5881H133.059V25.412H135.882V22.5881Z" fill="#3F646E"/>
<path d="M138.707 22.5881H135.883V25.412H138.707V22.5881Z" fill="#3F646E"/>
<path d="M141.531 22.5881H138.707V25.412H141.531V22.5881Z" fill="#3F646E"/>
<path d="M144.353 22.5881H141.529V25.412H144.353V22.5881Z" fill="#3F646E"/>
<path d="M147.177 22.5881H144.354V25.412H147.177V22.5881Z" fill="#243840"/>
<path d="M3.17641 25.4119H0.352539V28.2358H3.17641V25.4119Z" fill="#243840"/>
<path d="M6.00063 25.4119H3.17676V28.2358H6.00063V25.4119Z" fill="#3F646E"/>
<path d="M8.8229 25.4119H5.99902V28.2358H8.8229V25.4119Z" fill="#3F646E"/>
<path d="M11.6471 25.4119H8.82324V28.2358H11.6471V25.4119Z" fill="#3F646E"/>
<path d="M14.4713 25.4119H11.6475V28.2358H14.4713V25.4119Z" fill="#3F646E"/>
<path d="M17.2936 25.4119H14.4697V28.2358H17.2936V25.4119Z" fill="#D6E162"/>
<path d="M20.1178 25.4119H17.2939V28.2358H20.1178V25.4119Z" fill="#6BB37C"/>
<path d="M22.942 25.4119H20.1182V28.2358H22.942V25.4119Z" fill="#6BB37C"/>
<path d="M25.7643 25.4119H22.9404V28.2358H25.7643V25.4119Z" fill="#6BB37C"/>
<path d="M28.5885 25.4119H25.7646V28.2358H28.5885V25.4119Z" fill="#6BB37C"/>
<path d="M31.4118 25.4119H28.5879V28.2358H31.4118V25.4119Z" fill="#6BB37C"/>
<path d="M34.235 25.4119H31.4111V28.2358H34.235V25.4119Z" fill="#6BB37C"/>
<path d="M37.0592 25.4119H34.2354V28.2358H37.0592V25.4119Z" fill="#6BB37C"/>
<path d="M39.8825 25.4119H37.0586V28.2358H39.8825V25.4119Z" fill="#6BB37C"/>
<path d="M42.7057 25.4119H39.8818V28.2358H42.7057V25.4119Z" fill="#6BB37C"/>
<path d="M45.5299 25.4119H42.7061V28.2358H45.5299V25.4119Z" fill="#6BB37C"/>
<path d="M48.3532 25.4119H45.5293V28.2358H48.3532V25.4119Z" fill="#6BB37C"/>
<path d="M51.1764 25.4119H48.3525V28.2358H51.1764V25.4119Z" fill="#6BB37C"/>
<path d="M54.0006 25.4119H51.1768V28.2358H54.0006V25.4119Z" fill="#6BB37C"/>
<path d="M56.8239 25.4119H54V28.2358H56.8239V25.4119Z" fill="#6BB37C"/>
<path d="M59.6471 25.4119H56.8232V28.2358H59.6471V25.4119Z" fill="#6BB37C"/>
<path d="M62.4713 25.4119H59.6475V28.2358H62.4713V25.4119Z" fill="#6BB37C"/>
<path d="M65.2946 25.4119H62.4707V28.2358H65.2946V25.4119Z" fill="#6BB37C"/>
<path d="M68.1178 25.4119H65.2939V28.2358H68.1178V25.4119Z" fill="#6BB37C"/>
<path d="M70.942 25.4119H68.1182V28.2358H70.942V25.4119Z" fill="#6BB37C"/>
<path d="M73.7653 25.4119H70.9414V28.2358H73.7653V25.4119Z" fill="#6BB37C"/>
<path d="M76.5885 25.4119H73.7646V28.2358H76.5885V25.4119Z" fill="#6BB37C"/>
<path d="M79.4118 25.4119H76.5879V28.2358H79.4118V25.4119Z" fill="#6BB37C"/>
<path d="M82.236 25.4119H79.4121V28.2358H82.236V25.4119Z" fill="#6BB37C"/>
<path d="M85.0592 25.4119H82.2354V28.2358H85.0592V25.4119Z" fill="#6BB37C"/>
<path d="M87.8825 25.4119H85.0586V28.2358H87.8825V25.4119Z" fill="#6BB37C"/>
<path d="M90.7067 25.4119H87.8828V28.2358H90.7067V25.4119Z" fill="#6BB37C"/>
<path d="M93.5299 25.4119H90.7061V28.2358H93.5299V25.4119Z" fill="#6BB37C"/>
<path d="M96.3532 25.4119H93.5293V28.2358H96.3532V25.4119Z" fill="#6BB37C"/>
<path d="M99.1774 25.4119H96.3535V28.2358H99.1774V25.4119Z" fill="#6BB37C"/>
<path d="M102.001 25.4119H99.1768V28.2358H102.001V25.4119Z" fill="#6BB37C"/>
<path d="M104.824 25.4119H102V28.2358H104.824V25.4119Z" fill="#6BB37C"/>
<path d="M107.648 25.4119H104.824V28.2358H107.648V25.4119Z" fill="#6BB37C"/>
<path d="M118.942 25.4119H116.118V28.2358H118.942V25.4119Z" fill="#6BB37C"/>
<path d="M121.765 25.4119H118.941V28.2358H121.765V25.4119Z" fill="#6BB37C"/>
<path d="M124.59 25.4119H121.766V28.2358H124.59V25.4119Z" fill="#6BB37C"/>
<path d="M127.412 25.4119H124.588V28.2358H127.412V25.4119Z" fill="#6BB37C"/>
<path d="M130.236 25.4119H127.412V28.2358H130.236V25.4119Z" fill="#6BB37C"/>
<path d="M133.06 25.4119H130.236V28.2358H133.06V25.4119Z" fill="#FAF1D4"/>
<path d="M135.882 25.4119H133.059V28.2358H135.882V25.4119Z" fill="#3F646E"/>
<path d="M138.707 25.4119H135.883V28.2358H138.707V25.4119Z" fill="#3F646E"/>
<path d="M141.531 25.4119H138.707V28.2358H141.531V25.4119Z" fill="#3F646E"/>
<path d="M144.353 25.4119H141.529V28.2358H144.353V25.4119Z" fill="#3F646E"/>
<path d="M147.177 25.4119H144.354V28.2358H147.177V25.4119Z" fill="#243840"/>
<path d="M3.17641 28.2358H0.352539V31.0597H3.17641V28.2358Z" fill="#243840"/>
<path d="M6.00063 28.2358H3.17676V31.0597H6.00063V28.2358Z" fill="#3F646E"/>
<path d="M8.8229 28.2358H5.99902V31.0597H8.8229V28.2358Z" fill="#3F646E"/>
<path d="M11.6471 28.2358H8.82324V31.0597H11.6471V28.2358Z" fill="#3F646E"/>
<path d="M14.4713 28.2358H11.6475V31.0597H14.4713V28.2358Z" fill="#3F646E"/>
<path d="M17.2936 28.2358H14.4697V31.0597H17.2936V28.2358Z" fill="#D6E162"/>
<path d="M20.1178 28.2358H17.2939V31.0597H20.1178V28.2358Z" fill="#6BB37C"/>
<path d="M22.942 28.2358H20.1182V31.0597H22.942V28.2358Z" fill="#6BB37C"/>
<path d="M25.7643 28.2358H22.9404V31.0597H25.7643V28.2358Z" fill="#6BB37C"/>
<path d="M28.5885 28.2358H25.7646V31.0597H28.5885V28.2358Z" fill="#6BB37C"/>
<path d="M31.4118 28.2358H28.5879V31.0597H31.4118V28.2358Z" fill="#6BB37C"/>
<path d="M34.235 28.2358H31.4111V31.0597H34.235V28.2358Z" fill="#6BB37C"/>
<path d="M37.0592 28.2358H34.2354V31.0597H37.0592V28.2358Z" fill="#6BB37C"/>
<path d="M39.8825 28.2358H37.0586V31.0597H39.8825V28.2358Z" fill="#6BB37C"/>
<path d="M42.7057 28.2358H39.8818V31.0597H42.7057V28.2358Z" fill="#6BB37C"/>
<path d="M45.5299 28.2358H42.7061V31.0597H45.5299V28.2358Z" fill="#6BB37C"/>
<path d="M48.3532 28.2358H45.5293V31.0597H48.3532V28.2358Z" fill="#6BB37C"/>
<path d="M51.1764 28.2358H48.3525V31.0597H51.1764V28.2358Z" fill="#6BB37C"/>
<path d="M54.0006 28.2358H51.1768V31.0597H54.0006V28.2358Z" fill="#6BB37C"/>
<path d="M56.8239 28.2358H54V31.0597H56.8239V28.2358Z" fill="#6BB37C"/>
<path d="M59.6471 28.2358H56.8232V31.0597H59.6471V28.2358Z" fill="#6BB37C"/>
<path d="M62.4713 28.2358H59.6475V31.0597H62.4713V28.2358Z" fill="#6BB37C"/>
<path d="M65.2946 28.2358H62.4707V31.0597H65.2946V28.2358Z" fill="#6BB37C"/>
<path d="M68.1178 28.2358H65.2939V31.0597H68.1178V28.2358Z" fill="#6BB37C"/>
<path d="M70.942 28.2358H68.1182V31.0597H70.942V28.2358Z" fill="#6BB37C"/>
<path d="M73.7653 28.2358H70.9414V31.0597H73.7653V28.2358Z" fill="#6BB37C"/>
<path d="M76.5885 28.2358H73.7646V31.0597H76.5885V28.2358Z" fill="#6BB37C"/>
<path d="M79.4118 28.2358H76.5879V31.0597H79.4118V28.2358Z" fill="#6BB37C"/>
<path d="M82.236 28.2358H79.4121V31.0597H82.236V28.2358Z" fill="#6BB37C"/>
<path d="M85.0592 28.2358H82.2354V31.0597H85.0592V28.2358Z" fill="#6BB37C"/>
<path d="M87.8825 28.2358H85.0586V31.0597H87.8825V28.2358Z" fill="#6BB37C"/>
<path d="M90.7067 28.2358H87.8828V31.0597H90.7067V28.2358Z" fill="#6BB37C"/>
<path d="M93.5299 28.2358H90.7061V31.0597H93.5299V28.2358Z" fill="#6BB37C"/>
<path d="M96.3532 28.2358H93.5293V31.0597H96.3532V28.2358Z" fill="#6BB37C"/>
<path d="M99.1774 28.2358H96.3535V31.0597H99.1774V28.2358Z" fill="#6BB37C"/>
<path d="M102.001 28.2358H99.1768V31.0597H102.001V28.2358Z" fill="#6BB37C"/>
<path d="M104.824 28.2358H102V31.0597H104.824V28.2358Z" fill="#6BB37C"/>
<path d="M107.648 28.2358H104.824V31.0597H107.648V28.2358Z" fill="#6BB37C"/>
<path d="M118.942 28.2358H116.118V31.0597H118.942V28.2358Z" fill="#6BB37C"/>
<path d="M121.765 28.2358H118.941V31.0597H121.765V28.2358Z" fill="#6BB37C"/>
<path d="M124.59 28.2358H121.766V31.0597H124.59V28.2358Z" fill="#6BB37C"/>
<path d="M127.412 28.2358H124.588V31.0597H127.412V28.2358Z" fill="#6BB37C"/>
<path d="M130.236 28.2358H127.412V31.0597H130.236V28.2358Z" fill="#6BB37C"/>
<path d="M133.06 28.2358H130.236V31.0597H133.06V28.2358Z" fill="#FAF1D4"/>
<path d="M135.882 28.2358H133.059V31.0597H135.882V28.2358Z" fill="#3F646E"/>
<path d="M138.707 28.2358H135.883V31.0597H138.707V28.2358Z" fill="#3F646E"/>
<path d="M141.531 28.2358H138.707V31.0597H141.531V28.2358Z" fill="#3F646E"/>
<path d="M144.353 28.2358H141.529V31.0597H144.353V28.2358Z" fill="#3F646E"/>
<path d="M147.177 28.2358H144.354V31.0597H147.177V28.2358Z" fill="#243840"/>
<path d="M3.17641 31.0587H0.352539V33.8826H3.17641V31.0587Z" fill="#243840"/>
<path d="M6.00063 31.0587H3.17676V33.8826H6.00063V31.0587Z" fill="#3F646E"/>
<path d="M8.8229 31.0587H5.99902V33.8826H8.8229V31.0587Z" fill="#3F646E"/>
<path d="M11.6471 31.0587H8.82324V33.8826H11.6471V31.0587Z" fill="#3F646E"/>
<path d="M14.4713 31.0587H11.6475V33.8826H14.4713V31.0587Z" fill="#3F646E"/>
<path d="M17.2936 31.0587H14.4697V33.8826H17.2936V31.0587Z" fill="#243840"/>
<path d="M20.1178 31.0587H17.2939V33.8826H20.1178V31.0587Z" fill="#D6E162"/>
<path d="M22.942 31.0587H20.1182V33.8826H22.942V31.0587Z" fill="#D6E162"/>
<path d="M25.7643 31.0587H22.9404V33.8826H25.7643V31.0587Z" fill="#D6E162"/>
<path d="M28.5885 31.0587H25.7646V33.8826H28.5885V31.0587Z" fill="#D6E162"/>
<path d="M31.4118 31.0587H28.5879V33.8826H31.4118V31.0587Z" fill="#D6E162"/>
<path d="M34.235 31.0587H31.4111V33.8826H34.235V31.0587Z" fill="#D6E162"/>
<path d="M37.0592 31.0587H34.2354V33.8826H37.0592V31.0587Z" fill="#D6E162"/>
<path d="M39.8825 31.0587H37.0586V33.8826H39.8825V31.0587Z" fill="#D6E162"/>
<path d="M42.7057 31.0587H39.8818V33.8826H42.7057V31.0587Z" fill="#D6E162"/>
<path d="M45.5299 31.0587H42.7061V33.8826H45.5299V31.0587Z" fill="#D6E162"/>
<path d="M48.3532 31.0587H45.5293V33.8826H48.3532V31.0587Z" fill="#D6E162"/>
<path d="M51.1764 31.0587H48.3525V33.8826H51.1764V31.0587Z" fill="#D6E162"/>
<path d="M54.0006 31.0587H51.1768V33.8826H54.0006V31.0587Z" fill="#D6E162"/>
<path d="M56.8239 31.0587H54V33.8826H56.8239V31.0587Z" fill="#D6E162"/>
<path d="M59.6471 31.0587H56.8232V33.8826H59.6471V31.0587Z" fill="#D6E162"/>
<path d="M62.4713 31.0587H59.6475V33.8826H62.4713V31.0587Z" fill="#D6E162"/>
<path d="M65.2946 31.0587H62.4707V33.8826H65.2946V31.0587Z" fill="#D6E162"/>
<path d="M68.1178 31.0587H65.2939V33.8826H68.1178V31.0587Z" fill="#D6E162"/>
<path d="M70.942 31.0587H68.1182V33.8826H70.942V31.0587Z" fill="#D6E162"/>
<path d="M73.7653 31.0587H70.9414V33.8826H73.7653V31.0587Z" fill="#D6E162"/>
<path d="M76.5885 31.0587H73.7646V33.8826H76.5885V31.0587Z" fill="#D6E162"/>
<path d="M79.4118 31.0587H76.5879V33.8826H79.4118V31.0587Z" fill="#D6E162"/>
<path d="M82.236 31.0587H79.4121V33.8826H82.236V31.0587Z" fill="#D6E162"/>
<path d="M85.0592 31.0587H82.2354V33.8826H85.0592V31.0587Z" fill="#D6E162"/>
<path d="M87.8825 31.0587H85.0586V33.8826H87.8825V31.0587Z" fill="#D6E162"/>
<path d="M90.7067 31.0587H87.8828V33.8826H90.7067V31.0587Z" fill="#D6E162"/>
<path d="M93.5299 31.0587H90.7061V33.8826H93.5299V31.0587Z" fill="#D6E162"/>
<path d="M96.3532 31.0587H93.5293V33.8826H96.3532V31.0587Z" fill="#D6E162"/>
<path d="M99.1774 31.0587H96.3535V33.8826H99.1774V31.0587Z" fill="#D6E162"/>
<path d="M102.001 31.0587H99.1768V33.8826H102.001V31.0587Z" fill="#D6E162"/>
<path d="M104.824 31.0587H102V33.8826H104.824V31.0587Z" fill="#D6E162"/>
<path d="M107.648 31.0587H104.824V33.8826H107.648V31.0587Z" fill="#D6E162"/>
<path d="M118.942 31.0587H116.118V33.8826H118.942V31.0587Z" fill="#D6E162"/>
<path d="M121.765 31.0587H118.941V33.8826H121.765V31.0587Z" fill="#D6E162"/>
<path d="M124.59 31.0587H121.766V33.8826H124.59V31.0587Z" fill="#D6E162"/>
<path d="M127.412 31.0587H124.588V33.8826H127.412V31.0587Z" fill="#FAF1D4"/>
<path d="M130.236 31.0587H127.412V33.8826H130.236V31.0587Z" fill="#FAF1D4"/>
<path d="M133.06 31.0587H130.236V33.8826H133.06V31.0587Z" fill="#243840"/>
<path d="M135.882 31.0587H133.059V33.8826H135.882V31.0587Z" fill="#3F646E"/>
<path d="M138.707 31.0587H135.883V33.8826H138.707V31.0587Z" fill="#3F646E"/>
<path d="M141.531 31.0587H138.707V33.8826H141.531V31.0587Z" fill="#3F646E"/>
<path d="M144.353 31.0587H141.529V33.8826H144.353V31.0587Z" fill="#3F646E"/>
<path d="M147.177 31.0587H144.354V33.8826H147.177V31.0587Z" fill="#243840"/>
<path d="M3.17641 33.8826H0.352539V36.7064H3.17641V33.8826Z" fill="#243840"/>
<path d="M6.00063 33.8826H3.17676V36.7064H6.00063V33.8826Z" fill="#3F646E"/>
<path d="M8.8229 33.8826H5.99902V36.7064H8.8229V33.8826Z" fill="#3F646E"/>
<path d="M11.6471 33.8826H8.82324V36.7064H11.6471V33.8826Z" fill="#3F646E"/>
<path d="M14.4713 33.8826H11.6475V36.7064H14.4713V33.8826Z" fill="#243840"/>
<path d="M17.2936 33.8826H14.4697V36.7064H17.2936V33.8826Z" fill="#3F646E"/>
<path d="M20.1178 33.8826H17.2939V36.7064H20.1178V33.8826Z" fill="#3F646E"/>
<path d="M22.942 33.8826H20.1182V36.7064H22.942V33.8826Z" fill="#3F646E"/>
<path d="M25.7643 33.8826H22.9404V36.7064H25.7643V33.8826Z" fill="#3F646E"/>
<path d="M28.5885 33.8826H25.7646V36.7064H28.5885V33.8826Z" fill="#3F646E"/>
<path d="M31.4118 33.8826H28.5879V36.7064H31.4118V33.8826Z" fill="#3F646E"/>
<path d="M34.235 33.8826H31.4111V36.7064H34.235V33.8826Z" fill="#3F646E"/>
<path d="M37.0592 33.8826H34.2354V36.7064H37.0592V33.8826Z" fill="#3F646E"/>
<path d="M39.8825 33.8826H37.0586V36.7064H39.8825V33.8826Z" fill="#3F646E"/>
<path d="M42.7057 33.8826H39.8818V36.7064H42.7057V33.8826Z" fill="#3F646E"/>
<path d="M45.5299 33.8826H42.7061V36.7064H45.5299V33.8826Z" fill="#3F646E"/>
<path d="M48.3532 33.8826H45.5293V36.7064H48.3532V33.8826Z" fill="#3F646E"/>
<path d="M51.1764 33.8826H48.3525V36.7064H51.1764V33.8826Z" fill="#3F646E"/>
<path d="M54.0006 33.8826H51.1768V36.7064H54.0006V33.8826Z" fill="#3F646E"/>
<path d="M56.8239 33.8826H54V36.7064H56.8239V33.8826Z" fill="#3F646E"/>
<path d="M59.6471 33.8826H56.8232V36.7064H59.6471V33.8826Z" fill="#3F646E"/>
<path d="M62.4713 33.8826H59.6475V36.7064H62.4713V33.8826Z" fill="#3F646E"/>
<path d="M65.2946 33.8826H62.4707V36.7064H65.2946V33.8826Z" fill="#3F646E"/>
<path d="M68.1178 33.8826H65.2939V36.7064H68.1178V33.8826Z" fill="#3F646E"/>
<path d="M70.942 33.8826H68.1182V36.7064H70.942V33.8826Z" fill="#3F646E"/>
<path d="M73.7653 33.8826H70.9414V36.7064H73.7653V33.8826Z" fill="#3F646E"/>
<path d="M76.5885 33.8826H73.7646V36.7064H76.5885V33.8826Z" fill="#3F646E"/>
<path d="M79.4118 33.8826H76.5879V36.7064H79.4118V33.8826Z" fill="#3F646E"/>
<path d="M82.236 33.8826H79.4121V36.7064H82.236V33.8826Z" fill="#3F646E"/>
<path d="M85.0592 33.8826H82.2354V36.7064H85.0592V33.8826Z" fill="#3F646E"/>
<path d="M87.8825 33.8826H85.0586V36.7064H87.8825V33.8826Z" fill="#3F646E"/>
<path d="M90.7067 33.8826H87.8828V36.7064H90.7067V33.8826Z" fill="#3F646E"/>
<path d="M93.5299 33.8826H90.7061V36.7064H93.5299V33.8826Z" fill="#3F646E"/>
<path d="M96.3532 33.8826H93.5293V36.7064H96.3532V33.8826Z" fill="#3F646E"/>
<path d="M99.1774 33.8826H96.3535V36.7064H99.1774V33.8826Z" fill="#3F646E"/>
<path d="M102.001 33.8826H99.1768V36.7064H102.001V33.8826Z" fill="#3F646E"/>
<path d="M104.824 33.8826H102V36.7064H104.824V33.8826Z" fill="#3F646E"/>
<path d="M107.648 33.8826H104.824V36.7064H107.648V33.8826Z" fill="#3F646E"/>
<path d="M118.942 33.8826H116.118V36.7064H118.942V33.8826Z" fill="#3F646E"/>
<path d="M121.765 33.8826H118.941V36.7064H121.765V33.8826Z" fill="#3F646E"/>
<path d="M124.59 33.8826H121.766V36.7064H124.59V33.8826Z" fill="#3F646E"/>
<path d="M127.412 33.8826H124.588V36.7064H127.412V33.8826Z" fill="#3F646E"/>
<path d="M130.236 33.8826H127.412V36.7064H130.236V33.8826Z" fill="#3F646E"/>
<path d="M133.06 33.8826H130.236V36.7064H133.06V33.8826Z" fill="#3F646E"/>
<path d="M135.882 33.8826H133.059V36.7064H135.882V33.8826Z" fill="#243840"/>
<path d="M138.707 33.8826H135.883V36.7064H138.707V33.8826Z" fill="#3F646E"/>
<path d="M141.531 33.8826H138.707V36.7064H141.531V33.8826Z" fill="#3F646E"/>
<path d="M144.353 33.8826H141.529V36.7064H144.353V33.8826Z" fill="#3F646E"/>
<path d="M147.177 33.8826H144.354V36.7064H147.177V33.8826Z" fill="#243840"/>
<path d="M3.17641 36.7065H0.352539V39.5304H3.17641V36.7065Z" fill="#243840"/>
<path d="M6.00063 36.7065H3.17676V39.5304H6.00063V36.7065Z" fill="#3F646E"/>
<path d="M8.8229 36.7065H5.99902V39.5304H8.8229V36.7065Z" fill="#3F646E"/>
<path d="M11.6471 36.7065H8.82324V39.5304H11.6471V36.7065Z" fill="#243840"/>
<path d="M14.4713 36.7065H11.6475V39.5304H14.4713V36.7065Z" fill="#3F646E"/>
<path d="M17.2936 36.7065H14.4697V39.5304H17.2936V36.7065Z" fill="#3F646E"/>
<path d="M20.1178 36.7065H17.2939V39.5304H20.1178V36.7065Z" fill="#3F646E"/>
<path d="M22.942 36.7065H20.1182V39.5304H22.942V36.7065Z" fill="#3F646E"/>
<path d="M25.7643 36.7065H22.9404V39.5304H25.7643V36.7065Z" fill="#3F646E"/>
<path d="M28.5885 36.7065H25.7646V39.5304H28.5885V36.7065Z" fill="#3F646E"/>
<path d="M31.4118 36.7065H28.5879V39.5304H31.4118V36.7065Z" fill="#3F646E"/>
<path d="M34.235 36.7065H31.4111V39.5304H34.235V36.7065Z" fill="#3F646E"/>
<path d="M37.0592 36.7065H34.2354V39.5304H37.0592V36.7065Z" fill="#3F646E"/>
<path d="M39.8825 36.7065H37.0586V39.5304H39.8825V36.7065Z" fill="#3F646E"/>
<path d="M42.7057 36.7065H39.8818V39.5304H42.7057V36.7065Z" fill="#3F646E"/>
<path d="M45.5299 36.7065H42.7061V39.5304H45.5299V36.7065Z" fill="#3F646E"/>
<path d="M48.3532 36.7065H45.5293V39.5304H48.3532V36.7065Z" fill="#3F646E"/>
<path d="M51.1764 36.7065H48.3525V39.5304H51.1764V36.7065Z" fill="#3F646E"/>
<path d="M54.0006 36.7065H51.1768V39.5304H54.0006V36.7065Z" fill="#3F646E"/>
<path d="M56.8239 36.7065H54V39.5304H56.8239V36.7065Z" fill="#3F646E"/>
<path d="M59.6471 36.7065H56.8232V39.5304H59.6471V36.7065Z" fill="#3F646E"/>
<path d="M62.4713 36.7065H59.6475V39.5304H62.4713V36.7065Z" fill="#3F646E"/>
<path d="M65.2946 36.7065H62.4707V39.5304H65.2946V36.7065Z" fill="#3F646E"/>
<path d="M68.1178 36.7065H65.2939V39.5304H68.1178V36.7065Z" fill="#3F646E"/>
<path d="M70.942 36.7065H68.1182V39.5304H70.942V36.7065Z" fill="#3F646E"/>
<path d="M73.7653 36.7065H70.9414V39.5304H73.7653V36.7065Z" fill="#3F646E"/>
<path d="M76.5885 36.7065H73.7646V39.5304H76.5885V36.7065Z" fill="#3F646E"/>
<path d="M79.4118 36.7065H76.5879V39.5304H79.4118V36.7065Z" fill="#3F646E"/>
<path d="M82.236 36.7065H79.4121V39.5304H82.236V36.7065Z" fill="#3F646E"/>
<path d="M85.0592 36.7065H82.2354V39.5304H85.0592V36.7065Z" fill="#3F646E"/>
<path d="M87.8825 36.7065H85.0586V39.5304H87.8825V36.7065Z" fill="#3F646E"/>
<path d="M90.7067 36.7065H87.8828V39.5304H90.7067V36.7065Z" fill="#3F646E"/>
<path d="M93.5299 36.7065H90.7061V39.5304H93.5299V36.7065Z" fill="#3F646E"/>
<path d="M96.3532 36.7065H93.5293V39.5304H96.3532V36.7065Z" fill="#3F646E"/>
<path d="M99.1774 36.7065H96.3535V39.5304H99.1774V36.7065Z" fill="#3F646E"/>
<path d="M102.001 36.7065H99.1768V39.5304H102.001V36.7065Z" fill="#3F646E"/>
<path d="M104.824 36.7065H102V39.5304H104.824V36.7065Z" fill="#3F646E"/>
<path d="M107.648 36.7065H104.824V39.5304H107.648V36.7065Z" fill="#3F646E"/>
<path d="M118.942 36.7065H116.118V39.5304H118.942V36.7065Z" fill="#3F646E"/>
<path d="M121.765 36.7065H118.941V39.5304H121.765V36.7065Z" fill="#3F646E"/>
<path d="M124.59 36.7065H121.766V39.5304H124.59V36.7065Z" fill="#3F646E"/>
<path d="M127.412 36.7065H124.588V39.5304H127.412V36.7065Z" fill="#3F646E"/>
<path d="M130.236 36.7065H127.412V39.5304H130.236V36.7065Z" fill="#3F646E"/>
<path d="M133.06 36.7065H130.236V39.5304H133.06V36.7065Z" fill="#3F646E"/>
<path d="M135.882 36.7065H133.059V39.5304H135.882V36.7065Z" fill="#3F646E"/>
<path d="M138.707 36.7065H135.883V39.5304H138.707V36.7065Z" fill="#243840"/>
<path d="M141.531 36.7065H138.707V39.5304H141.531V36.7065Z" fill="#3F646E"/>
<path d="M144.353 36.7065H141.529V39.5304H144.353V36.7065Z" fill="#3F646E"/>
<path d="M147.177 36.7065H144.354V39.5304H147.177V36.7065Z" fill="#243840"/>
<path d="M3.17641 39.5294H0.352539V42.3532H3.17641V39.5294Z" fill="#243840"/>
<path d="M6.00063 39.5294H3.17676V42.3532H6.00063V39.5294Z" fill="#3F646E"/>
<path d="M8.8229 39.5294H5.99902V42.3532H8.8229V39.5294Z" fill="#243840"/>
<path d="M11.6471 39.5294H8.82324V42.3532H11.6471V39.5294Z" fill="#3F646E"/>
<path d="M14.4713 39.5294H11.6475V42.3532H14.4713V39.5294Z" fill="#3F646E"/>
<path d="M17.2936 39.5294H14.4697V42.3532H17.2936V39.5294Z" fill="#3F646E"/>
<path d="M20.1178 39.5294H17.2939V42.3532H20.1178V39.5294Z" fill="#3F646E"/>
<path d="M22.942 39.5294H20.1182V42.3532H22.942V39.5294Z" fill="#3F646E"/>
<path d="M25.7643 39.5294H22.9404V42.3532H25.7643V39.5294Z" fill="#3F646E"/>
<path d="M28.5885 39.5294H25.7646V42.3532H28.5885V39.5294Z" fill="#3F646E"/>
<path d="M31.4118 39.5294H28.5879V42.3532H31.4118V39.5294Z" fill="#3F646E"/>
<path d="M34.235 39.5294H31.4111V42.3532H34.235V39.5294Z" fill="#3F646E"/>
<path d="M37.0592 39.5294H34.2354V42.3532H37.0592V39.5294Z" fill="#3F646E"/>
<path d="M39.8825 39.5294H37.0586V42.3532H39.8825V39.5294Z" fill="#3F646E"/>
<path d="M42.7057 39.5294H39.8818V42.3532H42.7057V39.5294Z" fill="#3F646E"/>
<path d="M45.5299 39.5294H42.7061V42.3532H45.5299V39.5294Z" fill="#3F646E"/>
<path d="M48.3532 39.5294H45.5293V42.3532H48.3532V39.5294Z" fill="#3F646E"/>
<path d="M51.1764 39.5294H48.3525V42.3532H51.1764V39.5294Z" fill="#3F646E"/>
<path d="M54.0006 39.5294H51.1768V42.3532H54.0006V39.5294Z" fill="#3F646E"/>
<path d="M56.8239 39.5294H54V42.3532H56.8239V39.5294Z" fill="#3F646E"/>
<path d="M59.6471 39.5294H56.8232V42.3532H59.6471V39.5294Z" fill="#3F646E"/>
<path d="M62.4713 39.5294H59.6475V42.3532H62.4713V39.5294Z" fill="#3F646E"/>
<path d="M65.2946 39.5294H62.4707V42.3532H65.2946V39.5294Z" fill="#3F646E"/>
<path d="M68.1178 39.5294H65.2939V42.3532H68.1178V39.5294Z" fill="#3F646E"/>
<path d="M70.942 39.5294H68.1182V42.3532H70.942V39.5294Z" fill="#3F646E"/>
<path d="M73.7653 39.5294H70.9414V42.3532H73.7653V39.5294Z" fill="#3F646E"/>
<path d="M76.5885 39.5294H73.7646V42.3532H76.5885V39.5294Z" fill="#3F646E"/>
<path d="M79.4118 39.5294H76.5879V42.3532H79.4118V39.5294Z" fill="#3F646E"/>
<path d="M82.236 39.5294H79.4121V42.3532H82.236V39.5294Z" fill="#3F646E"/>
<path d="M85.0592 39.5294H82.2354V42.3532H85.0592V39.5294Z" fill="#3F646E"/>
<path d="M87.8825 39.5294H85.0586V42.3532H87.8825V39.5294Z" fill="#3F646E"/>
<path d="M90.7067 39.5294H87.8828V42.3532H90.7067V39.5294Z" fill="#3F646E"/>
<path d="M93.5299 39.5294H90.7061V42.3532H93.5299V39.5294Z" fill="#3F646E"/>
<path d="M96.3532 39.5294H93.5293V42.3532H96.3532V39.5294Z" fill="#3F646E"/>
<path d="M99.1774 39.5294H96.3535V42.3532H99.1774V39.5294Z" fill="#3F646E"/>
<path d="M102.001 39.5294H99.1768V42.3532H102.001V39.5294Z" fill="#3F646E"/>
<path d="M104.824 39.5294H102V42.3532H104.824V39.5294Z" fill="#3F646E"/>
<path d="M107.648 39.5294H104.824V42.3532H107.648V39.5294Z" fill="#3F646E"/>
<path d="M118.942 39.5294H116.118V42.3532H118.942V39.5294Z" fill="#3F646E"/>
<path d="M121.765 39.5294H118.941V42.3532H121.765V39.5294Z" fill="#3F646E"/>
<path d="M124.59 39.5294H121.766V42.3532H124.59V39.5294Z" fill="#3F646E"/>
<path d="M127.412 39.5294H124.588V42.3532H127.412V39.5294Z" fill="#3F646E"/>
<path d="M130.236 39.5294H127.412V42.3532H130.236V39.5294Z" fill="#3F646E"/>
<path d="M133.06 39.5294H130.236V42.3532H133.06V39.5294Z" fill="#3F646E"/>
<path d="M135.882 39.5294H133.059V42.3532H135.882V39.5294Z" fill="#3F646E"/>
<path d="M138.707 39.5294H135.883V42.3532H138.707V39.5294Z" fill="#3F646E"/>
<path d="M141.531 39.5294H138.707V42.3532H141.531V39.5294Z" fill="#243840"/>
<path d="M144.353 39.5294H141.529V42.3532H144.353V39.5294Z" fill="#3F646E"/>
<path d="M147.177 39.5294H144.354V42.3532H147.177V39.5294Z" fill="#243840"/>
<path d="M6.00063 42.3532H3.17676V45.1771H6.00063V42.3532Z" fill="#243840"/>
<path d="M8.8229 42.3532H5.99902V45.1771H8.8229V42.3532Z" fill="#3F646E"/>
<path d="M11.6471 42.3532H8.82324V45.1771H11.6471V42.3532Z" fill="#3F646E"/>
<path d="M14.4713 42.3532H11.6475V45.1771H14.4713V42.3532Z" fill="#3F646E"/>
<path d="M17.2936 42.3532H14.4697V45.1771H17.2936V42.3532Z" fill="#3F646E"/>
<path d="M20.1178 42.3532H17.2939V45.1771H20.1178V42.3532Z" fill="#3F646E"/>
<path d="M22.942 42.3532H20.1182V45.1771H22.942V42.3532Z" fill="#3F646E"/>
<path d="M25.7643 42.3532H22.9404V45.1771H25.7643V42.3532Z" fill="#3F646E"/>
<path d="M28.5885 42.3532H25.7646V45.1771H28.5885V42.3532Z" fill="#3F646E"/>
<path d="M31.4118 42.3532H28.5879V45.1771H31.4118V42.3532Z" fill="#3F646E"/>
<path d="M34.235 42.3532H31.4111V45.1771H34.235V42.3532Z" fill="#3F646E"/>
<path d="M37.0592 42.3532H34.2354V45.1771H37.0592V42.3532Z" fill="#3F646E"/>
<path d="M39.8825 42.3532H37.0586V45.1771H39.8825V42.3532Z" fill="#3F646E"/>
<path d="M42.7057 42.3532H39.8818V45.1771H42.7057V42.3532Z" fill="#3F646E"/>
<path d="M45.5299 42.3532H42.7061V45.1771H45.5299V42.3532Z" fill="#3F646E"/>
<path d="M48.3532 42.3532H45.5293V45.1771H48.3532V42.3532Z" fill="#3F646E"/>
<path d="M51.1764 42.3532H48.3525V45.1771H51.1764V42.3532Z" fill="#3F646E"/>
<path d="M54.0006 42.3532H51.1768V45.1771H54.0006V42.3532Z" fill="#3F646E"/>
<path d="M56.8239 42.3532H54V45.1771H56.8239V42.3532Z" fill="#3F646E"/>
<path d="M59.6471 42.3532H56.8232V45.1771H59.6471V42.3532Z" fill="#3F646E"/>
<path d="M62.4713 42.3532H59.6475V45.1771H62.4713V42.3532Z" fill="#3F646E"/>
<path d="M65.2946 42.3532H62.4707V45.1771H65.2946V42.3532Z" fill="#3F646E"/>
<path d="M68.1178 42.3532H65.2939V45.1771H68.1178V42.3532Z" fill="#3F646E"/>
<path d="M70.942 42.3532H68.1182V45.1771H70.942V42.3532Z" fill="#3F646E"/>
<path d="M73.7653 42.3532H70.9414V45.1771H73.7653V42.3532Z" fill="#3F646E"/>
<path d="M76.5885 42.3532H73.7646V45.1771H76.5885V42.3532Z" fill="#3F646E"/>
<path d="M79.4118 42.3532H76.5879V45.1771H79.4118V42.3532Z" fill="#3F646E"/>
<path d="M82.236 42.3532H79.4121V45.1771H82.236V42.3532Z" fill="#3F646E"/>
<path d="M85.0592 42.3532H82.2354V45.1771H85.0592V42.3532Z" fill="#3F646E"/>
<path d="M87.8825 42.3532H85.0586V45.1771H87.8825V42.3532Z" fill="#3F646E"/>
<path d="M90.7067 42.3532H87.8828V45.1771H90.7067V42.3532Z" fill="#3F646E"/>
<path d="M93.5299 42.3532H90.7061V45.1771H93.5299V42.3532Z" fill="#3F646E"/>
<path d="M96.3532 42.3532H93.5293V45.1771H96.3532V42.3532Z" fill="#3F646E"/>
<path d="M99.1774 42.3532H96.3535V45.1771H99.1774V42.3532Z" fill="#3F646E"/>
<path d="M102.001 42.3532H99.1768V45.1771H102.001V42.3532Z" fill="#3F646E"/>
<path d="M104.824 42.3532H102V45.1771H104.824V42.3532Z" fill="#3F646E"/>
<path d="M107.648 42.3532H104.824V45.1771H107.648V42.3532Z" fill="#3F646E"/>
<path d="M118.942 42.3532H116.118V45.1771H118.942V42.3532Z" fill="#3F646E"/>
<path d="M121.765 42.3532H118.941V45.1771H121.765V42.3532Z" fill="#3F646E"/>
<path d="M124.59 42.3532H121.766V45.1771H124.59V42.3532Z" fill="#3F646E"/>
<path d="M127.412 42.3532H124.588V45.1771H127.412V42.3532Z" fill="#3F646E"/>
<path d="M130.236 42.3532H127.412V45.1771H130.236V42.3532Z" fill="#3F646E"/>
<path d="M133.06 42.3532H130.236V45.1771H133.06V42.3532Z" fill="#3F646E"/>
<path d="M135.882 42.3532H133.059V45.1771H135.882V42.3532Z" fill="#3F646E"/>
<path d="M138.707 42.3532H135.883V45.1771H138.707V42.3532Z" fill="#3F646E"/>
<path d="M141.531 42.3532H138.707V45.1771H141.531V42.3532Z" fill="#3F646E"/>
<path d="M144.353 42.3532H141.529V45.1771H144.353V42.3532Z" fill="#243840"/>
<path d="M8.8229 45.1771H5.99902V48.001H8.8229V45.1771Z" fill="#243840"/>
<path d="M11.6471 45.1771H8.82324V48.001H11.6471V45.1771Z" fill="#243840"/>
<path d="M14.4713 45.1771H11.6475V48.001H14.4713V45.1771Z" fill="#243840"/>
<path d="M17.2936 45.1771H14.4697V48.001H17.2936V45.1771Z" fill="#243840"/>
<path d="M20.1178 45.1771H17.2939V48.001H20.1178V45.1771Z" fill="#243840"/>
<path d="M22.942 45.1771H20.1182V48.001H22.942V45.1771Z" fill="#243840"/>
<path d="M25.7643 45.1771H22.9404V48.001H25.7643V45.1771Z" fill="#243840"/>
<path d="M28.5885 45.1771H25.7646V48.001H28.5885V45.1771Z" fill="#243840"/>
<path d="M31.4118 45.1771H28.5879V48.001H31.4118V45.1771Z" fill="#243840"/>
<path d="M34.235 45.1771H31.4111V48.001H34.235V45.1771Z" fill="#243840"/>
<path d="M37.0592 45.1771H34.2354V48.001H37.0592V45.1771Z" fill="#243840"/>
<path d="M39.8825 45.1771H37.0586V48.001H39.8825V45.1771Z" fill="#243840"/>
<path d="M42.7057 45.1771H39.8818V48.001H42.7057V45.1771Z" fill="#243840"/>
<path d="M45.5299 45.1771H42.7061V48.001H45.5299V45.1771Z" fill="#243840"/>
<path d="M48.3532 45.1771H45.5293V48.001H48.3532V45.1771Z" fill="#243840"/>
<path d="M51.1764 45.1771H48.3525V48.001H51.1764V45.1771Z" fill="#243840"/>
<path d="M54.0006 45.1771H51.1768V48.001H54.0006V45.1771Z" fill="#243840"/>
<path d="M56.8239 45.1771H54V48.001H56.8239V45.1771Z" fill="#243840"/>
<path d="M59.6471 45.1771H56.8232V48.001H59.6471V45.1771Z" fill="#243840"/>
<path d="M62.4713 45.1771H59.6475V48.001H62.4713V45.1771Z" fill="#243840"/>
<path d="M65.2946 45.1771H62.4707V48.001H65.2946V45.1771Z" fill="#243840"/>
<path d="M68.1178 45.1771H65.2939V48.001H68.1178V45.1771Z" fill="#243840"/>
<path d="M70.942 45.1771H68.1182V48.001H70.942V45.1771Z" fill="#243840"/>
<path d="M73.7653 45.1771H70.9414V48.001H73.7653V45.1771Z" fill="#243840"/>
<path d="M76.5885 45.1771H73.7646V48.001H76.5885V45.1771Z" fill="#243840"/>
<path d="M79.4118 45.1771H76.5879V48.001H79.4118V45.1771Z" fill="#243840"/>
<path d="M82.236 45.1771H79.4121V48.001H82.236V45.1771Z" fill="#243840"/>
<path d="M85.0592 45.1771H82.2354V48.001H85.0592V45.1771Z" fill="#243840"/>
<path d="M87.8825 45.1771H85.0586V48.001H87.8825V45.1771Z" fill="#243840"/>
<path d="M90.7067 45.1771H87.8828V48.001H90.7067V45.1771Z" fill="#243840"/>
<path d="M93.5299 45.1771H90.7061V48.001H93.5299V45.1771Z" fill="#243840"/>
<path d="M96.3532 45.1771H93.5293V48.001H96.3532V45.1771Z" fill="#243840"/>
<path d="M99.1774 45.1771H96.3535V48.001H99.1774V45.1771Z" fill="#243840"/>
<path d="M102.001 45.1771H99.1768V48.001H102.001V45.1771Z" fill="#243840"/>
<path d="M104.824 45.1771H102V48.001H104.824V45.1771Z" fill="#243840"/>
<path d="M107.648 45.1771H104.824V48.001H107.648V45.1771Z" fill="#243840"/>
<path d="M110.471 0H107.647V2.82388H110.471V0Z" fill="#243840"/>
<path d="M113.295 0H110.471V2.82388H113.295V0Z" fill="#243840"/>
<path d="M116.119 0H113.295V2.82388H116.119V0Z" fill="#243840"/>
<path d="M110.471 2.82385H107.647V5.64773H110.471V2.82385Z" fill="#D6E162"/>
<path d="M113.295 2.82385H110.471V5.64773H113.295V2.82385Z" fill="#D6E162"/>
<path d="M116.119 2.82385H113.295V5.64773H116.119V2.82385Z" fill="#D6E162"/>
<path d="M110.471 5.64679H107.647V8.47066H110.471V5.64679Z" fill="#6BB37C"/>
<path d="M113.295 5.64679H110.471V8.47066H113.295V5.64679Z" fill="#6BB37C"/>
<path d="M116.119 5.64679H113.295V8.47066H116.119V5.64679Z" fill="#6BB37C"/>
<path d="M110.471 8.47064H107.647V11.2945H110.471V8.47064Z" fill="#6BB37C"/>
<path d="M113.295 8.47064H110.471V11.2945H113.295V8.47064Z" fill="#6BB37C"/>
<path d="M116.119 8.47064H113.295V11.2945H116.119V8.47064Z" fill="#6BB37C"/>
<path d="M110.471 11.2945H107.647V14.1184H110.471V11.2945Z" fill="#6BB37C"/>
<path d="M113.295 11.2945H110.471V14.1184H113.295V11.2945Z" fill="#6BB37C"/>
<path d="M116.119 11.2945H113.295V14.1184H116.119V11.2945Z" fill="#6BB37C"/>
<path d="M110.471 14.1174H107.647V16.9413H110.471V14.1174Z" fill="#6BB37C"/>
<path d="M113.295 14.1174H110.471V16.9413H113.295V14.1174Z" fill="#6BB37C"/>
<path d="M116.119 14.1174H113.295V16.9413H116.119V14.1174Z" fill="#6BB37C"/>
<path d="M110.471 16.9413H107.647V19.7652H110.471V16.9413Z" fill="#6BB37C"/>
<path d="M113.295 16.9413H110.471V19.7652H113.295V16.9413Z" fill="#6BB37C"/>
<path d="M116.119 16.9413H113.295V19.7652H116.119V16.9413Z" fill="#6BB37C"/>
<path d="M110.471 19.7651H107.647V22.589H110.471V19.7651Z" fill="#6BB37C"/>
<path d="M113.295 19.7651H110.471V22.589H113.295V19.7651Z" fill="#6BB37C"/>
<path d="M116.119 19.7651H113.295V22.589H116.119V19.7651Z" fill="#6BB37C"/>
<path d="M110.471 22.5881H107.647V25.412H110.471V22.5881Z" fill="#6BB37C"/>
<path d="M113.295 22.5881H110.471V25.412H113.295V22.5881Z" fill="#6BB37C"/>
<path d="M116.119 22.5881H113.295V25.412H116.119V22.5881Z" fill="#6BB37C"/>
<path d="M110.471 25.4119H107.647V28.2358H110.471V25.4119Z" fill="#6BB37C"/>
<path d="M113.295 25.4119H110.471V28.2358H113.295V25.4119Z" fill="#6BB37C"/>
<path d="M116.119 25.4119H113.295V28.2358H116.119V25.4119Z" fill="#6BB37C"/>
<path d="M110.471 28.2358H107.647V31.0597H110.471V28.2358Z" fill="#6BB37C"/>
<path d="M113.295 28.2358H110.471V31.0597H113.295V28.2358Z" fill="#6BB37C"/>
<path d="M116.119 28.2358H113.295V31.0597H116.119V28.2358Z" fill="#6BB37C"/>
<path d="M110.471 31.0587H107.647V33.8826H110.471V31.0587Z" fill="#D6E162"/>
<path d="M113.295 31.0587H110.471V33.8826H113.295V31.0587Z" fill="#D6E162"/>
<path d="M116.119 31.0587H113.295V33.8826H116.119V31.0587Z" fill="#D6E162"/>
<path d="M110.471 33.8826H107.647V36.7064H110.471V33.8826Z" fill="#3F646E"/>
<path d="M113.295 33.8826H110.471V36.7064H113.295V33.8826Z" fill="#3F646E"/>
<path d="M116.119 33.8826H113.295V36.7064H116.119V33.8826Z" fill="#3F646E"/>
<path d="M110.471 36.7065H107.647V39.5304H110.471V36.7065Z" fill="#3F646E"/>
<path d="M113.295 36.7065H110.471V39.5304H113.295V36.7065Z" fill="#3F646E"/>
<path d="M116.119 36.7065H113.295V39.5304H116.119V36.7065Z" fill="#3F646E"/>
<path d="M110.471 39.5294H107.647V42.3532H110.471V39.5294Z" fill="#3F646E"/>
<path d="M113.295 39.5294H110.471V42.3532H113.295V39.5294Z" fill="#3F646E"/>
<path d="M116.119 39.5294H113.295V42.3532H116.119V39.5294Z" fill="#3F646E"/>
<path d="M110.471 42.3532H107.647V45.1771H110.471V42.3532Z" fill="#3F646E"/>
<path d="M113.295 42.3532H110.471V45.1771H113.295V42.3532Z" fill="#3F646E"/>
<path d="M116.119 42.3532H113.295V45.1771H116.119V42.3532Z" fill="#3F646E"/>
<path d="M110.471 45.1771H107.647V48.001H110.471V45.1771Z" fill="#243840"/>
<path d="M113.295 45.1771H110.471V48.001H113.295V45.1771Z" fill="#243840"/>
<path d="M116.119 45.1771H113.295V48.001H116.119V45.1771Z" fill="#243840"/>
<path d="M118.942 45.1771H116.118V48.001H118.942V45.1771Z" fill="#243840"/>
<path d="M121.765 45.1771H118.941V48.001H121.765V45.1771Z" fill="#243840"/>
<path d="M124.59 45.1771H121.766V48.001H124.59V45.1771Z" fill="#243840"/>
<path d="M127.412 45.1771H124.588V48.001H127.412V45.1771Z" fill="#243840"/>
<path d="M130.236 45.1771H127.412V48.001H130.236V45.1771Z" fill="#243840"/>
<path d="M133.06 45.1771H130.236V48.001H133.06V45.1771Z" fill="#243840"/>
<path d="M135.882 45.1771H133.059V48.001H135.882V45.1771Z" fill="#243840"/>
<path d="M138.707 45.1771H135.883V48.001H138.707V45.1771Z" fill="#243840"/>
<path d="M141.531 45.1771H138.707V48.001H141.531V45.1771Z" fill="#243840"/>
<path d="M34.4601 25.3972H26.7285V11.222H35.749V12.5109H37.038V24.1093H35.749V25.3982H34.4601V25.3972ZM33.1712 22.8204H34.4601V13.7998H29.3054V22.8204H33.1712Z" fill="#FAF3D4"/>
<path d="M44.77 25.3972H40.9042V24.1083H39.6152V16.3767H40.9042V15.0878H46.0589V16.3767H47.3478V24.1083H46.0589V25.3972H44.77ZM43.481 22.8203H44.77V17.6656H42.1931V22.8203H43.482H43.481Z" fill="#FAF3D4"/>
<path d="M61.5212 25.3972H51.2118V24.1083H49.9229V15.0878H52.4997V22.8194H55.0766V15.0878H57.6535V22.8194H60.2303V15.0878H62.8072V25.3972H61.5183H61.5212Z" fill="#FAF3D4"/>
<path d="M71.8313 25.3972H70.5424V17.6656H67.9655V25.3972H65.3887V15.0878H71.8323V16.3767H73.1212V25.3972H71.8323H71.8313Z" fill="#FAF3D4"/>
<path d="M76.9862 25.3972H75.6973V11.222H78.2741V25.3972H76.9852H76.9862Z" fill="#FAF3D4"/>
<path d="M86.0063 25.3972H82.1405V24.1083H80.8516V16.3767H82.1405V15.0878H87.2952V16.3767H88.5841V24.1083H87.2952V25.3972H86.0063ZM84.7174 22.8203H86.0063V17.6656H83.4294V22.8203H84.7183H84.7174Z" fill="#FAF3D4"/>
<path d="M97.6048 25.3972H92.4501V24.1083H91.1611V16.3767H92.4501V15.0878H97.6048V16.3767H98.8937V25.3972H97.6048ZM95.0279 22.8203H96.3168V17.6656H93.74V22.8203H95.0289H95.0279Z" fill="#FAF3D4"/>
<path d="M109.203 25.3972H107.914V24.1083H106.625V25.3972H102.76V24.1083H101.471V16.3767H102.76V15.0878H106.625V16.3767H107.914V11.222H110.491V25.3972H109.202H109.203ZM105.337 22.8204H106.626V21.5314H107.915V18.9546H106.626V17.6656H104.05V22.8204H105.338H105.337Z" fill="#FAF3D4"/>
<path d="M118.224 25.3972H113.069V22.8203H118.224V21.5314H114.358V20.2425H113.069V16.3767H114.358V15.0878H120.802V17.6646H115.647V18.9536H119.513V20.2425H120.802V24.1083H119.513V25.3972H118.224Z" fill="#FAF3D4"/>
</g>
<defs>
<clipPath id="clip0_13294_8968">
<rect width="146.825" height="48" fill="white" transform="translate(0.352539)"/>
</clipPath>
</defs>
</svg>
