<svg width="136" height="48" viewBox="0 0 136 48" fill="none" xmlns="http://www.w3.org/2000/svg">
<g clip-path="url(#clip0_13294_8965)">
<path d="M8.58559 0H5.76172V2.82388H8.58559V0Z" fill="#35296E"/>
<path d="M11.4098 0H8.58594V2.82388H11.4098V0Z" fill="#35296E"/>
<path d="M14.234 0H11.4102V2.82388H14.234V0Z" fill="#35296E"/>
<path d="M17.0563 0H14.2324V2.82388H17.0563V0Z" fill="#35296E"/>
<path d="M19.8805 0H17.0566V2.82388H19.8805V0Z" fill="#35296E"/>
<path d="M22.7047 0H19.8809V2.82388H22.7047V0Z" fill="#35296E"/>
<path d="M25.527 0H22.7031V2.82388H25.527V0Z" fill="#35296E"/>
<path d="M28.3512 0H25.5273V2.82388H28.3512V0Z" fill="#35296E"/>
<path d="M31.1745 0H28.3506V2.82388H31.1745V0Z" fill="#35296E"/>
<path d="M33.9977 0H31.1738V2.82388H33.9977V0Z" fill="#35296E"/>
<path d="M36.8219 0H33.998V2.82388H36.8219V0Z" fill="#35296E"/>
<path d="M39.6452 0H36.8213V2.82388H39.6452V0Z" fill="#35296E"/>
<path d="M42.4684 0H39.6445V2.82388H42.4684V0Z" fill="#35296E"/>
<path d="M45.2926 0H42.4688V2.82388H45.2926V0Z" fill="#35296E"/>
<path d="M48.1159 0H45.292V2.82388H48.1159V0Z" fill="#35296E"/>
<path d="M50.9391 0H48.1152V2.82388H50.9391V0Z" fill="#35296E"/>
<path d="M53.7633 0H50.9395V2.82388H53.7633V0Z" fill="#35296E"/>
<path d="M56.5866 0H53.7627V2.82388H56.5866V0Z" fill="#35296E"/>
<path d="M59.4098 0H56.5859V2.82388H59.4098V0Z" fill="#35296E"/>
<path d="M62.234 0H59.4102V2.82388H62.234V0Z" fill="#35296E"/>
<path d="M65.0573 0H62.2334V2.82388H65.0573V0Z" fill="#35296E"/>
<path d="M67.8805 0H65.0566V2.82388H67.8805V0Z" fill="#35296E"/>
<path d="M70.7047 0H67.8809V2.82388H70.7047V0Z" fill="#35296E"/>
<path d="M73.528 0H70.7041V2.82388H73.528V0Z" fill="#35296E"/>
<path d="M76.3512 0H73.5273V2.82388H76.3512V0Z" fill="#35296E"/>
<path d="M79.1745 0H76.3506V2.82388H79.1745V0Z" fill="#35296E"/>
<path d="M81.9987 0H79.1748V2.82388H81.9987V0Z" fill="#35296E"/>
<path d="M84.8219 0H81.998V2.82388H84.8219V0Z" fill="#35296E"/>
<path d="M87.6452 0H84.8213V2.82388H87.6452V0Z" fill="#35296E"/>
<path d="M90.4694 0H87.6455V2.82388H90.4694V0Z" fill="#35296E"/>
<path d="M93.2926 0H90.4688V2.82388H93.2926V0Z" fill="#35296E"/>
<path d="M96.1159 0H93.292V2.82388H96.1159V0Z" fill="#35296E"/>
<path d="M98.9401 0H96.1162V2.82388H98.9401V0Z" fill="#35296E"/>
<path d="M101.763 0H98.9395V2.82388H101.763V0Z" fill="#35296E"/>
<path d="M104.587 0H101.763V2.82388H104.587V0Z" fill="#35296E"/>
<path d="M107.411 0H104.587V2.82388H107.411V0Z" fill="#35296E"/>
<path d="M110.234 0H107.41V2.82388H110.234V0Z" fill="#35296E"/>
<path d="M113.057 0H110.233V2.82388H113.057V0Z" fill="#35296E"/>
<path d="M118.705 0H115.881V2.82388H118.705V0Z" fill="#35296E"/>
<path d="M121.528 0H118.704V2.82388H121.528V0Z" fill="#35296E"/>
<path d="M124.352 0H121.528V2.82388H124.352V0Z" fill="#35296E"/>
<path d="M127.174 0H124.351V2.82388H127.174V0Z" fill="#35296E"/>
<path d="M129.999 0H127.175V2.82388H129.999V0Z" fill="#35296E"/>
<path d="M5.76333 2.82385H2.93945V5.64773H5.76333V2.82385Z" fill="#35296E"/>
<path d="M8.58559 2.82385H5.76172V5.64773H8.58559V2.82385Z" fill="#3D47A0"/>
<path d="M11.4098 2.82385H8.58594V5.64773H11.4098V2.82385Z" fill="#3D47A0"/>
<path d="M14.234 2.82385H11.4102V5.64773H14.234V2.82385Z" fill="#3D47A0"/>
<path d="M17.0563 2.82385H14.2324V5.64773H17.0563V2.82385Z" fill="#3D47A0"/>
<path d="M19.8805 2.82385H17.0566V5.64773H19.8805V2.82385Z" fill="#FAF3D4"/>
<path d="M22.7047 2.82385H19.8809V5.64773H22.7047V2.82385Z" fill="#FAF3D4"/>
<path d="M25.527 2.82385H22.7031V5.64773H25.527V2.82385Z" fill="#B9D3E1"/>
<path d="M28.3512 2.82385H25.5273V5.64773H28.3512V2.82385Z" fill="#B9D3E1"/>
<path d="M31.1745 2.82385H28.3506V5.64773H31.1745V2.82385Z" fill="#B9D3E1"/>
<path d="M33.9977 2.82385H31.1738V5.64773H33.9977V2.82385Z" fill="#B9D3E1"/>
<path d="M36.8219 2.82385H33.998V5.64773H36.8219V2.82385Z" fill="#B9D3E1"/>
<path d="M39.6452 2.82385H36.8213V5.64773H39.6452V2.82385Z" fill="#B9D3E1"/>
<path d="M42.4684 2.82385H39.6445V5.64773H42.4684V2.82385Z" fill="#B9D3E1"/>
<path d="M45.2926 2.82385H42.4688V5.64773H45.2926V2.82385Z" fill="#B9D3E1"/>
<path d="M48.1159 2.82385H45.292V5.64773H48.1159V2.82385Z" fill="#B9D3E1"/>
<path d="M50.9391 2.82385H48.1152V5.64773H50.9391V2.82385Z" fill="#B9D3E1"/>
<path d="M53.7633 2.82385H50.9395V5.64773H53.7633V2.82385Z" fill="#B9D3E1"/>
<path d="M56.5866 2.82385H53.7627V5.64773H56.5866V2.82385Z" fill="#B9D3E1"/>
<path d="M59.4098 2.82385H56.5859V5.64773H59.4098V2.82385Z" fill="#B9D3E1"/>
<path d="M62.234 2.82385H59.4102V5.64773H62.234V2.82385Z" fill="#B9D3E1"/>
<path d="M65.0573 2.82385H62.2334V5.64773H65.0573V2.82385Z" fill="#B9D3E1"/>
<path d="M67.8805 2.82385H65.0566V5.64773H67.8805V2.82385Z" fill="#B9D3E1"/>
<path d="M70.7047 2.82385H67.8809V5.64773H70.7047V2.82385Z" fill="#B9D3E1"/>
<path d="M73.528 2.82385H70.7041V5.64773H73.528V2.82385Z" fill="#B9D3E1"/>
<path d="M76.3512 2.82385H73.5273V5.64773H76.3512V2.82385Z" fill="#B9D3E1"/>
<path d="M79.1745 2.82385H76.3506V5.64773H79.1745V2.82385Z" fill="#B9D3E1"/>
<path d="M81.9987 2.82385H79.1748V5.64773H81.9987V2.82385Z" fill="#B9D3E1"/>
<path d="M84.8219 2.82385H81.998V5.64773H84.8219V2.82385Z" fill="#B9D3E1"/>
<path d="M87.6452 2.82385H84.8213V5.64773H87.6452V2.82385Z" fill="#B9D3E1"/>
<path d="M90.4694 2.82385H87.6455V5.64773H90.4694V2.82385Z" fill="#B9D3E1"/>
<path d="M93.2926 2.82385H90.4688V5.64773H93.2926V2.82385Z" fill="#B9D3E1"/>
<path d="M96.1159 2.82385H93.292V5.64773H96.1159V2.82385Z" fill="#B9D3E1"/>
<path d="M98.9401 2.82385H96.1162V5.64773H98.9401V2.82385Z" fill="#B9D3E1"/>
<path d="M101.763 2.82385H98.9395V5.64773H101.763V2.82385Z" fill="#B9D3E1"/>
<path d="M104.587 2.82385H101.763V5.64773H104.587V2.82385Z" fill="#B9D3E1"/>
<path d="M107.411 2.82385H104.587V5.64773H107.411V2.82385Z" fill="#B9D3E1"/>
<path d="M110.234 2.82385H107.41V5.64773H110.234V2.82385Z" fill="#B9D3E1"/>
<path d="M113.057 2.82385H110.233V5.64773H113.057V2.82385Z" fill="#B9D3E1"/>
<path d="M118.705 2.82385H115.881V5.64773H118.705V2.82385Z" fill="#B9D3E1"/>
<path d="M121.528 2.82385H118.704V5.64773H121.528V2.82385Z" fill="#3D47A0"/>
<path d="M124.352 2.82385H121.528V5.64773H124.352V2.82385Z" fill="#3D47A0"/>
<path d="M127.174 2.82385H124.351V5.64773H127.174V2.82385Z" fill="#3D47A0"/>
<path d="M129.999 2.82385H127.175V5.64773H129.999V2.82385Z" fill="#3D47A0"/>
<path d="M132.823 2.82385H129.999V5.64773H132.823V2.82385Z" fill="#35296E"/>
<path d="M2.93911 5.64679H0.115234V8.47066H2.93911V5.64679Z" fill="#35296E"/>
<path d="M5.76333 5.64679H2.93945V8.47066H5.76333V5.64679Z" fill="#3D47A0"/>
<path d="M8.58559 5.64679H5.76172V8.47066H8.58559V5.64679Z" fill="#3D47A0"/>
<path d="M11.4098 5.64679H8.58594V8.47066H11.4098V5.64679Z" fill="#3D47A0"/>
<path d="M14.234 5.64679H11.4102V8.47066H14.234V5.64679Z" fill="#3D47A0"/>
<path d="M17.0563 5.64679H14.2324V8.47066H17.0563V5.64679Z" fill="#FAF3D4"/>
<path d="M19.8805 5.64679H17.0566V8.47066H19.8805V5.64679Z" fill="#4D6EB2"/>
<path d="M22.7047 5.64679H19.8809V8.47066H22.7047V5.64679Z" fill="#4D6EB2"/>
<path d="M25.527 5.64679H22.7031V8.47066H25.527V5.64679Z" fill="#4D6EB2"/>
<path d="M28.3512 5.64679H25.5273V8.47066H28.3512V5.64679Z" fill="#4D6EB2"/>
<path d="M31.1745 5.64679H28.3506V8.47066H31.1745V5.64679Z" fill="#4D6EB2"/>
<path d="M33.9977 5.64679H31.1738V8.47066H33.9977V5.64679Z" fill="#4D6EB2"/>
<path d="M36.8219 5.64679H33.998V8.47066H36.8219V5.64679Z" fill="#4D6EB2"/>
<path d="M39.6452 5.64679H36.8213V8.47066H39.6452V5.64679Z" fill="#4D6EB2"/>
<path d="M42.4684 5.64679H39.6445V8.47066H42.4684V5.64679Z" fill="#4D6EB2"/>
<path d="M45.2926 5.64679H42.4688V8.47066H45.2926V5.64679Z" fill="#4D6EB2"/>
<path d="M48.1159 5.64679H45.292V8.47066H48.1159V5.64679Z" fill="#4D6EB2"/>
<path d="M50.9391 5.64679H48.1152V8.47066H50.9391V5.64679Z" fill="#4D6EB2"/>
<path d="M53.7633 5.64679H50.9395V8.47066H53.7633V5.64679Z" fill="#4D6EB2"/>
<path d="M56.5866 5.64679H53.7627V8.47066H56.5866V5.64679Z" fill="#4D6EB2"/>
<path d="M59.4098 5.64679H56.5859V8.47066H59.4098V5.64679Z" fill="#4D6EB2"/>
<path d="M62.234 5.64679H59.4102V8.47066H62.234V5.64679Z" fill="#4D6EB2"/>
<path d="M65.0573 5.64679H62.2334V8.47066H65.0573V5.64679Z" fill="#4D6EB2"/>
<path d="M67.8805 5.64679H65.0566V8.47066H67.8805V5.64679Z" fill="#4D6EB2"/>
<path d="M70.7047 5.64679H67.8809V8.47066H70.7047V5.64679Z" fill="#4D6EB2"/>
<path d="M73.528 5.64679H70.7041V8.47066H73.528V5.64679Z" fill="#4D6EB2"/>
<path d="M76.3512 5.64679H73.5273V8.47066H76.3512V5.64679Z" fill="#4D6EB2"/>
<path d="M79.1745 5.64679H76.3506V8.47066H79.1745V5.64679Z" fill="#4D6EB2"/>
<path d="M81.9987 5.64679H79.1748V8.47066H81.9987V5.64679Z" fill="#4D6EB2"/>
<path d="M84.8219 5.64679H81.998V8.47066H84.8219V5.64679Z" fill="#4D6EB2"/>
<path d="M87.6452 5.64679H84.8213V8.47066H87.6452V5.64679Z" fill="#4D6EB2"/>
<path d="M90.4694 5.64679H87.6455V8.47066H90.4694V5.64679Z" fill="#4D6EB2"/>
<path d="M93.2926 5.64679H90.4688V8.47066H93.2926V5.64679Z" fill="#4D6EB2"/>
<path d="M96.1159 5.64679H93.292V8.47066H96.1159V5.64679Z" fill="#4D6EB2"/>
<path d="M98.9401 5.64679H96.1162V8.47066H98.9401V5.64679Z" fill="#4D6EB2"/>
<path d="M101.763 5.64679H98.9395V8.47066H101.763V5.64679Z" fill="#4D6EB2"/>
<path d="M104.587 5.64679H101.763V8.47066H104.587V5.64679Z" fill="#4D6EB2"/>
<path d="M107.411 5.64679H104.587V8.47066H107.411V5.64679Z" fill="#4D6EB2"/>
<path d="M110.234 5.64679H107.41V8.47066H110.234V5.64679Z" fill="#4D6EB2"/>
<path d="M113.057 5.64679H110.233V8.47066H113.057V5.64679Z" fill="#4D6EB2"/>
<path d="M118.705 5.64679H115.881V8.47066H118.705V5.64679Z" fill="#4D6EB2"/>
<path d="M121.528 5.64679H118.704V8.47066H121.528V5.64679Z" fill="#B9D3E1"/>
<path d="M124.352 5.64679H121.528V8.47066H124.352V5.64679Z" fill="#3D47A0"/>
<path d="M127.174 5.64679H124.351V8.47066H127.174V5.64679Z" fill="#3D47A0"/>
<path d="M129.999 5.64679H127.175V8.47066H129.999V5.64679Z" fill="#3D47A0"/>
<path d="M132.823 5.64679H129.999V8.47066H132.823V5.64679Z" fill="#3D47A0"/>
<path d="M135.645 5.64679H132.821V8.47066H135.645V5.64679Z" fill="#35296E"/>
<path d="M2.93911 8.47064H0.115234V11.2945H2.93911V8.47064Z" fill="#35296E"/>
<path d="M5.76333 8.47064H2.93945V11.2945H5.76333V8.47064Z" fill="#3D47A0"/>
<path d="M8.58559 8.47064H5.76172V11.2945H8.58559V8.47064Z" fill="#3D47A0"/>
<path d="M11.4098 8.47064H8.58594V11.2945H11.4098V8.47064Z" fill="#3D47A0"/>
<path d="M14.234 8.47064H11.4102V11.2945H14.234V8.47064Z" fill="#3D47A0"/>
<path d="M17.0563 8.47064H14.2324V11.2945H17.0563V8.47064Z" fill="#FAF3D4"/>
<path d="M19.8805 8.47064H17.0566V11.2945H19.8805V8.47064Z" fill="#4D6EB2"/>
<path d="M22.7047 8.47064H19.8809V11.2945H22.7047V8.47064Z" fill="#4D6EB2"/>
<path d="M25.527 8.47064H22.7031V11.2945H25.527V8.47064Z" fill="#4D6EB2"/>
<path d="M28.3512 8.47064H25.5273V11.2945H28.3512V8.47064Z" fill="#4D6EB2"/>
<path d="M31.1745 8.47064H28.3506V11.2945H31.1745V8.47064Z" fill="#4D6EB2"/>
<path d="M33.9977 8.47064H31.1738V11.2945H33.9977V8.47064Z" fill="#4D6EB2"/>
<path d="M36.8219 8.47064H33.998V11.2945H36.8219V8.47064Z" fill="#4D6EB2"/>
<path d="M39.6452 8.47064H36.8213V11.2945H39.6452V8.47064Z" fill="#4D6EB2"/>
<path d="M42.4684 8.47064H39.6445V11.2945H42.4684V8.47064Z" fill="#4D6EB2"/>
<path d="M45.2926 8.47064H42.4688V11.2945H45.2926V8.47064Z" fill="#4D6EB2"/>
<path d="M48.1159 8.47064H45.292V11.2945H48.1159V8.47064Z" fill="#4D6EB2"/>
<path d="M50.9391 8.47064H48.1152V11.2945H50.9391V8.47064Z" fill="#4D6EB2"/>
<path d="M53.7633 8.47064H50.9395V11.2945H53.7633V8.47064Z" fill="#4D6EB2"/>
<path d="M56.5866 8.47064H53.7627V11.2945H56.5866V8.47064Z" fill="#4D6EB2"/>
<path d="M59.4098 8.47064H56.5859V11.2945H59.4098V8.47064Z" fill="#4D6EB2"/>
<path d="M62.234 8.47064H59.4102V11.2945H62.234V8.47064Z" fill="#4D6EB2"/>
<path d="M65.0573 8.47064H62.2334V11.2945H65.0573V8.47064Z" fill="#4D6EB2"/>
<path d="M67.8805 8.47064H65.0566V11.2945H67.8805V8.47064Z" fill="#4D6EB2"/>
<path d="M70.7047 8.47064H67.8809V11.2945H70.7047V8.47064Z" fill="#4D6EB2"/>
<path d="M73.528 8.47064H70.7041V11.2945H73.528V8.47064Z" fill="#4D6EB2"/>
<path d="M76.3512 8.47064H73.5273V11.2945H76.3512V8.47064Z" fill="#4D6EB2"/>
<path d="M79.1745 8.47064H76.3506V11.2945H79.1745V8.47064Z" fill="#4D6EB2"/>
<path d="M81.9987 8.47064H79.1748V11.2945H81.9987V8.47064Z" fill="#4D6EB2"/>
<path d="M84.8219 8.47064H81.998V11.2945H84.8219V8.47064Z" fill="#4D6EB2"/>
<path d="M87.6452 8.47064H84.8213V11.2945H87.6452V8.47064Z" fill="#4D6EB2"/>
<path d="M90.4694 8.47064H87.6455V11.2945H90.4694V8.47064Z" fill="#4D6EB2"/>
<path d="M93.2926 8.47064H90.4688V11.2945H93.2926V8.47064Z" fill="#4D6EB2"/>
<path d="M96.1159 8.47064H93.292V11.2945H96.1159V8.47064Z" fill="#4D6EB2"/>
<path d="M98.9401 8.47064H96.1162V11.2945H98.9401V8.47064Z" fill="#4D6EB2"/>
<path d="M101.763 8.47064H98.9395V11.2945H101.763V8.47064Z" fill="#4D6EB2"/>
<path d="M104.587 8.47064H101.763V11.2945H104.587V8.47064Z" fill="#4D6EB2"/>
<path d="M107.411 8.47064H104.587V11.2945H107.411V8.47064Z" fill="#4D6EB2"/>
<path d="M110.234 8.47064H107.41V11.2945H110.234V8.47064Z" fill="#4D6EB2"/>
<path d="M113.057 8.47064H110.233V11.2945H113.057V8.47064Z" fill="#4D6EB2"/>
<path d="M118.705 8.47064H115.881V11.2945H118.705V8.47064Z" fill="#4D6EB2"/>
<path d="M121.528 8.47064H118.704V11.2945H121.528V8.47064Z" fill="#B9D3E1"/>
<path d="M124.352 8.47064H121.528V11.2945H124.352V8.47064Z" fill="#3D47A0"/>
<path d="M127.174 8.47064H124.351V11.2945H127.174V8.47064Z" fill="#3D47A0"/>
<path d="M129.999 8.47064H127.175V11.2945H129.999V8.47064Z" fill="#3D47A0"/>
<path d="M132.823 8.47064H129.999V11.2945H132.823V8.47064Z" fill="#3D47A0"/>
<path d="M135.645 8.47064H132.821V11.2945H135.645V8.47064Z" fill="#35296E"/>
<path d="M2.93911 11.2945H0.115234V14.1184H2.93911V11.2945Z" fill="#35296E"/>
<path d="M5.76333 11.2945H2.93945V14.1184H5.76333V11.2945Z" fill="#3D47A0"/>
<path d="M8.58559 11.2945H5.76172V14.1184H8.58559V11.2945Z" fill="#3D47A0"/>
<path d="M11.4098 11.2945H8.58594V14.1184H11.4098V11.2945Z" fill="#3D47A0"/>
<path d="M14.234 11.2945H11.4102V14.1184H14.234V11.2945Z" fill="#3D47A0"/>
<path d="M17.0563 11.2945H14.2324V14.1184H17.0563V11.2945Z" fill="#B9D3E1"/>
<path d="M19.8805 11.2945H17.0566V14.1184H19.8805V11.2945Z" fill="#4D6EB2"/>
<path d="M22.7047 11.2945H19.8809V14.1184H22.7047V11.2945Z" fill="#4D6EB2"/>
<path d="M25.527 11.2945H22.7031V14.1184H25.527V11.2945Z" fill="#4D6EB2"/>
<path d="M28.3512 11.2945H25.5273V14.1184H28.3512V11.2945Z" fill="#4D6EB2"/>
<path d="M31.1745 11.2945H28.3506V14.1184H31.1745V11.2945Z" fill="#4D6EB2"/>
<path d="M33.9977 11.2945H31.1738V14.1184H33.9977V11.2945Z" fill="#4D6EB2"/>
<path d="M36.8219 11.2945H33.998V14.1184H36.8219V11.2945Z" fill="#4D6EB2"/>
<path d="M39.6452 11.2945H36.8213V14.1184H39.6452V11.2945Z" fill="#4D6EB2"/>
<path d="M42.4684 11.2945H39.6445V14.1184H42.4684V11.2945Z" fill="#4D6EB2"/>
<path d="M45.2926 11.2945H42.4688V14.1184H45.2926V11.2945Z" fill="#4D6EB2"/>
<path d="M48.1159 11.2945H45.292V14.1184H48.1159V11.2945Z" fill="#4D6EB2"/>
<path d="M50.9391 11.2945H48.1152V14.1184H50.9391V11.2945Z" fill="#4D6EB2"/>
<path d="M53.7633 11.2945H50.9395V14.1184H53.7633V11.2945Z" fill="#4D6EB2"/>
<path d="M56.5866 11.2945H53.7627V14.1184H56.5866V11.2945Z" fill="#4D6EB2"/>
<path d="M59.4098 11.2945H56.5859V14.1184H59.4098V11.2945Z" fill="#4D6EB2"/>
<path d="M62.234 11.2945H59.4102V14.1184H62.234V11.2945Z" fill="#4D6EB2"/>
<path d="M65.0573 11.2945H62.2334V14.1184H65.0573V11.2945Z" fill="#4D6EB2"/>
<path d="M67.8805 11.2945H65.0566V14.1184H67.8805V11.2945Z" fill="#4D6EB2"/>
<path d="M70.7047 11.2945H67.8809V14.1184H70.7047V11.2945Z" fill="#4D6EB2"/>
<path d="M73.528 11.2945H70.7041V14.1184H73.528V11.2945Z" fill="#4D6EB2"/>
<path d="M76.3512 11.2945H73.5273V14.1184H76.3512V11.2945Z" fill="#4D6EB2"/>
<path d="M79.1745 11.2945H76.3506V14.1184H79.1745V11.2945Z" fill="#4D6EB2"/>
<path d="M81.9987 11.2945H79.1748V14.1184H81.9987V11.2945Z" fill="#4D6EB2"/>
<path d="M84.8219 11.2945H81.998V14.1184H84.8219V11.2945Z" fill="#4D6EB2"/>
<path d="M87.6452 11.2945H84.8213V14.1184H87.6452V11.2945Z" fill="#4D6EB2"/>
<path d="M90.4694 11.2945H87.6455V14.1184H90.4694V11.2945Z" fill="#4D6EB2"/>
<path d="M93.2926 11.2945H90.4688V14.1184H93.2926V11.2945Z" fill="#4D6EB2"/>
<path d="M96.1159 11.2945H93.292V14.1184H96.1159V11.2945Z" fill="#4D6EB2"/>
<path d="M98.9401 11.2945H96.1162V14.1184H98.9401V11.2945Z" fill="#4D6EB2"/>
<path d="M101.763 11.2945H98.9395V14.1184H101.763V11.2945Z" fill="#4D6EB2"/>
<path d="M104.587 11.2945H101.763V14.1184H104.587V11.2945Z" fill="#4D6EB2"/>
<path d="M107.411 11.2945H104.587V14.1184H107.411V11.2945Z" fill="#4D6EB2"/>
<path d="M110.234 11.2945H107.41V14.1184H110.234V11.2945Z" fill="#4D6EB2"/>
<path d="M113.057 11.2945H110.233V14.1184H113.057V11.2945Z" fill="#4D6EB2"/>
<path d="M118.705 11.2945H115.881V14.1184H118.705V11.2945Z" fill="#4D6EB2"/>
<path d="M121.528 11.2945H118.704V14.1184H121.528V11.2945Z" fill="#B9D3E1"/>
<path d="M124.352 11.2945H121.528V14.1184H124.352V11.2945Z" fill="#3D47A0"/>
<path d="M127.174 11.2945H124.351V14.1184H127.174V11.2945Z" fill="#3D47A0"/>
<path d="M129.999 11.2945H127.175V14.1184H129.999V11.2945Z" fill="#3D47A0"/>
<path d="M132.823 11.2945H129.999V14.1184H132.823V11.2945Z" fill="#3D47A0"/>
<path d="M135.645 11.2945H132.821V14.1184H135.645V11.2945Z" fill="#35296E"/>
<path d="M2.93911 14.1174H0.115234V16.9413H2.93911V14.1174Z" fill="#35296E"/>
<path d="M5.76333 14.1174H2.93945V16.9413H5.76333V14.1174Z" fill="#3D47A0"/>
<path d="M8.58559 14.1174H5.76172V16.9413H8.58559V14.1174Z" fill="#3D47A0"/>
<path d="M11.4098 14.1174H8.58594V16.9413H11.4098V14.1174Z" fill="#3D47A0"/>
<path d="M14.234 14.1174H11.4102V16.9413H14.234V14.1174Z" fill="#3D47A0"/>
<path d="M17.0563 14.1174H14.2324V16.9413H17.0563V14.1174Z" fill="#B9D3E1"/>
<path d="M19.8805 14.1174H17.0566V16.9413H19.8805V14.1174Z" fill="#4D6EB2"/>
<path d="M22.7047 14.1174H19.8809V16.9413H22.7047V14.1174Z" fill="#4D6EB2"/>
<path d="M25.527 14.1174H22.7031V16.9413H25.527V14.1174Z" fill="#4D6EB2"/>
<path d="M28.3512 14.1174H25.5273V16.9413H28.3512V14.1174Z" fill="#4D6EB2"/>
<path d="M31.1745 14.1174H28.3506V16.9413H31.1745V14.1174Z" fill="#4D6EB2"/>
<path d="M33.9977 14.1174H31.1738V16.9413H33.9977V14.1174Z" fill="#4D6EB2"/>
<path d="M36.8219 14.1174H33.998V16.9413H36.8219V14.1174Z" fill="#4D6EB2"/>
<path d="M39.6452 14.1174H36.8213V16.9413H39.6452V14.1174Z" fill="#4D6EB2"/>
<path d="M42.4684 14.1174H39.6445V16.9413H42.4684V14.1174Z" fill="#4D6EB2"/>
<path d="M45.2926 14.1174H42.4688V16.9413H45.2926V14.1174Z" fill="#4D6EB2"/>
<path d="M48.1159 14.1174H45.292V16.9413H48.1159V14.1174Z" fill="#4D6EB2"/>
<path d="M50.9391 14.1174H48.1152V16.9413H50.9391V14.1174Z" fill="#4D6EB2"/>
<path d="M53.7633 14.1174H50.9395V16.9413H53.7633V14.1174Z" fill="#4D6EB2"/>
<path d="M56.5866 14.1174H53.7627V16.9413H56.5866V14.1174Z" fill="#4D6EB2"/>
<path d="M59.4098 14.1174H56.5859V16.9413H59.4098V14.1174Z" fill="#4D6EB2"/>
<path d="M62.234 14.1174H59.4102V16.9413H62.234V14.1174Z" fill="#4D6EB2"/>
<path d="M65.0573 14.1174H62.2334V16.9413H65.0573V14.1174Z" fill="#4D6EB2"/>
<path d="M67.8805 14.1174H65.0566V16.9413H67.8805V14.1174Z" fill="#4D6EB2"/>
<path d="M70.7047 14.1174H67.8809V16.9413H70.7047V14.1174Z" fill="#4D6EB2"/>
<path d="M73.528 14.1174H70.7041V16.9413H73.528V14.1174Z" fill="#4D6EB2"/>
<path d="M76.3512 14.1174H73.5273V16.9413H76.3512V14.1174Z" fill="#4D6EB2"/>
<path d="M79.1745 14.1174H76.3506V16.9413H79.1745V14.1174Z" fill="#4D6EB2"/>
<path d="M81.9987 14.1174H79.1748V16.9413H81.9987V14.1174Z" fill="#4D6EB2"/>
<path d="M84.8219 14.1174H81.998V16.9413H84.8219V14.1174Z" fill="#4D6EB2"/>
<path d="M87.6452 14.1174H84.8213V16.9413H87.6452V14.1174Z" fill="#4D6EB2"/>
<path d="M90.4694 14.1174H87.6455V16.9413H90.4694V14.1174Z" fill="#4D6EB2"/>
<path d="M93.2926 14.1174H90.4688V16.9413H93.2926V14.1174Z" fill="#4D6EB2"/>
<path d="M96.1159 14.1174H93.292V16.9413H96.1159V14.1174Z" fill="#4D6EB2"/>
<path d="M98.9401 14.1174H96.1162V16.9413H98.9401V14.1174Z" fill="#4D6EB2"/>
<path d="M101.763 14.1174H98.9395V16.9413H101.763V14.1174Z" fill="#4D6EB2"/>
<path d="M104.587 14.1174H101.763V16.9413H104.587V14.1174Z" fill="#4D6EB2"/>
<path d="M107.411 14.1174H104.587V16.9413H107.411V14.1174Z" fill="#4D6EB2"/>
<path d="M110.234 14.1174H107.41V16.9413H110.234V14.1174Z" fill="#4D6EB2"/>
<path d="M113.057 14.1174H110.233V16.9413H113.057V14.1174Z" fill="#4D6EB2"/>
<path d="M118.705 14.1174H115.881V16.9413H118.705V14.1174Z" fill="#4D6EB2"/>
<path d="M121.528 14.1174H118.704V16.9413H121.528V14.1174Z" fill="#B9D3E1"/>
<path d="M124.352 14.1174H121.528V16.9413H124.352V14.1174Z" fill="#3D47A0"/>
<path d="M127.174 14.1174H124.351V16.9413H127.174V14.1174Z" fill="#3D47A0"/>
<path d="M129.999 14.1174H127.175V16.9413H129.999V14.1174Z" fill="#3D47A0"/>
<path d="M132.823 14.1174H129.999V16.9413H132.823V14.1174Z" fill="#3D47A0"/>
<path d="M135.645 14.1174H132.821V16.9413H135.645V14.1174Z" fill="#35296E"/>
<path d="M2.93911 16.9413H0.115234V19.7652H2.93911V16.9413Z" fill="#35296E"/>
<path d="M5.76333 16.9413H2.93945V19.7652H5.76333V16.9413Z" fill="#3D47A0"/>
<path d="M8.58559 16.9413H5.76172V19.7652H8.58559V16.9413Z" fill="#3D47A0"/>
<path d="M11.4098 16.9413H8.58594V19.7652H11.4098V16.9413Z" fill="#3D47A0"/>
<path d="M14.234 16.9413H11.4102V19.7652H14.234V16.9413Z" fill="#3D47A0"/>
<path d="M17.0563 16.9413H14.2324V19.7652H17.0563V16.9413Z" fill="#B9D3E1"/>
<path d="M19.8805 16.9413H17.0566V19.7652H19.8805V16.9413Z" fill="#4D6EB2"/>
<path d="M22.7047 16.9413H19.8809V19.7652H22.7047V16.9413Z" fill="#4D6EB2"/>
<path d="M25.527 16.9413H22.7031V19.7652H25.527V16.9413Z" fill="#4D6EB2"/>
<path d="M28.3512 16.9413H25.5273V19.7652H28.3512V16.9413Z" fill="#4D6EB2"/>
<path d="M31.1745 16.9413H28.3506V19.7652H31.1745V16.9413Z" fill="#4D6EB2"/>
<path d="M33.9977 16.9413H31.1738V19.7652H33.9977V16.9413Z" fill="#4D6EB2"/>
<path d="M36.8219 16.9413H33.998V19.7652H36.8219V16.9413Z" fill="#4D6EB2"/>
<path d="M39.6452 16.9413H36.8213V19.7652H39.6452V16.9413Z" fill="#4D6EB2"/>
<path d="M42.4684 16.9413H39.6445V19.7652H42.4684V16.9413Z" fill="#4D6EB2"/>
<path d="M45.2926 16.9413H42.4688V19.7652H45.2926V16.9413Z" fill="#4D6EB2"/>
<path d="M48.1159 16.9413H45.292V19.7652H48.1159V16.9413Z" fill="#4D6EB2"/>
<path d="M50.9391 16.9413H48.1152V19.7652H50.9391V16.9413Z" fill="#4D6EB2"/>
<path d="M53.7633 16.9413H50.9395V19.7652H53.7633V16.9413Z" fill="#4D6EB2"/>
<path d="M56.5866 16.9413H53.7627V19.7652H56.5866V16.9413Z" fill="#4D6EB2"/>
<path d="M59.4098 16.9413H56.5859V19.7652H59.4098V16.9413Z" fill="#4D6EB2"/>
<path d="M62.234 16.9413H59.4102V19.7652H62.234V16.9413Z" fill="#4D6EB2"/>
<path d="M65.0573 16.9413H62.2334V19.7652H65.0573V16.9413Z" fill="#4D6EB2"/>
<path d="M67.8805 16.9413H65.0566V19.7652H67.8805V16.9413Z" fill="#4D6EB2"/>
<path d="M70.7047 16.9413H67.8809V19.7652H70.7047V16.9413Z" fill="#4D6EB2"/>
<path d="M73.528 16.9413H70.7041V19.7652H73.528V16.9413Z" fill="#4D6EB2"/>
<path d="M76.3512 16.9413H73.5273V19.7652H76.3512V16.9413Z" fill="#4D6EB2"/>
<path d="M79.1745 16.9413H76.3506V19.7652H79.1745V16.9413Z" fill="#4D6EB2"/>
<path d="M81.9987 16.9413H79.1748V19.7652H81.9987V16.9413Z" fill="#4D6EB2"/>
<path d="M84.8219 16.9413H81.998V19.7652H84.8219V16.9413Z" fill="#4D6EB2"/>
<path d="M87.6452 16.9413H84.8213V19.7652H87.6452V16.9413Z" fill="#4D6EB2"/>
<path d="M90.4694 16.9413H87.6455V19.7652H90.4694V16.9413Z" fill="#4D6EB2"/>
<path d="M93.2926 16.9413H90.4688V19.7652H93.2926V16.9413Z" fill="#4D6EB2"/>
<path d="M96.1159 16.9413H93.292V19.7652H96.1159V16.9413Z" fill="#4D6EB2"/>
<path d="M98.9401 16.9413H96.1162V19.7652H98.9401V16.9413Z" fill="#4D6EB2"/>
<path d="M101.763 16.9413H98.9395V19.7652H101.763V16.9413Z" fill="#4D6EB2"/>
<path d="M104.587 16.9413H101.763V19.7652H104.587V16.9413Z" fill="#4D6EB2"/>
<path d="M107.411 16.9413H104.587V19.7652H107.411V16.9413Z" fill="#4D6EB2"/>
<path d="M110.234 16.9413H107.41V19.7652H110.234V16.9413Z" fill="#4D6EB2"/>
<path d="M113.057 16.9413H110.233V19.7652H113.057V16.9413Z" fill="#4D6EB2"/>
<path d="M118.705 16.9413H115.881V19.7652H118.705V16.9413Z" fill="#4D6EB2"/>
<path d="M121.528 16.9413H118.704V19.7652H121.528V16.9413Z" fill="#B9D3E1"/>
<path d="M124.352 16.9413H121.528V19.7652H124.352V16.9413Z" fill="#3D47A0"/>
<path d="M127.174 16.9413H124.351V19.7652H127.174V16.9413Z" fill="#3D47A0"/>
<path d="M129.999 16.9413H127.175V19.7652H129.999V16.9413Z" fill="#3D47A0"/>
<path d="M132.823 16.9413H129.999V19.7652H132.823V16.9413Z" fill="#3D47A0"/>
<path d="M135.645 16.9413H132.821V19.7652H135.645V16.9413Z" fill="#35296E"/>
<path d="M2.93911 19.7651H0.115234V22.589H2.93911V19.7651Z" fill="#35296E"/>
<path d="M5.76333 19.7651H2.93945V22.589H5.76333V19.7651Z" fill="#3D47A0"/>
<path d="M8.58559 19.7651H5.76172V22.589H8.58559V19.7651Z" fill="#3D47A0"/>
<path d="M11.4098 19.7651H8.58594V22.589H11.4098V19.7651Z" fill="#3D47A0"/>
<path d="M14.234 19.7651H11.4102V22.589H14.234V19.7651Z" fill="#3D47A0"/>
<path d="M17.0563 19.7651H14.2324V22.589H17.0563V19.7651Z" fill="#B9D3E1"/>
<path d="M19.8805 19.7651H17.0566V22.589H19.8805V19.7651Z" fill="#4D6EB2"/>
<path d="M22.7047 19.7651H19.8809V22.589H22.7047V19.7651Z" fill="#4D6EB2"/>
<path d="M25.527 19.7651H22.7031V22.589H25.527V19.7651Z" fill="#4D6EB2"/>
<path d="M28.3512 19.7651H25.5273V22.589H28.3512V19.7651Z" fill="#4D6EB2"/>
<path d="M31.1745 19.7651H28.3506V22.589H31.1745V19.7651Z" fill="#4D6EB2"/>
<path d="M33.9977 19.7651H31.1738V22.589H33.9977V19.7651Z" fill="#4D6EB2"/>
<path d="M36.8219 19.7651H33.998V22.589H36.8219V19.7651Z" fill="#4D6EB2"/>
<path d="M39.6452 19.7651H36.8213V22.589H39.6452V19.7651Z" fill="#4D6EB2"/>
<path d="M42.4684 19.7651H39.6445V22.589H42.4684V19.7651Z" fill="#4D6EB2"/>
<path d="M45.2926 19.7651H42.4688V22.589H45.2926V19.7651Z" fill="#4D6EB2"/>
<path d="M48.1159 19.7651H45.292V22.589H48.1159V19.7651Z" fill="#4D6EB2"/>
<path d="M50.9391 19.7651H48.1152V22.589H50.9391V19.7651Z" fill="#4D6EB2"/>
<path d="M53.7633 19.7651H50.9395V22.589H53.7633V19.7651Z" fill="#4D6EB2"/>
<path d="M56.5866 19.7651H53.7627V22.589H56.5866V19.7651Z" fill="#4D6EB2"/>
<path d="M59.4098 19.7651H56.5859V22.589H59.4098V19.7651Z" fill="#4D6EB2"/>
<path d="M62.234 19.7651H59.4102V22.589H62.234V19.7651Z" fill="#4D6EB2"/>
<path d="M65.0573 19.7651H62.2334V22.589H65.0573V19.7651Z" fill="#4D6EB2"/>
<path d="M67.8805 19.7651H65.0566V22.589H67.8805V19.7651Z" fill="#4D6EB2"/>
<path d="M70.7047 19.7651H67.8809V22.589H70.7047V19.7651Z" fill="#4D6EB2"/>
<path d="M73.528 19.7651H70.7041V22.589H73.528V19.7651Z" fill="#4D6EB2"/>
<path d="M76.3512 19.7651H73.5273V22.589H76.3512V19.7651Z" fill="#4D6EB2"/>
<path d="M79.1745 19.7651H76.3506V22.589H79.1745V19.7651Z" fill="#4D6EB2"/>
<path d="M81.9987 19.7651H79.1748V22.589H81.9987V19.7651Z" fill="#4D6EB2"/>
<path d="M84.8219 19.7651H81.998V22.589H84.8219V19.7651Z" fill="#4D6EB2"/>
<path d="M87.6452 19.7651H84.8213V22.589H87.6452V19.7651Z" fill="#4D6EB2"/>
<path d="M90.4694 19.7651H87.6455V22.589H90.4694V19.7651Z" fill="#4D6EB2"/>
<path d="M93.2926 19.7651H90.4688V22.589H93.2926V19.7651Z" fill="#4D6EB2"/>
<path d="M96.1159 19.7651H93.292V22.589H96.1159V19.7651Z" fill="#4D6EB2"/>
<path d="M98.9401 19.7651H96.1162V22.589H98.9401V19.7651Z" fill="#4D6EB2"/>
<path d="M101.763 19.7651H98.9395V22.589H101.763V19.7651Z" fill="#4D6EB2"/>
<path d="M104.587 19.7651H101.763V22.589H104.587V19.7651Z" fill="#4D6EB2"/>
<path d="M107.411 19.7651H104.587V22.589H107.411V19.7651Z" fill="#4D6EB2"/>
<path d="M110.234 19.7651H107.41V22.589H110.234V19.7651Z" fill="#4D6EB2"/>
<path d="M113.057 19.7651H110.233V22.589H113.057V19.7651Z" fill="#4D6EB2"/>
<path d="M118.705 19.7651H115.881V22.589H118.705V19.7651Z" fill="#4D6EB2"/>
<path d="M121.528 19.7651H118.704V22.589H121.528V19.7651Z" fill="#B9D3E1"/>
<path d="M124.352 19.7651H121.528V22.589H124.352V19.7651Z" fill="#3D47A0"/>
<path d="M127.174 19.7651H124.351V22.589H127.174V19.7651Z" fill="#3D47A0"/>
<path d="M129.999 19.7651H127.175V22.589H129.999V19.7651Z" fill="#3D47A0"/>
<path d="M132.823 19.7651H129.999V22.589H132.823V19.7651Z" fill="#3D47A0"/>
<path d="M135.645 19.7651H132.821V22.589H135.645V19.7651Z" fill="#35296E"/>
<path d="M2.93911 22.5881H0.115234V25.412H2.93911V22.5881Z" fill="#35296E"/>
<path d="M5.76333 22.5881H2.93945V25.412H5.76333V22.5881Z" fill="#3D47A0"/>
<path d="M8.58559 22.5881H5.76172V25.412H8.58559V22.5881Z" fill="#3D47A0"/>
<path d="M11.4098 22.5881H8.58594V25.412H11.4098V22.5881Z" fill="#3D47A0"/>
<path d="M14.234 22.5881H11.4102V25.412H14.234V22.5881Z" fill="#3D47A0"/>
<path d="M17.0563 22.5881H14.2324V25.412H17.0563V22.5881Z" fill="#B9D3E1"/>
<path d="M19.8805 22.5881H17.0566V25.412H19.8805V22.5881Z" fill="#4D6EB2"/>
<path d="M22.7047 22.5881H19.8809V25.412H22.7047V22.5881Z" fill="#4D6EB2"/>
<path d="M25.527 22.5881H22.7031V25.412H25.527V22.5881Z" fill="#4D6EB2"/>
<path d="M28.3512 22.5881H25.5273V25.412H28.3512V22.5881Z" fill="#4D6EB2"/>
<path d="M31.1745 22.5881H28.3506V25.412H31.1745V22.5881Z" fill="#4D6EB2"/>
<path d="M33.9977 22.5881H31.1738V25.412H33.9977V22.5881Z" fill="#4D6EB2"/>
<path d="M36.8219 22.5881H33.998V25.412H36.8219V22.5881Z" fill="#4D6EB2"/>
<path d="M39.6452 22.5881H36.8213V25.412H39.6452V22.5881Z" fill="#4D6EB2"/>
<path d="M42.4684 22.5881H39.6445V25.412H42.4684V22.5881Z" fill="#4D6EB2"/>
<path d="M45.2926 22.5881H42.4688V25.412H45.2926V22.5881Z" fill="#4D6EB2"/>
<path d="M48.1159 22.5881H45.292V25.412H48.1159V22.5881Z" fill="#4D6EB2"/>
<path d="M50.9391 22.5881H48.1152V25.412H50.9391V22.5881Z" fill="#4D6EB2"/>
<path d="M53.7633 22.5881H50.9395V25.412H53.7633V22.5881Z" fill="#4D6EB2"/>
<path d="M56.5866 22.5881H53.7627V25.412H56.5866V22.5881Z" fill="#4D6EB2"/>
<path d="M59.4098 22.5881H56.5859V25.412H59.4098V22.5881Z" fill="#4D6EB2"/>
<path d="M62.234 22.5881H59.4102V25.412H62.234V22.5881Z" fill="#4D6EB2"/>
<path d="M65.0573 22.5881H62.2334V25.412H65.0573V22.5881Z" fill="#4D6EB2"/>
<path d="M67.8805 22.5881H65.0566V25.412H67.8805V22.5881Z" fill="#4D6EB2"/>
<path d="M70.7047 22.5881H67.8809V25.412H70.7047V22.5881Z" fill="#4D6EB2"/>
<path d="M73.528 22.5881H70.7041V25.412H73.528V22.5881Z" fill="#4D6EB2"/>
<path d="M76.3512 22.5881H73.5273V25.412H76.3512V22.5881Z" fill="#4D6EB2"/>
<path d="M79.1745 22.5881H76.3506V25.412H79.1745V22.5881Z" fill="#4D6EB2"/>
<path d="M81.9987 22.5881H79.1748V25.412H81.9987V22.5881Z" fill="#4D6EB2"/>
<path d="M84.8219 22.5881H81.998V25.412H84.8219V22.5881Z" fill="#4D6EB2"/>
<path d="M87.6452 22.5881H84.8213V25.412H87.6452V22.5881Z" fill="#4D6EB2"/>
<path d="M90.4694 22.5881H87.6455V25.412H90.4694V22.5881Z" fill="#4D6EB2"/>
<path d="M93.2926 22.5881H90.4688V25.412H93.2926V22.5881Z" fill="#4D6EB2"/>
<path d="M96.1159 22.5881H93.292V25.412H96.1159V22.5881Z" fill="#4D6EB2"/>
<path d="M98.9401 22.5881H96.1162V25.412H98.9401V22.5881Z" fill="#4D6EB2"/>
<path d="M101.763 22.5881H98.9395V25.412H101.763V22.5881Z" fill="#4D6EB2"/>
<path d="M104.587 22.5881H101.763V25.412H104.587V22.5881Z" fill="#4D6EB2"/>
<path d="M107.411 22.5881H104.587V25.412H107.411V22.5881Z" fill="#4D6EB2"/>
<path d="M110.234 22.5881H107.41V25.412H110.234V22.5881Z" fill="#4D6EB2"/>
<path d="M113.057 22.5881H110.233V25.412H113.057V22.5881Z" fill="#4D6EB2"/>
<path d="M118.705 22.5881H115.881V25.412H118.705V22.5881Z" fill="#4D6EB2"/>
<path d="M121.528 22.5881H118.704V25.412H121.528V22.5881Z" fill="#B9D3E1"/>
<path d="M124.352 22.5881H121.528V25.412H124.352V22.5881Z" fill="#3D47A0"/>
<path d="M127.174 22.5881H124.351V25.412H127.174V22.5881Z" fill="#3D47A0"/>
<path d="M129.999 22.5881H127.175V25.412H129.999V22.5881Z" fill="#3D47A0"/>
<path d="M132.823 22.5881H129.999V25.412H132.823V22.5881Z" fill="#3D47A0"/>
<path d="M135.645 22.5881H132.821V25.412H135.645V22.5881Z" fill="#35296E"/>
<path d="M2.93911 25.4119H0.115234V28.2358H2.93911V25.4119Z" fill="#35296E"/>
<path d="M5.76333 25.4119H2.93945V28.2358H5.76333V25.4119Z" fill="#3D47A0"/>
<path d="M8.58559 25.4119H5.76172V28.2358H8.58559V25.4119Z" fill="#3D47A0"/>
<path d="M11.4098 25.4119H8.58594V28.2358H11.4098V25.4119Z" fill="#3D47A0"/>
<path d="M14.234 25.4119H11.4102V28.2358H14.234V25.4119Z" fill="#3D47A0"/>
<path d="M17.0563 25.4119H14.2324V28.2358H17.0563V25.4119Z" fill="#B9D3E1"/>
<path d="M19.8805 25.4119H17.0566V28.2358H19.8805V25.4119Z" fill="#4D6EB2"/>
<path d="M22.7047 25.4119H19.8809V28.2358H22.7047V25.4119Z" fill="#4D6EB2"/>
<path d="M25.527 25.4119H22.7031V28.2358H25.527V25.4119Z" fill="#4D6EB2"/>
<path d="M28.3512 25.4119H25.5273V28.2358H28.3512V25.4119Z" fill="#4D6EB2"/>
<path d="M31.1745 25.4119H28.3506V28.2358H31.1745V25.4119Z" fill="#4D6EB2"/>
<path d="M33.9977 25.4119H31.1738V28.2358H33.9977V25.4119Z" fill="#4D6EB2"/>
<path d="M36.8219 25.4119H33.998V28.2358H36.8219V25.4119Z" fill="#4D6EB2"/>
<path d="M39.6452 25.4119H36.8213V28.2358H39.6452V25.4119Z" fill="#4D6EB2"/>
<path d="M42.4684 25.4119H39.6445V28.2358H42.4684V25.4119Z" fill="#4D6EB2"/>
<path d="M45.2926 25.4119H42.4688V28.2358H45.2926V25.4119Z" fill="#4D6EB2"/>
<path d="M48.1159 25.4119H45.292V28.2358H48.1159V25.4119Z" fill="#4D6EB2"/>
<path d="M50.9391 25.4119H48.1152V28.2358H50.9391V25.4119Z" fill="#4D6EB2"/>
<path d="M53.7633 25.4119H50.9395V28.2358H53.7633V25.4119Z" fill="#4D6EB2"/>
<path d="M56.5866 25.4119H53.7627V28.2358H56.5866V25.4119Z" fill="#4D6EB2"/>
<path d="M59.4098 25.4119H56.5859V28.2358H59.4098V25.4119Z" fill="#4D6EB2"/>
<path d="M62.234 25.4119H59.4102V28.2358H62.234V25.4119Z" fill="#4D6EB2"/>
<path d="M65.0573 25.4119H62.2334V28.2358H65.0573V25.4119Z" fill="#4D6EB2"/>
<path d="M67.8805 25.4119H65.0566V28.2358H67.8805V25.4119Z" fill="#4D6EB2"/>
<path d="M70.7047 25.4119H67.8809V28.2358H70.7047V25.4119Z" fill="#4D6EB2"/>
<path d="M73.528 25.4119H70.7041V28.2358H73.528V25.4119Z" fill="#4D6EB2"/>
<path d="M76.3512 25.4119H73.5273V28.2358H76.3512V25.4119Z" fill="#4D6EB2"/>
<path d="M79.1745 25.4119H76.3506V28.2358H79.1745V25.4119Z" fill="#4D6EB2"/>
<path d="M81.9987 25.4119H79.1748V28.2358H81.9987V25.4119Z" fill="#4D6EB2"/>
<path d="M84.8219 25.4119H81.998V28.2358H84.8219V25.4119Z" fill="#4D6EB2"/>
<path d="M87.6452 25.4119H84.8213V28.2358H87.6452V25.4119Z" fill="#4D6EB2"/>
<path d="M90.4694 25.4119H87.6455V28.2358H90.4694V25.4119Z" fill="#4D6EB2"/>
<path d="M93.2926 25.4119H90.4688V28.2358H93.2926V25.4119Z" fill="#4D6EB2"/>
<path d="M96.1159 25.4119H93.292V28.2358H96.1159V25.4119Z" fill="#4D6EB2"/>
<path d="M98.9401 25.4119H96.1162V28.2358H98.9401V25.4119Z" fill="#4D6EB2"/>
<path d="M101.763 25.4119H98.9395V28.2358H101.763V25.4119Z" fill="#4D6EB2"/>
<path d="M104.587 25.4119H101.763V28.2358H104.587V25.4119Z" fill="#4D6EB2"/>
<path d="M107.411 25.4119H104.587V28.2358H107.411V25.4119Z" fill="#4D6EB2"/>
<path d="M110.234 25.4119H107.41V28.2358H110.234V25.4119Z" fill="#4D6EB2"/>
<path d="M113.057 25.4119H110.233V28.2358H113.057V25.4119Z" fill="#4D6EB2"/>
<path d="M118.705 25.4119H115.881V28.2358H118.705V25.4119Z" fill="#4D6EB2"/>
<path d="M121.528 25.4119H118.704V28.2358H121.528V25.4119Z" fill="#FAF3D4"/>
<path d="M124.352 25.4119H121.528V28.2358H124.352V25.4119Z" fill="#3D47A0"/>
<path d="M127.174 25.4119H124.351V28.2358H127.174V25.4119Z" fill="#3D47A0"/>
<path d="M129.999 25.4119H127.175V28.2358H129.999V25.4119Z" fill="#3D47A0"/>
<path d="M132.823 25.4119H129.999V28.2358H132.823V25.4119Z" fill="#3D47A0"/>
<path d="M135.645 25.4119H132.821V28.2358H135.645V25.4119Z" fill="#35296E"/>
<path d="M2.93911 28.2358H0.115234V31.0597H2.93911V28.2358Z" fill="#35296E"/>
<path d="M5.76333 28.2358H2.93945V31.0597H5.76333V28.2358Z" fill="#3D47A0"/>
<path d="M8.58559 28.2358H5.76172V31.0597H8.58559V28.2358Z" fill="#3D47A0"/>
<path d="M11.4098 28.2358H8.58594V31.0597H11.4098V28.2358Z" fill="#3D47A0"/>
<path d="M14.234 28.2358H11.4102V31.0597H14.234V28.2358Z" fill="#3D47A0"/>
<path d="M17.0563 28.2358H14.2324V31.0597H17.0563V28.2358Z" fill="#B9D3E1"/>
<path d="M19.8805 28.2358H17.0566V31.0597H19.8805V28.2358Z" fill="#4D6EB2"/>
<path d="M22.7047 28.2358H19.8809V31.0597H22.7047V28.2358Z" fill="#4D6EB2"/>
<path d="M25.527 28.2358H22.7031V31.0597H25.527V28.2358Z" fill="#4D6EB2"/>
<path d="M28.3512 28.2358H25.5273V31.0597H28.3512V28.2358Z" fill="#4D6EB2"/>
<path d="M31.1745 28.2358H28.3506V31.0597H31.1745V28.2358Z" fill="#4D6EB2"/>
<path d="M33.9977 28.2358H31.1738V31.0597H33.9977V28.2358Z" fill="#4D6EB2"/>
<path d="M36.8219 28.2358H33.998V31.0597H36.8219V28.2358Z" fill="#4D6EB2"/>
<path d="M39.6452 28.2358H36.8213V31.0597H39.6452V28.2358Z" fill="#4D6EB2"/>
<path d="M42.4684 28.2358H39.6445V31.0597H42.4684V28.2358Z" fill="#4D6EB2"/>
<path d="M45.2926 28.2358H42.4688V31.0597H45.2926V28.2358Z" fill="#4D6EB2"/>
<path d="M48.1159 28.2358H45.292V31.0597H48.1159V28.2358Z" fill="#4D6EB2"/>
<path d="M50.9391 28.2358H48.1152V31.0597H50.9391V28.2358Z" fill="#4D6EB2"/>
<path d="M53.7633 28.2358H50.9395V31.0597H53.7633V28.2358Z" fill="#4D6EB2"/>
<path d="M56.5866 28.2358H53.7627V31.0597H56.5866V28.2358Z" fill="#4D6EB2"/>
<path d="M59.4098 28.2358H56.5859V31.0597H59.4098V28.2358Z" fill="#4D6EB2"/>
<path d="M62.234 28.2358H59.4102V31.0597H62.234V28.2358Z" fill="#4D6EB2"/>
<path d="M65.0573 28.2358H62.2334V31.0597H65.0573V28.2358Z" fill="#4D6EB2"/>
<path d="M67.8805 28.2358H65.0566V31.0597H67.8805V28.2358Z" fill="#4D6EB2"/>
<path d="M70.7047 28.2358H67.8809V31.0597H70.7047V28.2358Z" fill="#4D6EB2"/>
<path d="M73.528 28.2358H70.7041V31.0597H73.528V28.2358Z" fill="#4D6EB2"/>
<path d="M76.3512 28.2358H73.5273V31.0597H76.3512V28.2358Z" fill="#4D6EB2"/>
<path d="M79.1745 28.2358H76.3506V31.0597H79.1745V28.2358Z" fill="#4D6EB2"/>
<path d="M81.9987 28.2358H79.1748V31.0597H81.9987V28.2358Z" fill="#4D6EB2"/>
<path d="M84.8219 28.2358H81.998V31.0597H84.8219V28.2358Z" fill="#4D6EB2"/>
<path d="M87.6452 28.2358H84.8213V31.0597H87.6452V28.2358Z" fill="#4D6EB2"/>
<path d="M90.4694 28.2358H87.6455V31.0597H90.4694V28.2358Z" fill="#4D6EB2"/>
<path d="M93.2926 28.2358H90.4688V31.0597H93.2926V28.2358Z" fill="#4D6EB2"/>
<path d="M96.1159 28.2358H93.292V31.0597H96.1159V28.2358Z" fill="#4D6EB2"/>
<path d="M98.9401 28.2358H96.1162V31.0597H98.9401V28.2358Z" fill="#4D6EB2"/>
<path d="M101.763 28.2358H98.9395V31.0597H101.763V28.2358Z" fill="#4D6EB2"/>
<path d="M104.587 28.2358H101.763V31.0597H104.587V28.2358Z" fill="#4D6EB2"/>
<path d="M107.411 28.2358H104.587V31.0597H107.411V28.2358Z" fill="#4D6EB2"/>
<path d="M110.234 28.2358H107.41V31.0597H110.234V28.2358Z" fill="#4D6EB2"/>
<path d="M113.057 28.2358H110.233V31.0597H113.057V28.2358Z" fill="#4D6EB2"/>
<path d="M118.705 28.2358H115.881V31.0597H118.705V28.2358Z" fill="#4D6EB2"/>
<path d="M121.528 28.2358H118.704V31.0597H121.528V28.2358Z" fill="#FAF3D4"/>
<path d="M124.352 28.2358H121.528V31.0597H124.352V28.2358Z" fill="#3D47A0"/>
<path d="M127.174 28.2358H124.351V31.0597H127.174V28.2358Z" fill="#3D47A0"/>
<path d="M129.999 28.2358H127.175V31.0597H129.999V28.2358Z" fill="#3D47A0"/>
<path d="M132.823 28.2358H129.999V31.0597H132.823V28.2358Z" fill="#3D47A0"/>
<path d="M135.645 28.2358H132.821V31.0597H135.645V28.2358Z" fill="#35296E"/>
<path d="M2.93911 31.0587H0.115234V33.8826H2.93911V31.0587Z" fill="#35296E"/>
<path d="M5.76333 31.0587H2.93945V33.8826H5.76333V31.0587Z" fill="#3D47A0"/>
<path d="M8.58559 31.0587H5.76172V33.8826H8.58559V31.0587Z" fill="#3D47A0"/>
<path d="M11.4098 31.0587H8.58594V33.8826H11.4098V31.0587Z" fill="#3D47A0"/>
<path d="M14.234 31.0587H11.4102V33.8826H14.234V31.0587Z" fill="#3D47A0"/>
<path d="M17.0563 31.0587H14.2324V33.8826H17.0563V31.0587Z" fill="#35296E"/>
<path d="M19.8805 31.0587H17.0566V33.8826H19.8805V31.0587Z" fill="#B9D3E1"/>
<path d="M22.7047 31.0587H19.8809V33.8826H22.7047V31.0587Z" fill="#B9D3E1"/>
<path d="M25.527 31.0587H22.7031V33.8826H25.527V31.0587Z" fill="#B9D3E1"/>
<path d="M28.3512 31.0587H25.5273V33.8826H28.3512V31.0587Z" fill="#B9D3E1"/>
<path d="M31.1745 31.0587H28.3506V33.8826H31.1745V31.0587Z" fill="#B9D3E1"/>
<path d="M33.9977 31.0587H31.1738V33.8826H33.9977V31.0587Z" fill="#B9D3E1"/>
<path d="M36.8219 31.0587H33.998V33.8826H36.8219V31.0587Z" fill="#B9D3E1"/>
<path d="M39.6452 31.0587H36.8213V33.8826H39.6452V31.0587Z" fill="#B9D3E1"/>
<path d="M42.4684 31.0587H39.6445V33.8826H42.4684V31.0587Z" fill="#B9D3E1"/>
<path d="M45.2926 31.0587H42.4688V33.8826H45.2926V31.0587Z" fill="#B9D3E1"/>
<path d="M48.1159 31.0587H45.292V33.8826H48.1159V31.0587Z" fill="#B9D3E1"/>
<path d="M50.9391 31.0587H48.1152V33.8826H50.9391V31.0587Z" fill="#B9D3E1"/>
<path d="M53.7633 31.0587H50.9395V33.8826H53.7633V31.0587Z" fill="#B9D3E1"/>
<path d="M56.5866 31.0587H53.7627V33.8826H56.5866V31.0587Z" fill="#B9D3E1"/>
<path d="M59.4098 31.0587H56.5859V33.8826H59.4098V31.0587Z" fill="#B9D3E1"/>
<path d="M62.234 31.0587H59.4102V33.8826H62.234V31.0587Z" fill="#B9D3E1"/>
<path d="M65.0573 31.0587H62.2334V33.8826H65.0573V31.0587Z" fill="#B9D3E1"/>
<path d="M67.8805 31.0587H65.0566V33.8826H67.8805V31.0587Z" fill="#B9D3E1"/>
<path d="M70.7047 31.0587H67.8809V33.8826H70.7047V31.0587Z" fill="#B9D3E1"/>
<path d="M73.528 31.0587H70.7041V33.8826H73.528V31.0587Z" fill="#B9D3E1"/>
<path d="M76.3512 31.0587H73.5273V33.8826H76.3512V31.0587Z" fill="#B9D3E1"/>
<path d="M79.1745 31.0587H76.3506V33.8826H79.1745V31.0587Z" fill="#B9D3E1"/>
<path d="M81.9987 31.0587H79.1748V33.8826H81.9987V31.0587Z" fill="#B9D3E1"/>
<path d="M84.8219 31.0587H81.998V33.8826H84.8219V31.0587Z" fill="#B9D3E1"/>
<path d="M87.6452 31.0587H84.8213V33.8826H87.6452V31.0587Z" fill="#B9D3E1"/>
<path d="M90.4694 31.0587H87.6455V33.8826H90.4694V31.0587Z" fill="#B9D3E1"/>
<path d="M93.2926 31.0587H90.4688V33.8826H93.2926V31.0587Z" fill="#B9D3E1"/>
<path d="M96.1159 31.0587H93.292V33.8826H96.1159V31.0587Z" fill="#B9D3E1"/>
<path d="M98.9401 31.0587H96.1162V33.8826H98.9401V31.0587Z" fill="#B9D3E1"/>
<path d="M101.763 31.0587H98.9395V33.8826H101.763V31.0587Z" fill="#B9D3E1"/>
<path d="M104.587 31.0587H101.763V33.8826H104.587V31.0587Z" fill="#B9D3E1"/>
<path d="M107.411 31.0587H104.587V33.8826H107.411V31.0587Z" fill="#B9D3E1"/>
<path d="M110.234 31.0587H107.41V33.8826H110.234V31.0587Z" fill="#B9D3E1"/>
<path d="M113.057 31.0587H110.233V33.8826H113.057V31.0587Z" fill="#B9D3E1"/>
<path d="M118.705 31.0587H115.881V33.8826H118.705V31.0587Z" fill="#FAF3D4"/>
<path d="M121.528 31.0587H118.704V33.8826H121.528V31.0587Z" fill="#35296E"/>
<path d="M124.352 31.0587H121.528V33.8826H124.352V31.0587Z" fill="#3D47A0"/>
<path d="M127.174 31.0587H124.351V33.8826H127.174V31.0587Z" fill="#3D47A0"/>
<path d="M129.999 31.0587H127.175V33.8826H129.999V31.0587Z" fill="#3D47A0"/>
<path d="M132.823 31.0587H129.999V33.8826H132.823V31.0587Z" fill="#3D47A0"/>
<path d="M135.645 31.0587H132.821V33.8826H135.645V31.0587Z" fill="#35296E"/>
<path d="M2.93911 33.8826H0.115234V36.7064H2.93911V33.8826Z" fill="#35296E"/>
<path d="M5.76333 33.8826H2.93945V36.7064H5.76333V33.8826Z" fill="#3D47A0"/>
<path d="M8.58559 33.8826H5.76172V36.7064H8.58559V33.8826Z" fill="#3D47A0"/>
<path d="M11.4098 33.8826H8.58594V36.7064H11.4098V33.8826Z" fill="#3D47A0"/>
<path d="M14.234 33.8826H11.4102V36.7064H14.234V33.8826Z" fill="#35296E"/>
<path d="M17.0563 33.8826H14.2324V36.7064H17.0563V33.8826Z" fill="#3D47A0"/>
<path d="M19.8805 33.8826H17.0566V36.7064H19.8805V33.8826Z" fill="#3D47A0"/>
<path d="M22.7047 33.8826H19.8809V36.7064H22.7047V33.8826Z" fill="#3D47A0"/>
<path d="M25.527 33.8826H22.7031V36.7064H25.527V33.8826Z" fill="#3D47A0"/>
<path d="M28.3512 33.8826H25.5273V36.7064H28.3512V33.8826Z" fill="#3D47A0"/>
<path d="M31.1745 33.8826H28.3506V36.7064H31.1745V33.8826Z" fill="#3D47A0"/>
<path d="M33.9977 33.8826H31.1738V36.7064H33.9977V33.8826Z" fill="#3D47A0"/>
<path d="M36.8219 33.8826H33.998V36.7064H36.8219V33.8826Z" fill="#3D47A0"/>
<path d="M39.6452 33.8826H36.8213V36.7064H39.6452V33.8826Z" fill="#3D47A0"/>
<path d="M42.4684 33.8826H39.6445V36.7064H42.4684V33.8826Z" fill="#3D47A0"/>
<path d="M45.2926 33.8826H42.4688V36.7064H45.2926V33.8826Z" fill="#3D47A0"/>
<path d="M48.1159 33.8826H45.292V36.7064H48.1159V33.8826Z" fill="#3D47A0"/>
<path d="M50.9391 33.8826H48.1152V36.7064H50.9391V33.8826Z" fill="#3D47A0"/>
<path d="M53.7633 33.8826H50.9395V36.7064H53.7633V33.8826Z" fill="#3D47A0"/>
<path d="M56.5866 33.8826H53.7627V36.7064H56.5866V33.8826Z" fill="#3D47A0"/>
<path d="M59.4098 33.8826H56.5859V36.7064H59.4098V33.8826Z" fill="#3D47A0"/>
<path d="M62.234 33.8826H59.4102V36.7064H62.234V33.8826Z" fill="#3D47A0"/>
<path d="M65.0573 33.8826H62.2334V36.7064H65.0573V33.8826Z" fill="#3D47A0"/>
<path d="M67.8805 33.8826H65.0566V36.7064H67.8805V33.8826Z" fill="#3D47A0"/>
<path d="M70.7047 33.8826H67.8809V36.7064H70.7047V33.8826Z" fill="#3D47A0"/>
<path d="M73.528 33.8826H70.7041V36.7064H73.528V33.8826Z" fill="#3D47A0"/>
<path d="M76.3512 33.8826H73.5273V36.7064H76.3512V33.8826Z" fill="#3D47A0"/>
<path d="M79.1745 33.8826H76.3506V36.7064H79.1745V33.8826Z" fill="#3D47A0"/>
<path d="M81.9987 33.8826H79.1748V36.7064H81.9987V33.8826Z" fill="#3D47A0"/>
<path d="M84.8219 33.8826H81.998V36.7064H84.8219V33.8826Z" fill="#3D47A0"/>
<path d="M87.6452 33.8826H84.8213V36.7064H87.6452V33.8826Z" fill="#3D47A0"/>
<path d="M90.4694 33.8826H87.6455V36.7064H90.4694V33.8826Z" fill="#3D47A0"/>
<path d="M93.2926 33.8826H90.4688V36.7064H93.2926V33.8826Z" fill="#3D47A0"/>
<path d="M96.1159 33.8826H93.292V36.7064H96.1159V33.8826Z" fill="#3D47A0"/>
<path d="M98.9401 33.8826H96.1162V36.7064H98.9401V33.8826Z" fill="#3D47A0"/>
<path d="M101.763 33.8826H98.9395V36.7064H101.763V33.8826Z" fill="#3D47A0"/>
<path d="M104.587 33.8826H101.763V36.7064H104.587V33.8826Z" fill="#3D47A0"/>
<path d="M107.411 33.8826H104.587V36.7064H107.411V33.8826Z" fill="#3D47A0"/>
<path d="M110.234 33.8826H107.41V36.7064H110.234V33.8826Z" fill="#3D47A0"/>
<path d="M113.057 33.8826H110.233V36.7064H113.057V33.8826Z" fill="#3D47A0"/>
<path d="M118.705 33.8826H115.881V36.7064H118.705V33.8826Z" fill="#3D47A0"/>
<path d="M121.528 33.8826H118.704V36.7064H121.528V33.8826Z" fill="#3D47A0"/>
<path d="M124.352 33.8826H121.528V36.7064H124.352V33.8826Z" fill="#35296E"/>
<path d="M127.174 33.8826H124.351V36.7064H127.174V33.8826Z" fill="#3D47A0"/>
<path d="M129.999 33.8826H127.175V36.7064H129.999V33.8826Z" fill="#3D47A0"/>
<path d="M132.823 33.8826H129.999V36.7064H132.823V33.8826Z" fill="#3D47A0"/>
<path d="M135.645 33.8826H132.821V36.7064H135.645V33.8826Z" fill="#35296E"/>
<path d="M2.93911 36.7065H0.115234V39.5304H2.93911V36.7065Z" fill="#35296E"/>
<path d="M5.76333 36.7065H2.93945V39.5304H5.76333V36.7065Z" fill="#3D47A0"/>
<path d="M8.58559 36.7065H5.76172V39.5304H8.58559V36.7065Z" fill="#3D47A0"/>
<path d="M11.4098 36.7065H8.58594V39.5304H11.4098V36.7065Z" fill="#35296E"/>
<path d="M14.234 36.7065H11.4102V39.5304H14.234V36.7065Z" fill="#3D47A0"/>
<path d="M17.0563 36.7065H14.2324V39.5304H17.0563V36.7065Z" fill="#3D47A0"/>
<path d="M19.8805 36.7065H17.0566V39.5304H19.8805V36.7065Z" fill="#3D47A0"/>
<path d="M22.7047 36.7065H19.8809V39.5304H22.7047V36.7065Z" fill="#3D47A0"/>
<path d="M25.527 36.7065H22.7031V39.5304H25.527V36.7065Z" fill="#3D47A0"/>
<path d="M28.3512 36.7065H25.5273V39.5304H28.3512V36.7065Z" fill="#3D47A0"/>
<path d="M31.1745 36.7065H28.3506V39.5304H31.1745V36.7065Z" fill="#3D47A0"/>
<path d="M33.9977 36.7065H31.1738V39.5304H33.9977V36.7065Z" fill="#3D47A0"/>
<path d="M36.8219 36.7065H33.998V39.5304H36.8219V36.7065Z" fill="#3D47A0"/>
<path d="M39.6452 36.7065H36.8213V39.5304H39.6452V36.7065Z" fill="#3D47A0"/>
<path d="M42.4684 36.7065H39.6445V39.5304H42.4684V36.7065Z" fill="#3D47A0"/>
<path d="M45.2926 36.7065H42.4688V39.5304H45.2926V36.7065Z" fill="#3D47A0"/>
<path d="M48.1159 36.7065H45.292V39.5304H48.1159V36.7065Z" fill="#3D47A0"/>
<path d="M50.9391 36.7065H48.1152V39.5304H50.9391V36.7065Z" fill="#3D47A0"/>
<path d="M53.7633 36.7065H50.9395V39.5304H53.7633V36.7065Z" fill="#3D47A0"/>
<path d="M56.5866 36.7065H53.7627V39.5304H56.5866V36.7065Z" fill="#3D47A0"/>
<path d="M59.4098 36.7065H56.5859V39.5304H59.4098V36.7065Z" fill="#3D47A0"/>
<path d="M62.234 36.7065H59.4102V39.5304H62.234V36.7065Z" fill="#3D47A0"/>
<path d="M65.0573 36.7065H62.2334V39.5304H65.0573V36.7065Z" fill="#3D47A0"/>
<path d="M67.8805 36.7065H65.0566V39.5304H67.8805V36.7065Z" fill="#3D47A0"/>
<path d="M70.7047 36.7065H67.8809V39.5304H70.7047V36.7065Z" fill="#3D47A0"/>
<path d="M73.528 36.7065H70.7041V39.5304H73.528V36.7065Z" fill="#3D47A0"/>
<path d="M76.3512 36.7065H73.5273V39.5304H76.3512V36.7065Z" fill="#3D47A0"/>
<path d="M79.1745 36.7065H76.3506V39.5304H79.1745V36.7065Z" fill="#3D47A0"/>
<path d="M81.9987 36.7065H79.1748V39.5304H81.9987V36.7065Z" fill="#3D47A0"/>
<path d="M84.8219 36.7065H81.998V39.5304H84.8219V36.7065Z" fill="#3D47A0"/>
<path d="M87.6452 36.7065H84.8213V39.5304H87.6452V36.7065Z" fill="#3D47A0"/>
<path d="M90.4694 36.7065H87.6455V39.5304H90.4694V36.7065Z" fill="#3D47A0"/>
<path d="M93.2926 36.7065H90.4688V39.5304H93.2926V36.7065Z" fill="#3D47A0"/>
<path d="M96.1159 36.7065H93.292V39.5304H96.1159V36.7065Z" fill="#3D47A0"/>
<path d="M98.9401 36.7065H96.1162V39.5304H98.9401V36.7065Z" fill="#3D47A0"/>
<path d="M101.763 36.7065H98.9395V39.5304H101.763V36.7065Z" fill="#3D47A0"/>
<path d="M104.587 36.7065H101.763V39.5304H104.587V36.7065Z" fill="#3D47A0"/>
<path d="M107.411 36.7065H104.587V39.5304H107.411V36.7065Z" fill="#3D47A0"/>
<path d="M110.234 36.7065H107.41V39.5304H110.234V36.7065Z" fill="#3D47A0"/>
<path d="M113.057 36.7065H110.233V39.5304H113.057V36.7065Z" fill="#3D47A0"/>
<path d="M118.705 36.7065H115.881V39.5304H118.705V36.7065Z" fill="#3D47A0"/>
<path d="M121.528 36.7065H118.704V39.5304H121.528V36.7065Z" fill="#3D47A0"/>
<path d="M124.352 36.7065H121.528V39.5304H124.352V36.7065Z" fill="#3D47A0"/>
<path d="M127.174 36.7065H124.351V39.5304H127.174V36.7065Z" fill="#35296E"/>
<path d="M129.999 36.7065H127.175V39.5304H129.999V36.7065Z" fill="#3D47A0"/>
<path d="M132.823 36.7065H129.999V39.5304H132.823V36.7065Z" fill="#3D47A0"/>
<path d="M135.645 36.7065H132.821V39.5304H135.645V36.7065Z" fill="#35296E"/>
<path d="M2.93911 39.5294H0.115234V42.3532H2.93911V39.5294Z" fill="#35296E"/>
<path d="M5.76333 39.5294H2.93945V42.3532H5.76333V39.5294Z" fill="#3D47A0"/>
<path d="M8.58559 39.5294H5.76172V42.3532H8.58559V39.5294Z" fill="#35296E"/>
<path d="M11.4098 39.5294H8.58594V42.3532H11.4098V39.5294Z" fill="#3D47A0"/>
<path d="M14.234 39.5294H11.4102V42.3532H14.234V39.5294Z" fill="#3D47A0"/>
<path d="M17.0563 39.5294H14.2324V42.3532H17.0563V39.5294Z" fill="#3D47A0"/>
<path d="M19.8805 39.5294H17.0566V42.3532H19.8805V39.5294Z" fill="#3D47A0"/>
<path d="M22.7047 39.5294H19.8809V42.3532H22.7047V39.5294Z" fill="#3D47A0"/>
<path d="M25.527 39.5294H22.7031V42.3532H25.527V39.5294Z" fill="#3D47A0"/>
<path d="M28.3512 39.5294H25.5273V42.3532H28.3512V39.5294Z" fill="#3D47A0"/>
<path d="M31.1745 39.5294H28.3506V42.3532H31.1745V39.5294Z" fill="#3D47A0"/>
<path d="M33.9977 39.5294H31.1738V42.3532H33.9977V39.5294Z" fill="#3D47A0"/>
<path d="M36.8219 39.5294H33.998V42.3532H36.8219V39.5294Z" fill="#3D47A0"/>
<path d="M39.6452 39.5294H36.8213V42.3532H39.6452V39.5294Z" fill="#3D47A0"/>
<path d="M42.4684 39.5294H39.6445V42.3532H42.4684V39.5294Z" fill="#3D47A0"/>
<path d="M45.2926 39.5294H42.4688V42.3532H45.2926V39.5294Z" fill="#3D47A0"/>
<path d="M48.1159 39.5294H45.292V42.3532H48.1159V39.5294Z" fill="#3D47A0"/>
<path d="M50.9391 39.5294H48.1152V42.3532H50.9391V39.5294Z" fill="#3D47A0"/>
<path d="M53.7633 39.5294H50.9395V42.3532H53.7633V39.5294Z" fill="#3D47A0"/>
<path d="M56.5866 39.5294H53.7627V42.3532H56.5866V39.5294Z" fill="#3D47A0"/>
<path d="M59.4098 39.5294H56.5859V42.3532H59.4098V39.5294Z" fill="#3D47A0"/>
<path d="M62.234 39.5294H59.4102V42.3532H62.234V39.5294Z" fill="#3D47A0"/>
<path d="M65.0573 39.5294H62.2334V42.3532H65.0573V39.5294Z" fill="#3D47A0"/>
<path d="M67.8805 39.5294H65.0566V42.3532H67.8805V39.5294Z" fill="#3D47A0"/>
<path d="M70.7047 39.5294H67.8809V42.3532H70.7047V39.5294Z" fill="#3D47A0"/>
<path d="M73.528 39.5294H70.7041V42.3532H73.528V39.5294Z" fill="#3D47A0"/>
<path d="M76.3512 39.5294H73.5273V42.3532H76.3512V39.5294Z" fill="#3D47A0"/>
<path d="M79.1745 39.5294H76.3506V42.3532H79.1745V39.5294Z" fill="#3D47A0"/>
<path d="M81.9987 39.5294H79.1748V42.3532H81.9987V39.5294Z" fill="#3D47A0"/>
<path d="M84.8219 39.5294H81.998V42.3532H84.8219V39.5294Z" fill="#3D47A0"/>
<path d="M87.6452 39.5294H84.8213V42.3532H87.6452V39.5294Z" fill="#3D47A0"/>
<path d="M90.4694 39.5294H87.6455V42.3532H90.4694V39.5294Z" fill="#3D47A0"/>
<path d="M93.2926 39.5294H90.4688V42.3532H93.2926V39.5294Z" fill="#3D47A0"/>
<path d="M96.1159 39.5294H93.292V42.3532H96.1159V39.5294Z" fill="#3D47A0"/>
<path d="M98.9401 39.5294H96.1162V42.3532H98.9401V39.5294Z" fill="#3D47A0"/>
<path d="M101.763 39.5294H98.9395V42.3532H101.763V39.5294Z" fill="#3D47A0"/>
<path d="M104.587 39.5294H101.763V42.3532H104.587V39.5294Z" fill="#3D47A0"/>
<path d="M107.411 39.5294H104.587V42.3532H107.411V39.5294Z" fill="#3D47A0"/>
<path d="M110.234 39.5294H107.41V42.3532H110.234V39.5294Z" fill="#3D47A0"/>
<path d="M113.057 39.5294H110.233V42.3532H113.057V39.5294Z" fill="#3D47A0"/>
<path d="M118.705 39.5294H115.881V42.3532H118.705V39.5294Z" fill="#3D47A0"/>
<path d="M121.528 39.5294H118.704V42.3532H121.528V39.5294Z" fill="#3D47A0"/>
<path d="M124.352 39.5294H121.528V42.3532H124.352V39.5294Z" fill="#3D47A0"/>
<path d="M127.174 39.5294H124.351V42.3532H127.174V39.5294Z" fill="#3D47A0"/>
<path d="M129.999 39.5294H127.175V42.3532H129.999V39.5294Z" fill="#35296E"/>
<path d="M132.823 39.5294H129.999V42.3532H132.823V39.5294Z" fill="#3D47A0"/>
<path d="M135.645 39.5294H132.821V42.3532H135.645V39.5294Z" fill="#35296E"/>
<path d="M5.76333 42.3532H2.93945V45.1771H5.76333V42.3532Z" fill="#35296E"/>
<path d="M8.58559 42.3532H5.76172V45.1771H8.58559V42.3532Z" fill="#3D47A0"/>
<path d="M11.4098 42.3532H8.58594V45.1771H11.4098V42.3532Z" fill="#3D47A0"/>
<path d="M14.234 42.3532H11.4102V45.1771H14.234V42.3532Z" fill="#3D47A0"/>
<path d="M17.0563 42.3532H14.2324V45.1771H17.0563V42.3532Z" fill="#3D47A0"/>
<path d="M19.8805 42.3532H17.0566V45.1771H19.8805V42.3532Z" fill="#3D47A0"/>
<path d="M22.7047 42.3532H19.8809V45.1771H22.7047V42.3532Z" fill="#3D47A0"/>
<path d="M25.527 42.3532H22.7031V45.1771H25.527V42.3532Z" fill="#3D47A0"/>
<path d="M28.3512 42.3532H25.5273V45.1771H28.3512V42.3532Z" fill="#3D47A0"/>
<path d="M31.1745 42.3532H28.3506V45.1771H31.1745V42.3532Z" fill="#3D47A0"/>
<path d="M33.9977 42.3532H31.1738V45.1771H33.9977V42.3532Z" fill="#3D47A0"/>
<path d="M36.8219 42.3532H33.998V45.1771H36.8219V42.3532Z" fill="#3D47A0"/>
<path d="M39.6452 42.3532H36.8213V45.1771H39.6452V42.3532Z" fill="#3D47A0"/>
<path d="M42.4684 42.3532H39.6445V45.1771H42.4684V42.3532Z" fill="#3D47A0"/>
<path d="M45.2926 42.3532H42.4688V45.1771H45.2926V42.3532Z" fill="#3D47A0"/>
<path d="M48.1159 42.3532H45.292V45.1771H48.1159V42.3532Z" fill="#3D47A0"/>
<path d="M50.9391 42.3532H48.1152V45.1771H50.9391V42.3532Z" fill="#3D47A0"/>
<path d="M53.7633 42.3532H50.9395V45.1771H53.7633V42.3532Z" fill="#3D47A0"/>
<path d="M56.5866 42.3532H53.7627V45.1771H56.5866V42.3532Z" fill="#3D47A0"/>
<path d="M59.4098 42.3532H56.5859V45.1771H59.4098V42.3532Z" fill="#3D47A0"/>
<path d="M62.234 42.3532H59.4102V45.1771H62.234V42.3532Z" fill="#3D47A0"/>
<path d="M65.0573 42.3532H62.2334V45.1771H65.0573V42.3532Z" fill="#3D47A0"/>
<path d="M67.8805 42.3532H65.0566V45.1771H67.8805V42.3532Z" fill="#3D47A0"/>
<path d="M70.7047 42.3532H67.8809V45.1771H70.7047V42.3532Z" fill="#3D47A0"/>
<path d="M73.528 42.3532H70.7041V45.1771H73.528V42.3532Z" fill="#3D47A0"/>
<path d="M76.3512 42.3532H73.5273V45.1771H76.3512V42.3532Z" fill="#3D47A0"/>
<path d="M79.1745 42.3532H76.3506V45.1771H79.1745V42.3532Z" fill="#3D47A0"/>
<path d="M81.9987 42.3532H79.1748V45.1771H81.9987V42.3532Z" fill="#3D47A0"/>
<path d="M84.8219 42.3532H81.998V45.1771H84.8219V42.3532Z" fill="#3D47A0"/>
<path d="M87.6452 42.3532H84.8213V45.1771H87.6452V42.3532Z" fill="#3D47A0"/>
<path d="M90.4694 42.3532H87.6455V45.1771H90.4694V42.3532Z" fill="#3D47A0"/>
<path d="M93.2926 42.3532H90.4688V45.1771H93.2926V42.3532Z" fill="#3D47A0"/>
<path d="M96.1159 42.3532H93.292V45.1771H96.1159V42.3532Z" fill="#3D47A0"/>
<path d="M98.9401 42.3532H96.1162V45.1771H98.9401V42.3532Z" fill="#3D47A0"/>
<path d="M101.763 42.3532H98.9395V45.1771H101.763V42.3532Z" fill="#3D47A0"/>
<path d="M104.587 42.3532H101.763V45.1771H104.587V42.3532Z" fill="#3D47A0"/>
<path d="M107.411 42.3532H104.587V45.1771H107.411V42.3532Z" fill="#3D47A0"/>
<path d="M110.234 42.3532H107.41V45.1771H110.234V42.3532Z" fill="#3D47A0"/>
<path d="M113.057 42.3532H110.233V45.1771H113.057V42.3532Z" fill="#3D47A0"/>
<path d="M118.705 42.3532H115.881V45.1771H118.705V42.3532Z" fill="#3D47A0"/>
<path d="M121.528 42.3532H118.704V45.1771H121.528V42.3532Z" fill="#3D47A0"/>
<path d="M124.352 42.3532H121.528V45.1771H124.352V42.3532Z" fill="#3D47A0"/>
<path d="M127.174 42.3532H124.351V45.1771H127.174V42.3532Z" fill="#3D47A0"/>
<path d="M129.999 42.3532H127.175V45.1771H129.999V42.3532Z" fill="#3D47A0"/>
<path d="M132.823 42.3532H129.999V45.1771H132.823V42.3532Z" fill="#35296E"/>
<path d="M8.58559 45.1771H5.76172V48.001H8.58559V45.1771Z" fill="#35296E"/>
<path d="M11.4098 45.1771H8.58594V48.001H11.4098V45.1771Z" fill="#35296E"/>
<path d="M14.234 45.1771H11.4102V48.001H14.234V45.1771Z" fill="#35296E"/>
<path d="M17.0563 45.1771H14.2324V48.001H17.0563V45.1771Z" fill="#35296E"/>
<path d="M19.8805 45.1771H17.0566V48.001H19.8805V45.1771Z" fill="#35296E"/>
<path d="M22.7047 45.1771H19.8809V48.001H22.7047V45.1771Z" fill="#35296E"/>
<path d="M25.527 45.1771H22.7031V48.001H25.527V45.1771Z" fill="#35296E"/>
<path d="M28.3512 45.1771H25.5273V48.001H28.3512V45.1771Z" fill="#35296E"/>
<path d="M31.1745 45.1771H28.3506V48.001H31.1745V45.1771Z" fill="#35296E"/>
<path d="M33.9977 45.1771H31.1738V48.001H33.9977V45.1771Z" fill="#35296E"/>
<path d="M36.8219 45.1771H33.998V48.001H36.8219V45.1771Z" fill="#35296E"/>
<path d="M39.6452 45.1771H36.8213V48.001H39.6452V45.1771Z" fill="#35296E"/>
<path d="M42.4684 45.1771H39.6445V48.001H42.4684V45.1771Z" fill="#35296E"/>
<path d="M45.2926 45.1771H42.4688V48.001H45.2926V45.1771Z" fill="#35296E"/>
<path d="M48.1159 45.1771H45.292V48.001H48.1159V45.1771Z" fill="#35296E"/>
<path d="M50.9391 45.1771H48.1152V48.001H50.9391V45.1771Z" fill="#35296E"/>
<path d="M53.7633 45.1771H50.9395V48.001H53.7633V45.1771Z" fill="#35296E"/>
<path d="M56.5866 45.1771H53.7627V48.001H56.5866V45.1771Z" fill="#35296E"/>
<path d="M59.4098 45.1771H56.5859V48.001H59.4098V45.1771Z" fill="#35296E"/>
<path d="M62.234 45.1771H59.4102V48.001H62.234V45.1771Z" fill="#35296E"/>
<path d="M65.0573 45.1771H62.2334V48.001H65.0573V45.1771Z" fill="#35296E"/>
<path d="M67.8805 45.1771H65.0566V48.001H67.8805V45.1771Z" fill="#35296E"/>
<path d="M70.7047 45.1771H67.8809V48.001H70.7047V45.1771Z" fill="#35296E"/>
<path d="M73.528 45.1771H70.7041V48.001H73.528V45.1771Z" fill="#35296E"/>
<path d="M76.3512 45.1771H73.5273V48.001H76.3512V45.1771Z" fill="#35296E"/>
<path d="M79.1745 45.1771H76.3506V48.001H79.1745V45.1771Z" fill="#35296E"/>
<path d="M81.9987 45.1771H79.1748V48.001H81.9987V45.1771Z" fill="#35296E"/>
<path d="M84.8219 45.1771H81.998V48.001H84.8219V45.1771Z" fill="#35296E"/>
<path d="M87.6452 45.1771H84.8213V48.001H87.6452V45.1771Z" fill="#35296E"/>
<path d="M90.4694 45.1771H87.6455V48.001H90.4694V45.1771Z" fill="#35296E"/>
<path d="M93.2926 45.1771H90.4688V48.001H93.2926V45.1771Z" fill="#35296E"/>
<path d="M96.1159 45.1771H93.292V48.001H96.1159V45.1771Z" fill="#35296E"/>
<path d="M98.9401 45.1771H96.1162V48.001H98.9401V45.1771Z" fill="#35296E"/>
<path d="M101.763 45.1771H98.9395V48.001H101.763V45.1771Z" fill="#35296E"/>
<path d="M104.587 45.1771H101.763V48.001H104.587V45.1771Z" fill="#35296E"/>
<path d="M107.411 45.1771H104.587V48.001H107.411V45.1771Z" fill="#35296E"/>
<path d="M110.234 45.1771H107.41V48.001H110.234V45.1771Z" fill="#35296E"/>
<path d="M113.057 45.1771H110.233V48.001H113.057V45.1771Z" fill="#35296E"/>
<path d="M115.881 0H113.058V2.82388H115.881V0Z" fill="#35296E"/>
<path d="M115.881 2.82385H113.058V5.64773H115.881V2.82385Z" fill="#B9D3E1"/>
<path d="M115.881 5.64679H113.058V8.47066H115.881V5.64679Z" fill="#4D6EB2"/>
<path d="M115.881 8.47064H113.058V11.2945H115.881V8.47064Z" fill="#4D6EB2"/>
<path d="M115.881 11.2945H113.058V14.1184H115.881V11.2945Z" fill="#4D6EB2"/>
<path d="M115.881 14.1174H113.058V16.9413H115.881V14.1174Z" fill="#4D6EB2"/>
<path d="M115.881 16.9413H113.058V19.7652H115.881V16.9413Z" fill="#4D6EB2"/>
<path d="M115.881 19.7651H113.058V22.589H115.881V19.7651Z" fill="#4D6EB2"/>
<path d="M115.881 22.5881H113.058V25.412H115.881V22.5881Z" fill="#4D6EB2"/>
<path d="M115.881 25.4119H113.058V28.2358H115.881V25.4119Z" fill="#4D6EB2"/>
<path d="M115.881 28.2358H113.058V31.0597H115.881V28.2358Z" fill="#4D6EB2"/>
<path d="M115.881 31.0587H113.058V33.8826H115.881V31.0587Z" fill="#B9D3E1"/>
<path d="M115.881 33.8826H113.058V36.7064H115.881V33.8826Z" fill="#3D47A0"/>
<path d="M115.881 36.7065H113.058V39.5304H115.881V36.7065Z" fill="#3D47A0"/>
<path d="M115.881 39.5294H113.058V42.3532H115.881V39.5294Z" fill="#3D47A0"/>
<path d="M115.881 42.3532H113.058V45.1771H115.881V42.3532Z" fill="#3D47A0"/>
<path d="M115.881 45.1771H113.058V48.001H115.881V45.1771Z" fill="#35296E"/>
<path d="M118.705 45.1771H115.881V48.001H118.705V45.1771Z" fill="#35296E"/>
<path d="M121.528 45.1771H118.704V48.001H121.528V45.1771Z" fill="#35296E"/>
<path d="M124.352 45.1771H121.528V48.001H124.352V45.1771Z" fill="#35296E"/>
<path d="M127.174 45.1771H124.351V48.001H127.174V45.1771Z" fill="#35296E"/>
<path d="M129.999 45.1771H127.175V48.001H129.999V45.1771Z" fill="#35296E"/>
<path d="M28.576 25.3973H27.2871V11.222H35.0187V13.7989H29.864V16.3758H35.0187V18.9527H29.864V25.3963H28.5751L28.576 25.3973Z" fill="#FAF3D4"/>
<path d="M44.0403 25.3973H38.8856V24.1084H37.5967V16.3768H38.8856V15.0878H44.0403V16.3768H45.3293V25.3973H44.0403ZM41.4635 22.8204H42.7524V17.6657H40.1755V22.8204H41.4644H41.4635Z" fill="#FAF3D4"/>
<path d="M53.062 25.3973H49.1962V24.1084H47.9072V16.3768H49.1962V15.0878H54.3509V16.3768H55.6398V18.9536H53.0629V17.6647H50.4861V22.8194H53.0629V21.5305H55.6398V24.1074H54.3509V25.3963H53.062V25.3973Z" fill="#FAF3D4"/>
<path d="M63.3715 25.3973H59.5057V24.1084H58.2168V16.3768H59.5057V15.0878H64.6604V16.3768H65.9494V20.2426H60.7946V22.8194H63.3715V21.5305H65.9484V24.1074H64.6595V25.3963H63.3705L63.3715 25.3973ZM62.0826 18.9536H63.3715V17.6647H60.7946V18.9536H62.0836H62.0826Z" fill="#FAF3D4"/>
<path d="M74.969 25.3973H72.3922V24.1084H71.1032V25.3973H68.5264V11.222H71.1032V16.3768H72.3922V15.0878H76.258V16.3768H77.5469V24.1084H76.258V25.3973H74.969ZM73.6801 22.8204H74.969V17.6657H72.3922V18.9546H71.1032V21.5315H72.3922V22.8204H73.6811H73.6801Z" fill="#FAF3D4"/>
<path d="M85.2778 25.3973H81.412V24.1084H80.123V16.3768H81.412V15.0878H86.5667V16.3768H87.8556V24.1084H86.5667V25.3973H85.2778ZM83.9888 22.8204H85.2778V17.6657H82.7009V22.8204H83.9898H83.9888Z" fill="#FAF3D4"/>
<path d="M95.5873 25.3973H91.7215V24.1084H90.4326V16.3768H91.7215V15.0878H96.8763V16.3768H98.1652V24.1084H96.8763V25.3973H95.5873ZM94.2984 22.8204H95.5873V17.6657H93.0105V22.8204H94.2994H94.2984Z" fill="#FAF3D4"/>
<path d="M107.186 25.3973H105.897V24.1084H104.608V22.8194H103.319V21.5305H102.03V25.3963H99.4531V11.222H102.03V18.9536H103.319V17.6647H104.608V16.3758H105.897V15.0869H108.474V17.6637H107.185V18.9527H105.896V21.5295H107.185V22.8185H108.474V25.3953H107.185L107.186 25.3973Z" fill="#FAF3D4"/>
</g>
<defs>
<clipPath id="clip0_13294_8965">
<rect width="135.53" height="48" fill="white" transform="translate(0.115234)"/>
</clipPath>
</defs>
</svg>
