<svg width="105" height="48" viewBox="0 0 105 48" fill="none" xmlns="http://www.w3.org/2000/svg">
<g clip-path="url(#clip0_13294_8966)">
<path d="M8.64809 0H5.82422V2.82388H8.64809V0Z" fill="#401C5A"/>
<path d="M11.4723 0H8.64844V2.82388H11.4723V0Z" fill="#401C5A"/>
<path d="M14.2965 0H11.4727V2.82388H14.2965V0Z" fill="#401C5A"/>
<path d="M17.1188 0H14.2949V2.82388H17.1188V0Z" fill="#401C5A"/>
<path d="M19.943 0H17.1191V2.82388H19.943V0Z" fill="#401C5A"/>
<path d="M22.7672 0H19.9434V2.82388H22.7672V0Z" fill="#401C5A"/>
<path d="M25.5895 0H22.7656V2.82388H25.5895V0Z" fill="#401C5A"/>
<path d="M28.4137 0H25.5898V2.82388H28.4137V0Z" fill="#401C5A"/>
<path d="M31.237 0H28.4131V2.82388H31.237V0Z" fill="#401C5A"/>
<path d="M34.0602 0H31.2363V2.82388H34.0602V0Z" fill="#401C5A"/>
<path d="M36.8844 0H34.0605V2.82388H36.8844V0Z" fill="#401C5A"/>
<path d="M39.7077 0H36.8838V2.82388H39.7077V0Z" fill="#401C5A"/>
<path d="M42.5309 0H39.707V2.82388H42.5309V0Z" fill="#401C5A"/>
<path d="M45.3551 0H42.5312V2.82388H45.3551V0Z" fill="#401C5A"/>
<path d="M48.1784 0H45.3545V2.82388H48.1784V0Z" fill="#401C5A"/>
<path d="M51.0016 0H48.1777V2.82388H51.0016V0Z" fill="#401C5A"/>
<path d="M76.4137 0H73.5898V2.82388H76.4137V0Z" fill="#401C5A"/>
<path d="M79.237 0H76.4131V2.82388H79.237V0Z" fill="#401C5A"/>
<path d="M82.0612 0H79.2373V2.82388H82.0612V0Z" fill="#401C5A"/>
<path d="M84.8844 0H82.0605V2.82388H84.8844V0Z" fill="#401C5A"/>
<path d="M87.7077 0H84.8838V2.82388H87.7077V0Z" fill="#401C5A"/>
<path d="M90.5319 0H87.708V2.82388H90.5319V0Z" fill="#401C5A"/>
<path d="M93.3551 0H90.5312V2.82388H93.3551V0Z" fill="#401C5A"/>
<path d="M96.1784 0H93.3545V2.82388H96.1784V0Z" fill="#401C5A"/>
<path d="M99.0026 0H96.1787V2.82388H99.0026V0Z" fill="#401C5A"/>
<path d="M5.82583 2.82385H3.00195V5.64773H5.82583V2.82385Z" fill="#401C5A"/>
<path d="M8.64809 2.82385H5.82422V5.64773H8.64809V2.82385Z" fill="#81297E"/>
<path d="M11.4723 2.82385H8.64844V5.64773H11.4723V2.82385Z" fill="#81297E"/>
<path d="M14.2965 2.82385H11.4727V5.64773H14.2965V2.82385Z" fill="#81297E"/>
<path d="M17.1188 2.82385H14.2949V5.64773H17.1188V2.82385Z" fill="#81297E"/>
<path d="M19.943 2.82385H17.1191V5.64773H19.943V2.82385Z" fill="#FAF1D4"/>
<path d="M22.7672 2.82385H19.9434V5.64773H22.7672V2.82385Z" fill="#FAF1D4"/>
<path d="M25.5895 2.82385H22.7656V5.64773H25.5895V2.82385Z" fill="#E5AFA7"/>
<path d="M28.4137 2.82385H25.5898V5.64773H28.4137V2.82385Z" fill="#E5AFA7"/>
<path d="M31.237 2.82385H28.4131V5.64773H31.237V2.82385Z" fill="#E5AFA7"/>
<path d="M34.0602 2.82385H31.2363V5.64773H34.0602V2.82385Z" fill="#E5AFA7"/>
<path d="M36.8844 2.82385H34.0605V5.64773H36.8844V2.82385Z" fill="#E5AFA7"/>
<path d="M39.7077 2.82385H36.8838V5.64773H39.7077V2.82385Z" fill="#E5AFA7"/>
<path d="M42.5309 2.82385H39.707V5.64773H42.5309V2.82385Z" fill="#E5AFA7"/>
<path d="M45.3551 2.82385H42.5312V5.64773H45.3551V2.82385Z" fill="#E5AFA7"/>
<path d="M48.1784 2.82385H45.3545V5.64773H48.1784V2.82385Z" fill="#E5AFA7"/>
<path d="M51.0016 2.82385H48.1777V5.64773H51.0016V2.82385Z" fill="#E5AFA7"/>
<path d="M76.4137 2.82385H73.5898V5.64773H76.4137V2.82385Z" fill="#E5AFA7"/>
<path d="M79.237 2.82385H76.4131V5.64773H79.237V2.82385Z" fill="#E5AFA7"/>
<path d="M82.0612 2.82385H79.2373V5.64773H82.0612V2.82385Z" fill="#E5AFA7"/>
<path d="M84.8844 2.82385H82.0605V5.64773H84.8844V2.82385Z" fill="#E5AFA7"/>
<path d="M87.7077 2.82385H84.8838V5.64773H87.7077V2.82385Z" fill="#E5AFA7"/>
<path d="M90.5319 2.82385H87.708V5.64773H90.5319V2.82385Z" fill="#81297E"/>
<path d="M93.3551 2.82385H90.5312V5.64773H93.3551V2.82385Z" fill="#81297E"/>
<path d="M96.1784 2.82385H93.3545V5.64773H96.1784V2.82385Z" fill="#81297E"/>
<path d="M99.0026 2.82385H96.1787V5.64773H99.0026V2.82385Z" fill="#81297E"/>
<path d="M101.826 2.82385H99.002V5.64773H101.826V2.82385Z" fill="#401C5A"/>
<path d="M3.00161 5.64679H0.177734V8.47066H3.00161V5.64679Z" fill="#401C5A"/>
<path d="M5.82583 5.64679H3.00195V8.47066H5.82583V5.64679Z" fill="#81297E"/>
<path d="M8.64809 5.64679H5.82422V8.47066H8.64809V5.64679Z" fill="#81297E"/>
<path d="M11.4723 5.64679H8.64844V8.47066H11.4723V5.64679Z" fill="#81297E"/>
<path d="M14.2965 5.64679H11.4727V8.47066H14.2965V5.64679Z" fill="#81297E"/>
<path d="M17.1188 5.64679H14.2949V8.47066H17.1188V5.64679Z" fill="#FAF1D4"/>
<path d="M19.943 5.64679H17.1191V8.47066H19.943V5.64679Z" fill="#CF6481"/>
<path d="M22.7672 5.64679H19.9434V8.47066H22.7672V5.64679Z" fill="#CF6481"/>
<path d="M25.5895 5.64679H22.7656V8.47066H25.5895V5.64679Z" fill="#CF6481"/>
<path d="M28.4137 5.64679H25.5898V8.47066H28.4137V5.64679Z" fill="#CF6481"/>
<path d="M31.237 5.64679H28.4131V8.47066H31.237V5.64679Z" fill="#CF6481"/>
<path d="M34.0602 5.64679H31.2363V8.47066H34.0602V5.64679Z" fill="#CF6481"/>
<path d="M36.8844 5.64679H34.0605V8.47066H36.8844V5.64679Z" fill="#CF6481"/>
<path d="M39.7077 5.64679H36.8838V8.47066H39.7077V5.64679Z" fill="#CF6481"/>
<path d="M42.5309 5.64679H39.707V8.47066H42.5309V5.64679Z" fill="#CF6481"/>
<path d="M45.3551 5.64679H42.5312V8.47066H45.3551V5.64679Z" fill="#CF6481"/>
<path d="M48.1784 5.64679H45.3545V8.47066H48.1784V5.64679Z" fill="#CF6481"/>
<path d="M51.0016 5.64679H48.1777V8.47066H51.0016V5.64679Z" fill="#CF6481"/>
<path d="M76.4137 5.64679H73.5898V8.47066H76.4137V5.64679Z" fill="#CF6481"/>
<path d="M79.237 5.64679H76.4131V8.47066H79.237V5.64679Z" fill="#CF6481"/>
<path d="M82.0612 5.64679H79.2373V8.47066H82.0612V5.64679Z" fill="#CF6481"/>
<path d="M84.8844 5.64679H82.0605V8.47066H84.8844V5.64679Z" fill="#CF6481"/>
<path d="M87.7077 5.64679H84.8838V8.47066H87.7077V5.64679Z" fill="#CF6481"/>
<path d="M90.5319 5.64679H87.708V8.47066H90.5319V5.64679Z" fill="#E5AFA7"/>
<path d="M93.3551 5.64679H90.5312V8.47066H93.3551V5.64679Z" fill="#81297E"/>
<path d="M96.1784 5.64679H93.3545V8.47066H96.1784V5.64679Z" fill="#81297E"/>
<path d="M99.0026 5.64679H96.1787V8.47066H99.0026V5.64679Z" fill="#81297E"/>
<path d="M101.826 5.64679H99.002V8.47066H101.826V5.64679Z" fill="#81297E"/>
<path d="M104.649 5.64679H101.825V8.47066H104.649V5.64679Z" fill="#401C5A"/>
<path d="M3.00161 8.47064H0.177734V11.2945H3.00161V8.47064Z" fill="#401C5A"/>
<path d="M5.82583 8.47064H3.00195V11.2945H5.82583V8.47064Z" fill="#81297E"/>
<path d="M8.64809 8.47064H5.82422V11.2945H8.64809V8.47064Z" fill="#81297E"/>
<path d="M11.4723 8.47064H8.64844V11.2945H11.4723V8.47064Z" fill="#81297E"/>
<path d="M14.2965 8.47064H11.4727V11.2945H14.2965V8.47064Z" fill="#81297E"/>
<path d="M17.1188 8.47064H14.2949V11.2945H17.1188V8.47064Z" fill="#FAF1D4"/>
<path d="M19.943 8.47064H17.1191V11.2945H19.943V8.47064Z" fill="#CF6481"/>
<path d="M22.7672 8.47064H19.9434V11.2945H22.7672V8.47064Z" fill="#CF6481"/>
<path d="M25.5895 8.47064H22.7656V11.2945H25.5895V8.47064Z" fill="#CF6481"/>
<path d="M28.4137 8.47064H25.5898V11.2945H28.4137V8.47064Z" fill="#CF6481"/>
<path d="M31.237 8.47064H28.4131V11.2945H31.237V8.47064Z" fill="#CF6481"/>
<path d="M34.0602 8.47064H31.2363V11.2945H34.0602V8.47064Z" fill="#CF6481"/>
<path d="M36.8844 8.47064H34.0605V11.2945H36.8844V8.47064Z" fill="#CF6481"/>
<path d="M39.7077 8.47064H36.8838V11.2945H39.7077V8.47064Z" fill="#CF6481"/>
<path d="M42.5309 8.47064H39.707V11.2945H42.5309V8.47064Z" fill="#CF6481"/>
<path d="M45.3551 8.47064H42.5312V11.2945H45.3551V8.47064Z" fill="#CF6481"/>
<path d="M48.1784 8.47064H45.3545V11.2945H48.1784V8.47064Z" fill="#CF6481"/>
<path d="M51.0016 8.47064H48.1777V11.2945H51.0016V8.47064Z" fill="#CF6481"/>
<path d="M76.4137 8.47064H73.5898V11.2945H76.4137V8.47064Z" fill="#CF6481"/>
<path d="M79.237 8.47064H76.4131V11.2945H79.237V8.47064Z" fill="#CF6481"/>
<path d="M82.0612 8.47064H79.2373V11.2945H82.0612V8.47064Z" fill="#CF6481"/>
<path d="M84.8844 8.47064H82.0605V11.2945H84.8844V8.47064Z" fill="#CF6481"/>
<path d="M87.7077 8.47064H84.8838V11.2945H87.7077V8.47064Z" fill="#CF6481"/>
<path d="M90.5319 8.47064H87.708V11.2945H90.5319V8.47064Z" fill="#E5AFA7"/>
<path d="M93.3551 8.47064H90.5312V11.2945H93.3551V8.47064Z" fill="#81297E"/>
<path d="M96.1784 8.47064H93.3545V11.2945H96.1784V8.47064Z" fill="#81297E"/>
<path d="M99.0026 8.47064H96.1787V11.2945H99.0026V8.47064Z" fill="#81297E"/>
<path d="M101.826 8.47064H99.002V11.2945H101.826V8.47064Z" fill="#81297E"/>
<path d="M104.649 8.47064H101.825V11.2945H104.649V8.47064Z" fill="#401C5A"/>
<path d="M3.00161 11.2945H0.177734V14.1184H3.00161V11.2945Z" fill="#401C5A"/>
<path d="M5.82583 11.2945H3.00195V14.1184H5.82583V11.2945Z" fill="#81297E"/>
<path d="M8.64809 11.2945H5.82422V14.1184H8.64809V11.2945Z" fill="#81297E"/>
<path d="M11.4723 11.2945H8.64844V14.1184H11.4723V11.2945Z" fill="#81297E"/>
<path d="M14.2965 11.2945H11.4727V14.1184H14.2965V11.2945Z" fill="#81297E"/>
<path d="M17.1188 11.2945H14.2949V14.1184H17.1188V11.2945Z" fill="#E5AFA7"/>
<path d="M19.943 11.2945H17.1191V14.1184H19.943V11.2945Z" fill="#CF6481"/>
<path d="M22.7672 11.2945H19.9434V14.1184H22.7672V11.2945Z" fill="#CF6481"/>
<path d="M25.5895 11.2945H22.7656V14.1184H25.5895V11.2945Z" fill="#CF6481"/>
<path d="M28.4137 11.2945H25.5898V14.1184H28.4137V11.2945Z" fill="#CF6481"/>
<path d="M31.237 11.2945H28.4131V14.1184H31.237V11.2945Z" fill="#CF6481"/>
<path d="M34.0602 11.2945H31.2363V14.1184H34.0602V11.2945Z" fill="#CF6481"/>
<path d="M36.8844 11.2945H34.0605V14.1184H36.8844V11.2945Z" fill="#CF6481"/>
<path d="M39.7077 11.2945H36.8838V14.1184H39.7077V11.2945Z" fill="#CF6481"/>
<path d="M42.5309 11.2945H39.707V14.1184H42.5309V11.2945Z" fill="#CF6481"/>
<path d="M45.3551 11.2945H42.5312V14.1184H45.3551V11.2945Z" fill="#CF6481"/>
<path d="M48.1784 11.2945H45.3545V14.1184H48.1784V11.2945Z" fill="#CF6481"/>
<path d="M51.0016 11.2945H48.1777V14.1184H51.0016V11.2945Z" fill="#CF6481"/>
<path d="M76.4137 11.2945H73.5898V14.1184H76.4137V11.2945Z" fill="#CF6481"/>
<path d="M79.237 11.2945H76.4131V14.1184H79.237V11.2945Z" fill="#CF6481"/>
<path d="M82.0612 11.2945H79.2373V14.1184H82.0612V11.2945Z" fill="#CF6481"/>
<path d="M84.8844 11.2945H82.0605V14.1184H84.8844V11.2945Z" fill="#CF6481"/>
<path d="M87.7077 11.2945H84.8838V14.1184H87.7077V11.2945Z" fill="#CF6481"/>
<path d="M90.5319 11.2945H87.708V14.1184H90.5319V11.2945Z" fill="#E5AFA7"/>
<path d="M93.3551 11.2945H90.5312V14.1184H93.3551V11.2945Z" fill="#81297E"/>
<path d="M96.1784 11.2945H93.3545V14.1184H96.1784V11.2945Z" fill="#81297E"/>
<path d="M99.0026 11.2945H96.1787V14.1184H99.0026V11.2945Z" fill="#81297E"/>
<path d="M101.826 11.2945H99.002V14.1184H101.826V11.2945Z" fill="#81297E"/>
<path d="M104.649 11.2945H101.825V14.1184H104.649V11.2945Z" fill="#401C5A"/>
<path d="M3.00161 14.1174H0.177734V16.9413H3.00161V14.1174Z" fill="#401C5A"/>
<path d="M5.82583 14.1174H3.00195V16.9413H5.82583V14.1174Z" fill="#81297E"/>
<path d="M8.64809 14.1174H5.82422V16.9413H8.64809V14.1174Z" fill="#81297E"/>
<path d="M11.4723 14.1174H8.64844V16.9413H11.4723V14.1174Z" fill="#81297E"/>
<path d="M14.2965 14.1174H11.4727V16.9413H14.2965V14.1174Z" fill="#81297E"/>
<path d="M17.1188 14.1174H14.2949V16.9413H17.1188V14.1174Z" fill="#E5AFA7"/>
<path d="M19.943 14.1174H17.1191V16.9413H19.943V14.1174Z" fill="#CF6481"/>
<path d="M22.7672 14.1174H19.9434V16.9413H22.7672V14.1174Z" fill="#CF6481"/>
<path d="M25.5895 14.1174H22.7656V16.9413H25.5895V14.1174Z" fill="#CF6481"/>
<path d="M28.4137 14.1174H25.5898V16.9413H28.4137V14.1174Z" fill="#CF6481"/>
<path d="M31.237 14.1174H28.4131V16.9413H31.237V14.1174Z" fill="#CF6481"/>
<path d="M34.0602 14.1174H31.2363V16.9413H34.0602V14.1174Z" fill="#CF6481"/>
<path d="M36.8844 14.1174H34.0605V16.9413H36.8844V14.1174Z" fill="#CF6481"/>
<path d="M39.7077 14.1174H36.8838V16.9413H39.7077V14.1174Z" fill="#CF6481"/>
<path d="M42.5309 14.1174H39.707V16.9413H42.5309V14.1174Z" fill="#CF6481"/>
<path d="M45.3551 14.1174H42.5312V16.9413H45.3551V14.1174Z" fill="#CF6481"/>
<path d="M48.1784 14.1174H45.3545V16.9413H48.1784V14.1174Z" fill="#CF6481"/>
<path d="M51.0016 14.1174H48.1777V16.9413H51.0016V14.1174Z" fill="#CF6481"/>
<path d="M76.4137 14.1174H73.5898V16.9413H76.4137V14.1174Z" fill="#CF6481"/>
<path d="M79.237 14.1174H76.4131V16.9413H79.237V14.1174Z" fill="#CF6481"/>
<path d="M82.0612 14.1174H79.2373V16.9413H82.0612V14.1174Z" fill="#CF6481"/>
<path d="M84.8844 14.1174H82.0605V16.9413H84.8844V14.1174Z" fill="#CF6481"/>
<path d="M87.7077 14.1174H84.8838V16.9413H87.7077V14.1174Z" fill="#CF6481"/>
<path d="M90.5319 14.1174H87.708V16.9413H90.5319V14.1174Z" fill="#E5AFA7"/>
<path d="M93.3551 14.1174H90.5312V16.9413H93.3551V14.1174Z" fill="#81297E"/>
<path d="M96.1784 14.1174H93.3545V16.9413H96.1784V14.1174Z" fill="#81297E"/>
<path d="M99.0026 14.1174H96.1787V16.9413H99.0026V14.1174Z" fill="#81297E"/>
<path d="M101.826 14.1174H99.002V16.9413H101.826V14.1174Z" fill="#81297E"/>
<path d="M104.649 14.1174H101.825V16.9413H104.649V14.1174Z" fill="#401C5A"/>
<path d="M3.00161 16.9413H0.177734V19.7652H3.00161V16.9413Z" fill="#401C5A"/>
<path d="M5.82583 16.9413H3.00195V19.7652H5.82583V16.9413Z" fill="#81297E"/>
<path d="M8.64809 16.9413H5.82422V19.7652H8.64809V16.9413Z" fill="#81297E"/>
<path d="M11.4723 16.9413H8.64844V19.7652H11.4723V16.9413Z" fill="#81297E"/>
<path d="M14.2965 16.9413H11.4727V19.7652H14.2965V16.9413Z" fill="#81297E"/>
<path d="M17.1188 16.9413H14.2949V19.7652H17.1188V16.9413Z" fill="#E5AFA7"/>
<path d="M19.943 16.9413H17.1191V19.7652H19.943V16.9413Z" fill="#CF6481"/>
<path d="M22.7672 16.9413H19.9434V19.7652H22.7672V16.9413Z" fill="#CF6481"/>
<path d="M25.5895 16.9413H22.7656V19.7652H25.5895V16.9413Z" fill="#CF6481"/>
<path d="M28.4137 16.9413H25.5898V19.7652H28.4137V16.9413Z" fill="#CF6481"/>
<path d="M31.237 16.9413H28.4131V19.7652H31.237V16.9413Z" fill="#CF6481"/>
<path d="M34.0602 16.9413H31.2363V19.7652H34.0602V16.9413Z" fill="#CF6481"/>
<path d="M36.8844 16.9413H34.0605V19.7652H36.8844V16.9413Z" fill="#CF6481"/>
<path d="M39.7077 16.9413H36.8838V19.7652H39.7077V16.9413Z" fill="#CF6481"/>
<path d="M42.5309 16.9413H39.707V19.7652H42.5309V16.9413Z" fill="#CF6481"/>
<path d="M45.3551 16.9413H42.5312V19.7652H45.3551V16.9413Z" fill="#CF6481"/>
<path d="M48.1784 16.9413H45.3545V19.7652H48.1784V16.9413Z" fill="#CF6481"/>
<path d="M51.0016 16.9413H48.1777V19.7652H51.0016V16.9413Z" fill="#CF6481"/>
<path d="M76.4137 16.9413H73.5898V19.7652H76.4137V16.9413Z" fill="#CF6481"/>
<path d="M79.237 16.9413H76.4131V19.7652H79.237V16.9413Z" fill="#CF6481"/>
<path d="M82.0612 16.9413H79.2373V19.7652H82.0612V16.9413Z" fill="#CF6481"/>
<path d="M84.8844 16.9413H82.0605V19.7652H84.8844V16.9413Z" fill="#CF6481"/>
<path d="M87.7077 16.9413H84.8838V19.7652H87.7077V16.9413Z" fill="#CF6481"/>
<path d="M90.5319 16.9413H87.708V19.7652H90.5319V16.9413Z" fill="#E5AFA7"/>
<path d="M93.3551 16.9413H90.5312V19.7652H93.3551V16.9413Z" fill="#81297E"/>
<path d="M96.1784 16.9413H93.3545V19.7652H96.1784V16.9413Z" fill="#81297E"/>
<path d="M99.0026 16.9413H96.1787V19.7652H99.0026V16.9413Z" fill="#81297E"/>
<path d="M101.826 16.9413H99.002V19.7652H101.826V16.9413Z" fill="#81297E"/>
<path d="M104.649 16.9413H101.825V19.7652H104.649V16.9413Z" fill="#401C5A"/>
<path d="M3.00161 19.7651H0.177734V22.589H3.00161V19.7651Z" fill="#401C5A"/>
<path d="M5.82583 19.7651H3.00195V22.589H5.82583V19.7651Z" fill="#81297E"/>
<path d="M8.64809 19.7651H5.82422V22.589H8.64809V19.7651Z" fill="#81297E"/>
<path d="M11.4723 19.7651H8.64844V22.589H11.4723V19.7651Z" fill="#81297E"/>
<path d="M14.2965 19.7651H11.4727V22.589H14.2965V19.7651Z" fill="#81297E"/>
<path d="M17.1188 19.7651H14.2949V22.589H17.1188V19.7651Z" fill="#E5AFA7"/>
<path d="M19.943 19.7651H17.1191V22.589H19.943V19.7651Z" fill="#CF6481"/>
<path d="M22.7672 19.7651H19.9434V22.589H22.7672V19.7651Z" fill="#CF6481"/>
<path d="M25.5895 19.7651H22.7656V22.589H25.5895V19.7651Z" fill="#CF6481"/>
<path d="M28.4137 19.7651H25.5898V22.589H28.4137V19.7651Z" fill="#CF6481"/>
<path d="M31.237 19.7651H28.4131V22.589H31.237V19.7651Z" fill="#CF6481"/>
<path d="M34.0602 19.7651H31.2363V22.589H34.0602V19.7651Z" fill="#CF6481"/>
<path d="M36.8844 19.7651H34.0605V22.589H36.8844V19.7651Z" fill="#CF6481"/>
<path d="M39.7077 19.7651H36.8838V22.589H39.7077V19.7651Z" fill="#CF6481"/>
<path d="M42.5309 19.7651H39.707V22.589H42.5309V19.7651Z" fill="#CF6481"/>
<path d="M45.3551 19.7651H42.5312V22.589H45.3551V19.7651Z" fill="#CF6481"/>
<path d="M48.1784 19.7651H45.3545V22.589H48.1784V19.7651Z" fill="#CF6481"/>
<path d="M51.0016 19.7651H48.1777V22.589H51.0016V19.7651Z" fill="#CF6481"/>
<path d="M76.4137 19.7651H73.5898V22.589H76.4137V19.7651Z" fill="#CF6481"/>
<path d="M79.237 19.7651H76.4131V22.589H79.237V19.7651Z" fill="#CF6481"/>
<path d="M82.0612 19.7651H79.2373V22.589H82.0612V19.7651Z" fill="#CF6481"/>
<path d="M84.8844 19.7651H82.0605V22.589H84.8844V19.7651Z" fill="#CF6481"/>
<path d="M87.7077 19.7651H84.8838V22.589H87.7077V19.7651Z" fill="#CF6481"/>
<path d="M90.5319 19.7651H87.708V22.589H90.5319V19.7651Z" fill="#E5AFA7"/>
<path d="M93.3551 19.7651H90.5312V22.589H93.3551V19.7651Z" fill="#81297E"/>
<path d="M96.1784 19.7651H93.3545V22.589H96.1784V19.7651Z" fill="#81297E"/>
<path d="M99.0026 19.7651H96.1787V22.589H99.0026V19.7651Z" fill="#81297E"/>
<path d="M101.826 19.7651H99.002V22.589H101.826V19.7651Z" fill="#81297E"/>
<path d="M104.649 19.7651H101.825V22.589H104.649V19.7651Z" fill="#401C5A"/>
<path d="M3.00161 22.5881H0.177734V25.412H3.00161V22.5881Z" fill="#401C5A"/>
<path d="M5.82583 22.5881H3.00195V25.412H5.82583V22.5881Z" fill="#81297E"/>
<path d="M8.64809 22.5881H5.82422V25.412H8.64809V22.5881Z" fill="#81297E"/>
<path d="M11.4723 22.5881H8.64844V25.412H11.4723V22.5881Z" fill="#81297E"/>
<path d="M14.2965 22.5881H11.4727V25.412H14.2965V22.5881Z" fill="#81297E"/>
<path d="M17.1188 22.5881H14.2949V25.412H17.1188V22.5881Z" fill="#E5AFA7"/>
<path d="M19.943 22.5881H17.1191V25.412H19.943V22.5881Z" fill="#CF6481"/>
<path d="M22.7672 22.5881H19.9434V25.412H22.7672V22.5881Z" fill="#CF6481"/>
<path d="M25.5895 22.5881H22.7656V25.412H25.5895V22.5881Z" fill="#CF6481"/>
<path d="M28.4137 22.5881H25.5898V25.412H28.4137V22.5881Z" fill="#CF6481"/>
<path d="M31.237 22.5881H28.4131V25.412H31.237V22.5881Z" fill="#CF6481"/>
<path d="M34.0602 22.5881H31.2363V25.412H34.0602V22.5881Z" fill="#CF6481"/>
<path d="M36.8844 22.5881H34.0605V25.412H36.8844V22.5881Z" fill="#CF6481"/>
<path d="M39.7077 22.5881H36.8838V25.412H39.7077V22.5881Z" fill="#CF6481"/>
<path d="M42.5309 22.5881H39.707V25.412H42.5309V22.5881Z" fill="#CF6481"/>
<path d="M45.3551 22.5881H42.5312V25.412H45.3551V22.5881Z" fill="#CF6481"/>
<path d="M48.1784 22.5881H45.3545V25.412H48.1784V22.5881Z" fill="#CF6481"/>
<path d="M51.0016 22.5881H48.1777V25.412H51.0016V22.5881Z" fill="#CF6481"/>
<path d="M76.4137 22.5881H73.5898V25.412H76.4137V22.5881Z" fill="#CF6481"/>
<path d="M79.237 22.5881H76.4131V25.412H79.237V22.5881Z" fill="#CF6481"/>
<path d="M82.0612 22.5881H79.2373V25.412H82.0612V22.5881Z" fill="#CF6481"/>
<path d="M84.8844 22.5881H82.0605V25.412H84.8844V22.5881Z" fill="#CF6481"/>
<path d="M87.7077 22.5881H84.8838V25.412H87.7077V22.5881Z" fill="#CF6481"/>
<path d="M90.5319 22.5881H87.708V25.412H90.5319V22.5881Z" fill="#E5AFA7"/>
<path d="M93.3551 22.5881H90.5312V25.412H93.3551V22.5881Z" fill="#81297E"/>
<path d="M96.1784 22.5881H93.3545V25.412H96.1784V22.5881Z" fill="#81297E"/>
<path d="M99.0026 22.5881H96.1787V25.412H99.0026V22.5881Z" fill="#81297E"/>
<path d="M101.826 22.5881H99.002V25.412H101.826V22.5881Z" fill="#81297E"/>
<path d="M104.649 22.5881H101.825V25.412H104.649V22.5881Z" fill="#401C5A"/>
<path d="M3.00161 25.4119H0.177734V28.2358H3.00161V25.4119Z" fill="#401C5A"/>
<path d="M5.82583 25.4119H3.00195V28.2358H5.82583V25.4119Z" fill="#81297E"/>
<path d="M8.64809 25.4119H5.82422V28.2358H8.64809V25.4119Z" fill="#81297E"/>
<path d="M11.4723 25.4119H8.64844V28.2358H11.4723V25.4119Z" fill="#81297E"/>
<path d="M14.2965 25.4119H11.4727V28.2358H14.2965V25.4119Z" fill="#81297E"/>
<path d="M17.1188 25.4119H14.2949V28.2358H17.1188V25.4119Z" fill="#E5AFA7"/>
<path d="M19.943 25.4119H17.1191V28.2358H19.943V25.4119Z" fill="#CF6481"/>
<path d="M22.7672 25.4119H19.9434V28.2358H22.7672V25.4119Z" fill="#CF6481"/>
<path d="M25.5895 25.4119H22.7656V28.2358H25.5895V25.4119Z" fill="#CF6481"/>
<path d="M28.4137 25.4119H25.5898V28.2358H28.4137V25.4119Z" fill="#CF6481"/>
<path d="M31.237 25.4119H28.4131V28.2358H31.237V25.4119Z" fill="#CF6481"/>
<path d="M34.0602 25.4119H31.2363V28.2358H34.0602V25.4119Z" fill="#CF6481"/>
<path d="M36.8844 25.4119H34.0605V28.2358H36.8844V25.4119Z" fill="#CF6481"/>
<path d="M39.7077 25.4119H36.8838V28.2358H39.7077V25.4119Z" fill="#CF6481"/>
<path d="M42.5309 25.4119H39.707V28.2358H42.5309V25.4119Z" fill="#CF6481"/>
<path d="M45.3551 25.4119H42.5312V28.2358H45.3551V25.4119Z" fill="#CF6481"/>
<path d="M48.1784 25.4119H45.3545V28.2358H48.1784V25.4119Z" fill="#CF6481"/>
<path d="M51.0016 25.4119H48.1777V28.2358H51.0016V25.4119Z" fill="#CF6481"/>
<path d="M76.4137 25.4119H73.5898V28.2358H76.4137V25.4119Z" fill="#CF6481"/>
<path d="M79.237 25.4119H76.4131V28.2358H79.237V25.4119Z" fill="#CF6481"/>
<path d="M82.0612 25.4119H79.2373V28.2358H82.0612V25.4119Z" fill="#CF6481"/>
<path d="M84.8844 25.4119H82.0605V28.2358H84.8844V25.4119Z" fill="#CF6481"/>
<path d="M87.7077 25.4119H84.8838V28.2358H87.7077V25.4119Z" fill="#CF6481"/>
<path d="M90.5319 25.4119H87.708V28.2358H90.5319V25.4119Z" fill="#FAF1D4"/>
<path d="M93.3551 25.4119H90.5312V28.2358H93.3551V25.4119Z" fill="#81297E"/>
<path d="M96.1784 25.4119H93.3545V28.2358H96.1784V25.4119Z" fill="#81297E"/>
<path d="M99.0026 25.4119H96.1787V28.2358H99.0026V25.4119Z" fill="#81297E"/>
<path d="M101.826 25.4119H99.002V28.2358H101.826V25.4119Z" fill="#81297E"/>
<path d="M104.649 25.4119H101.825V28.2358H104.649V25.4119Z" fill="#401C5A"/>
<path d="M3.00161 28.2358H0.177734V31.0597H3.00161V28.2358Z" fill="#401C5A"/>
<path d="M5.82583 28.2358H3.00195V31.0597H5.82583V28.2358Z" fill="#81297E"/>
<path d="M8.64809 28.2358H5.82422V31.0597H8.64809V28.2358Z" fill="#81297E"/>
<path d="M11.4723 28.2358H8.64844V31.0597H11.4723V28.2358Z" fill="#81297E"/>
<path d="M14.2965 28.2358H11.4727V31.0597H14.2965V28.2358Z" fill="#81297E"/>
<path d="M17.1188 28.2358H14.2949V31.0597H17.1188V28.2358Z" fill="#E5AFA7"/>
<path d="M19.943 28.2358H17.1191V31.0597H19.943V28.2358Z" fill="#CF6481"/>
<path d="M22.7672 28.2358H19.9434V31.0597H22.7672V28.2358Z" fill="#CF6481"/>
<path d="M25.5895 28.2358H22.7656V31.0597H25.5895V28.2358Z" fill="#CF6481"/>
<path d="M28.4137 28.2358H25.5898V31.0597H28.4137V28.2358Z" fill="#CF6481"/>
<path d="M31.237 28.2358H28.4131V31.0597H31.237V28.2358Z" fill="#CF6481"/>
<path d="M34.0602 28.2358H31.2363V31.0597H34.0602V28.2358Z" fill="#CF6481"/>
<path d="M36.8844 28.2358H34.0605V31.0597H36.8844V28.2358Z" fill="#CF6481"/>
<path d="M39.7077 28.2358H36.8838V31.0597H39.7077V28.2358Z" fill="#CF6481"/>
<path d="M42.5309 28.2358H39.707V31.0597H42.5309V28.2358Z" fill="#CF6481"/>
<path d="M45.3551 28.2358H42.5312V31.0597H45.3551V28.2358Z" fill="#CF6481"/>
<path d="M48.1784 28.2358H45.3545V31.0597H48.1784V28.2358Z" fill="#CF6481"/>
<path d="M51.0016 28.2358H48.1777V31.0597H51.0016V28.2358Z" fill="#CF6481"/>
<path d="M76.4137 28.2358H73.5898V31.0597H76.4137V28.2358Z" fill="#CF6481"/>
<path d="M79.237 28.2358H76.4131V31.0597H79.237V28.2358Z" fill="#CF6481"/>
<path d="M82.0612 28.2358H79.2373V31.0597H82.0612V28.2358Z" fill="#CF6481"/>
<path d="M84.8844 28.2358H82.0605V31.0597H84.8844V28.2358Z" fill="#CF6481"/>
<path d="M87.7077 28.2358H84.8838V31.0597H87.7077V28.2358Z" fill="#CF6481"/>
<path d="M90.5319 28.2358H87.708V31.0597H90.5319V28.2358Z" fill="#FAF1D4"/>
<path d="M93.3551 28.2358H90.5312V31.0597H93.3551V28.2358Z" fill="#81297E"/>
<path d="M96.1784 28.2358H93.3545V31.0597H96.1784V28.2358Z" fill="#81297E"/>
<path d="M99.0026 28.2358H96.1787V31.0597H99.0026V28.2358Z" fill="#81297E"/>
<path d="M101.826 28.2358H99.002V31.0597H101.826V28.2358Z" fill="#81297E"/>
<path d="M104.649 28.2358H101.825V31.0597H104.649V28.2358Z" fill="#401C5A"/>
<path d="M3.00161 31.0587H0.177734V33.8826H3.00161V31.0587Z" fill="#401C5A"/>
<path d="M5.82583 31.0587H3.00195V33.8826H5.82583V31.0587Z" fill="#81297E"/>
<path d="M8.64809 31.0587H5.82422V33.8826H8.64809V31.0587Z" fill="#81297E"/>
<path d="M11.4723 31.0587H8.64844V33.8826H11.4723V31.0587Z" fill="#81297E"/>
<path d="M14.2965 31.0587H11.4727V33.8826H14.2965V31.0587Z" fill="#81297E"/>
<path d="M17.1188 31.0587H14.2949V33.8826H17.1188V31.0587Z" fill="#401C5A"/>
<path d="M19.943 31.0587H17.1191V33.8826H19.943V31.0587Z" fill="#E5AFA7"/>
<path d="M22.7672 31.0587H19.9434V33.8826H22.7672V31.0587Z" fill="#E5AFA7"/>
<path d="M25.5895 31.0587H22.7656V33.8826H25.5895V31.0587Z" fill="#E5AFA7"/>
<path d="M28.4137 31.0587H25.5898V33.8826H28.4137V31.0587Z" fill="#E5AFA7"/>
<path d="M31.237 31.0587H28.4131V33.8826H31.237V31.0587Z" fill="#E5AFA7"/>
<path d="M34.0602 31.0587H31.2363V33.8826H34.0602V31.0587Z" fill="#E5AFA7"/>
<path d="M36.8844 31.0587H34.0605V33.8826H36.8844V31.0587Z" fill="#E5AFA7"/>
<path d="M39.7077 31.0587H36.8838V33.8826H39.7077V31.0587Z" fill="#E5AFA7"/>
<path d="M42.5309 31.0587H39.707V33.8826H42.5309V31.0587Z" fill="#E5AFA7"/>
<path d="M45.3551 31.0587H42.5312V33.8826H45.3551V31.0587Z" fill="#E5AFA7"/>
<path d="M48.1784 31.0587H45.3545V33.8826H48.1784V31.0587Z" fill="#E5AFA7"/>
<path d="M51.0016 31.0587H48.1777V33.8826H51.0016V31.0587Z" fill="#E5AFA7"/>
<path d="M76.4137 31.0587H73.5898V33.8826H76.4137V31.0587Z" fill="#E5AFA7"/>
<path d="M79.237 31.0587H76.4131V33.8826H79.237V31.0587Z" fill="#E5AFA7"/>
<path d="M82.0612 31.0587H79.2373V33.8826H82.0612V31.0587Z" fill="#E5AFA7"/>
<path d="M84.8844 31.0587H82.0605V33.8826H84.8844V31.0587Z" fill="#FAF1D4"/>
<path d="M87.7077 31.0587H84.8838V33.8826H87.7077V31.0587Z" fill="#FAF1D4"/>
<path d="M90.5319 31.0587H87.708V33.8826H90.5319V31.0587Z" fill="#401C5A"/>
<path d="M93.3551 31.0587H90.5312V33.8826H93.3551V31.0587Z" fill="#81297E"/>
<path d="M96.1784 31.0587H93.3545V33.8826H96.1784V31.0587Z" fill="#81297E"/>
<path d="M99.0026 31.0587H96.1787V33.8826H99.0026V31.0587Z" fill="#81297E"/>
<path d="M101.826 31.0587H99.002V33.8826H101.826V31.0587Z" fill="#81297E"/>
<path d="M104.649 31.0587H101.825V33.8826H104.649V31.0587Z" fill="#401C5A"/>
<path d="M3.00161 33.8826H0.177734V36.7064H3.00161V33.8826Z" fill="#401C5A"/>
<path d="M5.82583 33.8826H3.00195V36.7064H5.82583V33.8826Z" fill="#81297E"/>
<path d="M8.64809 33.8826H5.82422V36.7064H8.64809V33.8826Z" fill="#81297E"/>
<path d="M11.4723 33.8826H8.64844V36.7064H11.4723V33.8826Z" fill="#81297E"/>
<path d="M14.2965 33.8826H11.4727V36.7064H14.2965V33.8826Z" fill="#401C5A"/>
<path d="M17.1188 33.8826H14.2949V36.7064H17.1188V33.8826Z" fill="#81297E"/>
<path d="M19.943 33.8826H17.1191V36.7064H19.943V33.8826Z" fill="#81297E"/>
<path d="M22.7672 33.8826H19.9434V36.7064H22.7672V33.8826Z" fill="#81297E"/>
<path d="M25.5895 33.8826H22.7656V36.7064H25.5895V33.8826Z" fill="#81297E"/>
<path d="M28.4137 33.8826H25.5898V36.7064H28.4137V33.8826Z" fill="#81297E"/>
<path d="M31.237 33.8826H28.4131V36.7064H31.237V33.8826Z" fill="#81297E"/>
<path d="M34.0602 33.8826H31.2363V36.7064H34.0602V33.8826Z" fill="#81297E"/>
<path d="M36.8844 33.8826H34.0605V36.7064H36.8844V33.8826Z" fill="#81297E"/>
<path d="M39.7077 33.8826H36.8838V36.7064H39.7077V33.8826Z" fill="#81297E"/>
<path d="M42.5309 33.8826H39.707V36.7064H42.5309V33.8826Z" fill="#81297E"/>
<path d="M45.3551 33.8826H42.5312V36.7064H45.3551V33.8826Z" fill="#81297E"/>
<path d="M48.1784 33.8826H45.3545V36.7064H48.1784V33.8826Z" fill="#81297E"/>
<path d="M51.0016 33.8826H48.1777V36.7064H51.0016V33.8826Z" fill="#81297E"/>
<path d="M76.4137 33.8826H73.5898V36.7064H76.4137V33.8826Z" fill="#81297E"/>
<path d="M79.237 33.8826H76.4131V36.7064H79.237V33.8826Z" fill="#81297E"/>
<path d="M82.0612 33.8826H79.2373V36.7064H82.0612V33.8826Z" fill="#81297E"/>
<path d="M84.8844 33.8826H82.0605V36.7064H84.8844V33.8826Z" fill="#81297E"/>
<path d="M87.7077 33.8826H84.8838V36.7064H87.7077V33.8826Z" fill="#81297E"/>
<path d="M90.5319 33.8826H87.708V36.7064H90.5319V33.8826Z" fill="#81297E"/>
<path d="M93.3551 33.8826H90.5312V36.7064H93.3551V33.8826Z" fill="#401C5A"/>
<path d="M96.1784 33.8826H93.3545V36.7064H96.1784V33.8826Z" fill="#81297E"/>
<path d="M99.0026 33.8826H96.1787V36.7064H99.0026V33.8826Z" fill="#81297E"/>
<path d="M101.826 33.8826H99.002V36.7064H101.826V33.8826Z" fill="#81297E"/>
<path d="M104.649 33.8826H101.825V36.7064H104.649V33.8826Z" fill="#401C5A"/>
<path d="M3.00161 36.7065H0.177734V39.5304H3.00161V36.7065Z" fill="#401C5A"/>
<path d="M5.82583 36.7065H3.00195V39.5304H5.82583V36.7065Z" fill="#81297E"/>
<path d="M8.64809 36.7065H5.82422V39.5304H8.64809V36.7065Z" fill="#81297E"/>
<path d="M11.4723 36.7065H8.64844V39.5304H11.4723V36.7065Z" fill="#401C5A"/>
<path d="M14.2965 36.7065H11.4727V39.5304H14.2965V36.7065Z" fill="#81297E"/>
<path d="M17.1188 36.7065H14.2949V39.5304H17.1188V36.7065Z" fill="#81297E"/>
<path d="M19.943 36.7065H17.1191V39.5304H19.943V36.7065Z" fill="#81297E"/>
<path d="M22.7672 36.7065H19.9434V39.5304H22.7672V36.7065Z" fill="#81297E"/>
<path d="M25.5895 36.7065H22.7656V39.5304H25.5895V36.7065Z" fill="#81297E"/>
<path d="M28.4137 36.7065H25.5898V39.5304H28.4137V36.7065Z" fill="#81297E"/>
<path d="M31.237 36.7065H28.4131V39.5304H31.237V36.7065Z" fill="#81297E"/>
<path d="M34.0602 36.7065H31.2363V39.5304H34.0602V36.7065Z" fill="#81297E"/>
<path d="M36.8844 36.7065H34.0605V39.5304H36.8844V36.7065Z" fill="#81297E"/>
<path d="M39.7077 36.7065H36.8838V39.5304H39.7077V36.7065Z" fill="#81297E"/>
<path d="M42.5309 36.7065H39.707V39.5304H42.5309V36.7065Z" fill="#81297E"/>
<path d="M45.3551 36.7065H42.5312V39.5304H45.3551V36.7065Z" fill="#81297E"/>
<path d="M48.1784 36.7065H45.3545V39.5304H48.1784V36.7065Z" fill="#81297E"/>
<path d="M51.0016 36.7065H48.1777V39.5304H51.0016V36.7065Z" fill="#81297E"/>
<path d="M76.4137 36.7065H73.5898V39.5304H76.4137V36.7065Z" fill="#81297E"/>
<path d="M79.237 36.7065H76.4131V39.5304H79.237V36.7065Z" fill="#81297E"/>
<path d="M82.0612 36.7065H79.2373V39.5304H82.0612V36.7065Z" fill="#81297E"/>
<path d="M84.8844 36.7065H82.0605V39.5304H84.8844V36.7065Z" fill="#81297E"/>
<path d="M87.7077 36.7065H84.8838V39.5304H87.7077V36.7065Z" fill="#81297E"/>
<path d="M90.5319 36.7065H87.708V39.5304H90.5319V36.7065Z" fill="#81297E"/>
<path d="M93.3551 36.7065H90.5312V39.5304H93.3551V36.7065Z" fill="#81297E"/>
<path d="M96.1784 36.7065H93.3545V39.5304H96.1784V36.7065Z" fill="#401C5A"/>
<path d="M99.0026 36.7065H96.1787V39.5304H99.0026V36.7065Z" fill="#81297E"/>
<path d="M101.826 36.7065H99.002V39.5304H101.826V36.7065Z" fill="#81297E"/>
<path d="M104.649 36.7065H101.825V39.5304H104.649V36.7065Z" fill="#401C5A"/>
<path d="M3.00161 39.5294H0.177734V42.3532H3.00161V39.5294Z" fill="#401C5A"/>
<path d="M5.82583 39.5294H3.00195V42.3532H5.82583V39.5294Z" fill="#81297E"/>
<path d="M8.64809 39.5294H5.82422V42.3532H8.64809V39.5294Z" fill="#401C5A"/>
<path d="M11.4723 39.5294H8.64844V42.3532H11.4723V39.5294Z" fill="#81297E"/>
<path d="M14.2965 39.5294H11.4727V42.3532H14.2965V39.5294Z" fill="#81297E"/>
<path d="M17.1188 39.5294H14.2949V42.3532H17.1188V39.5294Z" fill="#81297E"/>
<path d="M19.943 39.5294H17.1191V42.3532H19.943V39.5294Z" fill="#81297E"/>
<path d="M22.7672 39.5294H19.9434V42.3532H22.7672V39.5294Z" fill="#81297E"/>
<path d="M25.5895 39.5294H22.7656V42.3532H25.5895V39.5294Z" fill="#81297E"/>
<path d="M28.4137 39.5294H25.5898V42.3532H28.4137V39.5294Z" fill="#81297E"/>
<path d="M31.237 39.5294H28.4131V42.3532H31.237V39.5294Z" fill="#81297E"/>
<path d="M34.0602 39.5294H31.2363V42.3532H34.0602V39.5294Z" fill="#81297E"/>
<path d="M36.8844 39.5294H34.0605V42.3532H36.8844V39.5294Z" fill="#81297E"/>
<path d="M39.7077 39.5294H36.8838V42.3532H39.7077V39.5294Z" fill="#81297E"/>
<path d="M42.5309 39.5294H39.707V42.3532H42.5309V39.5294Z" fill="#81297E"/>
<path d="M45.3551 39.5294H42.5312V42.3532H45.3551V39.5294Z" fill="#81297E"/>
<path d="M48.1784 39.5294H45.3545V42.3532H48.1784V39.5294Z" fill="#81297E"/>
<path d="M51.0016 39.5294H48.1777V42.3532H51.0016V39.5294Z" fill="#81297E"/>
<path d="M76.4137 39.5294H73.5898V42.3532H76.4137V39.5294Z" fill="#81297E"/>
<path d="M79.237 39.5294H76.4131V42.3532H79.237V39.5294Z" fill="#81297E"/>
<path d="M82.0612 39.5294H79.2373V42.3532H82.0612V39.5294Z" fill="#81297E"/>
<path d="M84.8844 39.5294H82.0605V42.3532H84.8844V39.5294Z" fill="#81297E"/>
<path d="M87.7077 39.5294H84.8838V42.3532H87.7077V39.5294Z" fill="#81297E"/>
<path d="M90.5319 39.5294H87.708V42.3532H90.5319V39.5294Z" fill="#81297E"/>
<path d="M93.3551 39.5294H90.5312V42.3532H93.3551V39.5294Z" fill="#81297E"/>
<path d="M96.1784 39.5294H93.3545V42.3532H96.1784V39.5294Z" fill="#81297E"/>
<path d="M99.0026 39.5294H96.1787V42.3532H99.0026V39.5294Z" fill="#401C5A"/>
<path d="M101.826 39.5294H99.002V42.3532H101.826V39.5294Z" fill="#81297E"/>
<path d="M104.649 39.5294H101.825V42.3532H104.649V39.5294Z" fill="#401C5A"/>
<path d="M5.82583 42.3532H3.00195V45.1771H5.82583V42.3532Z" fill="#401C5A"/>
<path d="M8.64809 42.3532H5.82422V45.1771H8.64809V42.3532Z" fill="#81297E"/>
<path d="M11.4723 42.3532H8.64844V45.1771H11.4723V42.3532Z" fill="#81297E"/>
<path d="M14.2965 42.3532H11.4727V45.1771H14.2965V42.3532Z" fill="#81297E"/>
<path d="M17.1188 42.3532H14.2949V45.1771H17.1188V42.3532Z" fill="#81297E"/>
<path d="M19.943 42.3532H17.1191V45.1771H19.943V42.3532Z" fill="#81297E"/>
<path d="M22.7672 42.3532H19.9434V45.1771H22.7672V42.3532Z" fill="#81297E"/>
<path d="M25.5895 42.3532H22.7656V45.1771H25.5895V42.3532Z" fill="#81297E"/>
<path d="M28.4137 42.3532H25.5898V45.1771H28.4137V42.3532Z" fill="#81297E"/>
<path d="M31.237 42.3532H28.4131V45.1771H31.237V42.3532Z" fill="#81297E"/>
<path d="M34.0602 42.3532H31.2363V45.1771H34.0602V42.3532Z" fill="#81297E"/>
<path d="M36.8844 42.3532H34.0605V45.1771H36.8844V42.3532Z" fill="#81297E"/>
<path d="M39.7077 42.3532H36.8838V45.1771H39.7077V42.3532Z" fill="#81297E"/>
<path d="M42.5309 42.3532H39.707V45.1771H42.5309V42.3532Z" fill="#81297E"/>
<path d="M45.3551 42.3532H42.5312V45.1771H45.3551V42.3532Z" fill="#81297E"/>
<path d="M48.1784 42.3532H45.3545V45.1771H48.1784V42.3532Z" fill="#81297E"/>
<path d="M51.0016 42.3532H48.1777V45.1771H51.0016V42.3532Z" fill="#81297E"/>
<path d="M76.4137 42.3532H73.5898V45.1771H76.4137V42.3532Z" fill="#81297E"/>
<path d="M79.237 42.3532H76.4131V45.1771H79.237V42.3532Z" fill="#81297E"/>
<path d="M82.0612 42.3532H79.2373V45.1771H82.0612V42.3532Z" fill="#81297E"/>
<path d="M84.8844 42.3532H82.0605V45.1771H84.8844V42.3532Z" fill="#81297E"/>
<path d="M87.7077 42.3532H84.8838V45.1771H87.7077V42.3532Z" fill="#81297E"/>
<path d="M90.5319 42.3532H87.708V45.1771H90.5319V42.3532Z" fill="#81297E"/>
<path d="M93.3551 42.3532H90.5312V45.1771H93.3551V42.3532Z" fill="#81297E"/>
<path d="M96.1784 42.3532H93.3545V45.1771H96.1784V42.3532Z" fill="#81297E"/>
<path d="M99.0026 42.3532H96.1787V45.1771H99.0026V42.3532Z" fill="#81297E"/>
<path d="M101.826 42.3532H99.002V45.1771H101.826V42.3532Z" fill="#401C5A"/>
<path d="M8.64809 45.1771H5.82422V48.001H8.64809V45.1771Z" fill="#401C5A"/>
<path d="M11.4723 45.1771H8.64844V48.001H11.4723V45.1771Z" fill="#401C5A"/>
<path d="M14.2965 45.1771H11.4727V48.001H14.2965V45.1771Z" fill="#401C5A"/>
<path d="M17.1188 45.1771H14.2949V48.001H17.1188V45.1771Z" fill="#401C5A"/>
<path d="M19.943 45.1771H17.1191V48.001H19.943V45.1771Z" fill="#401C5A"/>
<path d="M22.7672 45.1771H19.9434V48.001H22.7672V45.1771Z" fill="#401C5A"/>
<path d="M25.5895 45.1771H22.7656V48.001H25.5895V45.1771Z" fill="#401C5A"/>
<path d="M28.4137 45.1771H25.5898V48.001H28.4137V45.1771Z" fill="#401C5A"/>
<path d="M31.237 45.1771H28.4131V48.001H31.237V45.1771Z" fill="#401C5A"/>
<path d="M34.0602 45.1771H31.2363V48.001H34.0602V45.1771Z" fill="#401C5A"/>
<path d="M36.8844 45.1771H34.0605V48.001H36.8844V45.1771Z" fill="#401C5A"/>
<path d="M39.7077 45.1771H36.8838V48.001H39.7077V45.1771Z" fill="#401C5A"/>
<path d="M42.5309 45.1771H39.707V48.001H42.5309V45.1771Z" fill="#401C5A"/>
<path d="M45.3551 45.1771H42.5312V48.001H45.3551V45.1771Z" fill="#401C5A"/>
<path d="M48.1784 45.1771H45.3545V48.001H48.1784V45.1771Z" fill="#401C5A"/>
<path d="M51.0016 45.1771H48.1777V48.001H51.0016V45.1771Z" fill="#401C5A"/>
<path d="M53.8258 0H51.002V2.82388H53.8258V0Z" fill="#401C5A"/>
<path d="M56.6491 0H53.8252V2.82388H56.6491V0Z" fill="#401C5A"/>
<path d="M59.4723 0H56.6484V2.82388H59.4723V0Z" fill="#401C5A"/>
<path d="M53.8258 2.82385H51.002V5.64773H53.8258V2.82385Z" fill="#E5AFA7"/>
<path d="M56.6491 2.82385H53.8252V5.64773H56.6491V2.82385Z" fill="#E5AFA7"/>
<path d="M59.4723 2.82385H56.6484V5.64773H59.4723V2.82385Z" fill="#E5AFA7"/>
<path d="M53.8258 5.64679H51.002V8.47066H53.8258V5.64679Z" fill="#CF6481"/>
<path d="M56.6491 5.64679H53.8252V8.47066H56.6491V5.64679Z" fill="#CF6481"/>
<path d="M59.4723 5.64679H56.6484V8.47066H59.4723V5.64679Z" fill="#CF6481"/>
<path d="M53.8258 8.47064H51.002V11.2945H53.8258V8.47064Z" fill="#CF6481"/>
<path d="M56.6491 8.47064H53.8252V11.2945H56.6491V8.47064Z" fill="#CF6481"/>
<path d="M59.4723 8.47064H56.6484V11.2945H59.4723V8.47064Z" fill="#CF6481"/>
<path d="M53.8258 11.2945H51.002V14.1184H53.8258V11.2945Z" fill="#CF6481"/>
<path d="M56.6491 11.2945H53.8252V14.1184H56.6491V11.2945Z" fill="#CF6481"/>
<path d="M59.4723 11.2945H56.6484V14.1184H59.4723V11.2945Z" fill="#CF6481"/>
<path d="M53.8258 14.1174H51.002V16.9413H53.8258V14.1174Z" fill="#CF6481"/>
<path d="M56.6491 14.1174H53.8252V16.9413H56.6491V14.1174Z" fill="#CF6481"/>
<path d="M59.4723 14.1174H56.6484V16.9413H59.4723V14.1174Z" fill="#CF6481"/>
<path d="M53.8258 16.9413H51.002V19.7652H53.8258V16.9413Z" fill="#CF6481"/>
<path d="M56.6491 16.9413H53.8252V19.7652H56.6491V16.9413Z" fill="#CF6481"/>
<path d="M59.4723 16.9413H56.6484V19.7652H59.4723V16.9413Z" fill="#CF6481"/>
<path d="M53.8258 19.7651H51.002V22.589H53.8258V19.7651Z" fill="#CF6481"/>
<path d="M56.6491 19.7651H53.8252V22.589H56.6491V19.7651Z" fill="#CF6481"/>
<path d="M59.4723 19.7651H56.6484V22.589H59.4723V19.7651Z" fill="#CF6481"/>
<path d="M53.8258 22.5881H51.002V25.412H53.8258V22.5881Z" fill="#CF6481"/>
<path d="M56.6491 22.5881H53.8252V25.412H56.6491V22.5881Z" fill="#CF6481"/>
<path d="M59.4723 22.5881H56.6484V25.412H59.4723V22.5881Z" fill="#CF6481"/>
<path d="M53.8258 25.4119H51.002V28.2358H53.8258V25.4119Z" fill="#CF6481"/>
<path d="M56.6491 25.4119H53.8252V28.2358H56.6491V25.4119Z" fill="#CF6481"/>
<path d="M59.4723 25.4119H56.6484V28.2358H59.4723V25.4119Z" fill="#CF6481"/>
<path d="M53.8258 28.2358H51.002V31.0597H53.8258V28.2358Z" fill="#CF6481"/>
<path d="M56.6491 28.2358H53.8252V31.0597H56.6491V28.2358Z" fill="#CF6481"/>
<path d="M59.4723 28.2358H56.6484V31.0597H59.4723V28.2358Z" fill="#CF6481"/>
<path d="M53.8258 31.0587H51.002V33.8826H53.8258V31.0587Z" fill="#E5AFA7"/>
<path d="M56.6491 31.0587H53.8252V33.8826H56.6491V31.0587Z" fill="#E5AFA7"/>
<path d="M59.4723 31.0587H56.6484V33.8826H59.4723V31.0587Z" fill="#E5AFA7"/>
<path d="M53.8258 33.8826H51.002V36.7064H53.8258V33.8826Z" fill="#81297E"/>
<path d="M56.6491 33.8826H53.8252V36.7064H56.6491V33.8826Z" fill="#81297E"/>
<path d="M59.4723 33.8826H56.6484V36.7064H59.4723V33.8826Z" fill="#81297E"/>
<path d="M53.8258 36.7065H51.002V39.5304H53.8258V36.7065Z" fill="#81297E"/>
<path d="M56.6491 36.7065H53.8252V39.5304H56.6491V36.7065Z" fill="#81297E"/>
<path d="M59.4723 36.7065H56.6484V39.5304H59.4723V36.7065Z" fill="#81297E"/>
<path d="M53.8258 39.5294H51.002V42.3532H53.8258V39.5294Z" fill="#81297E"/>
<path d="M56.6491 39.5294H53.8252V42.3532H56.6491V39.5294Z" fill="#81297E"/>
<path d="M59.4723 39.5294H56.6484V42.3532H59.4723V39.5294Z" fill="#81297E"/>
<path d="M53.8258 42.3532H51.002V45.1771H53.8258V42.3532Z" fill="#81297E"/>
<path d="M56.6491 42.3532H53.8252V45.1771H56.6491V42.3532Z" fill="#81297E"/>
<path d="M59.4723 42.3532H56.6484V45.1771H59.4723V42.3532Z" fill="#81297E"/>
<path d="M53.8258 45.1771H51.002V48.001H53.8258V45.1771Z" fill="#401C5A"/>
<path d="M56.6491 45.1771H53.8252V48.001H56.6491V45.1771Z" fill="#401C5A"/>
<path d="M59.4723 45.1771H56.6484V48.001H59.4723V45.1771Z" fill="#401C5A"/>
<path d="M62.2965 0H59.4727V2.82388H62.2965V0Z" fill="#401C5A"/>
<path d="M65.1198 0H62.2959V2.82388H65.1198V0Z" fill="#401C5A"/>
<path d="M67.943 0H65.1191V2.82388H67.943V0Z" fill="#401C5A"/>
<path d="M62.2965 2.82385H59.4727V5.64773H62.2965V2.82385Z" fill="#E5AFA7"/>
<path d="M65.1198 2.82385H62.2959V5.64773H65.1198V2.82385Z" fill="#E5AFA7"/>
<path d="M67.943 2.82385H65.1191V5.64773H67.943V2.82385Z" fill="#E5AFA7"/>
<path d="M62.2965 5.64679H59.4727V8.47066H62.2965V5.64679Z" fill="#CF6481"/>
<path d="M65.1198 5.64679H62.2959V8.47066H65.1198V5.64679Z" fill="#CF6481"/>
<path d="M67.943 5.64679H65.1191V8.47066H67.943V5.64679Z" fill="#CF6481"/>
<path d="M62.2965 8.47064H59.4727V11.2945H62.2965V8.47064Z" fill="#CF6481"/>
<path d="M65.1198 8.47064H62.2959V11.2945H65.1198V8.47064Z" fill="#CF6481"/>
<path d="M67.943 8.47064H65.1191V11.2945H67.943V8.47064Z" fill="#CF6481"/>
<path d="M62.2965 11.2945H59.4727V14.1184H62.2965V11.2945Z" fill="#CF6481"/>
<path d="M65.1198 11.2945H62.2959V14.1184H65.1198V11.2945Z" fill="#CF6481"/>
<path d="M67.943 11.2945H65.1191V14.1184H67.943V11.2945Z" fill="#CF6481"/>
<path d="M62.2965 14.1174H59.4727V16.9413H62.2965V14.1174Z" fill="#CF6481"/>
<path d="M65.1198 14.1174H62.2959V16.9413H65.1198V14.1174Z" fill="#CF6481"/>
<path d="M67.943 14.1174H65.1191V16.9413H67.943V14.1174Z" fill="#CF6481"/>
<path d="M62.2965 16.9413H59.4727V19.7652H62.2965V16.9413Z" fill="#CF6481"/>
<path d="M65.1198 16.9413H62.2959V19.7652H65.1198V16.9413Z" fill="#CF6481"/>
<path d="M67.943 16.9413H65.1191V19.7652H67.943V16.9413Z" fill="#CF6481"/>
<path d="M62.2965 19.7651H59.4727V22.589H62.2965V19.7651Z" fill="#CF6481"/>
<path d="M65.1198 19.7651H62.2959V22.589H65.1198V19.7651Z" fill="#CF6481"/>
<path d="M67.943 19.7651H65.1191V22.589H67.943V19.7651Z" fill="#CF6481"/>
<path d="M62.2965 22.5881H59.4727V25.412H62.2965V22.5881Z" fill="#CF6481"/>
<path d="M65.1198 22.5881H62.2959V25.412H65.1198V22.5881Z" fill="#CF6481"/>
<path d="M67.943 22.5881H65.1191V25.412H67.943V22.5881Z" fill="#CF6481"/>
<path d="M62.2965 25.4119H59.4727V28.2358H62.2965V25.4119Z" fill="#CF6481"/>
<path d="M65.1198 25.4119H62.2959V28.2358H65.1198V25.4119Z" fill="#CF6481"/>
<path d="M67.943 25.4119H65.1191V28.2358H67.943V25.4119Z" fill="#CF6481"/>
<path d="M62.2965 28.2358H59.4727V31.0597H62.2965V28.2358Z" fill="#CF6481"/>
<path d="M65.1198 28.2358H62.2959V31.0597H65.1198V28.2358Z" fill="#CF6481"/>
<path d="M67.943 28.2358H65.1191V31.0597H67.943V28.2358Z" fill="#CF6481"/>
<path d="M62.2965 31.0587H59.4727V33.8826H62.2965V31.0587Z" fill="#E5AFA7"/>
<path d="M65.1198 31.0587H62.2959V33.8826H65.1198V31.0587Z" fill="#E5AFA7"/>
<path d="M67.943 31.0587H65.1191V33.8826H67.943V31.0587Z" fill="#E5AFA7"/>
<path d="M62.2965 33.8826H59.4727V36.7064H62.2965V33.8826Z" fill="#81297E"/>
<path d="M65.1198 33.8826H62.2959V36.7064H65.1198V33.8826Z" fill="#81297E"/>
<path d="M67.943 33.8826H65.1191V36.7064H67.943V33.8826Z" fill="#81297E"/>
<path d="M62.2965 36.7065H59.4727V39.5304H62.2965V36.7065Z" fill="#81297E"/>
<path d="M65.1198 36.7065H62.2959V39.5304H65.1198V36.7065Z" fill="#81297E"/>
<path d="M67.943 36.7065H65.1191V39.5304H67.943V36.7065Z" fill="#81297E"/>
<path d="M62.2965 39.5294H59.4727V42.3532H62.2965V39.5294Z" fill="#81297E"/>
<path d="M65.1198 39.5294H62.2959V42.3532H65.1198V39.5294Z" fill="#81297E"/>
<path d="M67.943 39.5294H65.1191V42.3532H67.943V39.5294Z" fill="#81297E"/>
<path d="M62.2965 42.3532H59.4727V45.1771H62.2965V42.3532Z" fill="#81297E"/>
<path d="M65.1198 42.3532H62.2959V45.1771H65.1198V42.3532Z" fill="#81297E"/>
<path d="M67.943 42.3532H65.1191V45.1771H67.943V42.3532Z" fill="#81297E"/>
<path d="M62.2965 45.1771H59.4727V48.001H62.2965V45.1771Z" fill="#401C5A"/>
<path d="M65.1198 45.1771H62.2959V48.001H65.1198V45.1771Z" fill="#401C5A"/>
<path d="M67.943 45.1771H65.1191V48.001H67.943V45.1771Z" fill="#401C5A"/>
<path d="M70.7672 0H67.9434V2.82388H70.7672V0Z" fill="#401C5A"/>
<path d="M73.5905 0H70.7666V2.82388H73.5905V0Z" fill="#401C5A"/>
<path d="M70.7672 2.82385H67.9434V5.64773H70.7672V2.82385Z" fill="#E5AFA7"/>
<path d="M73.5905 2.82385H70.7666V5.64773H73.5905V2.82385Z" fill="#E5AFA7"/>
<path d="M70.7672 5.64679H67.9434V8.47066H70.7672V5.64679Z" fill="#CF6481"/>
<path d="M73.5905 5.64679H70.7666V8.47066H73.5905V5.64679Z" fill="#CF6481"/>
<path d="M70.7672 8.47064H67.9434V11.2945H70.7672V8.47064Z" fill="#CF6481"/>
<path d="M73.5905 8.47064H70.7666V11.2945H73.5905V8.47064Z" fill="#CF6481"/>
<path d="M70.7672 11.2945H67.9434V14.1184H70.7672V11.2945Z" fill="#CF6481"/>
<path d="M73.5905 11.2945H70.7666V14.1184H73.5905V11.2945Z" fill="#CF6481"/>
<path d="M70.7672 14.1174H67.9434V16.9413H70.7672V14.1174Z" fill="#CF6481"/>
<path d="M73.5905 14.1174H70.7666V16.9413H73.5905V14.1174Z" fill="#CF6481"/>
<path d="M70.7672 16.9413H67.9434V19.7652H70.7672V16.9413Z" fill="#CF6481"/>
<path d="M73.5905 16.9413H70.7666V19.7652H73.5905V16.9413Z" fill="#CF6481"/>
<path d="M70.7672 19.7651H67.9434V22.589H70.7672V19.7651Z" fill="#CF6481"/>
<path d="M73.5905 19.7651H70.7666V22.589H73.5905V19.7651Z" fill="#CF6481"/>
<path d="M70.7672 22.5881H67.9434V25.412H70.7672V22.5881Z" fill="#CF6481"/>
<path d="M73.5905 22.5881H70.7666V25.412H73.5905V22.5881Z" fill="#CF6481"/>
<path d="M70.7672 25.4119H67.9434V28.2358H70.7672V25.4119Z" fill="#CF6481"/>
<path d="M73.5905 25.4119H70.7666V28.2358H73.5905V25.4119Z" fill="#CF6481"/>
<path d="M70.7672 28.2358H67.9434V31.0597H70.7672V28.2358Z" fill="#CF6481"/>
<path d="M73.5905 28.2358H70.7666V31.0597H73.5905V28.2358Z" fill="#CF6481"/>
<path d="M70.7672 31.0587H67.9434V33.8826H70.7672V31.0587Z" fill="#E5AFA7"/>
<path d="M73.5905 31.0587H70.7666V33.8826H73.5905V31.0587Z" fill="#E5AFA7"/>
<path d="M70.7672 33.8826H67.9434V36.7064H70.7672V33.8826Z" fill="#81297E"/>
<path d="M73.5905 33.8826H70.7666V36.7064H73.5905V33.8826Z" fill="#81297E"/>
<path d="M70.7672 36.7065H67.9434V39.5304H70.7672V36.7065Z" fill="#81297E"/>
<path d="M73.5905 36.7065H70.7666V39.5304H73.5905V36.7065Z" fill="#81297E"/>
<path d="M70.7672 39.5294H67.9434V42.3532H70.7672V39.5294Z" fill="#81297E"/>
<path d="M73.5905 39.5294H70.7666V42.3532H73.5905V39.5294Z" fill="#81297E"/>
<path d="M70.7672 42.3532H67.9434V45.1771H70.7672V42.3532Z" fill="#81297E"/>
<path d="M73.5905 42.3532H70.7666V45.1771H73.5905V42.3532Z" fill="#81297E"/>
<path d="M70.7672 45.1771H67.9434V48.001H70.7672V45.1771Z" fill="#401C5A"/>
<path d="M73.5905 45.1771H70.7666V48.001H73.5905V45.1771Z" fill="#401C5A"/>
<path d="M76.4137 45.1771H73.5898V48.001H76.4137V45.1771Z" fill="#401C5A"/>
<path d="M79.237 45.1771H76.4131V48.001H79.237V45.1771Z" fill="#401C5A"/>
<path d="M82.0612 45.1771H79.2373V48.001H82.0612V45.1771Z" fill="#401C5A"/>
<path d="M84.8844 45.1771H82.0605V48.001H84.8844V45.1771Z" fill="#401C5A"/>
<path d="M87.7077 45.1771H84.8838V48.001H87.7077V45.1771Z" fill="#401C5A"/>
<path d="M90.5319 45.1771H87.708V48.001H90.5319V45.1771Z" fill="#401C5A"/>
<path d="M93.3551 45.1771H90.5312V48.001H93.3551V45.1771Z" fill="#401C5A"/>
<path d="M96.1784 45.1771H93.3545V48.001H96.1784V45.1771Z" fill="#401C5A"/>
<path d="M99.0026 45.1771H96.1787V48.001H99.0026V45.1771Z" fill="#401C5A"/>
<path d="M26.6395 25.3972H25.3506V11.222H33.0822V13.7989H27.9275V16.3757H33.0822V18.9526H27.9275V25.3963H26.6385L26.6395 25.3972Z" fill="#FAF3D4"/>
<path d="M40.8159 25.3972H36.9501V24.1083H35.6611V16.3767H36.9501V15.0878H42.1048V16.3767H43.3937V24.1083H42.1048V25.3972H40.8159ZM39.5269 22.8203H40.8159V17.6656H38.239V22.8203H39.5279H39.5269Z" fill="#FAF3D4"/>
<path d="M47.2587 25.3972H45.9697V15.0878H52.4134V16.3767H53.7023V18.9536H51.1254V17.6646H48.5486V25.3962H47.2596L47.2587 25.3972Z" fill="#FAF3D4"/>
<path d="M62.7229 25.3972H57.5682V24.1083H56.2793V15.0878H58.8562V22.8194H61.433V15.0878H64.0099V25.3972H62.721H62.7229Z" fill="#FAF3D4"/>
<path d="M78.1872 25.3972H76.8983V17.6656H74.3214V25.3972H71.7446V17.6656H69.1677V25.3972H66.5908V15.0878H78.1892V16.3767H79.4781V25.3972H78.1892H78.1872Z" fill="#FAF3D4"/>
</g>
<defs>
<clipPath id="clip0_13294_8966">
<rect width="104.472" height="48" fill="white" transform="translate(0.177734)"/>
</clipPath>
</defs>
</svg>
