<svg width="450" height="266" viewBox="0 0 450 266" fill="none" xmlns="http://www.w3.org/2000/svg">
<path d="M225.125 0.0349121H216.824V8.33639H225.125V0.0349121Z" fill="#DA8A63"/>
<path d="M233.427 0.0349121H225.125V8.33639H233.427V0.0349121Z" fill="#F9B979"/>
<path d="M208.526 8.33655H200.224V16.638H208.526V8.33655Z" fill="#DA8A63"/>
<path d="M216.823 8.33655H208.522V16.638H216.823V8.33655Z" fill="#DA8A63"/>
<path d="M225.125 8.33655H216.824V16.638H225.125V8.33655Z" fill="#DA8A63"/>
<path d="M233.427 8.33655H225.125V16.638H233.427V8.33655Z" fill="#F9B979"/>
<path d="M241.728 8.33655H233.427V16.638H241.728V8.33655Z" fill="#F9B979"/>
<path d="M200.224 16.6378H191.922V24.9393H200.224V16.6378Z" fill="#DA8A63"/>
<path d="M208.526 16.6378H200.224V24.9393H208.526V16.6378Z" fill="#DA8A63"/>
<path d="M216.823 16.6378H208.522V24.9393H216.823V16.6378Z" fill="#DA8A63"/>
<path d="M225.125 16.6378H216.824V24.9393H225.125V16.6378Z" fill="#F9B979"/>
<path d="M233.427 16.6378H225.125V24.9393H233.427V16.6378Z" fill="#F9B979"/>
<path d="M241.728 16.6378H233.427V24.9393H241.728V16.6378Z" fill="#FCE391"/>
<path d="M258.331 16.6378H250.029V24.9393H258.331V16.6378Z" fill="#F9B979"/>
<path d="M266.633 16.6378H258.331V24.9393H266.633V16.6378Z" fill="#F9B979"/>
<path d="M200.224 24.9359H191.922V33.2374H200.224V24.9359Z" fill="#DA8A63"/>
<path d="M208.526 24.9359H200.224V33.2374H208.526V24.9359Z" fill="#DA8A63"/>
<path d="M216.823 24.9359H208.522V33.2374H216.823V24.9359Z" fill="#DA8A63"/>
<path d="M225.125 24.9359H216.824V33.2374H225.125V24.9359Z" fill="#F9B979"/>
<path d="M233.427 24.9359H225.125V33.2374H233.427V24.9359Z" fill="#F9B979"/>
<path d="M241.728 24.9359H233.427V33.2374H241.728V24.9359Z" fill="#FCE391"/>
<path d="M250.03 24.9359H241.728V33.2374H250.03V24.9359Z" fill="#FCE391"/>
<path d="M258.331 24.9359H250.029V33.2374H258.331V24.9359Z" fill="#FCE391"/>
<path d="M266.633 24.9359H258.331V33.2374H266.633V24.9359Z" fill="#FCE391"/>
<path d="M274.934 24.9359H266.632V33.2374H274.934V24.9359Z" fill="#F9B979"/>
<path d="M158.717 33.2375H150.416V41.539H158.717V33.2375Z" fill="#F9B979"/>
<path d="M167.018 33.2375H158.717V41.539H167.018V33.2375Z" fill="#F9B979"/>
<path d="M175.32 33.2375H167.018V41.539H175.32V33.2375Z" fill="#FCE391"/>
<path d="M208.526 33.2375H200.224V41.539H208.526V33.2375Z" fill="#DA8A63"/>
<path d="M216.823 33.2375H208.522V41.539H216.823V33.2375Z" fill="#F9B979"/>
<path d="M225.125 33.2375H216.824V41.539H225.125V33.2375Z" fill="#DA8A63"/>
<path d="M233.427 33.2375H225.125V41.539H233.427V33.2375Z" fill="#DA8A63"/>
<path d="M241.728 33.2375H233.427V41.539H241.728V33.2375Z" fill="#DA8A63"/>
<path d="M250.03 33.2375H241.728V41.539H250.03V33.2375Z" fill="#FCE391"/>
<path d="M258.331 33.2375H250.029V41.539H258.331V33.2375Z" fill="#FCE391"/>
<path d="M266.633 33.2375H258.331V41.539H266.633V33.2375Z" fill="#FCE391"/>
<path d="M274.934 33.2375H266.632V41.539H274.934V33.2375Z" fill="#F9B979"/>
<path d="M133.816 41.5391H125.514V49.8405H133.816V41.5391Z" fill="#DA8A63"/>
<path d="M142.117 41.5391H133.815V49.8405H142.117V41.5391Z" fill="#FCE391"/>
<path d="M150.418 41.5391H142.117V49.8405H150.418V41.5391Z" fill="#FCE391"/>
<path d="M158.717 41.5391H150.416V49.8405H158.717V41.5391Z" fill="#FCE391"/>
<path d="M167.018 41.5391H158.717V49.8405H167.018V41.5391Z" fill="#FCE391"/>
<path d="M175.32 41.5391H167.018V49.8405H175.32V41.5391Z" fill="#FCE391"/>
<path d="M183.621 41.5391H175.319V49.8405H183.621V41.5391Z" fill="#FCE391"/>
<path d="M191.923 41.5391H183.621V49.8405H191.923V41.5391Z" fill="#FCE391"/>
<path d="M208.526 41.5391H200.224V49.8405H208.526V41.5391Z" fill="#DA8A63"/>
<path d="M216.823 41.5391H208.522V49.8405H216.823V41.5391Z" fill="#DA8A63"/>
<path d="M225.125 41.5391H216.824V49.8405H225.125V41.5391Z" fill="#DA8A63"/>
<path d="M233.427 41.5391H225.125V49.8405H233.427V41.5391Z" fill="#F9B979"/>
<path d="M241.728 41.5391H233.427V49.8405H241.728V41.5391Z" fill="#DA8A63"/>
<path d="M250.03 41.5391H241.728V49.8405H250.03V41.5391Z" fill="#F9B979"/>
<path d="M258.331 41.5391H250.029V49.8405H258.331V41.5391Z" fill="#FCE391"/>
<path d="M266.633 41.5391H258.331V49.8405H266.633V41.5391Z" fill="#FCE391"/>
<path d="M125.514 49.8405H117.213V58.1419H125.514V49.8405Z" fill="#F9B979"/>
<path d="M133.816 49.8405H125.514V58.1419H133.816V49.8405Z" fill="#F9B979"/>
<path d="M142.117 49.8405H133.815V58.1419H142.117V49.8405Z" fill="#FCE391"/>
<path d="M150.418 49.8405H142.117V58.1419H150.418V49.8405Z" fill="#FCE391"/>
<path d="M158.717 49.8405H150.416V58.1419H158.717V49.8405Z" fill="#FCE391"/>
<path d="M167.018 49.8405H158.717V58.1419H167.018V49.8405Z" fill="#FCE391"/>
<path d="M175.32 49.8405H167.018V58.1419H175.32V49.8405Z" fill="#FCE391"/>
<path d="M183.621 49.8405H175.319V58.1419H183.621V49.8405Z" fill="#FCE391"/>
<path d="M191.923 49.8405H183.621V58.1419H191.923V49.8405Z" fill="#FCE391"/>
<path d="M200.224 49.8405H191.922V58.1419H200.224V49.8405Z" fill="#FCE391"/>
<path d="M208.526 49.8405H200.224V58.1419H208.526V49.8405Z" fill="#F9B979"/>
<path d="M216.823 49.8405H208.522V58.1419H216.823V49.8405Z" fill="#F9B979"/>
<path d="M225.125 49.8405H216.824V58.1419H225.125V49.8405Z" fill="#F9B979"/>
<path d="M233.427 49.8405H225.125V58.1419H233.427V49.8405Z" fill="#F9B979"/>
<path d="M241.728 49.8405H233.427V58.1419H241.728V49.8405Z" fill="#F9B979"/>
<path d="M250.03 49.8405H241.728V58.1419H250.03V49.8405Z" fill="#F9B979"/>
<path d="M258.331 49.8405H250.029V58.1419H258.331V49.8405Z" fill="#FCE391"/>
<path d="M266.633 49.8405H258.331V58.1419H266.633V49.8405Z" fill="#FCE391"/>
<path d="M299.835 49.8405H291.534V58.1419H299.835V49.8405Z" fill="#F9B979"/>
<path d="M308.137 49.8405H299.835V58.1419H308.137V49.8405Z" fill="#FCE391"/>
<path d="M316.438 49.8405H308.137V58.1419H316.438V49.8405Z" fill="#FCE391"/>
<path d="M117.213 58.1421H108.911V66.4436H117.213V58.1421Z" fill="#F9B979"/>
<path d="M125.514 58.1421H117.213V66.4436H125.514V58.1421Z" fill="#F9B979"/>
<path d="M133.816 58.1421H125.514V66.4436H133.816V58.1421Z" fill="#F9B979"/>
<path d="M142.117 58.1421H133.815V66.4436H142.117V58.1421Z" fill="#F9B979"/>
<path d="M150.418 58.1421H142.117V66.4436H150.418V58.1421Z" fill="#FCE391"/>
<path d="M158.717 58.1421H150.416V66.4436H158.717V58.1421Z" fill="#FCE391"/>
<path d="M167.018 58.1421H158.717V66.4436H167.018V58.1421Z" fill="#FCE391"/>
<path d="M175.32 58.1421H167.018V66.4436H175.32V58.1421Z" fill="#F9B979"/>
<path d="M183.621 58.1421H175.319V66.4436H183.621V58.1421Z" fill="#F9B979"/>
<path d="M191.923 58.1421H183.621V66.4436H191.923V58.1421Z" fill="#F9B979"/>
<path d="M200.224 58.1421H191.922V66.4436H200.224V58.1421Z" fill="#FCE391"/>
<path d="M208.526 58.1421H200.224V66.4436H208.526V58.1421Z" fill="#FCE391"/>
<path d="M216.823 58.1421H208.522V66.4436H216.823V58.1421Z" fill="#FCE391"/>
<path d="M225.125 58.1421H216.824V66.4436H225.125V58.1421Z" fill="#FCE391"/>
<path d="M233.427 58.1421H225.125V66.4436H233.427V58.1421Z" fill="#F9B979"/>
<path d="M241.728 58.1421H233.427V66.4436H241.728V58.1421Z" fill="#FCE391"/>
<path d="M250.03 58.1421H241.728V66.4436H250.03V58.1421Z" fill="#F9B979"/>
<path d="M258.331 58.1421H250.029V66.4436H258.331V58.1421Z" fill="#F9B979"/>
<path d="M266.633 58.1421H258.331V66.4436H266.633V58.1421Z" fill="#FCE391"/>
<path d="M274.934 58.1421H266.632V66.4436H274.934V58.1421Z" fill="#F9B979"/>
<path d="M291.533 58.1421H283.232V66.4436H291.533V58.1421Z" fill="#DA8A63"/>
<path d="M299.835 58.1421H291.534V66.4436H299.835V58.1421Z" fill="#FCE391"/>
<path d="M308.137 58.1421H299.835V66.4436H308.137V58.1421Z" fill="#FCE391"/>
<path d="M316.438 58.1421H308.137V66.4436H316.438V58.1421Z" fill="#FCE391"/>
<path d="M324.739 58.1421H316.438V66.4436H324.739V58.1421Z" fill="#FCE391"/>
<path d="M333.041 58.1421H324.739V66.4436H333.041V58.1421Z" fill="#FCE391"/>
<path d="M108.911 66.4434H100.609V74.7448H108.911V66.4434Z" fill="#DA8A63"/>
<path d="M117.213 66.4434H108.911V74.7448H117.213V66.4434Z" fill="#DA8A63"/>
<path d="M125.514 66.4434H117.213V74.7448H125.514V66.4434Z" fill="#F9B979"/>
<path d="M133.816 66.4434H125.514V74.7448H133.816V66.4434Z" fill="#F9B979"/>
<path d="M142.117 66.4434H133.815V74.7448H142.117V66.4434Z" fill="#F9B979"/>
<path d="M150.418 66.4434H142.117V74.7448H150.418V66.4434Z" fill="#F9B979"/>
<path d="M158.717 66.4434H150.416V74.7448H158.717V66.4434Z" fill="#FCE391"/>
<path d="M167.018 66.4434H158.717V74.7448H167.018V66.4434Z" fill="#F9B979"/>
<path d="M175.32 66.4434H167.018V74.7448H175.32V66.4434Z" fill="#F9B979"/>
<path d="M183.621 66.4434H175.319V74.7448H183.621V66.4434Z" fill="#FCE391"/>
<path d="M191.923 66.4434H183.621V74.7448H191.923V66.4434Z" fill="#FCE391"/>
<path d="M200.224 66.4434H191.922V74.7448H200.224V66.4434Z" fill="#F9B979"/>
<path d="M208.526 66.4434H200.224V74.7448H208.526V66.4434Z" fill="#FCE391"/>
<path d="M216.823 66.4434H208.522V74.7448H216.823V66.4434Z" fill="#FCE391"/>
<path d="M225.125 66.4434H216.824V74.7448H225.125V66.4434Z" fill="#FCE391"/>
<path d="M233.427 66.4434H225.125V74.7448H233.427V66.4434Z" fill="#FCE391"/>
<path d="M241.728 66.4434H233.427V74.7448H241.728V66.4434Z" fill="#FCE391"/>
<path d="M250.03 66.4434H241.728V74.7448H250.03V66.4434Z" fill="#F9B979"/>
<path d="M258.331 66.4434H250.029V74.7448H258.331V66.4434Z" fill="#FCE391"/>
<path d="M266.633 66.4434H258.331V74.7448H266.633V66.4434Z" fill="#FCE391"/>
<path d="M274.934 66.4434H266.632V74.7448H274.934V66.4434Z" fill="#FCE391"/>
<path d="M283.233 66.4434H274.931V74.7448H283.233V66.4434Z" fill="#F9B979"/>
<path d="M291.533 66.4434H283.232V74.7448H291.533V66.4434Z" fill="#DA8A63"/>
<path d="M299.835 66.4434H291.534V74.7448H299.835V66.4434Z" fill="#F9B979"/>
<path d="M308.137 66.4434H299.835V74.7448H308.137V66.4434Z" fill="#FCE391"/>
<path d="M316.438 66.4434H308.137V74.7448H316.438V66.4434Z" fill="#FCE391"/>
<path d="M324.739 66.4434H316.438V74.7448H324.739V66.4434Z" fill="#FCE391"/>
<path d="M333.041 66.4434H324.739V74.7448H333.041V66.4434Z" fill="#F9B979"/>
<path d="M108.911 74.7448H100.609V83.0462H108.911V74.7448Z" fill="#DA8A63"/>
<path d="M117.213 74.7448H108.911V83.0462H117.213V74.7448Z" fill="#DA8A63"/>
<path d="M125.514 74.7448H117.213V83.0462H125.514V74.7448Z" fill="#F9B979"/>
<path d="M133.816 74.7448H125.514V83.0462H133.816V74.7448Z" fill="#F9B979"/>
<path d="M142.117 74.7448H133.815V83.0462H142.117V74.7448Z" fill="#F9B979"/>
<path d="M150.418 74.7448H142.117V83.0462H150.418V74.7448Z" fill="#F9B979"/>
<path d="M158.717 74.7448H150.416V83.0462H158.717V74.7448Z" fill="#F9B979"/>
<path d="M167.018 74.7448H158.717V83.0462H167.018V74.7448Z" fill="#F9B979"/>
<path d="M175.32 74.7448H167.018V83.0462H175.32V74.7448Z" fill="#FCE391"/>
<path d="M183.621 74.7448H175.319V83.0462H183.621V74.7448Z" fill="#FCE391"/>
<path d="M191.923 74.7448H183.621V83.0462H191.923V74.7448Z" fill="#FCE391"/>
<path d="M200.224 74.7448H191.922V83.0462H200.224V74.7448Z" fill="#FCE391"/>
<path d="M208.526 74.7448H200.224V83.0462H208.526V74.7448Z" fill="#FCE391"/>
<path d="M216.823 74.7448H208.522V83.0462H216.823V74.7448Z" fill="#FCE391"/>
<path d="M225.125 74.7448H216.824V83.0462H225.125V74.7448Z" fill="#FCE391"/>
<path d="M233.427 74.7448H225.125V83.0462H233.427V74.7448Z" fill="#FCE391"/>
<path d="M241.728 74.7448H233.427V83.0462H241.728V74.7448Z" fill="#F9B979"/>
<path d="M250.03 74.7448H241.728V83.0462H250.03V74.7448Z" fill="#FCE391"/>
<path d="M258.331 74.7448H250.029V83.0462H258.331V74.7448Z" fill="#FCE391"/>
<path d="M266.633 74.7448H258.331V83.0462H266.633V74.7448Z" fill="#FCE391"/>
<path d="M274.934 74.7448H266.632V83.0462H274.934V74.7448Z" fill="#FCE391"/>
<path d="M283.233 74.7448H274.931V83.0462H283.233V74.7448Z" fill="#F9B979"/>
<path d="M291.533 74.7448H283.232V83.0462H291.533V74.7448Z" fill="#DA8A63"/>
<path d="M299.835 74.7448H291.534V83.0462H299.835V74.7448Z" fill="#F9B979"/>
<path d="M308.137 74.7448H299.835V83.0462H308.137V74.7448Z" fill="#F9B979"/>
<path d="M316.438 74.7448H308.137V83.0462H316.438V74.7448Z" fill="#F9B979"/>
<path d="M324.739 74.7448H316.438V83.0462H324.739V74.7448Z" fill="#F9B979"/>
<path d="M117.213 83.0464H108.911V91.3478H117.213V83.0464Z" fill="#DA8A63"/>
<path d="M125.514 83.0464H117.213V91.3478H125.514V83.0464Z" fill="#DA8A63"/>
<path d="M133.816 83.0464H125.514V91.3478H133.816V83.0464Z" fill="#F9B979"/>
<path d="M142.117 83.0464H133.815V91.3478H142.117V83.0464Z" fill="#F9B979"/>
<path d="M150.418 83.0464H142.117V91.3478H150.418V83.0464Z" fill="#F9B979"/>
<path d="M158.717 83.0464H150.416V91.3478H158.717V83.0464Z" fill="#F9B979"/>
<path d="M167.018 83.0464H158.717V91.3478H167.018V83.0464Z" fill="#F9B979"/>
<path d="M175.32 83.0464H167.018V91.3478H175.32V83.0464Z" fill="#F9B979"/>
<path d="M183.621 83.0464H175.319V91.3478H183.621V83.0464Z" fill="#FCE391"/>
<path d="M191.923 83.0464H183.621V91.3478H191.923V83.0464Z" fill="#FCE391"/>
<path d="M200.224 83.0464H191.922V91.3478H200.224V83.0464Z" fill="#FCE391"/>
<path d="M208.526 83.0464H200.224V91.3478H208.526V83.0464Z" fill="#FCE391"/>
<path d="M216.823 83.0464H208.522V91.3478H216.823V83.0464Z" fill="#FCE391"/>
<path d="M225.125 83.0464H216.824V91.3478H225.125V83.0464Z" fill="#FCE391"/>
<path d="M233.427 83.0464H225.125V91.3478H233.427V83.0464Z" fill="#FCE391"/>
<path d="M241.728 83.0464H233.427V91.3478H241.728V83.0464Z" fill="#FCE391"/>
<path d="M250.03 83.0464H241.728V91.3478H250.03V83.0464Z" fill="#FCE391"/>
<path d="M258.331 83.0464H250.029V91.3478H258.331V83.0464Z" fill="#FCE391"/>
<path d="M266.633 83.0464H258.331V91.3478H266.633V83.0464Z" fill="#FCE391"/>
<path d="M274.934 83.0464H266.632V91.3478H274.934V83.0464Z" fill="#F9B979"/>
<path d="M283.233 83.0464H274.931V91.3478H283.233V83.0464Z" fill="#F9B979"/>
<path d="M291.533 83.0464H283.232V91.3478H291.533V83.0464Z" fill="#DA8A63"/>
<path d="M299.835 83.0464H291.534V91.3478H299.835V83.0464Z" fill="#DA8A63"/>
<path d="M308.137 83.0464H299.835V91.3478H308.137V83.0464Z" fill="#F9B979"/>
<path d="M316.438 83.0464H308.137V91.3478H316.438V83.0464Z" fill="#F9B979"/>
<path d="M133.816 91.3446H125.514V99.6461H133.816V91.3446Z" fill="#DA8A63"/>
<path d="M142.117 91.3446H133.815V99.6461H142.117V91.3446Z" fill="#F9B979"/>
<path d="M150.418 91.3446H142.117V99.6461H150.418V91.3446Z" fill="#F9B979"/>
<path d="M158.717 91.3446H150.416V99.6461H158.717V91.3446Z" fill="#F9B979"/>
<path d="M167.018 91.3446H158.717V99.6461H167.018V91.3446Z" fill="#F9B979"/>
<path d="M175.32 91.3446H167.018V99.6461H175.32V91.3446Z" fill="#F9B979"/>
<path d="M183.621 91.3446H175.319V99.6461H183.621V91.3446Z" fill="#F9B979"/>
<path d="M191.923 91.3446H183.621V99.6461H191.923V91.3446Z" fill="#FCE391"/>
<path d="M200.224 91.3446H191.922V99.6461H200.224V91.3446Z" fill="#FCE391"/>
<path d="M208.526 91.3446H200.224V99.6461H208.526V91.3446Z" fill="#FCE391"/>
<path d="M216.823 91.3446H208.522V99.6461H216.823V91.3446Z" fill="#FCE391"/>
<path d="M225.125 91.3446H216.824V99.6461H225.125V91.3446Z" fill="#F9B979"/>
<path d="M233.427 91.3446H225.125V99.6461H233.427V91.3446Z" fill="#F9B979"/>
<path d="M241.728 91.3446H233.427V99.6461H241.728V91.3446Z" fill="#FCE391"/>
<path d="M250.03 91.3446H241.728V99.6461H250.03V91.3446Z" fill="#FCE391"/>
<path d="M258.331 91.3446H250.029V99.6461H258.331V91.3446Z" fill="#FCE391"/>
<path d="M266.633 91.3446H258.331V99.6461H266.633V91.3446Z" fill="#FCE391"/>
<path d="M274.934 91.3446H266.632V99.6461H274.934V91.3446Z" fill="#FCE391"/>
<path d="M283.233 91.3446H274.931V99.6461H283.233V91.3446Z" fill="#DA8A63"/>
<path d="M291.533 91.3446H283.232V99.6461H291.533V91.3446Z" fill="#DA8A63"/>
<path d="M299.835 91.3446H291.534V99.6461H299.835V91.3446Z" fill="#DA8A63"/>
<path d="M125.514 99.646H117.213V107.947H125.514V99.646Z" fill="#DA8A63"/>
<path d="M133.816 99.646H125.514V107.947H133.816V99.646Z" fill="#DA8A63"/>
<path d="M142.117 99.646H133.815V107.947H142.117V99.646Z" fill="#DA8A63"/>
<path d="M150.418 99.646H142.117V107.947H150.418V99.646Z" fill="#F9B979"/>
<path d="M158.717 99.646H150.416V107.947H158.717V99.646Z" fill="#F9B979"/>
<path d="M167.018 99.646H158.717V107.947H167.018V99.646Z" fill="#F9B979"/>
<path d="M175.32 99.646H167.018V107.947H175.32V99.646Z" fill="#DA8A63"/>
<path d="M183.621 99.646H175.319V107.947H183.621V99.646Z" fill="#F9B979"/>
<path d="M191.923 99.646H183.621V107.947H191.923V99.646Z" fill="#F9B979"/>
<path d="M200.224 99.646H191.922V107.947H200.224V99.646Z" fill="#F9B979"/>
<path d="M208.526 99.646H200.224V107.947H208.526V99.646Z" fill="#DA8A63"/>
<path d="M216.823 99.646H208.522V107.947H216.823V99.646Z" fill="#F9B979"/>
<path d="M225.125 99.646H216.824V107.947H225.125V99.646Z" fill="#DA8A63"/>
<path d="M233.427 99.646H225.125V107.947H233.427V99.646Z" fill="#F9B979"/>
<path d="M241.728 99.646H233.427V107.947H241.728V99.646Z" fill="#FCE391"/>
<path d="M250.03 99.646H241.728V107.947H250.03V99.646Z" fill="#FCE391"/>
<path d="M258.331 99.646H250.029V107.947H258.331V99.646Z" fill="#FCE391"/>
<path d="M266.633 99.646H258.331V107.947H266.633V99.646Z" fill="#FCE391"/>
<path d="M274.934 99.646H266.632V107.947H274.934V99.646Z" fill="#FCE391"/>
<path d="M283.233 99.646H274.931V107.947H283.233V99.646Z" fill="#F9B979"/>
<path d="M291.533 99.646H283.232V107.947H291.533V99.646Z" fill="#DA8A63"/>
<path d="M308.137 99.646H299.835V107.947H308.137V99.646Z" fill="#DA8A63"/>
<path d="M316.438 99.646H308.137V107.947H316.438V99.646Z" fill="#DA8A63"/>
<path d="M125.514 107.948H117.213V116.249H125.514V107.948Z" fill="#DA8A63"/>
<path d="M133.816 107.948H125.514V116.249H133.816V107.948Z" fill="#DA8A63"/>
<path d="M142.117 107.948H133.815V116.249H142.117V107.948Z" fill="#DA8A63"/>
<path d="M150.418 107.948H142.117V116.249H150.418V107.948Z" fill="#F9B979"/>
<path d="M158.717 107.948H150.416V116.249H158.717V107.948Z" fill="#F9B979"/>
<path d="M167.018 107.948H158.717V116.249H167.018V107.948Z" fill="#F9B979"/>
<path d="M175.32 107.948H167.018V116.249H175.32V107.948Z" fill="#DA8A63"/>
<path d="M183.621 107.948H175.319V116.249H183.621V107.948Z" fill="#DA8A63"/>
<path d="M191.923 107.948H183.621V116.249H191.923V107.948Z" fill="#DA8A63"/>
<path d="M200.224 107.948H191.922V116.249H200.224V107.948Z" fill="#DA8A63"/>
<path d="M208.526 107.948H200.224V116.249H208.526V107.948Z" fill="#F9B979"/>
<path d="M216.823 107.948H208.522V116.249H216.823V107.948Z" fill="#F9B979"/>
<path d="M225.125 107.948H216.824V116.249H225.125V107.948Z" fill="#F9B979"/>
<path d="M233.427 107.948H225.125V116.249H233.427V107.948Z" fill="#DA8A63"/>
<path d="M241.728 107.948H233.427V116.249H241.728V107.948Z" fill="#F9B979"/>
<path d="M250.03 107.948H241.728V116.249H250.03V107.948Z" fill="#FCE391"/>
<path d="M258.331 107.948H250.029V116.249H258.331V107.948Z" fill="#FCE391"/>
<path d="M266.633 107.948H258.331V116.249H266.633V107.948Z" fill="#FCE391"/>
<path d="M274.934 107.948H266.632V116.249H274.934V107.948Z" fill="#F9B979"/>
<path d="M283.233 107.948H274.931V116.249H283.233V107.948Z" fill="#F9B979"/>
<path d="M299.835 107.948H291.534V116.249H299.835V107.948Z" fill="#F9B979"/>
<path d="M308.137 107.948H299.835V116.249H308.137V107.948Z" fill="#F9B979"/>
<path d="M316.438 107.948H308.137V116.249H316.438V107.948Z" fill="#F9B979"/>
<path d="M324.739 107.948H316.438V116.249H324.739V107.948Z" fill="#DA8A63"/>
<path d="M349.641 107.948H341.34V116.249H349.641V107.948Z" fill="#F9B979"/>
<path d="M357.942 107.948H349.641V116.249H357.942V107.948Z" fill="#F9B979"/>
<path d="M366.243 107.948H357.942V116.249H366.243V107.948Z" fill="#F9B979"/>
<path d="M92.3112 116.249H84.0098V124.551H92.3112V116.249Z" fill="#F9B979"/>
<path d="M100.61 116.249H92.3081V124.551H100.61V116.249Z" fill="#F9B979"/>
<path d="M133.816 116.249H125.514V124.551H133.816V116.249Z" fill="#DA8A63"/>
<path d="M142.117 116.249H133.815V124.551H142.117V116.249Z" fill="#DA8A63"/>
<path d="M150.418 116.249H142.117V124.551H150.418V116.249Z" fill="#DA8A63"/>
<path d="M158.717 116.249H150.416V124.551H158.717V116.249Z" fill="#F9B979"/>
<path d="M167.018 116.249H158.717V124.551H167.018V116.249Z" fill="#F9B979"/>
<path d="M175.32 116.249H167.018V124.551H175.32V116.249Z" fill="#F9B979"/>
<path d="M183.621 116.249H175.319V124.551H183.621V116.249Z" fill="#DA8A63"/>
<path d="M191.923 116.249H183.621V124.551H191.923V116.249Z" fill="#DA8A63"/>
<path d="M200.224 116.249H191.922V124.551H200.224V116.249Z" fill="#F9B979"/>
<path d="M208.526 116.249H200.224V124.551H208.526V116.249Z" fill="#F9B979"/>
<path d="M216.823 116.249H208.522V124.551H216.823V116.249Z" fill="#F9B979"/>
<path d="M225.125 116.249H216.824V124.551H225.125V116.249Z" fill="#DA8A63"/>
<path d="M233.427 116.249H225.125V124.551H233.427V116.249Z" fill="#DA8A63"/>
<path d="M241.728 116.249H233.427V124.551H241.728V116.249Z" fill="#F9B979"/>
<path d="M250.03 116.249H241.728V124.551H250.03V116.249Z" fill="#F9B979"/>
<path d="M258.331 116.249H250.029V124.551H258.331V116.249Z" fill="#FCE391"/>
<path d="M266.633 116.249H258.331V124.551H266.633V116.249Z" fill="#F9B979"/>
<path d="M274.934 116.249H266.632V124.551H274.934V116.249Z" fill="#F9B979"/>
<path d="M283.233 116.249H274.931V124.551H283.233V116.249Z" fill="#DA8A63"/>
<path d="M291.533 116.249H283.232V124.551H291.533V116.249Z" fill="#F9B979"/>
<path d="M299.835 116.249H291.534V124.551H299.835V116.249Z" fill="#F9B979"/>
<path d="M308.137 116.249H299.835V124.551H308.137V116.249Z" fill="#F9B979"/>
<path d="M316.438 116.249H308.137V124.551H316.438V116.249Z" fill="#FCE391"/>
<path d="M324.739 116.249H316.438V124.551H324.739V116.249Z" fill="#FCE391"/>
<path d="M341.34 116.249H333.038V124.551H341.34V116.249Z" fill="#F9B979"/>
<path d="M349.641 116.249H341.34V124.551H349.641V116.249Z" fill="#F9B979"/>
<path d="M357.942 116.249H349.641V124.551H357.942V116.249Z" fill="#F9B979"/>
<path d="M366.243 116.249H357.942V124.551H366.243V116.249Z" fill="#FCE391"/>
<path d="M374.545 116.249H366.244V124.551H374.545V116.249Z" fill="#FCE391"/>
<path d="M59.1057 124.55H50.8042V132.852H59.1057V124.55Z" fill="#DA8A63"/>
<path d="M67.4069 124.55H59.1055V132.852H67.4069V124.55Z" fill="#DA8A63"/>
<path d="M84.01 124.55H75.7085V132.852H84.01V124.55Z" fill="#F9B979"/>
<path d="M92.3112 124.55H84.0098V132.852H92.3112V124.55Z" fill="#F9B979"/>
<path d="M100.61 124.55H92.3081V132.852H100.61V124.55Z" fill="#F9B979"/>
<path d="M108.911 124.55H100.609V132.852H108.911V124.55Z" fill="#F9B979"/>
<path d="M142.117 124.55H133.815V132.852H142.117V124.55Z" fill="#DA8A63"/>
<path d="M150.418 124.55H142.117V132.852H150.418V124.55Z" fill="#DA8A63"/>
<path d="M158.717 124.55H150.416V132.852H158.717V124.55Z" fill="#F9B979"/>
<path d="M167.018 124.55H158.717V132.852H167.018V124.55Z" fill="#F9B979"/>
<path d="M175.32 124.55H167.018V132.852H175.32V124.55Z" fill="#F9B979"/>
<path d="M183.621 124.55H175.319V132.852H183.621V124.55Z" fill="#DA8A63"/>
<path d="M191.923 124.55H183.621V132.852H191.923V124.55Z" fill="#F9B979"/>
<path d="M200.224 124.55H191.922V132.852H200.224V124.55Z" fill="#F9B979"/>
<path d="M208.526 124.55H200.224V132.852H208.526V124.55Z" fill="#DA8A63"/>
<path d="M216.823 124.55H208.522V132.852H216.823V124.55Z" fill="#DA8A63"/>
<path d="M225.125 124.55H216.824V132.852H225.125V124.55Z" fill="#DA8A63"/>
<path d="M233.427 124.55H225.125V132.852H233.427V124.55Z" fill="#DA8A63"/>
<path d="M241.728 124.55H233.427V132.852H241.728V124.55Z" fill="#DA8A63"/>
<path d="M250.03 124.55H241.728V132.852H250.03V124.55Z" fill="#F9B979"/>
<path d="M258.331 124.55H250.029V132.852H258.331V124.55Z" fill="#F9B979"/>
<path d="M266.633 124.55H258.331V132.852H266.633V124.55Z" fill="#F9B979"/>
<path d="M274.934 124.55H266.632V132.852H274.934V124.55Z" fill="#DA8A63"/>
<path d="M283.233 124.55H274.931V132.852H283.233V124.55Z" fill="#DA8A63"/>
<path d="M291.533 124.55H283.232V132.852H291.533V124.55Z" fill="#F9B979"/>
<path d="M299.835 124.55H291.534V132.852H299.835V124.55Z" fill="#F9B979"/>
<path d="M308.137 124.55H299.835V132.852H308.137V124.55Z" fill="#FCE391"/>
<path d="M316.438 124.55H308.137V132.852H316.438V124.55Z" fill="#FCE391"/>
<path d="M324.739 124.55H316.438V132.852H324.739V124.55Z" fill="#FCE391"/>
<path d="M333.041 124.55H324.739V132.852H333.041V124.55Z" fill="#FCE391"/>
<path d="M341.34 124.55H333.038V132.852H341.34V124.55Z" fill="#FCE391"/>
<path d="M349.641 124.55H341.34V132.852H349.641V124.55Z" fill="#F9B979"/>
<path d="M357.942 124.55H349.641V132.852H357.942V124.55Z" fill="#FCE391"/>
<path d="M366.243 124.55H357.942V132.852H366.243V124.55Z" fill="#FCE391"/>
<path d="M374.545 124.55H366.244V132.852H374.545V124.55Z" fill="#FCE391"/>
<path d="M382.846 124.55H374.545V132.852H382.846V124.55Z" fill="#F9B979"/>
<path d="M391.148 124.55H382.847V132.852H391.148V124.55Z" fill="#FCE391"/>
<path d="M50.8044 132.852H42.5029V141.153H50.8044V132.852Z" fill="#DA8A63"/>
<path d="M59.1057 132.852H50.8042V141.153H59.1057V132.852Z" fill="#DA8A63"/>
<path d="M67.4069 132.852H59.1055V141.153H67.4069V132.852Z" fill="#DA8A63"/>
<path d="M75.7082 132.852H67.4067V141.153H75.7082V132.852Z" fill="#F9B979"/>
<path d="M84.01 132.852H75.7085V141.153H84.01V132.852Z" fill="#F9B979"/>
<path d="M92.3112 132.852H84.0098V141.153H92.3112V132.852Z" fill="#FCE391"/>
<path d="M100.61 132.852H92.3081V141.153H100.61V132.852Z" fill="#FCE391"/>
<path d="M108.911 132.852H100.609V141.153H108.911V132.852Z" fill="#FCE391"/>
<path d="M117.213 132.852H108.911V141.153H117.213V132.852Z" fill="#FCE391"/>
<path d="M133.816 132.852H125.514V141.153H133.816V132.852Z" fill="#DA8A63"/>
<path d="M142.117 132.852H133.815V141.153H142.117V132.852Z" fill="#DA8A63"/>
<path d="M150.418 132.852H142.117V141.153H150.418V132.852Z" fill="#DA8A63"/>
<path d="M158.717 132.852H150.416V141.153H158.717V132.852Z" fill="#DA8A63"/>
<path d="M167.018 132.852H158.717V141.153H167.018V132.852Z" fill="#F9B979"/>
<path d="M175.32 132.852H167.018V141.153H175.32V132.852Z" fill="#DA8A63"/>
<path d="M183.621 132.852H175.319V141.153H183.621V132.852Z" fill="#DA8A63"/>
<path d="M191.923 132.852H183.621V141.153H191.923V132.852Z" fill="#F9B979"/>
<path d="M200.224 132.852H191.922V141.153H200.224V132.852Z" fill="#DA8A63"/>
<path d="M208.526 132.852H200.224V141.153H208.526V132.852Z" fill="#DA8A63"/>
<path d="M216.823 132.852H208.522V141.153H216.823V132.852Z" fill="#DA8A63"/>
<path d="M225.125 132.852H216.824V141.153H225.125V132.852Z" fill="#DA8A63"/>
<path d="M233.427 132.852H225.125V141.153H233.427V132.852Z" fill="#DA8A63"/>
<path d="M241.728 132.852H233.427V141.153H241.728V132.852Z" fill="#DA8A63"/>
<path d="M250.03 132.852H241.728V141.153H250.03V132.852Z" fill="#DA8A63"/>
<path d="M258.331 132.852H250.029V141.153H258.331V132.852Z" fill="#DA8A63"/>
<path d="M266.633 132.852H258.331V141.153H266.633V132.852Z" fill="#DA8A63"/>
<path d="M274.934 132.852H266.632V141.153H274.934V132.852Z" fill="#DA8A63"/>
<path d="M283.233 132.852H274.931V141.153H283.233V132.852Z" fill="#DA8A63"/>
<path d="M291.533 132.852H283.232V141.153H291.533V132.852Z" fill="#F9B979"/>
<path d="M299.835 132.852H291.534V141.153H299.835V132.852Z" fill="#F9B979"/>
<path d="M308.137 132.852H299.835V141.153H308.137V132.852Z" fill="#FCE391"/>
<path d="M316.438 132.852H308.137V141.153H316.438V132.852Z" fill="#FCE391"/>
<path d="M324.739 132.852H316.438V141.153H324.739V132.852Z" fill="#FCE391"/>
<path d="M333.041 132.852H324.739V141.153H333.041V132.852Z" fill="#F9B979"/>
<path d="M341.34 132.852H333.038V141.153H341.34V132.852Z" fill="#FCE391"/>
<path d="M349.641 132.852H341.34V141.153H349.641V132.852Z" fill="#F9B979"/>
<path d="M357.942 132.852H349.641V141.153H357.942V132.852Z" fill="#FCE391"/>
<path d="M366.243 132.852H357.942V141.153H366.243V132.852Z" fill="#FCE391"/>
<path d="M374.545 132.852H366.244V141.153H374.545V132.852Z" fill="#F9B979"/>
<path d="M382.846 132.852H374.545V141.153H382.846V132.852Z" fill="#F9B979"/>
<path d="M391.148 132.852H382.847V141.153H391.148V132.852Z" fill="#FCE391"/>
<path d="M399.446 132.852H391.145V141.153H399.446V132.852Z" fill="#FCE391"/>
<path d="M9.30001 141.154H0.998535V149.455H9.30001V141.154Z" fill="#DA8A63"/>
<path d="M34.2043 141.154H25.9028V149.455H34.2043V141.154Z" fill="#DA8A63"/>
<path d="M42.5026 141.154H34.2012V149.455H42.5026V141.154Z" fill="#DA8A63"/>
<path d="M50.8044 141.154H42.5029V149.455H50.8044V141.154Z" fill="#DA8A63"/>
<path d="M59.1057 141.154H50.8042V149.455H59.1057V141.154Z" fill="#DA8A63"/>
<path d="M67.4069 141.154H59.1055V149.455H67.4069V141.154Z" fill="#DA8A63"/>
<path d="M75.7082 141.154H67.4067V149.455H75.7082V141.154Z" fill="#F9B979"/>
<path d="M84.01 141.154H75.7085V149.455H84.01V141.154Z" fill="#FCE391"/>
<path d="M92.3112 141.154H84.0098V149.455H92.3112V141.154Z" fill="#F9B979"/>
<path d="M100.61 141.154H92.3081V149.455H100.61V141.154Z" fill="#FCE391"/>
<path d="M108.911 141.154H100.609V149.455H108.911V141.154Z" fill="#FCE391"/>
<path d="M117.213 141.154H108.911V149.455H117.213V141.154Z" fill="#FCE391"/>
<path d="M133.816 141.154H125.514V149.455H133.816V141.154Z" fill="#DA8A63"/>
<path d="M142.117 141.154H133.815V149.455H142.117V141.154Z" fill="#DA8A63"/>
<path d="M150.418 141.154H142.117V149.455H150.418V141.154Z" fill="#DA8A63"/>
<path d="M158.717 141.154H150.416V149.455H158.717V141.154Z" fill="#DA8A63"/>
<path d="M167.018 141.154H158.717V149.455H167.018V141.154Z" fill="#DA8A63"/>
<path d="M175.32 141.154H167.018V149.455H175.32V141.154Z" fill="#DA8A63"/>
<path d="M183.621 141.154H175.319V149.455H183.621V141.154Z" fill="#F9B979"/>
<path d="M191.923 141.154H183.621V149.455H191.923V141.154Z" fill="#DA8A63"/>
<path d="M200.224 141.154H191.922V149.455H200.224V141.154Z" fill="#DA8A63"/>
<path d="M208.526 141.154H200.224V149.455H208.526V141.154Z" fill="#DA8A63"/>
<path d="M216.823 141.154H208.522V149.455H216.823V141.154Z" fill="#DA8A63"/>
<path d="M225.125 141.154H216.824V149.455H225.125V141.154Z" fill="#DA8A63"/>
<path d="M233.427 141.154H225.125V149.455H233.427V141.154Z" fill="#F9B979"/>
<path d="M241.728 141.154H233.427V149.455H241.728V141.154Z" fill="#F9B979"/>
<path d="M250.03 141.154H241.728V149.455H250.03V141.154Z" fill="#F9B979"/>
<path d="M258.331 141.154H250.029V149.455H258.331V141.154Z" fill="#F9B979"/>
<path d="M266.633 141.154H258.331V149.455H266.633V141.154Z" fill="#DA8A63"/>
<path d="M274.934 141.154H266.632V149.455H274.934V141.154Z" fill="#DA8A63"/>
<path d="M283.233 141.154H274.931V149.455H283.233V141.154Z" fill="#DA8A63"/>
<path d="M291.533 141.154H283.232V149.455H291.533V141.154Z" fill="#F9B979"/>
<path d="M299.835 141.154H291.534V149.455H299.835V141.154Z" fill="#F9B979"/>
<path d="M308.137 141.154H299.835V149.455H308.137V141.154Z" fill="#FCE391"/>
<path d="M316.438 141.154H308.137V149.455H316.438V141.154Z" fill="#FCE391"/>
<path d="M324.739 141.154H316.438V149.455H324.739V141.154Z" fill="#FCE391"/>
<path d="M333.041 141.154H324.739V149.455H333.041V141.154Z" fill="#F9B979"/>
<path d="M341.34 141.154H333.038V149.455H341.34V141.154Z" fill="#F9B979"/>
<path d="M349.641 141.154H341.34V149.455H349.641V141.154Z" fill="#DA8A63"/>
<path d="M357.942 141.154H349.641V149.455H357.942V141.154Z" fill="#F9B979"/>
<path d="M366.243 141.154H357.942V149.455H366.243V141.154Z" fill="#F9B979"/>
<path d="M374.545 141.154H366.244V149.455H374.545V141.154Z" fill="#F9B979"/>
<path d="M382.846 141.154H374.545V149.455H382.846V141.154Z" fill="#F9B979"/>
<path d="M391.148 141.154H382.847V149.455H391.148V141.154Z" fill="#F9B979"/>
<path d="M399.446 141.154H391.145V149.455H399.446V141.154Z" fill="#FCE391"/>
<path d="M416.049 141.154H407.748V149.455H416.049V141.154Z" fill="#F9B979"/>
<path d="M424.351 141.154H416.049V149.455H424.351V141.154Z" fill="#F9B979"/>
<path d="M17.6018 149.452H9.30029V157.753H17.6018V149.452Z" fill="#DA8A63"/>
<path d="M25.903 149.452H17.6016V157.753H25.903V149.452Z" fill="#DA8A63"/>
<path d="M34.2043 149.452H25.9028V157.753H34.2043V149.452Z" fill="#DA8A63"/>
<path d="M42.5026 149.452H34.2012V157.753H42.5026V149.452Z" fill="#DA8A63"/>
<path d="M50.8044 149.452H42.5029V157.753H50.8044V149.452Z" fill="#DA8A63"/>
<path d="M59.1057 149.452H50.8042V157.753H59.1057V149.452Z" fill="#DA8A63"/>
<path d="M67.4069 149.452H59.1055V157.753H67.4069V149.452Z" fill="#DA8A63"/>
<path d="M75.7082 149.452H67.4067V157.753H75.7082V149.452Z" fill="#F9B979"/>
<path d="M84.01 149.452H75.7085V157.753H84.01V149.452Z" fill="#F9B979"/>
<path d="M92.3112 149.452H84.0098V157.753H92.3112V149.452Z" fill="#F9B979"/>
<path d="M100.61 149.452H92.3081V157.753H100.61V149.452Z" fill="#F9B979"/>
<path d="M108.911 149.452H100.609V157.753H108.911V149.452Z" fill="#F9B979"/>
<path d="M117.213 149.452H108.911V157.753H117.213V149.452Z" fill="#FCE391"/>
<path d="M125.514 149.452H117.213V157.753H125.514V149.452Z" fill="#FCE391"/>
<path d="M142.117 149.452H133.815V157.753H142.117V149.452Z" fill="#DA8A63"/>
<path d="M150.418 149.452H142.117V157.753H150.418V149.452Z" fill="#DA8A63"/>
<path d="M158.717 149.452H150.416V157.753H158.717V149.452Z" fill="#F9B979"/>
<path d="M167.018 149.452H158.717V157.753H167.018V149.452Z" fill="#F9B979"/>
<path d="M175.32 149.452H167.018V157.753H175.32V149.452Z" fill="#F9B979"/>
<path d="M183.621 149.452H175.319V157.753H183.621V149.452Z" fill="#DA8A63"/>
<path d="M191.923 149.452H183.621V157.753H191.923V149.452Z" fill="#DA8A63"/>
<path d="M200.224 149.452H191.922V157.753H200.224V149.452Z" fill="#DA8A63"/>
<path d="M208.526 149.452H200.224V157.753H208.526V149.452Z" fill="#DA8A63"/>
<path d="M216.823 149.452H208.522V157.753H216.823V149.452Z" fill="#F9B979"/>
<path d="M225.125 149.452H216.824V157.753H225.125V149.452Z" fill="#F9B979"/>
<path d="M233.427 149.452H225.125V157.753H233.427V149.452Z" fill="#F9B979"/>
<path d="M241.728 149.452H233.427V157.753H241.728V149.452Z" fill="#F9B979"/>
<path d="M250.03 149.452H241.728V157.753H250.03V149.452Z" fill="#FCE391"/>
<path d="M258.331 149.452H250.029V157.753H258.331V149.452Z" fill="#FCE391"/>
<path d="M266.633 149.452H258.331V157.753H266.633V149.452Z" fill="#FCE391"/>
<path d="M274.934 149.452H266.632V157.753H274.934V149.452Z" fill="#DA8A63"/>
<path d="M283.233 149.452H274.931V157.753H283.233V149.452Z" fill="#DA8A63"/>
<path d="M291.533 149.452H283.232V157.753H291.533V149.452Z" fill="#DA8A63"/>
<path d="M299.835 149.452H291.534V157.753H299.835V149.452Z" fill="#F9B979"/>
<path d="M308.137 149.452H299.835V157.753H308.137V149.452Z" fill="#F9B979"/>
<path d="M316.438 149.452H308.137V157.753H316.438V149.452Z" fill="#FCE391"/>
<path d="M324.739 149.452H316.438V157.753H324.739V149.452Z" fill="#F9B979"/>
<path d="M333.041 149.452H324.739V157.753H333.041V149.452Z" fill="#F9B979"/>
<path d="M341.34 149.452H333.038V157.753H341.34V149.452Z" fill="#DA8A63"/>
<path d="M349.641 149.452H341.34V157.753H349.641V149.452Z" fill="#DA8A63"/>
<path d="M357.942 149.452H349.641V157.753H357.942V149.452Z" fill="#DA8A63"/>
<path d="M366.243 149.452H357.942V157.753H366.243V149.452Z" fill="#F9B979"/>
<path d="M374.545 149.452H366.244V157.753H374.545V149.452Z" fill="#F9B979"/>
<path d="M382.846 149.452H374.545V157.753H382.846V149.452Z" fill="#F9B979"/>
<path d="M391.148 149.452H382.847V157.753H391.148V149.452Z" fill="#F9B979"/>
<path d="M399.446 149.452H391.145V157.753H399.446V149.452Z" fill="#DA8A63"/>
<path d="M407.748 149.452H399.446V157.753H407.748V149.452Z" fill="#F9B979"/>
<path d="M416.049 149.452H407.748V157.753H416.049V149.452Z" fill="#F9B979"/>
<path d="M424.351 149.452H416.049V157.753H424.351V149.452Z" fill="#F9B979"/>
<path d="M432.652 149.452H424.351V157.753H432.652V149.452Z" fill="#F9B979"/>
<path d="M25.903 157.753H17.6016V166.054H25.903V157.753Z" fill="#DA8A63"/>
<path d="M34.2043 157.753H25.9028V166.054H34.2043V157.753Z" fill="#DA8A63"/>
<path d="M42.5026 157.753H34.2012V166.054H42.5026V157.753Z" fill="#F9B979"/>
<path d="M50.8044 157.753H42.5029V166.054H50.8044V157.753Z" fill="#F9B979"/>
<path d="M59.1057 157.753H50.8042V166.054H59.1057V157.753Z" fill="#DA8A63"/>
<path d="M67.4069 157.753H59.1055V166.054H67.4069V157.753Z" fill="#DA8A63"/>
<path d="M75.7082 157.753H67.4067V166.054H75.7082V157.753Z" fill="#DA8A63"/>
<path d="M84.01 157.753H75.7085V166.054H84.01V157.753Z" fill="#F9B979"/>
<path d="M92.3112 157.753H84.0098V166.054H92.3112V157.753Z" fill="#F9B979"/>
<path d="M100.61 157.753H92.3081V166.054H100.61V157.753Z" fill="#F9B979"/>
<path d="M108.911 157.753H100.609V166.054H108.911V157.753Z" fill="#F9B979"/>
<path d="M117.213 157.753H108.911V166.054H117.213V157.753Z" fill="#F9B979"/>
<path d="M125.514 157.753H117.213V166.054H125.514V157.753Z" fill="#FCE391"/>
<path d="M133.816 157.753H125.514V166.054H133.816V157.753Z" fill="#DA8A63"/>
<path d="M150.418 157.753H142.117V166.054H150.418V157.753Z" fill="#F9B979"/>
<path d="M158.717 157.753H150.416V166.054H158.717V157.753Z" fill="#F9B979"/>
<path d="M167.018 157.753H158.717V166.054H167.018V157.753Z" fill="#F9B979"/>
<path d="M175.32 157.753H167.018V166.054H175.32V157.753Z" fill="#F9B979"/>
<path d="M183.621 157.753H175.319V166.054H183.621V157.753Z" fill="#F9B979"/>
<path d="M191.923 157.753H183.621V166.054H191.923V157.753Z" fill="#DA8A63"/>
<path d="M200.224 157.753H191.922V166.054H200.224V157.753Z" fill="#DA8A63"/>
<path d="M208.526 157.753H200.224V166.054H208.526V157.753Z" fill="#F9B979"/>
<path d="M216.823 157.753H208.522V166.054H216.823V157.753Z" fill="#F9B979"/>
<path d="M225.125 157.753H216.824V166.054H225.125V157.753Z" fill="#F9B979"/>
<path d="M233.427 157.753H225.125V166.054H233.427V157.753Z" fill="#F9B979"/>
<path d="M241.728 157.753H233.427V166.054H241.728V157.753Z" fill="#FCE391"/>
<path d="M250.03 157.753H241.728V166.054H250.03V157.753Z" fill="#FCE391"/>
<path d="M258.331 157.753H250.029V166.054H258.331V157.753Z" fill="#FCE391"/>
<path d="M266.633 157.753H258.331V166.054H266.633V157.753Z" fill="#FCE391"/>
<path d="M274.934 157.753H266.632V166.054H274.934V157.753Z" fill="#FCE391"/>
<path d="M283.233 157.753H274.931V166.054H283.233V157.753Z" fill="#DA8A63"/>
<path d="M291.533 157.753H283.232V166.054H291.533V157.753Z" fill="#F9B979"/>
<path d="M299.835 157.753H291.534V166.054H299.835V157.753Z" fill="#F9B979"/>
<path d="M308.137 157.753H299.835V166.054H308.137V157.753Z" fill="#F9B979"/>
<path d="M316.438 157.753H308.137V166.054H316.438V157.753Z" fill="#F9B979"/>
<path d="M324.739 157.753H316.438V166.054H324.739V157.753Z" fill="#DA8A63"/>
<path d="M333.041 157.753H324.739V166.054H333.041V157.753Z" fill="#DA8A63"/>
<path d="M341.34 157.753H333.038V166.054H341.34V157.753Z" fill="#DA8A63"/>
<path d="M349.641 157.753H341.34V166.054H349.641V157.753Z" fill="#DA8A63"/>
<path d="M357.942 157.753H349.641V166.054H357.942V157.753Z" fill="#DA8A63"/>
<path d="M366.243 157.753H357.942V166.054H366.243V157.753Z" fill="#DA8A63"/>
<path d="M374.545 157.753H366.244V166.054H374.545V157.753Z" fill="#DA8A63"/>
<path d="M382.846 157.753H374.545V166.054H382.846V157.753Z" fill="#DA8A63"/>
<path d="M391.148 157.753H382.847V166.054H391.148V157.753Z" fill="#DA8A63"/>
<path d="M399.446 157.753H391.145V166.054H399.446V157.753Z" fill="#DA8A63"/>
<path d="M407.748 157.753H399.446V166.054H407.748V157.753Z" fill="#DA8A63"/>
<path d="M416.049 157.753H407.748V166.054H416.049V157.753Z" fill="#DA8A63"/>
<path d="M424.351 157.753H416.049V166.054H424.351V157.753Z" fill="#DA8A63"/>
<path d="M432.652 157.753H424.351V166.054H432.652V157.753Z" fill="#DA8A63"/>
<path d="M440.953 157.753H432.652V166.054H440.953V157.753Z" fill="#F9B979"/>
<path d="M34.2043 166.055H25.9028V174.356H34.2043V166.055Z" fill="#DA8A63"/>
<path d="M42.5026 166.055H34.2012V174.356H42.5026V166.055Z" fill="#F9B979"/>
<path d="M50.8044 166.055H42.5029V174.356H50.8044V166.055Z" fill="#F9B979"/>
<path d="M59.1057 166.055H50.8042V174.356H59.1057V166.055Z" fill="#F9B979"/>
<path d="M67.4069 166.055H59.1055V174.356H67.4069V166.055Z" fill="#F9B979"/>
<path d="M75.7082 166.055H67.4067V174.356H75.7082V166.055Z" fill="#DA8A63"/>
<path d="M84.01 166.055H75.7085V174.356H84.01V166.055Z" fill="#DA8A63"/>
<path d="M92.3112 166.055H84.0098V174.356H92.3112V166.055Z" fill="#DA8A63"/>
<path d="M100.61 166.055H92.3081V174.356H100.61V166.055Z" fill="#F9B979"/>
<path d="M108.911 166.055H100.609V174.356H108.911V166.055Z" fill="#F9B979"/>
<path d="M117.213 166.055H108.911V174.356H117.213V166.055Z" fill="#F9B979"/>
<path d="M125.514 166.055H117.213V174.356H125.514V166.055Z" fill="#F9B979"/>
<path d="M133.816 166.055H125.514V174.356H133.816V166.055Z" fill="#DA8A63"/>
<path d="M150.418 166.055H142.117V174.356H150.418V166.055Z" fill="#F9B979"/>
<path d="M158.717 166.055H150.416V174.356H158.717V166.055Z" fill="#FCE391"/>
<path d="M167.018 166.055H158.717V174.356H167.018V166.055Z" fill="#FCE391"/>
<path d="M175.32 166.055H167.018V174.356H175.32V166.055Z" fill="#FCE391"/>
<path d="M183.621 166.055H175.319V174.356H183.621V166.055Z" fill="#FCE391"/>
<path d="M191.923 166.055H183.621V174.356H191.923V166.055Z" fill="#DA8A63"/>
<path d="M200.224 166.055H191.922V174.356H200.224V166.055Z" fill="#F9B979"/>
<path d="M208.526 166.055H200.224V174.356H208.526V166.055Z" fill="#F9B979"/>
<path d="M216.823 166.055H208.522V174.356H216.823V166.055Z" fill="#F9B979"/>
<path d="M225.125 166.055H216.824V174.356H225.125V166.055Z" fill="#F9B979"/>
<path d="M233.427 166.055H225.125V174.356H233.427V166.055Z" fill="#FCE391"/>
<path d="M241.728 166.055H233.427V174.356H241.728V166.055Z" fill="#FCE391"/>
<path d="M250.03 166.055H241.728V174.356H250.03V166.055Z" fill="#FCE391"/>
<path d="M258.331 166.055H250.029V174.356H258.331V166.055Z" fill="#F9B979"/>
<path d="M266.633 166.055H258.331V174.356H266.633V166.055Z" fill="#FCE391"/>
<path d="M274.934 166.055H266.632V174.356H274.934V166.055Z" fill="#FCE391"/>
<path d="M283.233 166.055H274.931V174.356H283.233V166.055Z" fill="#FCE391"/>
<path d="M291.533 166.055H283.232V174.356H291.533V166.055Z" fill="#F9B979"/>
<path d="M299.835 166.055H291.534V174.356H299.835V166.055Z" fill="#F9B979"/>
<path d="M308.137 166.055H299.835V174.356H308.137V166.055Z" fill="#F9B979"/>
<path d="M316.438 166.055H308.137V174.356H316.438V166.055Z" fill="#F9B979"/>
<path d="M324.739 166.055H316.438V174.356H324.739V166.055Z" fill="#F9B979"/>
<path d="M333.041 166.055H324.739V174.356H333.041V166.055Z" fill="#DA8A63"/>
<path d="M341.34 166.055H333.038V174.356H341.34V166.055Z" fill="#DA8A63"/>
<path d="M349.641 166.055H341.34V174.356H349.641V166.055Z" fill="#DA8A63"/>
<path d="M357.942 166.055H349.641V174.356H357.942V166.055Z" fill="#DA8A63"/>
<path d="M366.243 166.055H357.942V174.356H366.243V166.055Z" fill="#DA8A63"/>
<path d="M374.545 166.055H366.244V174.356H374.545V166.055Z" fill="#DA8A63"/>
<path d="M382.846 166.055H374.545V174.356H382.846V166.055Z" fill="#DA8A63"/>
<path d="M416.049 166.055H407.748V174.356H416.049V166.055Z" fill="#DA8A63"/>
<path d="M424.351 166.055H416.049V174.356H424.351V166.055Z" fill="#DA8A63"/>
<path d="M449.255 166.055H440.953V174.356H449.255V166.055Z" fill="#DA8A63"/>
<path d="M25.903 174.356H17.6016V182.657H25.903V174.356Z" fill="#DA8A63"/>
<path d="M34.2043 174.356H25.9028V182.657H34.2043V174.356Z" fill="#F9B979"/>
<path d="M42.5026 174.356H34.2012V182.657H42.5026V174.356Z" fill="#F9B979"/>
<path d="M50.8044 174.356H42.5029V182.657H50.8044V174.356Z" fill="#F9B979"/>
<path d="M59.1057 174.356H50.8042V182.657H59.1057V174.356Z" fill="#F9B979"/>
<path d="M67.4069 174.356H59.1055V182.657H67.4069V174.356Z" fill="#F9B979"/>
<path d="M75.7082 174.356H67.4067V182.657H75.7082V174.356Z" fill="#F9B979"/>
<path d="M84.01 174.356H75.7085V182.657H84.01V174.356Z" fill="#DA8A63"/>
<path d="M92.3112 174.356H84.0098V182.657H92.3112V174.356Z" fill="#DA8A63"/>
<path d="M100.61 174.356H92.3081V182.657H100.61V174.356Z" fill="#DA8A63"/>
<path d="M108.911 174.356H100.609V182.657H108.911V174.356Z" fill="#DA8A63"/>
<path d="M117.213 174.356H108.911V182.657H117.213V174.356Z" fill="#DA8A63"/>
<path d="M125.514 174.356H117.213V182.657H125.514V174.356Z" fill="#DA8A63"/>
<path d="M142.117 174.356H133.815V182.657H142.117V174.356Z" fill="#F9B979"/>
<path d="M150.418 174.356H142.117V182.657H150.418V174.356Z" fill="#FCE391"/>
<path d="M158.717 174.356H150.416V182.657H158.717V174.356Z" fill="#FCE391"/>
<path d="M167.018 174.356H158.717V182.657H167.018V174.356Z" fill="#FCE391"/>
<path d="M175.32 174.356H167.018V182.657H175.32V174.356Z" fill="#FCE391"/>
<path d="M183.621 174.356H175.319V182.657H183.621V174.356Z" fill="#FCE391"/>
<path d="M191.923 174.356H183.621V182.657H191.923V174.356Z" fill="#FCE391"/>
<path d="M200.224 174.356H191.922V182.657H200.224V174.356Z" fill="#F9B979"/>
<path d="M208.526 174.356H200.224V182.657H208.526V174.356Z" fill="#F9B979"/>
<path d="M216.823 174.356H208.522V182.657H216.823V174.356Z" fill="#F9B979"/>
<path d="M225.125 174.356H216.824V182.657H225.125V174.356Z" fill="#F9B979"/>
<path d="M233.427 174.356H225.125V182.657H233.427V174.356Z" fill="#FCE391"/>
<path d="M241.728 174.356H233.427V182.657H241.728V174.356Z" fill="#FCE391"/>
<path d="M250.03 174.356H241.728V182.657H250.03V174.356Z" fill="#F9B979"/>
<path d="M258.331 174.356H250.029V182.657H258.331V174.356Z" fill="#F9B979"/>
<path d="M266.633 174.356H258.331V182.657H266.633V174.356Z" fill="#F9B979"/>
<path d="M274.934 174.356H266.632V182.657H274.934V174.356Z" fill="#FCE391"/>
<path d="M283.233 174.356H274.931V182.657H283.233V174.356Z" fill="#F9B979"/>
<path d="M291.533 174.356H283.232V182.657H291.533V174.356Z" fill="#DA8A63"/>
<path d="M299.835 174.356H291.534V182.657H299.835V174.356Z" fill="#F9B979"/>
<path d="M308.137 174.356H299.835V182.657H308.137V174.356Z" fill="#F9B979"/>
<path d="M316.438 174.356H308.137V182.657H316.438V174.356Z" fill="#F9B979"/>
<path d="M324.739 174.356H316.438V182.657H324.739V174.356Z" fill="#F9B979"/>
<path d="M333.041 174.356H324.739V182.657H333.041V174.356Z" fill="#F9B979"/>
<path d="M341.34 174.356H333.038V182.657H341.34V174.356Z" fill="#DA8A63"/>
<path d="M366.243 174.356H357.942V182.657H366.243V174.356Z" fill="#DA8A63"/>
<path d="M374.545 174.356H366.244V182.657H374.545V174.356Z" fill="#DA8A63"/>
<path d="M25.903 182.657H17.6016V190.959H25.903V182.657Z" fill="#DA8A63"/>
<path d="M34.2043 182.657H25.9028V190.959H34.2043V182.657Z" fill="#F9B979"/>
<path d="M42.5026 182.657H34.2012V190.959H42.5026V182.657Z" fill="#F9B979"/>
<path d="M50.8044 182.657H42.5029V190.959H50.8044V182.657Z" fill="#DA8A63"/>
<path d="M59.1057 182.657H50.8042V190.959H59.1057V182.657Z" fill="#DA8A63"/>
<path d="M67.4069 182.657H59.1055V190.959H67.4069V182.657Z" fill="#F9B979"/>
<path d="M75.7082 182.657H67.4067V190.959H75.7082V182.657Z" fill="#F9B979"/>
<path d="M84.01 182.657H75.7085V190.959H84.01V182.657Z" fill="#F9B979"/>
<path d="M92.3112 182.657H84.0098V190.959H92.3112V182.657Z" fill="#DA8A63"/>
<path d="M100.61 182.657H92.3081V190.959H100.61V182.657Z" fill="#DA8A63"/>
<path d="M108.911 182.657H100.609V190.959H108.911V182.657Z" fill="#DA8A63"/>
<path d="M117.213 182.657H108.911V190.959H117.213V182.657Z" fill="#DA8A63"/>
<path d="M125.514 182.657H117.213V190.959H125.514V182.657Z" fill="#F9B979"/>
<path d="M133.816 182.657H125.514V190.959H133.816V182.657Z" fill="#F9B979"/>
<path d="M142.117 182.657H133.815V190.959H142.117V182.657Z" fill="#F9B979"/>
<path d="M150.418 182.657H142.117V190.959H150.418V182.657Z" fill="#FCE391"/>
<path d="M158.717 182.657H150.416V190.959H158.717V182.657Z" fill="#FCE391"/>
<path d="M167.018 182.657H158.717V190.959H167.018V182.657Z" fill="#FCE391"/>
<path d="M175.32 182.657H167.018V190.959H175.32V182.657Z" fill="#F9B979"/>
<path d="M183.621 182.657H175.319V190.959H183.621V182.657Z" fill="#FCE391"/>
<path d="M191.923 182.657H183.621V190.959H191.923V182.657Z" fill="#FCE391"/>
<path d="M200.224 182.657H191.922V190.959H200.224V182.657Z" fill="#F9B979"/>
<path d="M208.526 182.657H200.224V190.959H208.526V182.657Z" fill="#F9B979"/>
<path d="M216.823 182.657H208.522V190.959H216.823V182.657Z" fill="#F9B979"/>
<path d="M225.125 182.657H216.824V190.959H225.125V182.657Z" fill="#F9B979"/>
<path d="M233.427 182.657H225.125V190.959H233.427V182.657Z" fill="#F9B979"/>
<path d="M241.728 182.657H233.427V190.959H241.728V182.657Z" fill="#F9B979"/>
<path d="M250.03 182.657H241.728V190.959H250.03V182.657Z" fill="#F9B979"/>
<path d="M258.331 182.657H250.029V190.959H258.331V182.657Z" fill="#FCE391"/>
<path d="M266.633 182.657H258.331V190.959H266.633V182.657Z" fill="#F9B979"/>
<path d="M274.934 182.657H266.632V190.959H274.934V182.657Z" fill="#DA8A63"/>
<path d="M316.438 182.657H308.137V190.959H316.438V182.657Z" fill="#DA8A63"/>
<path d="M324.739 182.657H316.438V190.959H324.739V182.657Z" fill="#F9B979"/>
<path d="M333.041 182.657H324.739V190.959H333.041V182.657Z" fill="#DA8A63"/>
<path d="M34.2043 190.959H25.9028V199.26H34.2043V190.959Z" fill="#DA8A63"/>
<path d="M42.5026 190.959H34.2012V199.26H42.5026V190.959Z" fill="#DA8A63"/>
<path d="M59.1057 190.959H50.8042V199.26H59.1057V190.959Z" fill="#DA8A63"/>
<path d="M67.4069 190.959H59.1055V199.26H67.4069V190.959Z" fill="#DA8A63"/>
<path d="M75.7082 190.959H67.4067V199.26H75.7082V190.959Z" fill="#DA8A63"/>
<path d="M84.01 190.959H75.7085V199.26H84.01V190.959Z" fill="#F9B979"/>
<path d="M92.3112 190.959H84.0098V199.26H92.3112V190.959Z" fill="#F9B979"/>
<path d="M100.61 190.959H92.3081V199.26H100.61V190.959Z" fill="#DA8A63"/>
<path d="M108.911 190.959H100.609V199.26H108.911V190.959Z" fill="#DA8A63"/>
<path d="M117.213 190.959H108.911V199.26H117.213V190.959Z" fill="#DA8A63"/>
<path d="M125.514 190.959H117.213V199.26H125.514V190.959Z" fill="#F9B979"/>
<path d="M133.816 190.959H125.514V199.26H133.816V190.959Z" fill="#F9B979"/>
<path d="M142.117 190.959H133.815V199.26H142.117V190.959Z" fill="#FCE391"/>
<path d="M150.418 190.959H142.117V199.26H150.418V190.959Z" fill="#FCE391"/>
<path d="M158.717 190.959H150.416V199.26H158.717V190.959Z" fill="#FCE391"/>
<path d="M167.018 190.959H158.717V199.26H167.018V190.959Z" fill="#FCE391"/>
<path d="M175.32 190.959H167.018V199.26H175.32V190.959Z" fill="#F9B979"/>
<path d="M183.621 190.959H175.319V199.26H183.621V190.959Z" fill="#F9B979"/>
<path d="M191.923 190.959H183.621V199.26H191.923V190.959Z" fill="#FCE391"/>
<path d="M200.224 190.959H191.922V199.26H200.224V190.959Z" fill="#DA8A63"/>
<path d="M208.526 190.959H200.224V199.26H208.526V190.959Z" fill="#F9B979"/>
<path d="M241.728 190.959H233.427V199.26H241.728V190.959Z" fill="#F9B979"/>
<path d="M250.03 190.959H241.728V199.26H250.03V190.959Z" fill="#F9B979"/>
<path d="M258.331 190.959H250.029V199.26H258.331V190.959Z" fill="#F9B979"/>
<path d="M266.633 190.959H258.331V199.26H266.633V190.959Z" fill="#F9B979"/>
<path d="M67.4069 199.26H59.1055V207.562H67.4069V199.26Z" fill="#DA8A63"/>
<path d="M75.7082 199.26H67.4067V207.562H75.7082V199.26Z" fill="#DA8A63"/>
<path d="M84.01 199.26H75.7085V207.562H84.01V199.26Z" fill="#DA8A63"/>
<path d="M92.3112 199.26H84.0098V207.562H92.3112V199.26Z" fill="#F9B979"/>
<path d="M100.61 199.26H92.3081V207.562H100.61V199.26Z" fill="#DA8A63"/>
<path d="M108.911 199.26H100.609V207.562H108.911V199.26Z" fill="#DA8A63"/>
<path d="M117.213 199.26H108.911V207.562H117.213V199.26Z" fill="#DA8A63"/>
<path d="M125.514 199.26H117.213V207.562H125.514V199.26Z" fill="#F9B979"/>
<path d="M133.816 199.26H125.514V207.562H133.816V199.26Z" fill="#F9B979"/>
<path d="M142.117 199.26H133.815V207.562H142.117V199.26Z" fill="#F9B979"/>
<path d="M150.418 199.26H142.117V207.562H150.418V199.26Z" fill="#FCE391"/>
<path d="M158.717 199.26H150.416V207.562H158.717V199.26Z" fill="#F9B979"/>
<path d="M167.018 199.26H158.717V207.562H167.018V199.26Z" fill="#F9B979"/>
<path d="M175.32 199.26H167.018V207.562H175.32V199.26Z" fill="#F9B979"/>
<path d="M183.621 199.26H175.319V207.562H183.621V199.26Z" fill="#F9B979"/>
<path d="M191.923 199.26H183.621V207.562H191.923V199.26Z" fill="#FCE391"/>
<path d="M200.224 199.26H191.922V207.562H200.224V199.26Z" fill="#DA8A63"/>
<path d="M216.823 199.26H208.522V207.562H216.823V199.26Z" fill="#DA8A63"/>
<path d="M225.125 199.26H216.824V207.562H225.125V199.26Z" fill="#DA8A63"/>
<path d="M250.03 199.26H241.728V207.562H250.03V199.26Z" fill="#DA8A63"/>
<path d="M75.7082 207.559H67.4067V215.86H75.7082V207.559Z" fill="#DA8A63"/>
<path d="M84.01 207.559H75.7085V215.86H84.01V207.559Z" fill="#DA8A63"/>
<path d="M92.3112 207.559H84.0098V215.86H92.3112V207.559Z" fill="#DA8A63"/>
<path d="M117.213 207.559H108.911V215.86H117.213V207.559Z" fill="#DA8A63"/>
<path d="M125.514 207.559H117.213V215.86H125.514V207.559Z" fill="#DA8A63"/>
<path d="M133.816 207.559H125.514V215.86H133.816V207.559Z" fill="#F9B979"/>
<path d="M142.117 207.559H133.815V215.86H142.117V207.559Z" fill="#F9B979"/>
<path d="M150.418 207.559H142.117V215.86H150.418V207.559Z" fill="#F9B979"/>
<path d="M158.717 207.559H150.416V215.86H158.717V207.559Z" fill="#F9B979"/>
<path d="M167.018 207.559H158.717V215.86H167.018V207.559Z" fill="#F9B979"/>
<path d="M175.32 207.559H167.018V215.86H175.32V207.559Z" fill="#F9B979"/>
<path d="M183.621 207.559H175.319V215.86H183.621V207.559Z" fill="#FCE391"/>
<path d="M191.923 207.559H183.621V215.86H191.923V207.559Z" fill="#F9B979"/>
<path d="M200.224 207.559H191.922V215.86H200.224V207.559Z" fill="#DA8A63"/>
<path d="M208.526 207.559H200.224V215.86H208.526V207.559Z" fill="#DA8A63"/>
<path d="M216.823 207.559H208.522V215.86H216.823V207.559Z" fill="#DA8A63"/>
<path d="M225.125 207.559H216.824V215.86H225.125V207.559Z" fill="#DA8A63"/>
<path d="M233.427 207.559H225.125V215.86H233.427V207.559Z" fill="#DA8A63"/>
<path d="M108.911 215.86H100.609V224.162H108.911V215.86Z" fill="#DA8A63"/>
<path d="M117.213 215.86H108.911V224.162H117.213V215.86Z" fill="#DA8A63"/>
<path d="M125.514 215.86H117.213V224.162H125.514V215.86Z" fill="#DA8A63"/>
<path d="M133.816 215.86H125.514V224.162H133.816V215.86Z" fill="#DA8A63"/>
<path d="M142.117 215.86H133.815V224.162H142.117V215.86Z" fill="#DA8A63"/>
<path d="M150.418 215.86H142.117V224.162H150.418V215.86Z" fill="#F9B979"/>
<path d="M158.717 215.86H150.416V224.162H158.717V215.86Z" fill="#F9B979"/>
<path d="M167.018 215.86H158.717V224.162H167.018V215.86Z" fill="#F9B979"/>
<path d="M175.32 215.86H167.018V224.162H175.32V215.86Z" fill="#FCE391"/>
<path d="M183.621 215.86H175.319V224.162H183.621V215.86Z" fill="#F9B979"/>
<path d="M191.923 215.86H183.621V224.162H191.923V215.86Z" fill="#DA8A63"/>
<path d="M200.224 215.86H191.922V224.162H200.224V215.86Z" fill="#DA8A63"/>
<path d="M208.526 215.86H200.224V224.162H208.526V215.86Z" fill="#DA8A63"/>
<path d="M216.823 215.86H208.522V224.162H216.823V215.86Z" fill="#DA8A63"/>
<path d="M225.125 215.86H216.824V224.162H225.125V215.86Z" fill="#DA8A63"/>
<path d="M108.911 224.162H100.609V232.463H108.911V224.162Z" fill="#DA8A63"/>
<path d="M117.213 224.162H108.911V232.463H117.213V224.162Z" fill="#DA8A63"/>
<path d="M125.514 224.162H117.213V232.463H125.514V224.162Z" fill="#DA8A63"/>
<path d="M133.816 224.162H125.514V232.463H133.816V224.162Z" fill="#DA8A63"/>
<path d="M142.117 224.162H133.815V232.463H142.117V224.162Z" fill="#DA8A63"/>
<path d="M150.418 224.162H142.117V232.463H150.418V224.162Z" fill="#DA8A63"/>
<path d="M158.717 224.162H150.416V232.463H158.717V224.162Z" fill="#DA8A63"/>
<path d="M167.018 224.162H158.717V232.463H167.018V224.162Z" fill="#DA8A63"/>
<path d="M175.32 224.162H167.018V232.463H175.32V224.162Z" fill="#DA8A63"/>
<path d="M183.621 224.162H175.319V232.463H183.621V224.162Z" fill="#DA8A63"/>
<path d="M191.923 224.162H183.621V232.463H191.923V224.162Z" fill="#DA8A63"/>
<path d="M200.224 224.162H191.922V232.463H200.224V224.162Z" fill="#DA8A63"/>
<path d="M208.526 224.162H200.224V232.463H208.526V224.162Z" fill="#DA8A63"/>
<path d="M216.823 224.162H208.522V232.463H216.823V224.162Z" fill="#DA8A63"/>
<path d="M225.125 224.162H216.824V232.463H225.125V224.162Z" fill="#DA8A63"/>
<path d="M108.911 232.463H100.609V240.764H108.911V232.463Z" fill="#DA8A63"/>
<path d="M117.213 232.463H108.911V240.764H117.213V232.463Z" fill="#DA8A63"/>
<path d="M125.514 232.463H117.213V240.764H125.514V232.463Z" fill="#DA8A63"/>
<path d="M133.816 232.463H125.514V240.764H133.816V232.463Z" fill="#DA8A63"/>
<path d="M142.117 232.463H133.815V240.764H142.117V232.463Z" fill="#DA8A63"/>
<path d="M150.418 232.463H142.117V240.764H150.418V232.463Z" fill="#DA8A63"/>
<path d="M158.717 232.463H150.416V240.764H158.717V232.463Z" fill="#DA8A63"/>
<path d="M167.018 232.463H158.717V240.764H167.018V232.463Z" fill="#DA8A63"/>
<path d="M175.32 232.463H167.018V240.764H175.32V232.463Z" fill="#DA8A63"/>
<path d="M183.621 232.463H175.319V240.764H183.621V232.463Z" fill="#DA8A63"/>
<path d="M191.923 232.463H183.621V240.764H191.923V232.463Z" fill="#DA8A63"/>
<path d="M208.526 232.463H200.224V240.764H208.526V232.463Z" fill="#DA8A63"/>
<path d="M216.823 232.463H208.522V240.764H216.823V232.463Z" fill="#DA8A63"/>
<path d="M117.213 240.765H108.911V249.066H117.213V240.765Z" fill="#DA8A63"/>
<path d="M125.514 240.765H117.213V249.066H125.514V240.765Z" fill="#DA8A63"/>
<path d="M142.117 240.765H133.815V249.066H142.117V240.765Z" fill="#DA8A63"/>
<path d="M150.418 240.765H142.117V249.066H150.418V240.765Z" fill="#DA8A63"/>
<path d="M158.717 240.765H150.416V249.066H158.717V240.765Z" fill="#DA8A63"/>
<path d="M167.018 240.765H158.717V249.066H167.018V240.765Z" fill="#DA8A63"/>
<path d="M175.32 240.765H167.018V249.066H175.32V240.765Z" fill="#DA8A63"/>
<path d="M183.621 240.765H175.319V249.066H183.621V240.765Z" fill="#DA8A63"/>
<path d="M142.117 249.066H133.815V257.367H142.117V249.066Z" fill="#DA8A63"/>
<path d="M150.418 249.066H142.117V257.367H150.418V249.066Z" fill="#DA8A63"/>
<path d="M158.717 249.066H150.416V257.367H158.717V249.066Z" fill="#DA8A63"/>
<path d="M167.018 249.066H158.717V257.367H167.018V249.066Z" fill="#DA8A63"/>
<path d="M150.418 257.367H142.117V265.669H150.418V257.367Z" fill="#DA8A63"/>
<path d="M158.717 257.367H150.416V265.669H158.717V257.367Z" fill="#DA8A63"/>
</svg>
