<svg width="33" height="33" viewBox="0 0 33 33" fill="none" xmlns="http://www.w3.org/2000/svg">
<g clip-path="url(#clip0_13297_12418)">
<path d="M11.5999 2.94385H10.1997V4.34407H11.5999V2.94385Z" fill="#241D37"/>
<path d="M13.0003 2.94385H11.6001V4.34407H13.0003V2.94385Z" fill="#241D37"/>
<path d="M14.3997 2.94385H12.9995V4.34407H14.3997V2.94385Z" fill="#241D37"/>
<path d="M15.8001 2.94385H14.3999V4.34407H15.8001V2.94385Z" fill="#241D37"/>
<path d="M17.2005 2.94385H15.8003V4.34407H17.2005V2.94385Z" fill="#241D37"/>
<path d="M18.5999 2.94385H17.1997V4.34407H18.5999V2.94385Z" fill="#241D37"/>
<path d="M20.0003 2.94385H18.6001V4.34407H20.0003V2.94385Z" fill="#241D37"/>
<path d="M21.3997 2.94385H19.9995V4.34407H21.3997V2.94385Z" fill="#241D37"/>
<path d="M22.8001 2.94385H21.3999V4.34407H22.8001V2.94385Z" fill="#241D37"/>
<path d="M10.2005 4.34399H8.80029V5.74421H10.2005V4.34399Z" fill="#241D37"/>
<path d="M11.5999 4.34399H10.1997V5.74421H11.5999V4.34399Z" fill="#DBE4F2"/>
<path d="M13.0003 4.34399H11.6001V5.74421H13.0003V4.34399Z" fill="#DBE4F2"/>
<path d="M14.3997 4.34399H12.9995V5.74421H14.3997V4.34399Z" fill="#DBE4F2"/>
<path d="M15.8001 4.34399H14.3999V5.74421H15.8001V4.34399Z" fill="#DBE4F2"/>
<path d="M17.2005 4.34399H15.8003V5.74421H17.2005V4.34399Z" fill="#DBE4F2"/>
<path d="M18.5999 4.34399H17.1997V5.74421H18.5999V4.34399Z" fill="#DBE4F2"/>
<path d="M20.0003 4.34399H18.6001V5.74421H20.0003V4.34399Z" fill="#DBE4F2"/>
<path d="M21.3997 4.34399H19.9995V5.74421H21.3997V4.34399Z" fill="#DBE4F2"/>
<path d="M22.8001 4.34399H21.3999V5.74421H22.8001V4.34399Z" fill="#DBE4F2"/>
<path d="M24.2005 4.34399H22.8003V5.74421H24.2005V4.34399Z" fill="#241D37"/>
<path d="M8.80012 5.74365H7.3999V7.14387H8.80012V5.74365Z" fill="#241D37"/>
<path d="M10.2005 5.74365H8.80029V7.14387H10.2005V5.74365Z" fill="#DBE4F2"/>
<path d="M11.5999 5.74365H10.1997V7.14387H11.5999V5.74365Z" fill="#DBE4F2"/>
<path d="M13.0003 5.74365H11.6001V7.14387H13.0003V5.74365Z" fill="#FFFDFF"/>
<path d="M14.3997 5.74365H12.9995V7.14387H14.3997V5.74365Z" fill="#FFFDFF"/>
<path d="M15.8001 5.74365H14.3999V7.14387H15.8001V5.74365Z" fill="#FFFDFF"/>
<path d="M17.2005 5.74365H15.8003V7.14387H17.2005V5.74365Z" fill="#FFFDFF"/>
<path d="M18.5999 5.74365H17.1997V7.14387H18.5999V5.74365Z" fill="#FFFDFF"/>
<path d="M20.0003 5.74365H18.6001V7.14387H20.0003V5.74365Z" fill="#FFFDFF"/>
<path d="M21.3997 5.74365H19.9995V7.14387H21.3997V5.74365Z" fill="#FFFDFF"/>
<path d="M22.8001 5.74365H21.3999V7.14387H22.8001V5.74365Z" fill="#DBE4F2"/>
<path d="M24.2005 5.74365H22.8003V7.14387H24.2005V5.74365Z" fill="#DBE4F2"/>
<path d="M25.5999 5.74365H24.1997V7.14387H25.5999V5.74365Z" fill="#241D37"/>
<path d="M8.80012 7.14404H7.3999V8.54426H8.80012V7.14404Z" fill="#241D37"/>
<path d="M10.2005 7.14404H8.80029V8.54426H10.2005V7.14404Z" fill="#DBE4F2"/>
<path d="M11.5999 7.14404H10.1997V8.54426H11.5999V7.14404Z" fill="#FFFDFF"/>
<path d="M13.0003 7.14404H11.6001V8.54426H13.0003V7.14404Z" fill="#FFFDFF"/>
<path d="M14.3997 7.14404H12.9995V8.54426H14.3997V7.14404Z" fill="#FFFDFF"/>
<path d="M15.8001 7.14404H14.3999V8.54426H15.8001V7.14404Z" fill="#FFFDFF"/>
<path d="M17.2005 7.14404H15.8003V8.54426H17.2005V7.14404Z" fill="#FFFDFF"/>
<path d="M18.5999 7.14404H17.1997V8.54426H18.5999V7.14404Z" fill="#FFFDFF"/>
<path d="M20.0003 7.14404H18.6001V8.54426H20.0003V7.14404Z" fill="#FFFDFF"/>
<path d="M21.3997 7.14404H19.9995V8.54426H21.3997V7.14404Z" fill="#FFFDFF"/>
<path d="M22.8001 7.14404H21.3999V8.54426H22.8001V7.14404Z" fill="#FFFDFF"/>
<path d="M24.2005 7.14404H22.8003V8.54426H24.2005V7.14404Z" fill="#DBE4F2"/>
<path d="M25.5999 7.14404H24.1997V8.54426H25.5999V7.14404Z" fill="#241D37"/>
<path d="M8.80012 8.5437H7.3999V9.94392H8.80012V8.5437Z" fill="#241D37"/>
<path d="M10.2005 8.5437H8.80029V9.94392H10.2005V8.5437Z" fill="#DBE4F2"/>
<path d="M11.5999 8.5437H10.1997V9.94392H11.5999V8.5437Z" fill="#FFFDFF"/>
<path d="M13.0003 8.5437H11.6001V9.94392H13.0003V8.5437Z" fill="#FFFDFF"/>
<path d="M14.3997 8.5437H12.9995V9.94392H14.3997V8.5437Z" fill="#FFFDFF"/>
<path d="M15.8001 8.5437H14.3999V9.94392H15.8001V8.5437Z" fill="#414162"/>
<path d="M17.2005 8.5437H15.8003V9.94392H17.2005V8.5437Z" fill="#414162"/>
<path d="M18.5999 8.5437H17.1997V9.94392H18.5999V8.5437Z" fill="#414162"/>
<path d="M20.0003 8.5437H18.6001V9.94392H20.0003V8.5437Z" fill="#FFFDFF"/>
<path d="M21.3997 8.5437H19.9995V9.94392H21.3997V8.5437Z" fill="#FFFDFF"/>
<path d="M22.8001 8.5437H21.3999V9.94392H22.8001V8.5437Z" fill="#FFFDFF"/>
<path d="M24.2005 8.5437H22.8003V9.94392H24.2005V8.5437Z" fill="#DBE4F2"/>
<path d="M25.5999 8.5437H24.1997V9.94392H25.5999V8.5437Z" fill="#241D37"/>
<path d="M8.80012 9.94385H7.3999V11.3441H8.80012V9.94385Z" fill="#241D37"/>
<path d="M10.2005 9.94385H8.80029V11.3441H10.2005V9.94385Z" fill="#DBE4F2"/>
<path d="M11.5999 9.94385H10.1997V11.3441H11.5999V9.94385Z" fill="#FFFDFF"/>
<path d="M13.0003 9.94385H11.6001V11.3441H13.0003V9.94385Z" fill="#FFFDFF"/>
<path d="M14.3997 9.94385H12.9995V11.3441H14.3997V9.94385Z" fill="#FFFDFF"/>
<path d="M15.8001 9.94385H14.3999V11.3441H15.8001V9.94385Z" fill="#FFFDFF"/>
<path d="M17.2005 9.94385H15.8003V11.3441H17.2005V9.94385Z" fill="#FFFDFF"/>
<path d="M18.5999 9.94385H17.1997V11.3441H18.5999V9.94385Z" fill="#414162"/>
<path d="M20.0003 9.94385H18.6001V11.3441H20.0003V9.94385Z" fill="#FFFDFF"/>
<path d="M21.3997 9.94385H19.9995V11.3441H21.3997V9.94385Z" fill="#FFFDFF"/>
<path d="M22.8001 9.94385H21.3999V11.3441H22.8001V9.94385Z" fill="#FFFDFF"/>
<path d="M24.2005 9.94385H22.8003V11.3441H24.2005V9.94385Z" fill="#DBE4F2"/>
<path d="M25.5999 9.94385H24.1997V11.3441H25.5999V9.94385Z" fill="#241D37"/>
<path d="M8.80012 11.344H7.3999V12.7442H8.80012V11.344Z" fill="#241D37"/>
<path d="M10.2005 11.344H8.80029V12.7442H10.2005V11.344Z" fill="#DBE4F2"/>
<path d="M11.5999 11.344H10.1997V12.7442H11.5999V11.344Z" fill="#FFFDFF"/>
<path d="M13.0003 11.344H11.6001V12.7442H13.0003V11.344Z" fill="#FFFDFF"/>
<path d="M14.3997 11.344H12.9995V12.7442H14.3997V11.344Z" fill="#FFFDFF"/>
<path d="M15.8001 11.344H14.3999V12.7442H15.8001V11.344Z" fill="#FFFDFF"/>
<path d="M17.2005 11.344H15.8003V12.7442H17.2005V11.344Z" fill="#414162"/>
<path d="M18.5999 11.344H17.1997V12.7442H18.5999V11.344Z" fill="#414162"/>
<path d="M20.0003 11.344H18.6001V12.7442H20.0003V11.344Z" fill="#FFFDFF"/>
<path d="M21.3997 11.344H19.9995V12.7442H21.3997V11.344Z" fill="#FFFDFF"/>
<path d="M22.8001 11.344H21.3999V12.7442H22.8001V11.344Z" fill="#FFFDFF"/>
<path d="M24.2005 11.344H22.8003V12.7442H24.2005V11.344Z" fill="#DBE4F2"/>
<path d="M25.5999 11.344H24.1997V12.7442H25.5999V11.344Z" fill="#241D37"/>
<path d="M8.80012 12.7437H7.3999V14.1439H8.80012V12.7437Z" fill="#241D37"/>
<path d="M10.2005 12.7437H8.80029V14.1439H10.2005V12.7437Z" fill="#DBE4F2"/>
<path d="M11.5999 12.7437H10.1997V14.1439H11.5999V12.7437Z" fill="#FFFDFF"/>
<path d="M13.0003 12.7437H11.6001V14.1439H13.0003V12.7437Z" fill="#FFFDFF"/>
<path d="M14.3997 12.7437H12.9995V14.1439H14.3997V12.7437Z" fill="#FFFDFF"/>
<path d="M15.8001 12.7437H14.3999V14.1439H15.8001V12.7437Z" fill="#FFFDFF"/>
<path d="M17.2005 12.7437H15.8003V14.1439H17.2005V12.7437Z" fill="#FFFDFF"/>
<path d="M18.5999 12.7437H17.1997V14.1439H18.5999V12.7437Z" fill="#FFFDFF"/>
<path d="M20.0003 12.7437H18.6001V14.1439H20.0003V12.7437Z" fill="#FFFDFF"/>
<path d="M21.3997 12.7437H19.9995V14.1439H21.3997V12.7437Z" fill="#FFFDFF"/>
<path d="M22.8001 12.7437H21.3999V14.1439H22.8001V12.7437Z" fill="#FFFDFF"/>
<path d="M24.2005 12.7437H22.8003V14.1439H24.2005V12.7437Z" fill="#DBE4F2"/>
<path d="M25.5999 12.7437H24.1997V14.1439H25.5999V12.7437Z" fill="#241D37"/>
<path d="M8.80012 14.144H7.3999V15.5443H8.80012V14.144Z" fill="#241D37"/>
<path d="M10.2005 14.144H8.80029V15.5443H10.2005V14.144Z" fill="#DBE4F2"/>
<path d="M11.5999 14.144H10.1997V15.5443H11.5999V14.144Z" fill="#FFFDFF"/>
<path d="M13.0003 14.144H11.6001V15.5443H13.0003V14.144Z" fill="#FFFDFF"/>
<path d="M14.3997 14.144H12.9995V15.5443H14.3997V14.144Z" fill="#FFFDFF"/>
<path d="M15.8001 14.144H14.3999V15.5443H15.8001V14.144Z" fill="#FFFDFF"/>
<path d="M17.2005 14.144H15.8003V15.5443H17.2005V14.144Z" fill="#414162"/>
<path d="M18.5999 14.144H17.1997V15.5443H18.5999V14.144Z" fill="#FFFDFF"/>
<path d="M20.0003 14.144H18.6001V15.5443H20.0003V14.144Z" fill="#FFFDFF"/>
<path d="M21.3997 14.144H19.9995V15.5443H21.3997V14.144Z" fill="#FFFDFF"/>
<path d="M22.8001 14.144H21.3999V15.5443H22.8001V14.144Z" fill="#FFFDFF"/>
<path d="M24.2005 14.144H22.8003V15.5443H24.2005V14.144Z" fill="#DBE4F2"/>
<path d="M25.5999 14.144H24.1997V15.5443H25.5999V14.144Z" fill="#241D37"/>
<path d="M8.80012 15.5437H7.3999V16.9439H8.80012V15.5437Z" fill="#241D37"/>
<path d="M10.2005 15.5437H8.80029V16.9439H10.2005V15.5437Z" fill="#DBE4F2"/>
<path d="M11.5999 15.5437H10.1997V16.9439H11.5999V15.5437Z" fill="#FFFDFF"/>
<path d="M13.0003 15.5437H11.6001V16.9439H13.0003V15.5437Z" fill="#FFFDFF"/>
<path d="M14.3997 15.5437H12.9995V16.9439H14.3997V15.5437Z" fill="#FFFDFF"/>
<path d="M15.8001 15.5437H14.3999V16.9439H15.8001V15.5437Z" fill="#FFFDFF"/>
<path d="M17.2005 15.5437H15.8003V16.9439H17.2005V15.5437Z" fill="#FFFDFF"/>
<path d="M18.5999 15.5437H17.1997V16.9439H18.5999V15.5437Z" fill="#FFFDFF"/>
<path d="M20.0003 15.5437H18.6001V16.9439H20.0003V15.5437Z" fill="#FFFDFF"/>
<path d="M21.3997 15.5437H19.9995V16.9439H21.3997V15.5437Z" fill="#FFFDFF"/>
<path d="M22.8001 15.5437H21.3999V16.9439H22.8001V15.5437Z" fill="#FFFDFF"/>
<path d="M24.2005 15.5437H22.8003V16.9439H24.2005V15.5437Z" fill="#DBE4F2"/>
<path d="M25.5999 15.5437H24.1997V16.9439H25.5999V15.5437Z" fill="#241D37"/>
<path d="M8.80012 16.9438H7.3999V18.3441H8.80012V16.9438Z" fill="#241D37"/>
<path d="M10.2005 16.9438H8.80029V18.3441H10.2005V16.9438Z" fill="#DBE4F2"/>
<path d="M11.5999 16.9438H10.1997V18.3441H11.5999V16.9438Z" fill="#DBE4F2"/>
<path d="M13.0003 16.9438H11.6001V18.3441H13.0003V16.9438Z" fill="#FFFDFF"/>
<path d="M14.3997 16.9438H12.9995V18.3441H14.3997V16.9438Z" fill="#FFFDFF"/>
<path d="M15.8001 16.9438H14.3999V18.3441H15.8001V16.9438Z" fill="#FFFDFF"/>
<path d="M17.2005 16.9438H15.8003V18.3441H17.2005V16.9438Z" fill="#FFFDFF"/>
<path d="M18.5999 16.9438H17.1997V18.3441H18.5999V16.9438Z" fill="#FFFDFF"/>
<path d="M20.0003 16.9438H18.6001V18.3441H20.0003V16.9438Z" fill="#FFFDFF"/>
<path d="M21.3997 16.9438H19.9995V18.3441H21.3997V16.9438Z" fill="#FFFDFF"/>
<path d="M22.8001 16.9438H21.3999V18.3441H22.8001V16.9438Z" fill="#DBE4F2"/>
<path d="M24.2005 16.9438H22.8003V18.3441H24.2005V16.9438Z" fill="#DBE4F2"/>
<path d="M25.5999 16.9438H24.1997V18.3441H25.5999V16.9438Z" fill="#241D37"/>
<path d="M8.80012 18.344H7.3999V19.7442H8.80012V18.344Z" fill="#241D37"/>
<path d="M10.2005 18.344H8.80029V19.7442H10.2005V18.344Z" fill="#9FA8CA"/>
<path d="M11.5999 18.344H10.1997V19.7442H11.5999V18.344Z" fill="#DBE4F2"/>
<path d="M13.0003 18.344H11.6001V19.7442H13.0003V18.344Z" fill="#DBE4F2"/>
<path d="M14.3997 18.344H12.9995V19.7442H14.3997V18.344Z" fill="#FFFDFF"/>
<path d="M15.8001 18.344H14.3999V19.7442H15.8001V18.344Z" fill="#FFFDFF"/>
<path d="M17.2005 18.344H15.8003V19.7442H17.2005V18.344Z" fill="#FFFDFF"/>
<path d="M18.5999 18.344H17.1997V19.7442H18.5999V18.344Z" fill="#FFFDFF"/>
<path d="M20.0003 18.344H18.6001V19.7442H20.0003V18.344Z" fill="#FFFDFF"/>
<path d="M21.3997 18.344H19.9995V19.7442H21.3997V18.344Z" fill="#FFFDFF"/>
<path d="M22.8001 18.344H21.3999V19.7442H22.8001V18.344Z" fill="#DBE4F2"/>
<path d="M24.2005 18.344H22.8003V19.7442H24.2005V18.344Z" fill="#9FA8CA"/>
<path d="M25.5999 18.344H24.1997V19.7442H25.5999V18.344Z" fill="#241D37"/>
<path d="M8.80012 19.7437H7.3999V21.1439H8.80012V19.7437Z" fill="#241D37"/>
<path d="M10.2005 19.7437H8.80029V21.1439H10.2005V19.7437Z" fill="#9FA8CA"/>
<path d="M11.5999 19.7437H10.1997V21.1439H11.5999V19.7437Z" fill="#9FA8CA"/>
<path d="M13.0003 19.7437H11.6001V21.1439H13.0003V19.7437Z" fill="#9FA8CA"/>
<path d="M14.3997 19.7437H12.9995V21.1439H14.3997V19.7437Z" fill="#9FA8CA"/>
<path d="M15.8001 19.7437H14.3999V21.1439H15.8001V19.7437Z" fill="#FFFDFF"/>
<path d="M17.2005 19.7437H15.8003V21.1439H17.2005V19.7437Z" fill="#FFFDFF"/>
<path d="M18.5999 19.7437H17.1997V21.1439H18.5999V19.7437Z" fill="#FFFDFF"/>
<path d="M20.0003 19.7437H18.6001V21.1439H20.0003V19.7437Z" fill="#FFFDFF"/>
<path d="M21.3997 19.7437H19.9995V21.1439H21.3997V19.7437Z" fill="#FFFDFF"/>
<path d="M22.8001 19.7437H21.3999V21.1439H22.8001V19.7437Z" fill="#9FA8CA"/>
<path d="M24.2005 19.7437H22.8003V21.1439H24.2005V19.7437Z" fill="#9FA8CA"/>
<path d="M25.5999 19.7437H24.1997V21.1439H25.5999V19.7437Z" fill="#241D37"/>
<path d="M10.2005 21.144H8.80029V22.5443H10.2005V21.144Z" fill="#241D37"/>
<path d="M11.5999 21.144H10.1997V22.5443H11.5999V21.144Z" fill="#9FA8CA"/>
<path d="M13.0003 21.144H11.6001V22.5443H13.0003V21.144Z" fill="#9FA8CA"/>
<path d="M14.3997 21.144H12.9995V22.5443H14.3997V21.144Z" fill="#9FA8CA"/>
<path d="M15.8001 21.144H14.3999V22.5443H15.8001V21.144Z" fill="#9FA8CA"/>
<path d="M17.2005 21.144H15.8003V22.5443H17.2005V21.144Z" fill="#FFFDFF"/>
<path d="M18.5999 21.144H17.1997V22.5443H18.5999V21.144Z" fill="#FFFDFF"/>
<path d="M20.0003 21.144H18.6001V22.5443H20.0003V21.144Z" fill="#FFFDFF"/>
<path d="M21.3997 21.144H19.9995V22.5443H21.3997V21.144Z" fill="#FFFDFF"/>
<path d="M22.8001 21.144H21.3999V22.5443H22.8001V21.144Z" fill="#9FA8CA"/>
<path d="M24.2005 21.144H22.8003V22.5443H24.2005V21.144Z" fill="#241D37"/>
<path d="M11.5999 22.5437H10.1997V23.9439H11.5999V22.5437Z" fill="#241D37"/>
<path d="M13.0003 22.5437H11.6001V23.9439H13.0003V22.5437Z" fill="#241D37"/>
<path d="M14.3997 22.5437H12.9995V23.9439H14.3997V22.5437Z" fill="#241D37"/>
<path d="M15.8001 22.5437H14.3999V23.9439H15.8001V22.5437Z" fill="#9FA8CA"/>
<path d="M17.2005 22.5437H15.8003V23.9439H17.2005V22.5437Z" fill="#9FA8CA"/>
<path d="M18.5999 22.5437H17.1997V23.9439H18.5999V22.5437Z" fill="#FFFDFF"/>
<path d="M20.0003 22.5437H18.6001V23.9439H20.0003V22.5437Z" fill="#FFFDFF"/>
<path d="M21.3997 22.5437H19.9995V23.9439H21.3997V22.5437Z" fill="#FFFDFF"/>
<path d="M22.8001 22.5437H21.3999V23.9439H22.8001V22.5437Z" fill="#241D37"/>
<path d="M15.8001 23.9438H14.3999V25.3441H15.8001V23.9438Z" fill="#241D37"/>
<path d="M17.2005 23.9438H15.8003V25.3441H17.2005V23.9438Z" fill="#9FA8CA"/>
<path d="M18.5999 23.9438H17.1997V25.3441H18.5999V23.9438Z" fill="#9FA8CA"/>
<path d="M20.0003 23.9438H18.6001V25.3441H20.0003V23.9438Z" fill="#FFFDFF"/>
<path d="M21.3997 23.9438H19.9995V25.3441H21.3997V23.9438Z" fill="#FFFDFF"/>
<path d="M22.8001 23.9438H21.3999V25.3441H22.8001V23.9438Z" fill="#241D37"/>
<path d="M17.2005 25.344H15.8003V26.7442H17.2005V25.344Z" fill="#241D37"/>
<path d="M18.5999 25.344H17.1997V26.7442H18.5999V25.344Z" fill="#9FA8CA"/>
<path d="M20.0003 25.344H18.6001V26.7442H20.0003V25.344Z" fill="#9FA8CA"/>
<path d="M21.3997 25.344H19.9995V26.7442H21.3997V25.344Z" fill="#FFFDFF"/>
<path d="M22.8001 25.344H21.3999V26.7442H22.8001V25.344Z" fill="#241D37"/>
<path d="M18.5999 26.7437H17.1997V28.1439H18.5999V26.7437Z" fill="#241D37"/>
<path d="M20.0003 26.7437H18.6001V28.1439H20.0003V26.7437Z" fill="#9FA8CA"/>
<path d="M21.3997 26.7437H19.9995V28.1439H21.3997V26.7437Z" fill="#9FA8CA"/>
<path d="M22.8001 26.7437H21.3999V28.1439H22.8001V26.7437Z" fill="#241D37"/>
<path d="M20.0003 28.144H18.6001V29.5443H20.0003V28.144Z" fill="#241D37"/>
<path d="M21.3997 28.144H19.9995V29.5443H21.3997V28.144Z" fill="#9FA8CA"/>
<path d="M22.8001 28.144H21.3999V29.5443H22.8001V28.144Z" fill="#241D37"/>
<path d="M21.3997 29.5437H19.9995V30.9439H21.3997V29.5437Z" fill="#241D37"/>
<path d="M22.8001 29.5437H21.3999V30.9439H22.8001V29.5437Z" fill="#241D37"/>
</g>
<defs>
<clipPath id="clip0_13297_12418">
<rect width="18.2001" height="28" fill="white" transform="translate(7.3999 2.94385)"/>
</clipPath>
</defs>
</svg>
