<svg width="33" height="33" viewBox="0 0 33 33" fill="none" xmlns="http://www.w3.org/2000/svg">
<g clip-path="url(#clip0_13297_11052)">
<path d="M4.62695 9.90667V8.49927H3.23013V9.90667H4.62695Z" fill="#07042D"/>
<path d="M4.62695 15.5363V14.1289H3.23013V15.5363H4.62695Z" fill="#07042D"/>
<path d="M3.23032 9.90674H1.8335V14.129H3.23032V9.90674Z" fill="#07042D"/>
<path d="M7.4206 7.09204H4.62695V8.49945H7.4206V7.09204Z" fill="#07042D"/>
<path d="M7.4206 9.90674H4.62695V11.3141H7.4206V9.90674Z" fill="#07042D"/>
<path d="M7.4206 12.7217H4.62695V14.1291H7.4206V12.7217Z" fill="#07042D"/>
<path d="M6.02378 11.3142H4.62695V14.129H6.02378V11.3142Z" fill="#07042D"/>
<path d="M7.4206 8.49927H4.62695V9.90667H7.4206V8.49927Z" fill="#FFD91D"/>
<path d="M8.81743 14.1289H4.62695V15.5363H8.81743V14.1289Z" fill="#FFD91D"/>
<path d="M3.23047 9.90668L3.23047 14.1289H4.62729V9.90668H3.23047Z" fill="#FFD91D"/>
<path d="M22.7856 5.68458V11.3142H24.1825V5.68458H22.7856Z" fill="#FFD91D"/>
<path d="M8.81743 15.5364H4.62695V16.9438H8.81743V15.5364Z" fill="#07042D"/>
<path d="M29.77 9.90668V8.49927H28.3732V9.90668H29.77Z" fill="#07042D"/>
<path d="M29.77 15.5363V14.1289H28.3732V15.5363H29.77Z" fill="#07042D"/>
<path d="M31.1668 9.90649H29.77V14.1287H31.1668V9.90649Z" fill="#07042D"/>
<path d="M25.5794 8.49927H28.373V7.09186H25.5794V8.49927Z" fill="#07042D"/>
<path d="M28.3732 9.90649H25.5796V11.3139H28.3732V9.90649Z" fill="#07042D"/>
<path d="M28.3732 12.7214H25.5796V14.1288H28.3732V12.7214Z" fill="#07042D"/>
<path d="M28.3729 11.314H26.9761V14.1288H28.3729V11.314Z" fill="#07042D"/>
<path d="M25.5794 9.90649H28.373V8.49909H25.5794V9.90649Z" fill="#FFD91D"/>
<path d="M24.1826 15.5361H28.373V14.1287H24.1826V15.5361Z" fill="#FFD91D"/>
<path d="M28.373 9.90668V14.1289H29.7699V9.90668H28.373Z" fill="#FFD91D"/>
<path d="M24.1826 16.9436H28.373V15.5362H24.1826V16.9436Z" fill="#07042D"/>
<path d="M14.4048 21.166V19.7585H11.6111V21.166H14.4048Z" fill="#07042D"/>
<path d="M11.6113 19.7585V18.3511H10.2145V19.7585H11.6113Z" fill="#07042D"/>
<path d="M10.2144 18.3511V14.1289H8.81753V18.3511H10.2144Z" fill="#07042D"/>
<path d="M8.81738 14.129V5.68457H7.42056V14.129H8.81738Z" fill="#07042D"/>
<path d="M14.4048 26.7956V25.3882H10.2143V26.7956H14.4048Z" fill="#07042D"/>
<path d="M22.7856 26.7956V25.3882H18.5952V26.7956H22.7856Z" fill="#07042D"/>
<path d="M8.81738 5.68446V14.1289H10.2142V5.68446H8.81738Z" fill="#FFD91D"/>
<path d="M10.2144 5.68441V18.3511H11.6112V5.68441H10.2144Z" fill="#FFD91D"/>
<path d="M11.6113 5.68447V19.7585H13.0082V5.68447H11.6113Z" fill="#FFD91D"/>
<path d="M10.2144 8.49921V12.7214H11.6112V8.49921H10.2144Z" fill="#FBFBFB"/>
<path d="M13.0083 5.68447V19.7585H14.4051V5.68447H13.0083Z" fill="#FFD91D"/>
<path d="M14.4048 5.68454L14.4048 21.166H15.8016V5.68454H14.4048Z" fill="#FFD91D"/>
<path d="M15.8018 5.68447V19.7585H17.1986V5.68447H15.8018Z" fill="#FFD91D"/>
<path d="M14.4048 25.3883V28.2031H15.8016V25.3883H14.4048Z" fill="#FFD91D"/>
<path d="M15.8018 25.3883V28.2031H17.1986V25.3883H15.8018Z" fill="#FFD91D"/>
<path d="M14.4051 26.7957H13.0083V28.2031H14.4051V26.7957Z" fill="#FFD91D"/>
<path d="M11.6112 26.7957H10.2144V28.2031H11.6112V26.7957Z" fill="#FFFFC9"/>
<path d="M22.7857 26.7957H18.5952V28.2031H22.7857V26.7957Z" fill="#E8B714"/>
<path d="M14.4048 26.7957H10.2144V28.2031H14.4048V26.7957Z" fill="#E8B714"/>
<path d="M17.1987 25.3882V26.7957H18.5956V25.3882H17.1987Z" fill="#E8B714"/>
<path d="M14.4048 25.3882V26.7957H15.8016V25.3882H14.4048Z" fill="#E8B714"/>
<path d="M17.1987 26.7957V28.2031H18.5956V26.7957H17.1987Z" fill="#FFD91D"/>
<path d="M17.1986 19.7585H15.8018V25.3882H17.1986V19.7585Z" fill="#E8B714"/>
<path d="M17.1987 5.68441V18.3511H18.5956V5.68441H17.1987Z" fill="#FFD91D"/>
<path d="M18.5952 5.68459V16.9438H19.992V5.68459H18.5952Z" fill="#FFD91D"/>
<path d="M19.9922 15.5363V19.7585H21.389V15.5363H19.9922Z" fill="#E8B714"/>
<path d="M18.5952 16.9437V19.7585H19.992V16.9437H18.5952Z" fill="#E8B714"/>
<path d="M17.1987 18.3512V21.166H18.5956V18.3512H17.1987Z" fill="#E8B714"/>
<path d="M19.9922 5.68452V15.5364H21.389V5.68452H19.9922Z" fill="#FFD91D"/>
<path d="M21.3892 12.7214V18.3511H22.786V12.7214H21.3892Z" fill="#E8B714"/>
<path d="M21.3892 5.6844V12.7214H22.786V5.6844H21.3892Z" fill="#FFD91D"/>
<path d="M22.7856 11.3141V14.1289H24.1825V11.3141H22.7856Z" fill="#E8B714"/>
<path d="M11.6113 15.5363V19.7585H13.0082V15.5363H11.6113Z" fill="#E8B714"/>
<path d="M13.0083 16.9437V19.7585H14.4051V16.9437H13.0083Z" fill="#E8B714"/>
<path d="M14.4048 18.3512V21.166H15.8016V18.3512H14.4048Z" fill="#E8B714"/>
<path d="M10.2144 12.7214V18.3511H11.6112V12.7214H10.2144Z" fill="#E8B714"/>
<path d="M8.81738 11.3141V14.1289H10.2142V11.3141H8.81738Z" fill="#E8B714"/>
<path d="M21.3892 21.166V19.7585H18.5955V21.166H21.3892Z" fill="#07042D"/>
<path d="M22.7856 19.7585V18.3511H21.3888V19.7585H22.7856Z" fill="#07042D"/>
<path d="M24.1825 14.1289H22.7856V18.3511H24.1825V14.1289Z" fill="#07042D"/>
<path d="M24.1826 5.68446V14.1289H25.5794V5.68446H24.1826Z" fill="#07042D"/>
<path d="M24.1825 28.2031H8.81738V29.6105H24.1825V28.2031Z" fill="#07042D"/>
<path d="M8.81738 4.27716V5.68457L24.1825 5.68457V4.27716L8.81738 4.27716Z" fill="#07042D"/>
<path d="M8.81738 26.7957V28.2031H10.2142V26.7957H8.81738Z" fill="#07042D"/>
<path d="M22.7856 26.7957V28.2031H24.1825V26.7957H22.7856Z" fill="#07042D"/>
<path d="M14.4048 21.166V25.3882H15.8016V21.166H14.4048Z" fill="#07042D"/>
<path d="M17.1987 21.166V25.3882H18.5956V21.166H17.1987Z" fill="#07042D"/>
<path d="M11.6113 12.7216V15.5364H13.0082V12.7216H11.6113Z" fill="#FBFBFB"/>
<path d="M13.0083 15.5364V16.9438H14.4051V15.5364H13.0083Z" fill="#FBFBFB"/>
<path d="M10.2143 7.0918L17.1602 7.0918V5.68439L10.2143 5.68439V7.0918Z" fill="#FBFBFB"/>
</g>
<defs>
<clipPath id="clip0_13297_11052">
<rect width="29.3333" height="25.3333" fill="white" transform="translate(1.8335 4.2771)"/>
</clipPath>
</defs>
</svg>
