<svg width="33" height="33" viewBox="0 0 33 33" fill="none" xmlns="http://www.w3.org/2000/svg">
<g clip-path="url(#clip0_13297_11791)">
<path d="M29.5271 25.0928H28.562V26.3466H29.5271V25.0928Z" fill="#231F20"/>
<path d="M8.29807 25.0928H7.33301V26.3466H8.29807V25.0928Z" fill="#231F20"/>
<path d="M6.36822 25.0928H5.40283V26.3466H6.36822V25.0928Z" fill="#231F20"/>
<path d="M5.40274 25.0928H4.43799V26.3466H5.40274V25.0928Z" fill="#231F20"/>
<path d="M4.43821 23.8391H3.47314V25.0929H4.43821V23.8391Z" fill="#231F20"/>
<path d="M30.4921 23.8391H29.5273V25.0929H30.4921V23.8391Z" fill="#231F20"/>
<path d="M30.4921 22.5857H29.5273V23.8391H30.4921V22.5857Z" fill="#231F20"/>
<path d="M30.4921 21.3318H29.5273V22.5856H30.4921V21.3318Z" fill="#231F20"/>
<path d="M30.4921 20.0779H29.5273V21.3317H30.4921V20.0779Z" fill="#231F20"/>
<path d="M30.4921 18.824H29.5273V20.0778H30.4921V18.824Z" fill="#231F20"/>
<path d="M30.4921 17.5708H29.5273V18.8242H30.4921V17.5708Z" fill="#231F20"/>
<path d="M30.4921 16.3169H29.5273V17.5707H30.4921V16.3169Z" fill="#231F20"/>
<path d="M30.4921 15.063H29.5273V16.3168H30.4921V15.063Z" fill="#231F20"/>
<path d="M30.4921 13.8096H29.5273V15.063H30.4921V13.8096Z" fill="#231F20"/>
<path d="M30.4921 12.5557H29.5273V13.8095H30.4921V12.5557Z" fill="#231F20"/>
<path d="M30.4921 11.302H29.5273V12.5558H30.4921V11.302Z" fill="#231F20"/>
<path d="M30.4921 10.0486H29.5273V11.302H30.4921V10.0486Z" fill="#231F20"/>
<path d="M30.4921 8.79468H29.5273V10.0485H30.4921V8.79468Z" fill="#231F20"/>
<path d="M29.5271 7.54077H28.562V8.7946H29.5271V7.54077Z" fill="#231F20"/>
<path d="M28.5622 26.3467H27.5972V27.6001H28.5622V26.3467Z" fill="#231F20"/>
<path d="M27.5971 26.3467H26.6323V27.6001H27.5971V26.3467Z" fill="#231F20"/>
<path d="M26.6325 26.3467H25.6675V27.6001H26.6325V26.3467Z" fill="#231F20"/>
<path d="M25.6672 26.3467H24.7021V27.6001H25.6672V26.3467Z" fill="#231F20"/>
<path d="M24.702 26.3467H23.7373V27.6001H24.702V26.3467Z" fill="#231F20"/>
<path d="M23.7375 26.3467H22.7725V27.6001H23.7375V26.3467Z" fill="#231F20"/>
<path d="M22.7727 26.3467H21.8076V27.6001H22.7727V26.3467Z" fill="#231F20"/>
<path d="M21.8074 26.3467H20.8423V27.6001H21.8074V26.3467Z" fill="#231F20"/>
<path d="M20.8422 26.3467H19.8774V27.6001H20.8422V26.3467Z" fill="#231F20"/>
<path d="M19.8777 26.3467H18.9126V27.6001H19.8777V26.3467Z" fill="#231F20"/>
<path d="M18.9123 26.3467H17.9473V27.6001H18.9123V26.3467Z" fill="#231F20"/>
<path d="M17.9477 26.3467H16.9829V27.6001H17.9477V26.3467Z" fill="#231F20"/>
<path d="M16.9826 26.3467H16.0176V27.6001H16.9826V26.3467Z" fill="#231F20"/>
<path d="M16.0178 26.3467H15.0527V27.6001H16.0178V26.3467Z" fill="#231F20"/>
<path d="M15.0526 26.3467H14.0879V27.6001H15.0526V26.3467Z" fill="#231F20"/>
<path d="M14.0876 26.3467H13.1226V27.6001H14.0876V26.3467Z" fill="#231F20"/>
<path d="M13.1228 26.3467H12.1577V27.6001H13.1228V26.3467Z" fill="#231F20"/>
<path d="M12.1576 26.3467H11.1929V27.6001H12.1576V26.3467Z" fill="#231F20"/>
<path d="M11.1931 26.3467H10.228V27.6001H11.1931V26.3467Z" fill="#231F20"/>
<path d="M10.2278 26.3467H9.2627V27.6001H10.2278V26.3467Z" fill="#231F20"/>
<path d="M9.2626 26.3467H8.29785V27.6001H9.2626V26.3467Z" fill="#231F20"/>
<path d="M5.40274 7.54077H4.43799V8.7946H5.40274V7.54077Z" fill="#231F20"/>
<path d="M4.43821 10.0486H3.47314V11.302H4.43821V10.0486Z" fill="#231F20"/>
<path d="M4.43821 8.79468H3.47314V10.0485H4.43821V8.79468Z" fill="#231F20"/>
<path d="M3.47288 22.5857H2.50781V23.8391H3.47288V22.5857Z" fill="#231F20"/>
<path d="M3.47288 21.3318H2.50781V22.5856H3.47288V21.3318Z" fill="#231F20"/>
<path d="M3.47288 20.0779H2.50781V21.3317H3.47288V20.0779Z" fill="#231F20"/>
<path d="M3.47288 18.8245H2.50781V20.0779H3.47288V18.8245Z" fill="#231F20"/>
<path d="M3.47288 17.5708H2.50781V18.8246H3.47288V17.5708Z" fill="#231F20"/>
<path d="M3.47288 16.3169H2.50781V17.5707H3.47288V16.3169Z" fill="#231F20"/>
<path d="M3.47288 15.063H2.50781V16.3168H3.47288V15.063Z" fill="#231F20"/>
<path d="M3.47288 13.8096H2.50781V15.063H3.47288V13.8096Z" fill="#231F20"/>
<path d="M3.47288 12.5557H2.50781V13.8095H3.47288V12.5557Z" fill="#231F20"/>
<path d="M3.47288 11.302H2.50781V12.5558H3.47288V11.302Z" fill="#231F20"/>
<path d="M28.5622 6.28735H27.5972V7.54077H28.5622V6.28735Z" fill="#231F20"/>
<path d="M27.5971 6.28735H26.6323V7.54077H27.5971V6.28735Z" fill="#231F20"/>
<path d="M26.6325 6.28735H25.6675V7.54077H26.6325V6.28735Z" fill="#231F20"/>
<path d="M25.6672 6.28735H24.7021V7.54077H25.6672V6.28735Z" fill="#231F20"/>
<path d="M24.702 6.28735H23.7373V7.54077H24.702V6.28735Z" fill="#231F20"/>
<path d="M23.7375 6.28735H22.7725V7.54077H23.7375V6.28735Z" fill="#231F20"/>
<path d="M22.7727 6.28735H21.8076V7.54077H22.7727V6.28735Z" fill="#231F20"/>
<path d="M21.8074 6.28735H20.8423V7.54077H21.8074V6.28735Z" fill="#231F20"/>
<path d="M20.8422 6.28735H19.8774V7.54077H20.8422V6.28735Z" fill="#231F20"/>
<path d="M19.8777 6.28735H18.9126V7.54077H19.8777V6.28735Z" fill="#231F20"/>
<path d="M18.9123 6.28735H17.9473V7.54077H18.9123V6.28735Z" fill="#231F20"/>
<path d="M17.9477 6.28735H16.9829V7.54077H17.9477V6.28735Z" fill="#231F20"/>
<path d="M16.9826 6.28735H16.0176V7.54077H16.9826V6.28735Z" fill="#231F20"/>
<path d="M16.0178 6.28735H15.0527V7.54077H16.0178V6.28735Z" fill="#231F20"/>
<path d="M15.0526 6.28735H14.0879V7.54077H15.0526V6.28735Z" fill="#231F20"/>
<path d="M14.0876 6.28735H13.1226V7.54077H14.0876V6.28735Z" fill="#231F20"/>
<path d="M13.1228 6.28735H12.1577V7.54077H13.1228V6.28735Z" fill="#231F20"/>
<path d="M12.1576 6.28735H11.1929V7.54077H12.1576V6.28735Z" fill="#231F20"/>
<path d="M11.1931 6.28735H10.228V7.54077H11.1931V6.28735Z" fill="#231F20"/>
<path d="M10.2278 6.28735H9.2627V7.54077H10.2278V6.28735Z" fill="#231F20"/>
<path d="M9.2626 6.28735H8.29785V7.54077H9.2626V6.28735Z" fill="#231F20"/>
<path d="M8.29807 6.28735H7.33301V7.54077H8.29807V6.28735Z" fill="#231F20"/>
<path d="M7.33291 6.28735H6.36816V7.54077H7.33291V6.28735Z" fill="#231F20"/>
<path d="M6.36822 6.28735H5.40283V7.54077H6.36822V6.28735Z" fill="#231F20"/>
<path d="M29.5271 23.8391H28.562V25.0929H29.5271V23.8391Z" fill="#BCBCBC"/>
<path d="M29.5271 22.5857H28.562V23.8391H29.5271V22.5857Z" fill="#BCBCBC"/>
<path d="M29.5271 21.3318H28.562V22.5856H29.5271V21.3318Z" fill="#BCBCBC"/>
<path d="M29.5271 20.0779H28.562V21.3317H29.5271V20.0779Z" fill="#BCBCBC"/>
<path d="M29.5271 18.824V20.0778H28.562V18.8244L29.5271 18.824Z" fill="#D8D7D2"/>
<path d="M29.5271 17.5708V18.8242L28.562 18.8246V17.5708H29.5271Z" fill="#D8D7D2"/>
<path d="M29.5271 16.3169H28.562V17.5707H29.5271V16.3169Z" fill="#D8D7D2"/>
<path d="M29.5271 15.063H28.562V16.3168H29.5271V15.063Z" fill="#D8D7D2"/>
<path d="M29.5271 13.8096H28.562V15.063H29.5271V13.8096Z" fill="#D8D7D2"/>
<path d="M29.5271 12.5557H28.562V13.8095H29.5271V12.5557Z" fill="#D8D7D2"/>
<path d="M29.5271 11.302H28.562V12.5558H29.5271V11.302Z" fill="#D8D7D2"/>
<path d="M29.5271 10.0486H28.562V11.302H29.5271V10.0486Z" fill="#D8D7D2"/>
<path d="M29.5271 8.79468H28.562V10.0485H29.5271V8.79468Z" fill="#EDEDED"/>
<path d="M28.5622 25.0928H27.5972V26.3466H28.5622V25.0928Z" fill="#BCBCBC"/>
<path d="M28.5622 23.8391H27.5972V25.0929H28.5622V23.8391Z" fill="#BCBCBC"/>
<path d="M28.5622 22.5857H27.5972V23.8391H28.5622V22.5857Z" fill="#757575"/>
<path d="M28.5622 21.3318H27.5972V22.5856H28.5622V21.3318Z" fill="#BCBCBC"/>
<path d="M28.5622 20.0779H27.5972V21.3317H28.5622V20.0779Z" fill="#757575"/>
<path d="M28.5622 18.8245H27.5972V20.0779H28.5622V18.8245Z" fill="#D8D7D2"/>
<path d="M28.5622 17.5708H27.5972V18.8246H28.5622V17.5708Z" fill="#8E8E8D"/>
<path d="M28.5622 16.3169H27.5972V17.5707H28.5622V16.3169Z" fill="#D8D7D2"/>
<path d="M28.5622 15.063H27.5972V16.3168H28.5622V15.063Z" fill="#8E8E8D"/>
<path d="M28.5622 13.8096H27.5972V15.063H28.5622V13.8096Z" fill="#D8D7D2"/>
<path d="M28.5622 12.5557H27.5972V13.8095H28.5622V12.5557Z" fill="#D8D7D2"/>
<path d="M28.5622 11.302V12.5558H27.5972V12.4608H27.7919H28.3327V11.7582H27.7919H27.5972V11.302H28.5622Z" fill="#D8D7D2"/>
<path d="M28.5622 10.0486V11.302H27.5972V11.0552H27.7919H28.3327V10.3522H27.7919H27.5972V10.0486H28.5622Z" fill="#D8D7D2"/>
<path d="M28.5622 8.79468H27.5972V10.0485H28.5622V8.79468Z" fill="#EDEDED"/>
<path d="M28.5622 7.54077H27.5972V8.7946H28.5622V7.54077Z" fill="#EDEDED"/>
<path d="M28.3328 11.7583H27.792V12.4609H28.3328V11.7583Z" fill="#8E8E8D"/>
<path d="M28.3328 10.3521H27.792V11.0551H28.3328V10.3521Z" fill="#8E8E8D"/>
<path d="M27.7919 11.7583H27.5972V12.4609H27.7919V11.7583Z" fill="#8E8E8D"/>
<path d="M27.7919 10.3521H27.5972V11.0551H27.7919V10.3521Z" fill="#8E8E8D"/>
<path d="M27.5971 25.0928H26.6323V26.3466H27.5971V25.0928Z" fill="#BCBCBC"/>
<path d="M27.5971 23.8391H26.6323V25.0929H27.5971V23.8391Z" fill="#BCBCBC"/>
<path d="M27.5971 22.5857H26.6323V23.8391H27.5971V22.5857Z" fill="#757575"/>
<path d="M27.5971 21.3318H26.6323V22.5856H27.5971V21.3318Z" fill="#BCBCBC"/>
<path d="M27.5971 20.0779H26.6323V21.3317H27.5971V20.0779Z" fill="#757575"/>
<path d="M27.5971 18.8245H26.6323V20.0779H27.5971V18.8245Z" fill="#D8D7D2"/>
<path d="M27.5971 17.5708H26.6323V18.8246H27.5971V17.5708Z" fill="#8E8E8D"/>
<path d="M27.5971 16.3169H26.6323V17.5707H27.5971V16.3169Z" fill="#D8D7D2"/>
<path d="M27.5971 15.063H26.6323V16.3168H27.5971V15.063Z" fill="#8E8E8D"/>
<path d="M27.5971 13.8096H26.6323V15.063H27.5971V13.8096Z" fill="#D8D7D2"/>
<path d="M27.5971 12.5557H26.6323V13.8095H27.5971V12.5557Z" fill="#D8D7D2"/>
<path d="M27.5971 12.4607V12.5557H26.6323V12.4607H26.7099H27.2507H27.5971Z" fill="#D8D7D2"/>
<path d="M27.5974 11.7583H27.251V12.4609H27.5974V11.7583Z" fill="#8E8E8D"/>
<path d="M27.5971 11.302V11.7582H27.2507H26.7099H26.6323V11.302H27.5971Z" fill="#D8D7D2"/>
<path d="M27.5971 11.0552V11.302H26.6323V11.0552H26.7099H27.2507H27.5971Z" fill="#D8D7D2"/>
<path d="M27.5974 10.3521H27.251V11.0551H27.5974V10.3521Z" fill="#8E8E8D"/>
<path d="M27.5971 10.0486V10.3522H27.2507H26.7099H26.6323V10.0486H27.5971Z" fill="#D8D7D2"/>
<path d="M27.5971 8.79468H26.6323V10.0485H27.5971V8.79468Z" fill="#EDEDED"/>
<path d="M27.5971 7.54077H26.6323V8.7946H27.5971V7.54077Z" fill="#EDEDED"/>
<path d="M27.2508 11.7583H26.71V12.4609H27.2508V11.7583Z" fill="#8E8E8D"/>
<path d="M27.2508 10.3521H26.71V11.0551H27.2508V10.3521Z" fill="#8E8E8D"/>
<path d="M26.7099 11.7583H26.6323V12.4609H26.7099V11.7583Z" fill="#8E8E8D"/>
<path d="M26.7099 10.3521H26.6323V11.0551H26.7099V10.3521Z" fill="#8E8E8D"/>
<path d="M26.6325 25.0928H25.6675V26.3466H26.6325V25.0928Z" fill="#BCBCBC"/>
<path d="M26.6325 23.8391H25.6675V25.0929H26.6325V23.8391Z" fill="#BCBCBC"/>
<path d="M26.6325 22.5857H25.6675V23.8391H26.6325V22.5857Z" fill="#757575"/>
<path d="M26.6325 21.3318H25.6675V22.5856H26.6325V21.3318Z" fill="#BCBCBC"/>
<path d="M26.6325 20.0779H25.6675V21.3317H26.6325V20.0779Z" fill="#757575"/>
<path d="M26.6325 18.8245H25.6675V20.0779H26.6325V18.8245Z" fill="#D8D7D2"/>
<path d="M26.6325 17.5708H25.6675V18.8246H26.6325V17.5708Z" fill="#8E8E8D"/>
<path d="M26.6325 16.3169H25.6675V17.5707H26.6325V16.3169Z" fill="#D8D7D2"/>
<path d="M26.6325 15.063H25.6675V16.3168H26.6325V15.063Z" fill="#8E8E8D"/>
<path d="M26.6325 13.8096H25.6675V15.063H26.6325V13.8096Z" fill="#D8D7D2"/>
<path d="M26.6325 12.5557H25.6675V13.8095H26.6325V12.5557Z" fill="#D8D7D2"/>
<path d="M26.6325 12.4607V12.5557H25.6675V12.4607H26.169H26.6325Z" fill="#D8D7D2"/>
<path d="M26.6325 11.7583H26.1689V12.4609H26.6325V11.7583Z" fill="#8E8E8D"/>
<path d="M26.6325 11.302V11.7582H26.169H25.6675V11.302H26.6325Z" fill="#D8D7D2"/>
<path d="M26.6325 11.0552V11.302H25.6675V11.0552H26.169H26.6325Z" fill="#D8D7D2"/>
<path d="M26.6325 10.3521H26.1689V11.0551H26.6325V10.3521Z" fill="#8E8E8D"/>
<path d="M26.6325 10.0486V10.3522H26.169H25.6675V10.0486H26.6325Z" fill="#D8D7D2"/>
<path d="M26.6325 8.79468H25.6675V10.0485H26.6325V8.79468Z" fill="#EDEDED"/>
<path d="M26.6325 7.54077H25.6675V8.7946H26.6325V7.54077Z" fill="#EDEDED"/>
<path d="M26.169 11.7583H25.6675V12.4609H26.169V11.7583Z" fill="#8E8E8D"/>
<path d="M26.169 10.3521H25.6675V11.0551H26.169V10.3521Z" fill="#8E8E8D"/>
<path d="M25.6672 25.0928H24.7021V26.3466H25.6672V25.0928Z" fill="#BCBCBC"/>
<path d="M25.6672 23.8391H24.7021V25.0929H25.6672V23.8391Z" fill="#BCBCBC"/>
<path d="M25.6672 22.5857H24.7021V23.8391H25.6672V22.5857Z" fill="#757575"/>
<path d="M25.6672 21.3318H24.7021V22.5856H25.6672V21.3318Z" fill="#BCBCBC"/>
<path d="M25.6672 20.0779H24.7021V21.3317H25.6672V20.0779Z" fill="#757575"/>
<path d="M25.6672 18.8245H24.7021V20.0779H25.6672V18.8245Z" fill="#D8D7D2"/>
<path d="M25.6672 17.5708H24.7021V18.8246H25.6672V17.5708Z" fill="#8E8E8D"/>
<path d="M25.6672 16.3169H24.7021V17.5707H25.6672V16.3169Z" fill="#D8D7D2"/>
<path d="M25.6672 15.063H24.7021V16.3168H25.6672V15.063Z" fill="#8E8E8D"/>
<path d="M25.6672 13.8096H24.7021V15.063H25.6672V13.8096Z" fill="#D8D7D2"/>
<path d="M25.6672 12.5557H24.7021V13.8095H25.6672V12.5557Z" fill="#D8D7D2"/>
<path d="M25.6672 12.4608V12.5558H24.7021V11.302H25.6672V11.7582H25.6279H25.0868V12.4608H25.6279H25.6672Z" fill="#D8D7D2"/>
<path d="M25.6672 11.7583H25.6279V12.4609H25.6672V11.7583Z" fill="#8E8E8D"/>
<path d="M25.6672 11.0552V11.302H24.7021V10.0486H25.6672V10.3522H25.6279H25.0868V11.0552H25.6279H25.6672Z" fill="#D8D7D2"/>
<path d="M25.6672 10.3521H25.6279V11.0551H25.6672V10.3521Z" fill="#8E8E8D"/>
<path d="M25.6672 8.79468H24.7021V10.0485H25.6672V8.79468Z" fill="#EDEDED"/>
<path d="M25.6672 7.54077H24.7021V8.7946H25.6672V7.54077Z" fill="#EDEDED"/>
<path d="M25.628 11.7583H25.0869V12.4609H25.628V11.7583Z" fill="#8E8E8D"/>
<path d="M25.628 10.3521H25.0869V11.0551H25.628V10.3521Z" fill="#8E8E8D"/>
<path d="M24.702 25.0928H23.7373V26.3466H24.702V25.0928Z" fill="#BCBCBC"/>
<path d="M24.702 23.8391H23.7373V25.0929H24.702V23.8391Z" fill="#BCBCBC"/>
<path d="M24.702 22.5857H23.7373V23.8391H24.702V22.5857Z" fill="#757575"/>
<path d="M24.702 21.3318H23.7373V22.5856H24.702V21.3318Z" fill="#BCBCBC"/>
<path d="M24.702 20.0779H23.7373V21.3317H24.702V20.0779Z" fill="#757575"/>
<path d="M24.702 18.8245H23.7373V20.0779H24.702V18.8245Z" fill="#D8D7D2"/>
<path d="M24.702 17.5708H23.7373V18.8246H24.702V17.5708Z" fill="#8E8E8D"/>
<path d="M24.702 16.3169H23.7373V17.5707H24.702V16.3169Z" fill="#D8D7D2"/>
<path d="M24.702 15.063H23.7373V16.3168H24.702V15.063Z" fill="#8E8E8D"/>
<path d="M24.702 13.8096H23.7373V15.063H24.702V13.8096Z" fill="#D8D7D2"/>
<path d="M24.702 12.5557H23.7373V13.8095H24.702V12.5557Z" fill="#D8D7D2"/>
<path d="M24.702 11.302V12.5558H23.7373V12.4608H24.0048H24.5459V11.7582V11.302H24.702Z" fill="#D8D7D2"/>
<path d="M24.702 10.0486V11.302H24.5459V11.0552H24.0048H23.7373V10.3522H24.0048H24.5459V10.0486H24.702Z" fill="#D8D7D2"/>
<path d="M24.702 8.79468V10.0485H24.5459V9.6495H24.0048H23.7373V8.79468H24.702Z" fill="#EDEDED"/>
<path d="M24.702 7.54077H23.7373V8.7946H24.702V7.54077Z" fill="#EDEDED"/>
<path d="M24.546 11.7583H24.0049V12.4609H24.546V11.7583Z" fill="#8E8E8D"/>
<path d="M24.546 11.302H24.0049V11.7582H24.546V11.302Z" fill="#8E8E8D"/>
<path d="M24.546 11.0552H24.0049V11.302H24.546V11.0552Z" fill="#8E8E8D"/>
<path d="M24.546 10.0486H24.0049V10.3522H24.546V10.0486Z" fill="#8E8E8D"/>
<path d="M24.546 9.64966H24.0049V10.0487H24.546V9.64966Z" fill="#8E8E8D"/>
<path d="M24.0048 11.7583H23.7373V12.4609H24.0048V11.7583Z" fill="#8E8E8D"/>
<path d="M24.0048 11.302H23.7373V11.7582H24.0048V11.302Z" fill="#8E8E8D"/>
<path d="M24.0048 11.0552H23.7373V11.302H24.0048V11.0552Z" fill="#8E8E8D"/>
<path d="M24.0048 10.0486H23.7373V10.3522H24.0048V10.0486Z" fill="#8E8E8D"/>
<path d="M24.0048 9.64966H23.7373V10.0487H24.0048V9.64966Z" fill="#8E8E8D"/>
<path d="M23.7375 25.0928H22.7725V26.3466H23.7375V25.0928Z" fill="#BCBCBC"/>
<path d="M23.7375 23.8391H22.7725V25.0929H23.7375V23.8391Z" fill="#BCBCBC"/>
<path d="M23.7375 22.5857H22.7725V23.8391H23.7375V22.5857Z" fill="#757575"/>
<path d="M23.7375 21.3318H22.7725V22.5856H23.7375V21.3318Z" fill="#BCBCBC"/>
<path d="M23.7375 20.0779H22.7725V21.3317H23.7375V20.0779Z" fill="#757575"/>
<path d="M23.7375 18.8245H22.7725V20.0779H23.7375V18.8245Z" fill="#D8D7D2"/>
<path d="M23.7375 17.5708H22.7725V18.8246H23.7375V17.5708Z" fill="#8E8E8D"/>
<path d="M23.7375 16.3169H22.7725V17.5707H23.7375V16.3169Z" fill="#D8D7D2"/>
<path d="M23.7375 15.063H22.7725V16.3168H23.7375V15.063Z" fill="#8E8E8D"/>
<path d="M23.7375 13.8096H22.7725V15.063H23.7375V13.8096Z" fill="#D8D7D2"/>
<path d="M23.7375 12.5557H22.7725V13.8095H23.7375V12.5557Z" fill="#D8D7D2"/>
<path d="M23.7375 12.4608V12.5558H22.7725V11.302H23.4643V11.7582H22.9231V12.4608H23.4643H23.7375Z" fill="#D8D7D2"/>
<path d="M23.7376 11.7583H23.4644V12.4609H23.7376V11.7583Z" fill="#8E8E8D"/>
<path d="M23.7376 11.302H23.4644V11.7582H23.7376V11.302Z" fill="#8E8E8D"/>
<path d="M23.7376 11.0552H23.4644V11.302H23.7376V11.0552Z" fill="#8E8E8D"/>
<path d="M23.7376 10.3521H23.4644V11.0551H23.7376V10.3521Z" fill="#D8D7D2"/>
<path d="M23.7376 10.0486H23.4644V10.3522H23.7376V10.0486Z" fill="#8E8E8D"/>
<path d="M23.7376 9.64966H23.4644V10.0487H23.7376V9.64966Z" fill="#8E8E8D"/>
<path d="M23.7375 8.79468V9.6495H23.4643H22.9231V10.0485H22.7725V8.79468H23.7375Z" fill="#EDEDED"/>
<path d="M23.7375 7.54077H22.7725V8.7946H23.7375V7.54077Z" fill="#EDEDED"/>
<path d="M23.4645 11.7583H22.9233V12.4609H23.4645V11.7583Z" fill="#8E8E8D"/>
<path d="M23.4643 11.0552V11.302H22.7725V10.0486H22.9231V10.3522V11.0552H23.4643Z" fill="#D8D7D2"/>
<path d="M23.4645 10.3521H22.9233V11.0551H23.4645V10.3521Z" fill="#8E8E8D"/>
<path d="M23.4645 10.0486H22.9233V10.3522H23.4645V10.0486Z" fill="#8E8E8D"/>
<path d="M23.4645 9.64966H22.9233V10.0487H23.4645V9.64966Z" fill="#8E8E8D"/>
<path d="M22.7727 25.0928H21.8076V26.3466H22.7727V25.0928Z" fill="#BCBCBC"/>
<path d="M22.7727 23.8391H21.8076V25.0929H22.7727V23.8391Z" fill="#BCBCBC"/>
<path d="M22.7727 22.5857H21.8076V23.8391H22.7727V22.5857Z" fill="#757575"/>
<path d="M22.7727 21.3318H21.8076V22.5856H22.7727V21.3318Z" fill="#BCBCBC"/>
<path d="M22.7727 20.0779H21.8076V21.3317H22.7727V20.0779Z" fill="#757575"/>
<path d="M22.7727 18.8245H21.8076V20.0779H22.7727V18.8245Z" fill="#D8D7D2"/>
<path d="M22.7727 17.5708H21.8076V18.8246H22.7727V17.5708Z" fill="#8E8E8D"/>
<path d="M22.7727 16.3169H21.8076V17.5707H22.7727V16.3169Z" fill="#D8D7D2"/>
<path d="M22.7727 15.063H21.8076V16.3168H22.7727V15.063Z" fill="#8E8E8D"/>
<path d="M22.7727 13.8096H21.8076V15.063H22.7727V13.8096Z" fill="#D8D7D2"/>
<path d="M22.7727 12.5557H21.8076V13.8095H22.7727V12.5557Z" fill="#D8D7D2"/>
<path d="M22.7727 11.302V12.5558H21.8076V12.4608H21.8415H22.3826V11.7582V11.302H22.7727Z" fill="#D8D7D2"/>
<path d="M22.7724 10.0486V11.302H22.3823V11.0552V10.3522V10.0486H22.7724Z" fill="#D8D7D2"/>
<path d="M22.7727 8.79468V10.0485H22.3826V9.6495H21.8415V10.0485H21.8076V8.79468H22.7727Z" fill="#EDEDED"/>
<path d="M22.7727 7.54077H21.8076V8.7946H22.7727V7.54077Z" fill="#EDEDED"/>
<path d="M22.3824 11.7583H21.8413V12.4609H22.3824V11.7583Z" fill="#8E8E8D"/>
<path d="M22.3824 11.302H21.8413V11.7582H22.3824V11.302Z" fill="#8E8E8D"/>
<path d="M22.3824 11.0552H21.8413V11.302H22.3824V11.0552Z" fill="#8E8E8D"/>
<path d="M22.3824 10.3521H21.8413V11.0551H22.3824V10.3521Z" fill="#8E8E8D"/>
<path d="M22.3824 10.0486H21.8413V10.3522H22.3824V10.0486Z" fill="#8E8E8D"/>
<path d="M22.3824 9.64966H21.8413V10.0487H22.3824V9.64966Z" fill="#8E8E8D"/>
<path d="M21.8415 11.7583H21.8076V12.4609H21.8415V11.7583Z" fill="#8E8E8D"/>
<path d="M21.8415 11.302H21.8076V11.7582H21.8415V11.302Z" fill="#D8D7D2"/>
<path d="M21.8415 11.0552H21.8076V11.302H21.8415V11.0552Z" fill="#D8D7D2"/>
<path d="M21.8415 10.3522V11.0552H21.8076V10.0486H21.8415V10.3522Z" fill="#D8D7D2"/>
<path d="M21.8074 25.0928H20.8423V26.3466H21.8074V25.0928Z" fill="#BCBCBC"/>
<path d="M21.8074 23.8391H20.8423V25.0929H21.8074V23.8391Z" fill="#BCBCBC"/>
<path d="M21.8074 22.5857H20.8423V23.8391H21.8074V22.5857Z" fill="#757575"/>
<path d="M21.8074 21.3318H20.8423V22.5856H21.8074V21.3318Z" fill="#BCBCBC"/>
<path d="M21.8074 20.0779H20.8423V21.3317H21.8074V20.0779Z" fill="#BCBCBC"/>
<path d="M21.8074 18.8245H20.8423V20.0779H21.8074V18.8245Z" fill="#D8D7D2"/>
<path d="M21.8074 17.5708H20.8423V18.8246H21.8074V17.5708Z" fill="#D8D7D2"/>
<path d="M21.8074 16.3169H20.8423V17.5707H21.8074V16.3169Z" fill="#D8D7D2"/>
<path d="M21.8074 15.063H20.8423V16.3168H21.8074V15.063Z" fill="#D8D7D2"/>
<path d="M21.8074 13.8096H20.8423V15.063H21.8074V13.8096Z" fill="#D8D7D2"/>
<path d="M21.8074 12.5557H20.8423V13.8095H21.8074V12.5557Z" fill="#D8D7D2"/>
<path d="M21.8074 12.4609V12.5559H20.8423V11.7583H21.3001V12.4609H21.8074Z" fill="#D8D7D2"/>
<path d="M21.8076 11.7583H21.3003V12.4609H21.8076V11.7583Z" fill="#8E8E8D"/>
<path d="M21.8076 11.302H21.3003V11.7582H21.8076V11.302Z" fill="#D8D7D2"/>
<path d="M21.8076 11.0552H21.3003V11.302H21.8076V11.0552Z" fill="#D8D7D2"/>
<path d="M21.8074 10.0486V11.0552H21.3001V10.3522H20.8423V10.0486H21.8074Z" fill="#D8D7D2"/>
<path d="M21.8074 8.79468H20.8423V10.0485H21.8074V8.79468Z" fill="#EDEDED"/>
<path d="M21.8074 7.54077H20.8423V8.7946H21.8074V7.54077Z" fill="#EDEDED"/>
<path d="M21.3001 11.302H20.8423V11.7582H21.3001V11.302Z" fill="#8E8E8D"/>
<path d="M21.3001 11.0552H20.8423V11.302H21.3001V11.0552Z" fill="#8E8E8D"/>
<path d="M21.3001 10.3521H20.8423V11.0551H21.3001V10.3521Z" fill="#D8D7D2"/>
<path d="M20.8422 25.0928H19.8774V26.3466H20.8422V25.0928Z" fill="#BCBCBC"/>
<path d="M20.8422 23.8391H19.8774V25.0929H20.8422V23.8391Z" fill="#BCBCBC"/>
<path d="M20.8422 22.5857H19.8774V23.8391H20.8422V22.5857Z" fill="#757575"/>
<path d="M20.8422 21.3318H19.8774V22.5856H20.8422V21.3318Z" fill="#BCBCBC"/>
<path d="M20.8422 20.0779H19.8774V21.3317H20.8422V20.0779Z" fill="#757575"/>
<path d="M20.8422 18.8245H19.8774V20.0779H20.8422V18.8245Z" fill="#8E8E8D"/>
<path d="M20.8422 17.5708H19.8774V18.8246H20.8422V17.5708Z" fill="#8E8E8D"/>
<path d="M20.8422 16.3169H19.8774V17.5707H20.8422V16.3169Z" fill="#8E8E8D"/>
<path d="M20.8422 15.063H19.8774V16.3168H20.8422V15.063Z" fill="#8E8E8D"/>
<path d="M20.8422 13.8096H19.8774V15.063H20.8422V13.8096Z" fill="#8E8E8D"/>
<path d="M20.8422 12.5557H19.8774V13.8095H20.8422V12.5557Z" fill="#D8D7D2"/>
<path d="M20.8422 11.7583V12.5559H19.8774V12.4609H20.2181H20.7592V11.7583H20.8422Z" fill="#D8D7D2"/>
<path d="M20.8423 11.302H20.7593V11.7582H20.8423V11.302Z" fill="#8E8E8D"/>
<path d="M20.8423 11.0552H20.7593V11.302H20.8423V11.0552Z" fill="#8E8E8D"/>
<path d="M20.8423 10.3521H20.7593V11.0551H20.8423V10.3521Z" fill="#D8D7D2"/>
<path d="M20.8424 10.0486V10.3522H20.7594V11.0552H20.2183V10.3522V10.0486H20.8424Z" fill="#D8D7D2"/>
<path d="M20.8422 8.79468V10.0485H20.2181V9.6495H19.8774V8.79468H20.8422Z" fill="#EDEDED"/>
<path d="M20.8422 7.54077H19.8774V8.7946H20.8422V7.54077Z" fill="#EDEDED"/>
<path d="M20.7594 11.7583H20.2183V12.4609H20.7594V11.7583Z" fill="#8E8E8D"/>
<path d="M20.7594 11.302H20.2183V11.7582H20.7594V11.302Z" fill="#D8D7D2"/>
<path d="M20.7594 11.0552H20.2183V11.302H20.7594V11.0552Z" fill="#D8D7D2"/>
<path d="M20.2181 11.7583H19.8774V12.4609H20.2181V11.7583Z" fill="#8E8E8D"/>
<path d="M20.2181 11.302H19.8774V11.7582H20.2181V11.302Z" fill="#8E8E8D"/>
<path d="M20.2181 11.0552H19.8774V11.302H20.2181V11.0552Z" fill="#8E8E8D"/>
<path d="M20.2181 10.3521H19.8774V11.0551H20.2181V10.3521Z" fill="#8E8E8D"/>
<path d="M20.2181 10.0486H19.8774V10.3522H20.2181V10.0486Z" fill="#8E8E8D"/>
<path d="M20.2181 9.64966H19.8774V10.0487H20.2181V9.64966Z" fill="#8E8E8D"/>
<path d="M19.8777 25.0928H18.9126V26.3466H19.8777V25.0928Z" fill="#BCBCBC"/>
<path d="M19.8777 23.8391H18.9126V25.0929H19.8777V23.8391Z" fill="#BCBCBC"/>
<path d="M19.8777 22.5857H18.9126V23.8391H19.8777V22.5857Z" fill="#757575"/>
<path d="M19.8777 21.3318H18.9126V22.5856H19.8777V21.3318Z" fill="#BCBCBC"/>
<path d="M19.8777 20.0779H18.9126V21.3317H19.8777V20.0779Z" fill="#757575"/>
<path d="M19.8777 18.8245H18.9126V20.0779H19.8777V18.8245Z" fill="#8E8E8D"/>
<path d="M19.8777 17.5708H18.9126V18.8246H19.8777V17.5708Z" fill="#8E8E8D"/>
<path d="M19.8777 16.3169H18.9126V17.5707H19.8777V16.3169Z" fill="#8E8E8D"/>
<path d="M19.8777 15.063H18.9126V16.3168H19.8777V15.063Z" fill="#8E8E8D"/>
<path d="M19.8777 13.8096H18.9126V15.063H19.8777V13.8096Z" fill="#8E8E8D"/>
<path d="M19.8777 12.5557H18.9126V13.8095H19.8777V12.5557Z" fill="#D8D7D2"/>
<path d="M19.8777 12.4608V12.5558H18.9126V12.4608H19.1364V11.7582V11.302H19.6775V11.7582V12.4608H19.8777Z" fill="#D8D7D2"/>
<path d="M19.8774 11.7583H19.6772V12.4609H19.8774V11.7583Z" fill="#8E8E8D"/>
<path d="M19.8774 11.302H19.6772V11.7582H19.8774V11.302Z" fill="#8E8E8D"/>
<path d="M19.8774 11.0552H19.6772V11.302H19.8774V11.0552Z" fill="#8E8E8D"/>
<path d="M19.8774 10.3521H19.6772V11.0551H19.8774V10.3521Z" fill="#8E8E8D"/>
<path d="M19.8774 10.0486H19.6772V10.3522H19.8774V10.0486Z" fill="#8E8E8D"/>
<path d="M19.8774 9.64966H19.6772V10.0487H19.8774V9.64966Z" fill="#8E8E8D"/>
<path d="M19.8777 8.79468V9.6495H19.6775V10.0485H19.1364V9.6495H18.9126V8.79468H19.8777Z" fill="#EDEDED"/>
<path d="M19.8777 7.54077H18.9126V8.7946H19.8777V7.54077Z" fill="#EDEDED"/>
<path d="M19.6775 11.0552V11.302H19.1364V11.0552H18.9126V10.3522H19.1364V10.0486H19.6775V10.3522V11.0552Z" fill="#D8D7D2"/>
<path d="M19.1364 11.7583H18.9126V12.4609H19.1364V11.7583Z" fill="#8E8E8D"/>
<path d="M19.1364 11.302H18.9126V11.7582H19.1364V11.302Z" fill="#8E8E8D"/>
<path d="M19.1364 11.0552H18.9126V11.302H19.1364V11.0552Z" fill="#8E8E8D"/>
<path d="M19.1364 10.0486H18.9126V10.3522H19.1364V10.0486Z" fill="#8E8E8D"/>
<path d="M19.1364 9.64966H18.9126V10.0487H19.1364V9.64966Z" fill="#8E8E8D"/>
<path d="M18.9123 25.0928H17.9473V26.3466H18.9123V25.0928Z" fill="#BCBCBC"/>
<path d="M18.9123 23.8391H17.9473V25.0929H18.9123V23.8391Z" fill="#BCBCBC"/>
<path d="M18.9123 22.5857H17.9473V23.8391H18.9123V22.5857Z" fill="#757575"/>
<path d="M18.9123 21.3318H17.9473V22.5856H18.9123V21.3318Z" fill="#BCBCBC"/>
<path d="M18.9123 20.0779H17.9473V21.3317H18.9123V20.0779Z" fill="#757575"/>
<path d="M18.9123 18.8245H17.9473V20.0779H18.9123V18.8245Z" fill="#8E8E8D"/>
<path d="M18.9123 17.5708H17.9473V18.8246H18.9123V17.5708Z" fill="#8E8E8D"/>
<path d="M18.9123 16.3169H17.9473V17.5707H18.9123V16.3169Z" fill="#8E8E8D"/>
<path d="M18.9123 15.063H17.9473V16.3168H18.9123V15.063Z" fill="#8E8E8D"/>
<path d="M18.9123 13.8096H17.9473V15.063H18.9123V13.8096Z" fill="#8E8E8D"/>
<path d="M18.9123 12.5557H17.9473V13.8095H18.9123V12.5557Z" fill="#D8D7D2"/>
<path d="M18.9123 12.4608V12.5558H17.9473V11.302H18.0542V11.7582V12.4608H18.5953H18.9123Z" fill="#D8D7D2"/>
<path d="M18.9127 11.7583H18.5957V12.4609H18.9127V11.7583Z" fill="#8E8E8D"/>
<path d="M18.9127 11.302H18.5957V11.7582H18.9127V11.302Z" fill="#8E8E8D"/>
<path d="M18.9127 11.0552H18.5957V11.302H18.9127V11.0552Z" fill="#8E8E8D"/>
<path d="M18.9127 10.3521H18.5957V11.0551H18.9127V10.3521Z" fill="#D8D7D2"/>
<path d="M18.9127 10.0486H18.5957V10.3522H18.9127V10.0486Z" fill="#8E8E8D"/>
<path d="M18.9127 9.64966H18.5957V10.0487H18.9127V9.64966Z" fill="#8E8E8D"/>
<path d="M18.9123 8.79468V9.6495H18.5953H18.0542V10.0485H17.9473V8.79468H18.9123Z" fill="#EDEDED"/>
<path d="M18.9123 7.54077H17.9473V8.7946H18.9123V7.54077Z" fill="#EDEDED"/>
<path d="M18.5953 11.7583H18.0542V12.4609H18.5953V11.7583Z" fill="#8E8E8D"/>
<path d="M18.5953 11.302H18.0542V11.7582H18.5953V11.302Z" fill="#8E8E8D"/>
<path d="M18.5953 11.0552H18.0542V11.302H18.5953V11.0552Z" fill="#8E8E8D"/>
<path d="M18.5953 10.3521H18.0542V11.0551H18.5953V10.3521Z" fill="#8E8E8D"/>
<path d="M18.5953 10.0486H18.0542V10.3522H18.5953V10.0486Z" fill="#8E8E8D"/>
<path d="M18.5953 9.64966H18.0542V10.0487H18.5953V9.64966Z" fill="#8E8E8D"/>
<path d="M18.0542 11.0552V11.302H17.9473V10.0486H18.0542V10.3522V11.0552Z" fill="#D8D7D2"/>
<path d="M17.9477 25.0928H16.9829V26.3466H17.9477V25.0928Z" fill="#BCBCBC"/>
<path d="M17.9477 23.8391H16.9829V25.0929H17.9477V23.8391Z" fill="#BCBCBC"/>
<path d="M17.9477 22.5857H16.9829V23.8391H17.9477V22.5857Z" fill="#757575"/>
<path d="M17.9477 21.3318H16.9829V22.5856H17.9477V21.3318Z" fill="#BCBCBC"/>
<path d="M17.9477 20.0779H16.9829V21.3317H17.9477V20.0779Z" fill="#757575"/>
<path d="M17.9477 18.8245H16.9829V20.0779H17.9477V18.8245Z" fill="#8E8E8D"/>
<path d="M17.9477 17.5708H16.9829V18.8246H17.9477V17.5708Z" fill="#8E8E8D"/>
<path d="M17.9477 16.3169H16.9829V17.5707H17.9477V16.3169Z" fill="#8E8E8D"/>
<path d="M17.9477 15.063H16.9829V16.3168H17.9477V15.063Z" fill="#8E8E8D"/>
<path d="M17.9477 13.8096H16.9829V15.063H17.9477V13.8096Z" fill="#8E8E8D"/>
<path d="M17.9477 12.5557H16.9829V13.8095H17.9477V12.5557Z" fill="#D8D7D2"/>
<path d="M17.9477 11.302V12.5558H16.9829V12.4608H17.5138V11.7582V11.302H17.9477Z" fill="#D8D7D2"/>
<path d="M17.9475 10.0486V11.302H17.5137V11.0552V10.3522V10.0486H17.9475Z" fill="#D8D7D2"/>
<path d="M17.9477 8.79468V10.0485H17.5138V9.6495H16.9829V8.79468H17.9477Z" fill="#EDEDED"/>
<path d="M17.9477 7.54077H16.9829V8.7946H17.9477V7.54077Z" fill="#EDEDED"/>
<path d="M17.5138 11.7583H16.9829V12.4609H17.5138V11.7583Z" fill="#8E8E8D"/>
<path d="M17.5138 11.302H16.9829V11.7582H17.5138V11.302Z" fill="#8E8E8D"/>
<path d="M17.5138 11.0552H16.9829V11.302H17.5138V11.0552Z" fill="#8E8E8D"/>
<path d="M17.5138 10.3521H16.9829V11.0551H17.5138V10.3521Z" fill="#8E8E8D"/>
<path d="M17.5138 10.0486H16.9829V10.3522H17.5138V10.0486Z" fill="#8E8E8D"/>
<path d="M17.5138 9.64966H16.9829V10.0487H17.5138V9.64966Z" fill="#8E8E8D"/>
<path d="M16.9826 25.0928H16.0176V26.3466H16.9826V25.0928Z" fill="#BCBCBC"/>
<path d="M16.9826 23.8391H16.0176V25.0929H16.9826V23.8391Z" fill="#BCBCBC"/>
<path d="M16.9826 22.5857H16.0176V23.8391H16.9826V22.5857Z" fill="#757575"/>
<path d="M16.9826 21.3318H16.0176V22.5856H16.9826V21.3318Z" fill="#BCBCBC"/>
<path d="M16.9826 20.0779H16.0176V21.3317H16.9826V20.0779Z" fill="#757575"/>
<path d="M16.9826 18.8245H16.0176V20.0779H16.9826V18.8245Z" fill="#8E8E8D"/>
<path d="M16.9826 17.5708H16.0176V18.8246H16.9826V17.5708Z" fill="#8E8E8D"/>
<path d="M16.9826 16.3169H16.0176V17.5707H16.9826V16.3169Z" fill="#8E8E8D"/>
<path d="M16.9826 15.063H16.0176V16.3168H16.9826V15.063Z" fill="#8E8E8D"/>
<path d="M16.9826 13.8096H16.0176V15.063H16.9826V13.8096Z" fill="#8E8E8D"/>
<path d="M16.9826 12.5557H16.0176V13.8095H16.9826V12.5557Z" fill="#D8D7D2"/>
<path d="M16.9826 12.4608V12.5558H16.0176V11.302H16.4316V11.7582V12.4608H16.9724H16.9826Z" fill="#D8D7D2"/>
<path d="M16.9829 11.7583H16.9727V12.4609H16.9829V11.7583Z" fill="#8E8E8D"/>
<path d="M16.9829 11.302H16.9727V11.7582H16.9829V11.302Z" fill="#8E8E8D"/>
<path d="M16.9829 11.0552H16.9727V11.302H16.9829V11.0552Z" fill="#8E8E8D"/>
<path d="M16.9829 10.3521H16.9727V11.0551H16.9829V10.3521Z" fill="#8E8E8D"/>
<path d="M16.9829 10.0486H16.9727V10.3522H16.9829V10.0486Z" fill="#8E8E8D"/>
<path d="M16.9829 9.64966H16.9727V10.0487H16.9829V9.64966Z" fill="#8E8E8D"/>
<path d="M16.9826 8.79468V9.6495H16.9724V10.0485H16.0176V8.79468H16.9826Z" fill="#EDEDED"/>
<path d="M16.9826 7.54077H16.0176V8.7946H16.9826V7.54077Z" fill="#EDEDED"/>
<path d="M16.9724 11.7583H16.4316V12.4609H16.9724V11.7583Z" fill="#8E8E8D"/>
<path d="M16.9724 11.302H16.4316V11.7582H16.9724V11.302Z" fill="#8E8E8D"/>
<path d="M16.9724 11.0552H16.4316V11.302H16.9724V11.0552Z" fill="#8E8E8D"/>
<path d="M16.9724 10.3522V11.0552H16.4316V10.3522H16.0176V10.0486H16.9724V10.3522Z" fill="#D8D7D2"/>
<path d="M16.4316 11.0552H16.0176V11.302H16.4316V11.0552Z" fill="#D8D7D2"/>
<path d="M16.4316 10.3521H16.0176V11.0551H16.4316V10.3521Z" fill="#8E8E8D"/>
<path d="M16.0178 25.0928H15.0527V26.3466H16.0178V25.0928Z" fill="#BCBCBC"/>
<path d="M16.0178 23.8391H15.0527V25.0929H16.0178V23.8391Z" fill="#BCBCBC"/>
<path d="M16.0178 22.5857H15.0527V23.8391H16.0178V22.5857Z" fill="#757575"/>
<path d="M16.0178 21.3318H15.0527V22.5856H16.0178V21.3318Z" fill="#BCBCBC"/>
<path d="M16.0178 20.0779H15.0527V21.3317H16.0178V20.0779Z" fill="#757575"/>
<path d="M16.0178 18.8245H15.0527V20.0779H16.0178V18.8245Z" fill="#8E8E8D"/>
<path d="M16.0178 17.5708H15.0527V18.8246H16.0178V17.5708Z" fill="#8E8E8D"/>
<path d="M16.0178 16.3169H15.0527V17.5707H16.0178V16.3169Z" fill="#8E8E8D"/>
<path d="M16.0178 15.063H15.0527V16.3168H16.0178V15.063Z" fill="#8E8E8D"/>
<path d="M16.0178 13.8096H15.0527V15.063H16.0178V13.8096Z" fill="#8E8E8D"/>
<path d="M16.0178 12.5557H15.0527V13.8095H16.0178V12.5557Z" fill="#D8D7D2"/>
<path d="M16.0178 11.302V12.5558H15.0527V12.4608H15.3499V11.7582V11.302H16.0178Z" fill="#D8D7D2"/>
<path d="M16.0175 11.0551V11.3019H15.3496V11.0551V10.3521H15.8904V11.0551H16.0175Z" fill="#D8D7D2"/>
<path d="M16.0177 10.3521H15.8906V11.0551H16.0177V10.3521Z" fill="#8E8E8D"/>
<path d="M16.0177 10.0486H15.8906V10.3522H16.0177V10.0486Z" fill="#D8D7D2"/>
<path d="M16.0178 8.79468V10.0485H15.8907V9.6495H15.3499H15.0527V8.79468H16.0178Z" fill="#EDEDED"/>
<path d="M16.0178 7.54077H15.0527V8.7946H16.0178V7.54077Z" fill="#EDEDED"/>
<path d="M15.8904 10.0486H15.3496V10.3522H15.8904V10.0486Z" fill="#8E8E8D"/>
<path d="M15.8904 9.64966H15.3496V10.0487H15.8904V9.64966Z" fill="#8E8E8D"/>
<path d="M15.3499 11.7583H15.0527V12.4609H15.3499V11.7583Z" fill="#8E8E8D"/>
<path d="M15.3499 11.302H15.0527V11.7582H15.3499V11.302Z" fill="#8E8E8D"/>
<path d="M15.3499 11.0552H15.0527V11.302H15.3499V11.0552Z" fill="#8E8E8D"/>
<path d="M15.3499 10.3521H15.0527V11.0551H15.3499V10.3521Z" fill="#8E8E8D"/>
<path d="M15.3499 10.0486H15.0527V10.3522H15.3499V10.0486Z" fill="#8E8E8D"/>
<path d="M15.3499 9.64966H15.0527V10.0487H15.3499V9.64966Z" fill="#8E8E8D"/>
<path d="M15.0526 25.0928H14.0879V26.3466H15.0526V25.0928Z" fill="#BCBCBC"/>
<path d="M15.0526 23.8391H14.0879V25.0929H15.0526V23.8391Z" fill="#BCBCBC"/>
<path d="M15.0526 22.5857H14.0879V23.8391H15.0526V22.5857Z" fill="#757575"/>
<path d="M15.0526 21.3318H14.0879V22.5856H15.0526V21.3318Z" fill="#BCBCBC"/>
<path d="M15.0526 20.0779H14.0879V21.3317H15.0526V20.0779Z" fill="#757575"/>
<path d="M15.0526 18.8245H14.0879V20.0779H15.0526V18.8245Z" fill="#8E8E8D"/>
<path d="M15.0526 17.5708H14.0879V18.8246H15.0526V17.5708Z" fill="#8E8E8D"/>
<path d="M15.0526 16.3169H14.0879V17.5707H15.0526V16.3169Z" fill="#8E8E8D"/>
<path d="M15.0526 15.063H14.0879V16.3168H15.0526V15.063Z" fill="#8E8E8D"/>
<path d="M15.0526 13.8096H14.0879V15.063H15.0526V13.8096Z" fill="#8E8E8D"/>
<path d="M15.0526 12.5557H14.0879V13.8095H15.0526V12.5557Z" fill="#D8D7D2"/>
<path d="M15.0526 12.4608V12.5558H14.0879V12.4608H14.2679V11.7582H14.0879V11.302H14.8087V11.7582V12.4608H15.0526Z" fill="#D8D7D2"/>
<path d="M15.0525 11.7583H14.8086V12.4609H15.0525V11.7583Z" fill="#8E8E8D"/>
<path d="M15.0525 11.302H14.8086V11.7582H15.0525V11.302Z" fill="#8E8E8D"/>
<path d="M15.0525 11.0552H14.8086V11.302H15.0525V11.0552Z" fill="#8E8E8D"/>
<path d="M15.0525 10.3521H14.8086V11.0551H15.0525V10.3521Z" fill="#8E8E8D"/>
<path d="M15.0525 10.0486H14.8086V10.3522H15.0525V10.0486Z" fill="#8E8E8D"/>
<path d="M15.0525 9.64966H14.8086V10.0487H15.0525V9.64966Z" fill="#8E8E8D"/>
<path d="M15.0526 8.79468V9.6495H14.8087V10.0485H14.0879V8.79468H15.0526Z" fill="#EDEDED"/>
<path d="M15.0526 7.54077H14.0879V8.7946H15.0526V7.54077Z" fill="#EDEDED"/>
<path d="M14.8087 11.0552V11.302H14.0879V11.0552H14.2679V10.3522H14.0879V10.0486H14.8087V10.3522V11.0552Z" fill="#D8D7D2"/>
<path d="M14.2679 11.7583H14.0879V12.4609H14.2679V11.7583Z" fill="#8E8E8D"/>
<path d="M14.2679 10.3521H14.0879V11.0551H14.2679V10.3521Z" fill="#8E8E8D"/>
<path d="M14.0876 25.0928H13.1226V26.3466H14.0876V25.0928Z" fill="#BCBCBC"/>
<path d="M14.0876 23.8391H13.1226V25.0929H14.0876V23.8391Z" fill="#BCBCBC"/>
<path d="M14.0876 22.5857H13.1226V23.8391H14.0876V22.5857Z" fill="#757575"/>
<path d="M14.0876 21.3318H13.1226V22.5856H14.0876V21.3318Z" fill="#BCBCBC"/>
<path d="M14.0876 20.0779H13.1226V21.3317H14.0876V20.0779Z" fill="#757575"/>
<path d="M14.0876 18.8245H13.1226V20.0779H14.0876V18.8245Z" fill="#8E8E8D"/>
<path d="M14.0876 17.5708H13.1226V18.8246H14.0876V17.5708Z" fill="#8E8E8D"/>
<path d="M14.0876 16.3169H13.1226V17.5707H14.0876V16.3169Z" fill="#8E8E8D"/>
<path d="M14.0876 15.063H13.1226V16.3168H14.0876V15.063Z" fill="#8E8E8D"/>
<path d="M14.0876 13.8096H13.1226V15.063H14.0876V13.8096Z" fill="#8E8E8D"/>
<path d="M14.0876 12.5557H13.1226V13.8095H14.0876V12.5557Z" fill="#D8D7D2"/>
<path d="M14.0876 12.4607V12.5557H13.1226V12.4607H13.1858H13.7266H14.0876Z" fill="#D8D7D2"/>
<path d="M14.0876 11.7583H13.7266V12.4609H14.0876V11.7583Z" fill="#8E8E8D"/>
<path d="M14.0876 11.302V11.7582H13.7266H13.1858H13.1226V11.302H14.0876Z" fill="#D8D7D2"/>
<path d="M14.0876 11.0552V11.302H13.1226V11.0552H13.1858H13.7266H14.0876Z" fill="#D8D7D2"/>
<path d="M14.0876 10.3521H13.7266V11.0551H14.0876V10.3521Z" fill="#8E8E8D"/>
<path d="M14.0876 10.0486V10.3522H13.7266H13.1858H13.1226V10.0486H14.0876Z" fill="#D8D7D2"/>
<path d="M14.0876 8.79468H13.1226V10.0485H14.0876V8.79468Z" fill="#EDEDED"/>
<path d="M14.0876 7.54077H13.1226V8.7946H14.0876V7.54077Z" fill="#EDEDED"/>
<path d="M13.7268 11.7583H13.186V12.4609H13.7268V11.7583Z" fill="#8E8E8D"/>
<path d="M13.7268 10.3521H13.186V11.0551H13.7268V10.3521Z" fill="#8E8E8D"/>
<path d="M13.1858 11.7583H13.1226V12.4609H13.1858V11.7583Z" fill="#8E8E8D"/>
<path d="M13.1858 10.3521H13.1226V11.0551H13.1858V10.3521Z" fill="#8E8E8D"/>
<path d="M13.1228 25.0928H12.1577V26.3466H13.1228V25.0928Z" fill="#BCBCBC"/>
<path d="M13.1228 23.8391H12.1577V25.0929H13.1228V23.8391Z" fill="#BCBCBC"/>
<path d="M13.1228 22.5857H12.1577V23.8391H13.1228V22.5857Z" fill="#757575"/>
<path d="M13.1228 21.3318H12.1577V22.5856H13.1228V21.3318Z" fill="#BCBCBC"/>
<path d="M13.1228 20.0779H12.1577V21.3317H13.1228V20.0779Z" fill="#757575"/>
<path d="M13.1228 18.8245H12.1577V20.0779H13.1228V18.8245Z" fill="#8E8E8D"/>
<path d="M13.1228 17.5708H12.1577V18.8246H13.1228V17.5708Z" fill="#8E8E8D"/>
<path d="M13.1228 16.3169H12.1577V17.5707H13.1228V16.3169Z" fill="#8E8E8D"/>
<path d="M13.1228 15.063H12.1577V16.3168H13.1228V15.063Z" fill="#8E8E8D"/>
<path d="M13.1228 13.8096H12.1577V15.063H13.1228V13.8096Z" fill="#8E8E8D"/>
<path d="M13.1228 12.5557H12.1577V13.8095H13.1228V12.5557Z" fill="#D8D7D2"/>
<path d="M13.1228 12.4607V12.5557H12.1577V12.4607H12.6449H13.1228Z" fill="#D8D7D2"/>
<path d="M13.1229 11.7583H12.645V12.4609H13.1229V11.7583Z" fill="#8E8E8D"/>
<path d="M13.1228 11.302V11.7582H12.6449H12.1577V11.302H13.1228Z" fill="#D8D7D2"/>
<path d="M13.1228 11.0552V11.302H12.1577V11.0552H12.6449H13.1228Z" fill="#D8D7D2"/>
<path d="M13.1229 10.3521H12.645V11.0551H13.1229V10.3521Z" fill="#8E8E8D"/>
<path d="M13.1228 10.0486V10.3522H12.6449H12.1577V10.0486H13.1228Z" fill="#D8D7D2"/>
<path d="M13.1228 8.79468H12.1577V10.0485H13.1228V8.79468Z" fill="#EDEDED"/>
<path d="M13.1228 7.54077H12.1577V8.7946H13.1228V7.54077Z" fill="#EDEDED"/>
<path d="M12.6449 11.7583H12.1577V12.4609H12.6449V11.7583Z" fill="#8E8E8D"/>
<path d="M12.6449 10.3521H12.1577V11.0551H12.6449V10.3521Z" fill="#8E8E8D"/>
<path d="M12.1576 25.0928H11.1929V26.3466H12.1576V25.0928Z" fill="#BCBCBC"/>
<path d="M12.1576 23.8391H11.1929V25.0929H12.1576V23.8391Z" fill="#BCBCBC"/>
<path d="M12.1576 22.5857H11.1929V23.8391H12.1576V22.5857Z" fill="#757575"/>
<path d="M12.1576 21.3318H11.1929V22.5856H12.1576V21.3318Z" fill="#BCBCBC"/>
<path d="M12.1576 20.0779H11.1929V21.3317H12.1576V20.0779Z" fill="#757575"/>
<path d="M12.1576 18.8245H11.1929V20.0779H12.1576V18.8245Z" fill="#8E8E8D"/>
<path d="M12.1576 17.5708H11.1929V18.8246H12.1576V17.5708Z" fill="#8E8E8D"/>
<path d="M12.1576 16.3169H11.1929V17.5707H12.1576V16.3169Z" fill="#8E8E8D"/>
<path d="M12.1576 15.063H11.1929V16.3168H12.1576V15.063Z" fill="#8E8E8D"/>
<path d="M12.1576 13.8096H11.1929V15.063H12.1576V13.8096Z" fill="#8E8E8D"/>
<path d="M12.1576 12.5557H11.1929V13.8095H12.1576V12.5557Z" fill="#D8D7D2"/>
<path d="M12.1576 12.4607V12.5557H11.1929V12.4607H11.5629H12.104H12.1576Z" fill="#D8D7D2"/>
<path d="M12.1576 11.7583H12.104V12.4609H12.1576V11.7583Z" fill="#8E8E8D"/>
<path d="M12.1576 11.302V11.7582H12.104H11.5629H11.1929V11.302H12.1576Z" fill="#D8D7D2"/>
<path d="M12.1576 11.0552V11.302H11.1929V11.0552H11.5629H12.104H12.1576Z" fill="#D8D7D2"/>
<path d="M12.1576 10.3521H12.104V11.0551H12.1576V10.3521Z" fill="#8E8E8D"/>
<path d="M12.1576 10.0486V10.3522H12.104H11.5629H11.1929V10.0486H12.1576Z" fill="#D8D7D2"/>
<path d="M12.1576 8.79468H11.1929V10.0485H12.1576V8.79468Z" fill="#EDEDED"/>
<path d="M12.1576 7.54077H11.1929V8.7946H12.1576V7.54077Z" fill="#EDEDED"/>
<path d="M12.1041 11.7583H11.563V12.4609H12.1041V11.7583Z" fill="#8E8E8D"/>
<path d="M12.1041 10.3521H11.563V11.0551H12.1041V10.3521Z" fill="#8E8E8D"/>
<path d="M11.5629 11.7583H11.1929V12.4609H11.5629V11.7583Z" fill="#8E8E8D"/>
<path d="M11.5629 10.3521H11.1929V11.0551H11.5629V10.3521Z" fill="#8E8E8D"/>
<path d="M11.1931 25.0928H10.228V26.3466H11.1931V25.0928Z" fill="#BCBCBC"/>
<path d="M11.1931 23.8391H10.228V25.0929H11.1931V23.8391Z" fill="#BCBCBC"/>
<path d="M11.1931 22.5857H10.228V23.8391H11.1931V22.5857Z" fill="#BCBCBC"/>
<path d="M11.1931 21.3318H10.228V22.5856H11.1931V21.3318Z" fill="#BCBCBC"/>
<path d="M11.1931 20.0779H10.228V21.3317H11.1931V20.0779Z" fill="#BCBCBC"/>
<path d="M11.1931 18.8245H10.228V20.0779H11.1931V18.8245Z" fill="#D8D7D2"/>
<path d="M11.1931 17.5708H10.228V18.8246H11.1931V17.5708Z" fill="#D8D7D2"/>
<path d="M11.1931 16.3169H10.228V17.5707H11.1931V16.3169Z" fill="#D8D7D2"/>
<path d="M11.1931 15.063H10.228V16.3168H11.1931V15.063Z" fill="#D8D7D2"/>
<path d="M11.1931 13.8096H10.228V15.063H11.1931V13.8096Z" fill="#D8D7D2"/>
<path d="M11.1931 12.5557H10.228V13.8095H11.1931V12.5557Z" fill="#D8D7D2"/>
<path d="M11.1931 12.4608V12.5558H10.228V11.302H11.1931V11.7582H11.022H10.4812V12.4608H11.022H11.1931Z" fill="#D8D7D2"/>
<path d="M11.1931 11.7583H11.022V12.4609H11.1931V11.7583Z" fill="#8E8E8D"/>
<path d="M11.1931 11.0552V11.302H10.228V10.0486H11.1931V10.3522H11.022H10.4812V11.0552H11.022H11.1931Z" fill="#D8D7D2"/>
<path d="M11.1931 10.3521H11.022V11.0551H11.1931V10.3521Z" fill="#8E8E8D"/>
<path d="M11.1931 8.79468H10.228V10.0485H11.1931V8.79468Z" fill="#EDEDED"/>
<path d="M11.1931 7.54077H10.228V8.7946H11.1931V7.54077Z" fill="#EDEDED"/>
<path d="M11.0218 11.7583H10.481V12.4609H11.0218V11.7583Z" fill="#8E8E8D"/>
<path d="M11.0218 10.3521H10.481V11.0551H11.0218V10.3521Z" fill="#8E8E8D"/>
<path d="M10.2278 25.0928H9.2627V26.3466H10.2278V25.0928Z" fill="#BCBCBC"/>
<path d="M10.2278 23.8391H9.2627V25.0929H10.2278V23.8391Z" fill="#BCBCBC"/>
<path d="M10.2278 22.5857H9.2627V23.8391H10.2278V22.5857Z" fill="#BCBCBC"/>
<path d="M10.2278 21.3318H9.2627V22.5856H10.2278V21.3318Z" fill="#BCBCBC"/>
<path d="M10.2278 20.0779H9.2627V21.3317H10.2278V20.0779Z" fill="#BCBCBC"/>
<path d="M10.2278 18.8245H9.2627V20.0779H10.2278V18.8245Z" fill="#D8D7D2"/>
<path d="M10.2278 17.5708H9.2627V18.8246H10.2278V17.5708Z" fill="#D8D7D2"/>
<path d="M10.2278 16.3169H9.2627V17.5707H10.2278V16.3169Z" fill="#D8D7D2"/>
<path d="M10.2278 15.063H9.2627V16.3168H10.2278V15.063Z" fill="#D8D7D2"/>
<path d="M10.2278 13.8096H9.2627V15.063H10.2278V13.8096Z" fill="#D8D7D2"/>
<path d="M10.2278 12.5557H9.2627V13.8095H10.2278V12.5557Z" fill="#D8D7D2"/>
<path d="M10.2278 11.302H9.2627V12.5558H10.2278V11.302Z" fill="#D8D7D2"/>
<path d="M10.2278 10.0486H9.2627V11.302H10.2278V10.0486Z" fill="#D8D7D2"/>
<path d="M10.2278 8.79468H9.2627V10.0485H10.2278V8.79468Z" fill="#EDEDED"/>
<path d="M10.2278 7.54077H9.2627V8.7946H10.2278V7.54077Z" fill="#EDEDED"/>
<path d="M9.2626 25.0928H8.29785V26.3466H9.2626V25.0928Z" fill="#757575"/>
<path d="M9.2626 23.8391H8.29785V25.0929H9.2626V23.8391Z" fill="#757575"/>
<path d="M9.2626 22.5857H8.29785V23.8391H9.2626V22.5857Z" fill="#757575"/>
<path d="M9.2626 21.3318H8.29785V22.5856H9.2626V21.3318Z" fill="#757575"/>
<path d="M9.2626 20.0779H8.29785V21.3317H9.2626V20.0779Z" fill="#757575"/>
<path d="M9.2626 18.8245H8.29785V20.0779H9.2626V18.8245Z" fill="#757575"/>
<path d="M9.2626 17.5708H8.29785V18.8246H9.2626V17.5708Z" fill="#757575"/>
<path d="M9.2626 16.3169H8.29785V17.5707H9.2626V16.3169Z" fill="#757575"/>
<path d="M9.2626 15.063H8.29785V16.3168H9.2626V15.063Z" fill="#757575"/>
<path d="M9.2626 13.8096H8.29785V15.063H9.2626V13.8096Z" fill="#757575"/>
<path d="M9.2626 12.5557H8.29785V13.8095H9.2626V12.5557Z" fill="#757575"/>
<path d="M9.2626 11.302H8.29785V12.5558H9.2626V11.302Z" fill="#757575"/>
<path d="M9.2626 10.0486H8.29785V11.302H9.2626V10.0486Z" fill="#D8D7D2"/>
<path d="M9.2626 8.79468H8.29785V10.0485H9.2626V8.79468Z" fill="#EDEDED"/>
<path d="M9.2626 7.54077H8.29785V8.7946H9.2626V7.54077Z" fill="#EDEDED"/>
<path d="M8.29807 23.8391H7.33301V25.0929H8.29807V23.8391Z" fill="#8E8E8D"/>
<path d="M8.29807 22.5857H7.33301V23.8391H8.29807V22.5857Z" fill="#8E8E8D"/>
<path d="M8.29807 21.3318H7.33301V22.5856H8.29807V21.3318Z" fill="#8E8E8D"/>
<path d="M8.29807 20.0779H7.33301V21.3317H8.29807V20.0779Z" fill="#8E8E8D"/>
<path d="M8.29807 18.8245H7.33301V20.0779H8.29807V18.8245Z" fill="#8E8E8D"/>
<path d="M8.29807 17.5708H7.33301V18.8246H8.29807V17.5708Z" fill="#8E8E8D"/>
<path d="M8.29807 16.3169H7.33301V17.5707H8.29807V16.3169Z" fill="#8E8E8D"/>
<path d="M8.29807 15.063H7.33301V16.3168H8.29807V15.063Z" fill="#8E8E8D"/>
<path d="M8.29807 13.8096H7.33301V15.063H8.29807V13.8096Z" fill="#8E8E8D"/>
<path d="M8.29807 12.5557H7.33301V13.8095H8.29807V12.5557Z" fill="#8E8E8D"/>
<path d="M8.29807 11.302H7.33301V12.5558H8.29807V11.302Z" fill="#8E8E8D"/>
<path d="M8.29807 10.0486H7.33301V11.302H8.29807V10.0486Z" fill="#757575"/>
<path d="M8.29807 8.79468H7.33301V10.0485H8.29807V8.79468Z" fill="#757575"/>
<path d="M8.29807 7.54077H7.33301V8.7946H8.29807V7.54077Z" fill="#EDEDED"/>
<path d="M7.33291 22.5857H6.36816V23.8391H7.33291V22.5857Z" fill="#595959"/>
<path d="M7.33291 21.3318H6.36816V22.5856H7.33291V21.3318Z" fill="#595959"/>
<path d="M7.33291 20.0779H6.36816V21.3317H7.33291V20.0779Z" fill="#3F3F3F"/>
<path d="M7.33291 18.8245H6.36816V20.0779H7.33291V18.8245Z" fill="#3F3F3F"/>
<path d="M7.33291 17.5708H6.36816V18.8246H7.33291V17.5708Z" fill="#3F3F3F"/>
<path d="M7.33291 16.3169H6.36816V17.5707H7.33291V16.3169Z" fill="#3F3F3F"/>
<path d="M7.33291 15.063H6.36816V16.3168H7.33291V15.063Z" fill="#3F3F3F"/>
<path d="M7.33291 13.8096H6.36816V15.063H7.33291V13.8096Z" fill="#3F3F3F"/>
<path d="M7.33291 12.5557H6.36816V13.8095H7.33291V12.5557Z" fill="#3F3F3F"/>
<path d="M7.33291 11.302H6.36816V12.5558H7.33291V11.302Z" fill="#8E8E8D"/>
<path d="M7.33291 10.0486H6.36816V11.302H7.33291V10.0486Z" fill="#8E8E8D"/>
<path d="M7.33291 8.79468H6.36816V10.0485H7.33291V8.79468Z" fill="#8E8E8D"/>
<path d="M7.33291 7.54077H6.36816V8.7946H7.33291V7.54077Z" fill="#757575"/>
<path d="M6.36822 23.8391H5.40283V25.0929H6.36822V23.8391Z" fill="#8E8E8D"/>
<path d="M6.36822 22.5857H5.40283V23.8391H6.36822V22.5857Z" fill="#8E8E8D"/>
<path d="M6.36822 21.3318H5.40283V22.5856H6.36822V21.3318Z" fill="#8E8E8D"/>
<path d="M6.36822 20.0779H5.40283V21.3317H6.36822V20.0779Z" fill="#757575"/>
<path d="M6.36822 18.8245H5.40283V20.0779H6.36822V18.8245Z" fill="#757575"/>
<path d="M6.36822 17.5708H5.40283V18.8246H6.36822V17.5708Z" fill="#757575"/>
<path d="M6.36822 16.3169H5.40283V17.5707H6.36822V16.3169Z" fill="#606060"/>
<path d="M6.36822 15.063H5.40283V16.3168H6.36822V15.063Z" fill="#606060"/>
<path d="M6.36822 13.8096H5.40283V15.063H6.36822V13.8096Z" fill="#606060"/>
<path d="M6.36822 12.5557H5.40283V13.8095H6.36822V12.5557Z" fill="#606060"/>
<path d="M6.36822 11.302H5.40283V12.5558H6.36822V11.302Z" fill="#3F3F3F"/>
<path d="M6.36822 10.0486H5.40283V11.302H6.36822V10.0486Z" fill="#3F3F3F"/>
<path d="M6.36822 8.79468H5.40283V10.0485H6.36822V8.79468Z" fill="#8E8E8D"/>
<path d="M6.36822 7.54077H5.40283V8.7946H6.36822V7.54077Z" fill="#8E8E8D"/>
<path d="M5.40274 23.8391H4.43799V25.0929H5.40274V23.8391Z" fill="#8E8E8D"/>
<path d="M5.40274 22.5857H4.43799V23.8391H5.40274V22.5857Z" fill="#8E8E8D"/>
<path d="M5.40274 21.3318H4.43799V22.5856H5.40274V21.3318Z" fill="#595959"/>
<path d="M5.40274 20.0779H4.43799V21.3317H5.40274V20.0779Z" fill="#595959"/>
<path d="M5.40274 18.8245H4.43799V20.0779H5.40274V18.8245Z" fill="#3F3F3F"/>
<path d="M5.40274 17.5708H4.43799V18.8246H5.40274V17.5708Z" fill="#3F3F3F"/>
<path d="M5.40274 16.3169H4.43799V17.5707H5.40274V16.3169Z" fill="#3F3F3F"/>
<path d="M5.40274 15.063H4.43799V16.3168H5.40274V15.063Z" fill="#3F3F3F"/>
<path d="M5.40274 13.8096H4.43799V15.063H5.40274V13.8096Z" fill="#3F3F3F"/>
<path d="M5.40274 12.5557H4.43799V13.8095H5.40274V12.5557Z" fill="#3F3F3F"/>
<path d="M5.40274 11.302H4.43799V12.5558H5.40274V11.302Z" fill="#8E8E8D"/>
<path d="M5.40274 10.0486H4.43799V11.302H5.40274V10.0486Z" fill="#8E8E8D"/>
<path d="M5.40274 8.79468H4.43799V10.0485H5.40274V8.79468Z" fill="#8E8E8D"/>
<path d="M4.43821 22.5857H3.47314V23.8391H4.43821V22.5857Z" fill="#8E8E8D"/>
<path d="M4.43821 21.3318H3.47314V22.5856H4.43821V21.3318Z" fill="#8E8E8D"/>
<path d="M4.43821 20.0779H3.47314V21.3317H4.43821V20.0779Z" fill="#8E8E8D"/>
<path d="M4.43821 18.8245H3.47314V20.0779H4.43821V18.8245Z" fill="#8E8E8D"/>
<path d="M4.43821 17.5708H3.47314V18.8246H4.43821V17.5708Z" fill="#8E8E8D"/>
<path d="M4.43821 16.3169H3.47314V17.5707H4.43821V16.3169Z" fill="#8E8E8D"/>
<path d="M4.43821 15.063H3.47314V16.3168H4.43821V15.063Z" fill="#8E8E8D"/>
<path d="M4.43821 13.8096H3.47314V15.063H4.43821V13.8096Z" fill="#8E8E8D"/>
<path d="M4.43821 12.5557H3.47314V13.8095H4.43821V12.5557Z" fill="#8E8E8D"/>
<path d="M4.43821 11.302H3.47314V12.5558H4.43821V11.302Z" fill="#8E8E8D"/>
</g>
<defs>
<clipPath id="clip0_13297_11791">
<rect width="28" height="21.3333" fill="white" transform="translate(2.5 6.2771)"/>
</clipPath>
</defs>
</svg>
