<svg width="33" height="33" viewBox="0 0 33 33" fill="none" xmlns="http://www.w3.org/2000/svg">
<g clip-path="url(#clip0_13297_12824)">
<path d="M14.0375 9.54663H12.3843V11.1847H14.0375V9.54663Z" fill="#4CC9FF"/>
<path d="M12.3852 11.1853H10.7319V12.8402H12.3852V11.1853Z" fill="#4CC9FF"/>
<path d="M14.0375 12.8403H12.3843V14.4784H14.0375V12.8403Z" fill="#4CC9FF"/>
<path d="M30.4999 16.1333H28.8467V17.7714H30.4999V16.1333Z" fill="#0E0E11"/>
<path d="M30.4999 14.4783H28.8467V16.1331H30.4999V14.4783Z" fill="#0E0E11"/>
<path d="M30.4999 12.8403H28.8467V14.4784H30.4999V12.8403Z" fill="#0E0E11"/>
<path d="M30.4999 11.1853H28.8467V12.8402H30.4999V11.1853Z" fill="#0E0E11"/>
<path d="M30.4999 9.54663H28.8467V11.1847H30.4999V9.54663Z" fill="#0E0E11"/>
<path d="M28.8469 17.7712H27.2104V19.4261H28.8469V17.7712Z" fill="#0E0E11"/>
<path d="M28.8469 16.1333H27.2104V17.7714H28.8469V16.1333Z" fill="#1FA1ED"/>
<path d="M28.8469 14.4783H27.2104V16.1331H28.8469V14.4783Z" fill="#1FA1ED"/>
<path d="M28.8469 12.8403H27.2104V14.4784H28.8469V12.8403Z" fill="#4CC9FF"/>
<path d="M28.8469 11.1853H27.2104V12.8402H28.8469V11.1853Z" fill="#4CC9FF"/>
<path d="M28.8469 9.54663H27.2104V11.1847H28.8469V9.54663Z" fill="#A4FFED"/>
<path d="M28.8469 7.8916H27.2104V9.54648H28.8469V7.8916Z" fill="#0E0E11"/>
<path d="M27.2113 19.4263H25.5581V21.0643H27.2113V19.4263Z" fill="#0E0E11"/>
<path d="M27.2113 17.7712H25.5581V19.4261H27.2113V17.7712Z" fill="#1FA1ED"/>
<path d="M27.2113 16.1333H25.5581V17.7714H27.2113V16.1333Z" fill="#4CC9FF"/>
<path d="M27.2113 14.4783H25.5581V16.1331H27.2113V14.4783Z" fill="#4CC9FF"/>
<path d="M27.2113 12.8403H25.5581V14.4784H27.2113V12.8403Z" fill="#4CC9FF"/>
<path d="M27.2113 11.1853H25.5581V12.8402H27.2113V11.1853Z" fill="#4CC9FF"/>
<path d="M27.2113 9.54663H25.5581V11.1847H27.2113V9.54663Z" fill="#A4FFED"/>
<path d="M27.2113 7.8916H25.5581V9.54648H27.2113V7.8916Z" fill="#4CC9FF"/>
<path d="M27.2113 6.23682H25.5581V7.89169H27.2113V6.23682Z" fill="#0E0E11"/>
<path d="M25.5578 21.0642H23.9214V22.7191H25.5578V21.0642Z" fill="#0E0E11"/>
<path d="M25.5578 19.4263H23.9214V21.0643H25.5578V19.4263Z" fill="#1FA1ED"/>
<path d="M25.5578 17.7712H23.9214V19.4261H25.5578V17.7712Z" fill="#A4FFED"/>
<path d="M25.5578 16.1333H23.9214V17.7714H25.5578V16.1333Z" fill="#4CC9FF"/>
<path d="M25.5578 14.4783H23.9214V16.1331H25.5578V14.4783Z" fill="#4CC9FF"/>
<path d="M25.5578 12.8403H23.9214V14.4784H25.5578V12.8403Z" fill="#4CC9FF"/>
<path d="M25.5578 11.1853H23.9214V12.8402H25.5578V11.1853Z" fill="#A4FFED"/>
<path d="M25.5578 9.54663H23.9214V11.1847H25.5578V9.54663Z" fill="#4CC9FF"/>
<path d="M25.5578 7.8916H23.9214V9.54648H25.5578V7.8916Z" fill="#4CC9FF"/>
<path d="M25.5578 6.23682H23.9214V7.89169H25.5578V6.23682Z" fill="#4CC9FF"/>
<path d="M25.5578 4.59863H23.9214V6.23669H25.5578V4.59863Z" fill="#0E0E11"/>
<path d="M23.9213 22.719H22.2681V24.357H23.9213V22.719Z" fill="#0E0E11"/>
<path d="M23.9213 21.0642H22.2681V22.7191H23.9213V21.0642Z" fill="#1FA1ED"/>
<path d="M23.9213 19.4263H22.2681V21.0643H23.9213V19.4263Z" fill="#4CC9FF"/>
<path d="M23.9213 17.7712H22.2681V19.4261H23.9213V17.7712Z" fill="#4CC9FF"/>
<path d="M23.9213 16.1333H22.2681V17.7714H23.9213V16.1333Z" fill="#A4FFED"/>
<path d="M23.9213 14.4783H22.2681V16.1331H23.9213V14.4783Z" fill="#A4FFED"/>
<path d="M23.9213 12.8403H22.2681V14.4784H23.9213V12.8403Z" fill="#4CC9FF"/>
<path d="M23.9213 11.1853H22.2681V12.8402H23.9213V11.1853Z" fill="#A4FFED"/>
<path d="M23.9213 9.54663H22.2681V11.1847H23.9213V9.54663Z" fill="#4CC9FF"/>
<path d="M23.9213 7.8916H22.2681V9.54648H23.9213V7.8916Z" fill="#4CC9FF"/>
<path d="M23.9213 6.23682H22.2681V7.89169H23.9213V6.23682Z" fill="#4CC9FF"/>
<path d="M23.9213 4.59863H22.2681V6.23669H23.9213V4.59863Z" fill="#A4FFED"/>
<path d="M23.9213 2.94385H22.2681V4.59872H23.9213V2.94385Z" fill="#0E0E11"/>
<path d="M22.269 24.3579H20.6157V26.0128H22.269V24.3579Z" fill="#0E0E11"/>
<path d="M22.269 22.719H20.6157V24.357H22.269V22.719Z" fill="#1FA1ED"/>
<path d="M22.269 21.0642H20.6157V22.7191H22.269V21.0642Z" fill="#4CC9FF"/>
<path d="M22.269 19.4263H20.6157V21.0643H22.269V19.4263Z" fill="#4CC9FF"/>
<path d="M22.269 17.7712H20.6157V19.4261H22.269V17.7712Z" fill="#A4FFED"/>
<path d="M22.269 16.1333H20.6157V17.7714H22.269V16.1333Z" fill="#4CC9FF"/>
<path d="M22.269 14.4783H20.6157V16.1331H22.269V14.4783Z" fill="#4CC9FF"/>
<path d="M22.269 12.8403H20.6157V14.4784H22.269V12.8403Z" fill="#A4FFED"/>
<path d="M22.269 11.1853H20.6157V12.8402H22.269V11.1853Z" fill="#4CC9FF"/>
<path d="M22.269 9.54663H20.6157V11.1847H22.269V9.54663Z" fill="#4CC9FF"/>
<path d="M22.269 7.8916H20.6157V9.54648H22.269V7.8916Z" fill="#4CC9FF"/>
<path d="M22.269 6.23682H20.6157V7.89169H22.269V6.23682Z" fill="#A4FFED"/>
<path d="M22.269 4.59863H20.6157V6.23669H22.269V4.59863Z" fill="white"/>
<path d="M22.269 2.94385H20.6157V4.59872H22.269V2.94385Z" fill="#0E0E11"/>
<path d="M20.6159 26.0129H18.9795V27.651H20.6159V26.0129Z" fill="#0E0E11"/>
<path d="M20.6159 24.3579H18.9795V26.0128H20.6159V24.3579Z" fill="#1FA1ED"/>
<path d="M20.6159 22.719H18.9795V24.357H20.6159V22.719Z" fill="#4CC9FF"/>
<path d="M20.6159 21.0642H18.9795V22.7191H20.6159V21.0642Z" fill="#4CC9FF"/>
<path d="M20.6159 19.4263H18.9795V21.0643H20.6159V19.4263Z" fill="#A4FFED"/>
<path d="M20.6159 17.7712H18.9795V19.4261H20.6159V17.7712Z" fill="#4CC9FF"/>
<path d="M20.6159 16.1333H18.9795V17.7714H20.6159V16.1333Z" fill="#4CC9FF"/>
<path d="M20.6159 14.4783H18.9795V16.1331H20.6159V14.4783Z" fill="#4CC9FF"/>
<path d="M20.6159 12.8403H18.9795V14.4784H20.6159V12.8403Z" fill="#4CC9FF"/>
<path d="M20.6159 11.1853H18.9795V12.8402H20.6159V11.1853Z" fill="#A4FFED"/>
<path d="M20.6159 9.54663H18.9795V11.1847H20.6159V9.54663Z" fill="#4CC9FF"/>
<path d="M20.6159 7.8916H18.9795V9.54648H20.6159V7.8916Z" fill="#A4FFED"/>
<path d="M20.6159 6.23682H18.9795V7.89169H20.6159V6.23682Z" fill="#4CC9FF"/>
<path d="M20.6159 4.59863H18.9795V6.23669H20.6159V4.59863Z" fill="white"/>
<path d="M20.6159 2.94385H18.9795V4.59872H20.6159V2.94385Z" fill="#0E0E11"/>
<path d="M18.9794 27.6509H17.3262V29.3058H18.9794V27.6509Z" fill="#0E0E11"/>
<path d="M18.9794 26.0129H17.3262V27.651H18.9794V26.0129Z" fill="#1FA1ED"/>
<path d="M18.9794 24.3579H17.3262V26.0128H18.9794V24.3579Z" fill="#4CC9FF"/>
<path d="M18.9794 22.719H17.3262V24.357H18.9794V22.719Z" fill="#4CC9FF"/>
<path d="M18.9794 21.0642H17.3262V22.7191H18.9794V21.0642Z" fill="#A4FFED"/>
<path d="M18.9794 19.4263H17.3262V21.0643H18.9794V19.4263Z" fill="#4CC9FF"/>
<path d="M18.9794 17.7712H17.3262V19.4261H18.9794V17.7712Z" fill="#4CC9FF"/>
<path d="M18.9794 16.1333H17.3262V17.7714H18.9794V16.1333Z" fill="#4CC9FF"/>
<path d="M18.9794 14.4783H17.3262V16.1331H18.9794V14.4783Z" fill="#4CC9FF"/>
<path d="M18.9794 12.8403H17.3262V14.4784H18.9794V12.8403Z" fill="#4CC9FF"/>
<path d="M18.9794 11.1853H17.3262V12.8402H18.9794V11.1853Z" fill="#4CC9FF"/>
<path d="M18.9794 9.54663H17.3262V11.1847H18.9794V9.54663Z" fill="#A4FFED"/>
<path d="M18.9794 7.8916H17.3262V9.54648H18.9794V7.8916Z" fill="white"/>
<path d="M18.9794 6.23682H17.3262V7.89169H18.9794V6.23682Z" fill="#4CC9FF"/>
<path d="M18.9794 4.59863H17.3262V6.23669H18.9794V4.59863Z" fill="white"/>
<path d="M18.9794 2.94385H17.3262V4.59872H18.9794V2.94385Z" fill="#0E0E11"/>
<path d="M17.3271 29.3059H15.6738V30.944H17.3271V29.3059Z" fill="#0E0E11"/>
<path d="M17.3271 27.6509H15.6738V29.3058H17.3271V27.6509Z" fill="#A4FFED"/>
<path d="M17.3271 26.0129H15.6738V27.651H17.3271V26.0129Z" fill="#A4FFED"/>
<path d="M17.3271 24.3579H15.6738V26.0128H17.3271V24.3579Z" fill="#A4FFED"/>
<path d="M17.3271 22.719H15.6738V24.357H17.3271V22.719Z" fill="#A4FFED"/>
<path d="M17.3271 21.0642H15.6738V22.7191H17.3271V21.0642Z" fill="#4CC9FF"/>
<path d="M17.3271 19.4263H15.6738V21.0643H17.3271V19.4263Z" fill="#4CC9FF"/>
<path d="M17.3271 17.7712H15.6738V19.4261H17.3271V17.7712Z" fill="#4CC9FF"/>
<path d="M17.3271 16.1333H15.6738V17.7714H17.3271V16.1333Z" fill="#4CC9FF"/>
<path d="M17.3271 14.4783H15.6738V16.1331H17.3271V14.4783Z" fill="#4CC9FF"/>
<path d="M17.3271 12.8403H15.6738V14.4784H17.3271V12.8403Z" fill="#4CC9FF"/>
<path d="M17.3271 11.1853H15.6738V12.8402H17.3271V11.1853Z" fill="#4CC9FF"/>
<path d="M17.3271 9.54663H15.6738V11.1847H17.3271V9.54663Z" fill="#A4FFED"/>
<path d="M17.3271 7.8916H15.6738V9.54648H17.3271V7.8916Z" fill="white"/>
<path d="M17.3271 6.23682H15.6738V7.89169H17.3271V6.23682Z" fill="#4CC9FF"/>
<path d="M17.3271 4.59863H15.6738V6.23669H17.3271V4.59863Z" fill="white"/>
<path d="M17.3271 2.94385H15.6738V4.59872H17.3271V2.94385Z" fill="#0E0E11"/>
<path d="M15.674 27.6509H14.0376V29.3058H15.674V27.6509Z" fill="#0E0E11"/>
<path d="M15.674 26.0129H14.0376V27.651H15.674V26.0129Z" fill="#1FA1ED"/>
<path d="M15.674 24.3579H14.0376V26.0128H15.674V24.3579Z" fill="#4CC9FF"/>
<path d="M15.674 22.719H14.0376V24.357H15.674V22.719Z" fill="#4CC9FF"/>
<path d="M15.674 21.0642H14.0376V22.7191H15.674V21.0642Z" fill="#A4FFED"/>
<path d="M15.674 19.4263H14.0376V21.0643H15.674V19.4263Z" fill="#4CC9FF"/>
<path d="M15.674 17.7712H14.0376V19.4261H15.674V17.7712Z" fill="#4CC9FF"/>
<path d="M15.674 16.1333H14.0376V17.7714H15.674V16.1333Z" fill="#4CC9FF"/>
<path d="M15.674 14.4783H14.0376V16.1331H15.674V14.4783Z" fill="#4CC9FF"/>
<path d="M15.674 12.8403H14.0376V14.4784H15.674V12.8403Z" fill="white"/>
<path d="M15.674 11.1853H14.0376V12.8402H15.674V11.1853Z" fill="#4CC9FF"/>
<path d="M15.674 9.54663H14.0376V11.1847H15.674V9.54663Z" fill="#A4FFED"/>
<path d="M15.674 7.8916H14.0376V9.54648H15.674V7.8916Z" fill="white"/>
<path d="M15.674 6.23682H14.0376V7.89169H15.674V6.23682Z" fill="#4CC9FF"/>
<path d="M15.674 4.59863H14.0376V6.23669H15.674V4.59863Z" fill="white"/>
<path d="M15.674 2.94385H14.0376V4.59872H15.674V2.94385Z" fill="#0E0E11"/>
<path d="M14.0375 26.0129H12.3843V27.651H14.0375V26.0129Z" fill="#0E0E11"/>
<path d="M14.0375 24.3579H12.3843V26.0128H14.0375V24.3579Z" fill="#1FA1ED"/>
<path d="M14.0375 22.719H12.3843V24.357H14.0375V22.719Z" fill="#4CC9FF"/>
<path d="M14.0375 21.0642H12.3843V22.7191H14.0375V21.0642Z" fill="#4CC9FF"/>
<path d="M14.0375 19.4263H12.3843V21.0643H14.0375V19.4263Z" fill="#A4FFED"/>
<path d="M14.0375 17.7712H12.3843V19.4261H14.0375V17.7712Z" fill="#4CC9FF"/>
<path d="M14.0375 16.1333H12.3843V17.7714H14.0375V16.1333Z" fill="#4CC9FF"/>
<path d="M14.0375 14.4783H12.3843V16.1331H14.0375V14.4783Z" fill="white"/>
<path d="M14.0375 11.1853H12.3843V12.8402H14.0375V11.1853Z" fill="#A4FFED"/>
<path d="M14.0375 7.8916H12.3843V9.54648H14.0375V7.8916Z" fill="#A4FFED"/>
<path d="M14.0375 6.23682H12.3843V7.89169H14.0375V6.23682Z" fill="#4CC9FF"/>
<path d="M14.0375 4.59863H12.3843V6.23669H14.0375V4.59863Z" fill="white"/>
<path d="M14.0375 2.94385H12.3843V4.59872H14.0375V2.94385Z" fill="#0E0E11"/>
<path d="M12.3852 24.3579H10.7319V26.0128H12.3852V24.3579Z" fill="#0E0E11"/>
<path d="M12.3852 22.719H10.7319V24.357H12.3852V22.719Z" fill="#1FA1ED"/>
<path d="M12.3852 21.0642H10.7319V22.7191H12.3852V21.0642Z" fill="#4CC9FF"/>
<path d="M12.3852 19.4263H10.7319V21.0643H12.3852V19.4263Z" fill="#4CC9FF"/>
<path d="M12.3852 17.7712H10.7319V19.4261H12.3852V17.7712Z" fill="#A4FFED"/>
<path d="M12.3852 16.1333H10.7319V17.7714H12.3852V16.1333Z" fill="#4CC9FF"/>
<path d="M12.3852 14.4783H10.7319V16.1331H12.3852V14.4783Z" fill="#4CC9FF"/>
<path d="M12.3852 12.8403H10.7319V14.4784H12.3852V12.8403Z" fill="#A4FFED"/>
<path d="M12.3852 9.54663H10.7319V11.1847H12.3852V9.54663Z" fill="white"/>
<path d="M12.3852 7.8916H10.7319V9.54648H12.3852V7.8916Z" fill="#4CC9FF"/>
<path d="M12.3852 6.23682H10.7319V7.89169H12.3852V6.23682Z" fill="#A4FFED"/>
<path d="M12.3852 4.59863H10.7319V6.23669H12.3852V4.59863Z" fill="white"/>
<path d="M12.3852 2.94385H10.7319V4.59872H12.3852V2.94385Z" fill="#0E0E11"/>
<path d="M10.7316 22.719H9.09521V24.357H10.7316V22.719Z" fill="#0E0E11"/>
<path d="M10.7316 21.0642H9.09521V22.7191H10.7316V21.0642Z" fill="#1FA1ED"/>
<path d="M10.7316 19.4263H9.09521V21.0643H10.7316V19.4263Z" fill="#4CC9FF"/>
<path d="M10.7316 17.7712H9.09521V19.4261H10.7316V17.7712Z" fill="#4CC9FF"/>
<path d="M10.7316 16.1333H9.09521V17.7714H10.7316V16.1333Z" fill="#A4FFED"/>
<path d="M10.7316 14.4783H9.09521V16.1331H10.7316V14.4783Z" fill="#A4FFED"/>
<path d="M10.7316 12.8403H9.09521V14.4784H10.7316V12.8403Z" fill="white"/>
<path d="M10.7316 11.1853H9.09521V12.8402H10.7316V11.1853Z" fill="#A4FFED"/>
<path d="M10.7316 9.54663H9.09521V11.1847H10.7316V9.54663Z" fill="#4CC9FF"/>
<path d="M10.7316 7.8916H9.09521V9.54648H10.7316V7.8916Z" fill="#4CC9FF"/>
<path d="M10.7316 6.23682H9.09521V7.89169H10.7316V6.23682Z" fill="#4CC9FF"/>
<path d="M10.7316 4.59863H9.09521V6.23669H10.7316V4.59863Z" fill="#A4FFED"/>
<path d="M10.7316 2.94385H9.09521V4.59872H10.7316V2.94385Z" fill="#0E0E11"/>
<path d="M9.09514 21.0642H7.44189V22.7191H9.09514V21.0642Z" fill="#0E0E11"/>
<path d="M9.09514 19.4263H7.44189V21.0643H9.09514V19.4263Z" fill="#4CC9FF"/>
<path d="M9.09514 17.7712H7.44189V19.4261H9.09514V17.7712Z" fill="#A4FFED"/>
<path d="M9.09514 16.1333H7.44189V17.7714H9.09514V16.1333Z" fill="white"/>
<path d="M9.09514 14.4783H7.44189V16.1331H9.09514V14.4783Z" fill="white"/>
<path d="M9.09514 12.8403H7.44189V14.4784H9.09514V12.8403Z" fill="#4CC9FF"/>
<path d="M9.09514 11.1853H7.44189V12.8402H9.09514V11.1853Z" fill="#A4FFED"/>
<path d="M9.09514 9.54663H7.44189V11.1847H9.09514V9.54663Z" fill="#4CC9FF"/>
<path d="M9.09514 7.8916H7.44189V9.54648H9.09514V7.8916Z" fill="#4CC9FF"/>
<path d="M9.09514 6.23682H7.44189V7.89169H9.09514V6.23682Z" fill="white"/>
<path d="M9.09514 4.59863H7.44189V6.23669H9.09514V4.59863Z" fill="#0E0E11"/>
<path d="M7.44209 19.4263H5.80566V21.0643H7.44209V19.4263Z" fill="#0E0E11"/>
<path d="M7.44209 17.7712H5.80566V19.4261H7.44209V17.7712Z" fill="#4CC9FF"/>
<path d="M7.44209 16.1333H5.80566V17.7714H7.44209V16.1333Z" fill="#4CC9FF"/>
<path d="M7.44209 14.4783H5.80566V16.1331H7.44209V14.4783Z" fill="#4CC9FF"/>
<path d="M7.44209 12.8403H5.80566V14.4784H7.44209V12.8403Z" fill="#4CC9FF"/>
<path d="M7.44209 11.1853H5.80566V12.8402H7.44209V11.1853Z" fill="#4CC9FF"/>
<path d="M7.44209 9.54663H5.80566V11.1847H7.44209V9.54663Z" fill="#A4FFED"/>
<path d="M7.44209 7.8916H5.80566V9.54648H7.44209V7.8916Z" fill="white"/>
<path d="M7.44209 6.23682H5.80566V7.89169H7.44209V6.23682Z" fill="#0E0E11"/>
<path d="M5.80656 17.7712H4.15332V19.4261H5.80656V17.7712Z" fill="#0E0E11"/>
<path d="M5.80656 16.1333H4.15332V17.7714H5.80656V16.1333Z" fill="white"/>
<path d="M5.80656 14.4783H4.15332V16.1331H5.80656V14.4783Z" fill="white"/>
<path d="M5.80656 12.8403H4.15332V14.4784H5.80656V12.8403Z" fill="white"/>
<path d="M5.80656 11.1853H4.15332V12.8402H5.80656V11.1853Z" fill="white"/>
<path d="M5.80656 9.54663H4.15332V11.1847H5.80656V9.54663Z" fill="#A4FFED"/>
<path d="M5.80656 7.8916H4.15332V9.54648H5.80656V7.8916Z" fill="#0E0E11"/>
<path d="M4.15324 16.1333H2.5V17.7714H4.15324V16.1333Z" fill="#0E0E11"/>
<path d="M4.15324 14.4783H2.5V16.1331H4.15324V14.4783Z" fill="#0E0E11"/>
<path d="M4.15324 12.8403H2.5V14.4784H4.15324V12.8403Z" fill="#0E0E11"/>
<path d="M4.15324 11.1853H2.5V12.8402H4.15324V11.1853Z" fill="#0E0E11"/>
<path d="M4.15324 9.54663H2.5V11.1847H4.15324V9.54663Z" fill="#0E0E11"/>
</g>
<defs>
<clipPath id="clip0_13297_12824">
<rect width="28" height="28" fill="white" transform="translate(2.5 2.94385)"/>
</clipPath>
</defs>
</svg>
