<svg width="33" height="33" viewBox="0 0 33 33" fill="none" xmlns="http://www.w3.org/2000/svg">
<g clip-path="url(#clip0_13297_12484)">
<path d="M27.5554 8.8374H26.0762V10.3181H27.5554V8.8374Z" fill="#0E0E11"/>
<path d="M27.5554 7.35596H26.0762V8.83669H27.5554V7.35596Z" fill="#0E0E11"/>
<path d="M27.5554 5.89038H26.0762V7.35607H27.5554V5.89038Z" fill="#0E0E11"/>
<path d="M26.0765 27.9973H24.6123V29.463H26.0765V27.9973Z" fill="#0E0E11"/>
<path d="M26.0765 11.7839H24.6123V13.2647H26.0765V11.7839Z" fill="#0E0E11"/>
<path d="M26.0765 10.3174H24.6123V11.7831H26.0765V10.3174Z" fill="#0E0E11"/>
<path d="M26.0765 8.8374H24.6123V10.3181H26.0765V8.8374Z" fill="#F1B380"/>
<path d="M26.0765 7.35596H24.6123V8.83669H26.0765V7.35596Z" fill="#F1B380"/>
<path d="M26.0765 5.89038H24.6123V7.35607H26.0765V5.89038Z" fill="#F1B380"/>
<path d="M26.0765 4.40942H24.6123V5.89016H26.0765V4.40942Z" fill="#0E0E11"/>
<path d="M24.612 27.9973H23.1328V29.463H24.612V27.9973Z" fill="#0E0E11"/>
<path d="M24.612 26.5166H23.1328V27.9973H24.612V26.5166Z" fill="#0E0E11"/>
<path d="M24.612 14.7302H23.1328V16.211H24.612V14.7302Z" fill="#0E0E11"/>
<path d="M24.612 13.2646H23.1328V14.7303H24.612V13.2646Z" fill="#0E0E11"/>
<path d="M24.612 11.7839H23.1328V13.2647H24.612V11.7839Z" fill="#F1B380"/>
<path d="M24.612 10.3174H23.1328V11.7831H24.612V10.3174Z" fill="#F1B380"/>
<path d="M24.612 8.8374H23.1328V10.3181H24.612V8.8374Z" fill="#F1B380"/>
<path d="M24.612 7.35596H23.1328V8.83669H24.612V7.35596Z" fill="#E4976F"/>
<path d="M24.612 5.89038H23.1328V7.35607H24.612V5.89038Z" fill="#F1B380"/>
<path d="M24.612 4.40942H23.1328V5.89016H24.612V4.40942Z" fill="#FFCB8B"/>
<path d="M24.612 2.94385H23.1328V4.40953H24.612V2.94385Z" fill="#0E0E11"/>
<path d="M23.1335 29.4631H21.6543V30.9439H23.1335V29.4631Z" fill="#E32121"/>
<path d="M23.1335 27.9973H21.6543V29.463H23.1335V27.9973Z" fill="#E32121"/>
<path d="M23.1335 26.5166H21.6543V27.9973H23.1335V26.5166Z" fill="#FFCB8B"/>
<path d="M23.1335 25.051H21.6543V26.5167H23.1335V25.051Z" fill="#0E0E11"/>
<path d="M23.1335 23.5703H21.6543V25.051H23.1335V23.5703Z" fill="#0E0E11"/>
<path d="M23.1335 17.6768H21.6543V19.1575H23.1335V17.6768Z" fill="#0E0E11"/>
<path d="M23.1335 16.2109H21.6543V17.6766H23.1335V16.2109Z" fill="#0E0E11"/>
<path d="M23.1335 14.7302H21.6543V16.211H23.1335V14.7302Z" fill="#F1B380"/>
<path d="M23.1335 13.2646H21.6543V14.7303H23.1335V13.2646Z" fill="#F1B380"/>
<path d="M23.1335 11.7839H21.6543V13.2647H23.1335V11.7839Z" fill="#F1B380"/>
<path d="M23.1335 10.3174H21.6543V11.7831H23.1335V10.3174Z" fill="#E4976F"/>
<path d="M23.1335 8.8374H21.6543V10.3181H23.1335V8.8374Z" fill="#F1B380"/>
<path d="M23.1335 7.35596H21.6543V8.83669H23.1335V7.35596Z" fill="#E4976F"/>
<path d="M23.1335 5.89038H21.6543V7.35607H23.1335V5.89038Z" fill="#F1B380"/>
<path d="M23.1335 4.40942H21.6543V5.89016H23.1335V4.40942Z" fill="#FFCB8B"/>
<path d="M23.1335 2.94385H21.6543V4.40953H23.1335V2.94385Z" fill="#0E0E11"/>
<path d="M21.6546 27.9973H20.1904V29.463H21.6546V27.9973Z" fill="#0E0E11"/>
<path d="M21.6546 26.5166H20.1904V27.9973H21.6546V26.5166Z" fill="#E32121"/>
<path d="M21.6546 25.051H20.1904V26.5167H21.6546V25.051Z" fill="#F1B380"/>
<path d="M21.6546 23.5703H20.1904V25.051H21.6546V23.5703Z" fill="#F1B380"/>
<path d="M21.6546 22.1045H20.1904V23.5702H21.6546V22.1045Z" fill="#0E0E11"/>
<path d="M21.6546 20.6238H20.1904V22.1045H21.6546V20.6238Z" fill="#0E0E11"/>
<path d="M21.6546 19.1575H20.1904V20.6232H21.6546V19.1575Z" fill="#0E0E11"/>
<path d="M21.6546 17.6768H20.1904V19.1575H21.6546V17.6768Z" fill="#F1B380"/>
<path d="M21.6546 16.2109H20.1904V17.6766H21.6546V16.2109Z" fill="#F1B380"/>
<path d="M21.6546 14.7302H20.1904V16.211H21.6546V14.7302Z" fill="#F1B380"/>
<path d="M21.6546 13.2646H20.1904V14.7303H21.6546V13.2646Z" fill="#E4976F"/>
<path d="M21.6546 11.7839H20.1904V13.2647H21.6546V11.7839Z" fill="#F1B380"/>
<path d="M21.6546 10.3174H20.1904V11.7831H21.6546V10.3174Z" fill="#E4976F"/>
<path d="M21.6546 8.8374H20.1904V10.3181H21.6546V8.8374Z" fill="#F1B380"/>
<path d="M21.6546 7.35596H20.1904V8.83669H21.6546V7.35596Z" fill="#E4976F"/>
<path d="M21.6546 5.89038H20.1904V7.35607H21.6546V5.89038Z" fill="#F1B380"/>
<path d="M21.6546 4.40942H20.1904V5.89016H21.6546V4.40942Z" fill="#FFCB8B"/>
<path d="M21.6546 2.94385H20.1904V4.40953H21.6546V2.94385Z" fill="#0E0E11"/>
<path d="M20.1902 27.9973H18.7109V29.463H20.1902V27.9973Z" fill="#0E0E11"/>
<path d="M20.1902 26.5166H18.7109V27.9973H20.1902V26.5166Z" fill="#FFCB8B"/>
<path d="M20.1902 25.051H18.7109V26.5167H20.1902V25.051Z" fill="#EA9E09"/>
<path d="M20.1902 23.5703H18.7109V25.051H20.1902V23.5703Z" fill="#EA9E09"/>
<path d="M20.1902 22.1045H18.7109V23.5702H20.1902V22.1045Z" fill="#F1B380"/>
<path d="M20.1902 20.6238H18.7109V22.1045H20.1902V20.6238Z" fill="#F1B380"/>
<path d="M20.1902 19.1575H18.7109V20.6232H20.1902V19.1575Z" fill="#F1B380"/>
<path d="M20.1902 17.6768H18.7109V19.1575H20.1902V17.6768Z" fill="#F1B380"/>
<path d="M20.1902 16.2109H18.7109V17.6766H20.1902V16.2109Z" fill="#E4976F"/>
<path d="M20.1902 14.7302H18.7109V16.211H20.1902V14.7302Z" fill="#F1B380"/>
<path d="M20.1902 13.2646H18.7109V14.7303H20.1902V13.2646Z" fill="#E4976F"/>
<path d="M20.1902 11.7839H18.7109V13.2647H20.1902V11.7839Z" fill="#F1B380"/>
<path d="M20.1902 10.3174H18.7109V11.7831H20.1902V10.3174Z" fill="#E4976F"/>
<path d="M20.1902 8.8374H18.7109V10.3181H20.1902V8.8374Z" fill="#F1B380"/>
<path d="M20.1902 7.35596H18.7109V8.83669H20.1902V7.35596Z" fill="#E4976F"/>
<path d="M20.1902 5.89038H18.7109V7.35607H20.1902V5.89038Z" fill="#F1B380"/>
<path d="M20.1902 4.40942H18.7109V5.89016H20.1902V4.40942Z" fill="#FFCB8B"/>
<path d="M20.1902 2.94385H18.7109V4.40953H20.1902V2.94385Z" fill="#0E0E11"/>
<path d="M18.7108 27.9973H17.2466V29.463H18.7108V27.9973Z" fill="#0E0E11"/>
<path d="M18.7108 26.5166H17.2466V27.9973H18.7108V26.5166Z" fill="#FFCB8B"/>
<path d="M18.7108 25.051H17.2466V26.5167H18.7108V25.051Z" fill="#EA9E09"/>
<path d="M18.7108 23.5703H17.2466V25.051H18.7108V23.5703Z" fill="#EA9E09"/>
<path d="M18.7108 22.1045H17.2466V23.5702H18.7108V22.1045Z" fill="#E4976F"/>
<path d="M18.7108 20.6238H17.2466V22.1045H18.7108V20.6238Z" fill="#F1B380"/>
<path d="M18.7108 19.1575H17.2466V20.6232H18.7108V19.1575Z" fill="#E4976F"/>
<path d="M18.7108 17.6768H17.2466V19.1575H18.7108V17.6768Z" fill="#F1B380"/>
<path d="M18.7108 16.2109H17.2466V17.6766H18.7108V16.2109Z" fill="#E4976F"/>
<path d="M18.7108 14.7302H17.2466V16.211H18.7108V14.7302Z" fill="#F1B380"/>
<path d="M18.7108 13.2646H17.2466V14.7303H18.7108V13.2646Z" fill="#E4976F"/>
<path d="M18.7108 11.7839H17.2466V13.2647H18.7108V11.7839Z" fill="#F1B380"/>
<path d="M18.7108 10.3174H17.2466V11.7831H18.7108V10.3174Z" fill="#E4976F"/>
<path d="M18.7108 8.8374H17.2466V10.3181H18.7108V8.8374Z" fill="#F1B380"/>
<path d="M18.7108 7.35596H17.2466V8.83669H18.7108V7.35596Z" fill="#E4976F"/>
<path d="M18.7108 5.89038H17.2466V7.35607H18.7108V5.89038Z" fill="#F1B380"/>
<path d="M18.7108 4.40942H17.2466V5.89016H18.7108V4.40942Z" fill="#FFCB8B"/>
<path d="M18.7108 2.94385H17.2466V4.40953H18.7108V2.94385Z" fill="#0E0E11"/>
<path d="M17.2473 27.9973H15.7681V29.463H17.2473V27.9973Z" fill="#0E0E11"/>
<path d="M17.2473 26.5166H15.7681V27.9973H17.2473V26.5166Z" fill="#FFCB8B"/>
<path d="M17.2473 25.051H15.7681V26.5167H17.2473V25.051Z" fill="#F1B380"/>
<path d="M17.2473 23.5703H15.7681V25.051H17.2473V23.5703Z" fill="#F1B380"/>
<path d="M17.2473 22.1045H15.7681V23.5702H17.2473V22.1045Z" fill="#E4976F"/>
<path d="M17.2473 20.6238H15.7681V22.1045H17.2473V20.6238Z" fill="#F1B380"/>
<path d="M17.2473 19.1575H15.7681V20.6232H17.2473V19.1575Z" fill="#E4976F"/>
<path d="M17.2473 17.6768H15.7681V19.1575H17.2473V17.6768Z" fill="#F1B380"/>
<path d="M17.2473 16.2109H15.7681V17.6766H17.2473V16.2109Z" fill="#E4976F"/>
<path d="M17.2473 14.7302H15.7681V16.211H17.2473V14.7302Z" fill="#F1B380"/>
<path d="M17.2473 13.2646H15.7681V14.7303H17.2473V13.2646Z" fill="#E4976F"/>
<path d="M17.2473 11.7839H15.7681V13.2647H17.2473V11.7839Z" fill="#F1B380"/>
<path d="M17.2473 10.3174H15.7681V11.7831H17.2473V10.3174Z" fill="#E4976F"/>
<path d="M17.2473 8.8374H15.7681V10.3181H17.2473V8.8374Z" fill="#F1B380"/>
<path d="M17.2473 7.35596H15.7681V8.83669H17.2473V7.35596Z" fill="#E4976F"/>
<path d="M17.2473 5.89038H15.7681V7.35607H17.2473V5.89038Z" fill="#F1B380"/>
<path d="M17.2473 4.40942H15.7681V5.89016H17.2473V4.40942Z" fill="#FFCB8B"/>
<path d="M17.2473 2.94385H15.7681V4.40953H17.2473V2.94385Z" fill="#0E0E11"/>
<path d="M15.7683 27.9973H14.2891V29.463H15.7683V27.9973Z" fill="#0E0E11"/>
<path d="M15.7683 26.5166H14.2891V27.9973H15.7683V26.5166Z" fill="#FFCB8B"/>
<path d="M15.7683 25.051H14.2891V26.5167H15.7683V25.051Z" fill="#F1B380"/>
<path d="M15.7683 23.5703H14.2891V25.051H15.7683V23.5703Z" fill="#F1B380"/>
<path d="M15.7683 22.1045H14.2891V23.5702H15.7683V22.1045Z" fill="#E4976F"/>
<path d="M15.7683 20.6238H14.2891V22.1045H15.7683V20.6238Z" fill="#F1B380"/>
<path d="M15.7683 19.1575H14.2891V20.6232H15.7683V19.1575Z" fill="#E4976F"/>
<path d="M15.7683 17.6768H14.2891V19.1575H15.7683V17.6768Z" fill="#F1B380"/>
<path d="M15.7683 16.2109H14.2891V17.6766H15.7683V16.2109Z" fill="#E4976F"/>
<path d="M15.7683 14.7302H14.2891V16.211H15.7683V14.7302Z" fill="#F1B380"/>
<path d="M15.7683 13.2646H14.2891V14.7303H15.7683V13.2646Z" fill="#E4976F"/>
<path d="M15.7683 11.7839H14.2891V13.2647H15.7683V11.7839Z" fill="#F1B380"/>
<path d="M15.7683 10.3174H14.2891V11.7831H15.7683V10.3174Z" fill="#E4976F"/>
<path d="M15.7683 8.8374H14.2891V10.3181H15.7683V8.8374Z" fill="#F1B380"/>
<path d="M15.7683 7.35596H14.2891V8.83669H15.7683V7.35596Z" fill="#F1B380"/>
<path d="M15.7683 5.89038H14.2891V7.35607H15.7683V5.89038Z" fill="#F1B380"/>
<path d="M15.7683 4.40942H14.2891V5.89016H15.7683V4.40942Z" fill="#FFCB8B"/>
<path d="M15.7683 2.94385H14.2891V4.40953H15.7683V2.94385Z" fill="#0E0E11"/>
<path d="M14.2889 27.9973H12.8247V29.463H14.2889V27.9973Z" fill="#0E0E11"/>
<path d="M14.2889 26.5166H12.8247V27.9973H14.2889V26.5166Z" fill="#FFCB8B"/>
<path d="M14.2889 25.051H12.8247V26.5167H14.2889V25.051Z" fill="#F1B380"/>
<path d="M14.2889 23.5703H12.8247V25.051H14.2889V23.5703Z" fill="#F1B380"/>
<path d="M14.2889 22.1045H12.8247V23.5702H14.2889V22.1045Z" fill="#E4976F"/>
<path d="M14.2889 20.6238H12.8247V22.1045H14.2889V20.6238Z" fill="#F1B380"/>
<path d="M14.2889 19.1575H12.8247V20.6232H14.2889V19.1575Z" fill="#E4976F"/>
<path d="M14.2889 17.6768H12.8247V19.1575H14.2889V17.6768Z" fill="#F1B380"/>
<path d="M14.2889 16.2109H12.8247V17.6766H14.2889V16.2109Z" fill="#E4976F"/>
<path d="M14.2889 14.7302H12.8247V16.211H14.2889V14.7302Z" fill="#F1B380"/>
<path d="M14.2889 13.2646H12.8247V14.7303H14.2889V13.2646Z" fill="#E4976F"/>
<path d="M14.2889 11.7839H12.8247V13.2647H14.2889V11.7839Z" fill="#F1B380"/>
<path d="M14.2889 10.3174H12.8247V11.7831H14.2889V10.3174Z" fill="#F1B380"/>
<path d="M14.2889 8.8374H12.8247V10.3181H14.2889V8.8374Z" fill="#FFCB8B"/>
<path d="M14.2889 7.35596H12.8247V8.83669H14.2889V7.35596Z" fill="#FFCB8B"/>
<path d="M14.2889 5.89038H12.8247V7.35607H14.2889V5.89038Z" fill="#FFCB8B"/>
<path d="M14.2889 4.40942H12.8247V5.89016H14.2889V4.40942Z" fill="#FFCB8B"/>
<path d="M14.2889 2.94385H12.8247V4.40953H14.2889V2.94385Z" fill="#0E0E11"/>
<path d="M12.8254 27.9973H11.3462V29.463H12.8254V27.9973Z" fill="#0E0E11"/>
<path d="M12.8254 26.5166H11.3462V27.9973H12.8254V26.5166Z" fill="#FFCB8B"/>
<path d="M12.8254 25.051H11.3462V26.5167H12.8254V25.051Z" fill="#F1B380"/>
<path d="M12.8254 23.5703H11.3462V25.051H12.8254V23.5703Z" fill="#F1B380"/>
<path d="M12.8254 22.1045H11.3462V23.5702H12.8254V22.1045Z" fill="#E4976F"/>
<path d="M12.8254 20.6238H11.3462V22.1045H12.8254V20.6238Z" fill="#F1B380"/>
<path d="M12.8254 19.1575H11.3462V20.6232H12.8254V19.1575Z" fill="#E4976F"/>
<path d="M12.8254 17.6768H11.3462V19.1575H12.8254V17.6768Z" fill="#F1B380"/>
<path d="M12.8254 16.2109H11.3462V17.6766H12.8254V16.2109Z" fill="#E4976F"/>
<path d="M12.8254 14.7302H11.3462V16.211H12.8254V14.7302Z" fill="#F1B380"/>
<path d="M12.8254 13.2646H11.3462V14.7303H12.8254V13.2646Z" fill="#F1B380"/>
<path d="M12.8254 11.7839H11.3462V13.2647H12.8254V11.7839Z" fill="#FFCB8B"/>
<path d="M12.8254 10.3174H11.3462V11.7831H12.8254V10.3174Z" fill="#FFCB8B"/>
<path d="M12.8254 8.8374H11.3462V10.3181H12.8254V8.8374Z" fill="#0E0E11"/>
<path d="M12.8254 7.35596H11.3462V8.83669H12.8254V7.35596Z" fill="#0E0E11"/>
<path d="M12.8254 5.89038H11.3462V7.35607H12.8254V5.89038Z" fill="#0E0E11"/>
<path d="M12.8254 4.40942H11.3462V5.89016H12.8254V4.40942Z" fill="#FFCB8B"/>
<path d="M12.8254 2.94385H11.3462V4.40953H12.8254V2.94385Z" fill="#0E0E11"/>
<path d="M11.3464 27.9973H9.86719V29.463H11.3464V27.9973Z" fill="#0E0E11"/>
<path d="M11.3464 26.5166H9.86719V27.9973H11.3464V26.5166Z" fill="#FFCB8B"/>
<path d="M11.3464 25.051H9.86719V26.5167H11.3464V25.051Z" fill="#F1B380"/>
<path d="M11.3464 23.5703H9.86719V25.051H11.3464V23.5703Z" fill="#F1B380"/>
<path d="M11.3464 22.1045H9.86719V23.5702H11.3464V22.1045Z" fill="#E4976F"/>
<path d="M11.3464 20.6238H9.86719V22.1045H11.3464V20.6238Z" fill="#F1B380"/>
<path d="M11.3464 19.1575H9.86719V20.6232H11.3464V19.1575Z" fill="#E4976F"/>
<path d="M11.3464 17.6768H9.86719V19.1575H11.3464V17.6768Z" fill="#F1B380"/>
<path d="M11.3464 16.2109H9.86719V17.6766H11.3464V16.2109Z" fill="#F1B380"/>
<path d="M11.3464 14.7302H9.86719V16.211H11.3464V14.7302Z" fill="#FFCB8B"/>
<path d="M11.3464 13.2646H9.86719V14.7303H11.3464V13.2646Z" fill="#FFCB8B"/>
<path d="M11.3464 11.7839H9.86719V13.2647H11.3464V11.7839Z" fill="#0E0E11"/>
<path d="M11.3464 10.3174H9.86719V11.7831H11.3464V10.3174Z" fill="#0E0E11"/>
<path d="M11.3464 8.8374H9.86719V10.3181H11.3464V8.8374Z" fill="#E4976F"/>
<path d="M11.3464 7.35596H9.86719V8.83669H11.3464V7.35596Z" fill="#E4976F"/>
<path d="M11.3464 5.89038H9.86719V7.35607H11.3464V5.89038Z" fill="#E4976F"/>
<path d="M11.3464 4.40942H9.86719V5.89016H11.3464V4.40942Z" fill="#0E0E11"/>
<path d="M11.3464 2.94385H9.86719V4.40953H11.3464V2.94385Z" fill="#0E0E11"/>
<path d="M9.86701 26.5166H8.40283V27.9973H9.86701V26.5166Z" fill="#0E0E11"/>
<path d="M9.86701 25.051H8.40283V26.5167H9.86701V25.051Z" fill="#FFCB8B"/>
<path d="M9.86701 23.5703H8.40283V25.051H9.86701V23.5703Z" fill="#FFCB8B"/>
<path d="M9.86701 22.1045H8.40283V23.5702H9.86701V22.1045Z" fill="#F1B380"/>
<path d="M9.86701 20.6238H8.40283V22.1045H9.86701V20.6238Z" fill="#F1B380"/>
<path d="M9.86701 19.1575H8.40283V20.6232H9.86701V19.1575Z" fill="#F1B380"/>
<path d="M9.86701 17.6768H8.40283V19.1575H9.86701V17.6768Z" fill="#FFCB8B"/>
<path d="M9.86701 16.2109H8.40283V17.6766H9.86701V16.2109Z" fill="#FFCB8B"/>
<path d="M9.86701 14.7302H8.40283V16.211H9.86701V14.7302Z" fill="#0E0E11"/>
<path d="M9.86701 13.2646H8.40283V14.7303H9.86701V13.2646Z" fill="#0E0E11"/>
<path d="M9.86701 8.8374H8.40283V10.3181H9.86701V8.8374Z" fill="#0E0E11"/>
<path d="M9.86701 7.35596H8.40283V8.83669H9.86701V7.35596Z" fill="#E4976F"/>
<path d="M9.86701 5.89038H8.40283V7.35607H9.86701V5.89038Z" fill="#E4976F"/>
<path d="M9.86701 4.40942H8.40283V5.89016H9.86701V4.40942Z" fill="#0E0E11"/>
<path d="M8.40354 25.051H6.92432V26.5167H8.40354V25.051Z" fill="#0E0E11"/>
<path d="M8.40354 23.5703H6.92432V25.051H8.40354V23.5703Z" fill="#0E0E11"/>
<path d="M8.40354 22.1045H6.92432V23.5702H8.40354V22.1045Z" fill="#FFCB8B"/>
<path d="M8.40354 20.6238H6.92432V22.1045H8.40354V20.6238Z" fill="#FFCB8B"/>
<path d="M8.40354 19.1575H6.92432V20.6232H8.40354V19.1575Z" fill="#FFCB8B"/>
<path d="M8.40354 17.6768H6.92432V19.1575H8.40354V17.6768Z" fill="#0E0E11"/>
<path d="M8.40354 16.2109H6.92432V17.6766H8.40354V16.2109Z" fill="#0E0E11"/>
<path d="M8.40354 7.35596H6.92432V8.83669H8.40354V7.35596Z" fill="#0E0E11"/>
<path d="M8.40354 5.89038H6.92432V7.35607H8.40354V5.89038Z" fill="#0E0E11"/>
<path d="M6.92454 22.1045H5.44531V23.5702H6.92454V22.1045Z" fill="#0E0E11"/>
<path d="M6.92454 20.6238H5.44531V22.1045H6.92454V20.6238Z" fill="#0E0E11"/>
<path d="M6.92454 19.1575H5.44531V20.6232H6.92454V19.1575Z" fill="#0E0E11"/>
</g>
<defs>
<clipPath id="clip0_13297_12484">
<rect width="22.1094" height="28" fill="white" transform="translate(5.44531 2.94385)"/>
</clipPath>
</defs>
</svg>
