<svg width="188" height="150" viewBox="0 0 188 150" fill="none" xmlns="http://www.w3.org/2000/svg">
<g clip-path="url(#clip0_13319_16938)">
<path d="M6.61262 0.5H0.380371V6.70728H6.61262V0.5Z" fill="#754138"/>
<path d="M12.8448 0.5H6.61255V6.70728H12.8448V0.5Z" fill="#B47444"/>
<path d="M19.0806 0.5H12.8484V6.70728H19.0806V0.5Z" fill="#B47444"/>
<path d="M25.3131 0.5H19.0808V6.70728H25.3131V0.5Z" fill="#B47444"/>
<path d="M31.5452 0.5H25.313V6.70728H31.5452V0.5Z" fill="#B47444"/>
<path d="M37.7811 0.5H31.5488V6.70728H37.7811V0.5Z" fill="#B47444"/>
<path d="M44.0132 0.5H37.781V6.70728H44.0132V0.5Z" fill="#B47444"/>
<path d="M50.2457 0.5H44.0134V6.70728H50.2457V0.5Z" fill="#B47444"/>
<path d="M56.4779 0.5H50.2456V6.70728H56.4779V0.5Z" fill="#B47444"/>
<path d="M62.7137 0.5H56.4814V6.70728H62.7137V0.5Z" fill="#B47444"/>
<path d="M68.9459 0.5H62.7136V6.70728H68.9459V0.5Z" fill="#B47444"/>
<path d="M75.1783 0.5H68.946V6.70728H75.1783V0.5Z" fill="#B47444"/>
<path d="M81.4141 0.5H75.1819V6.70728H81.4141V0.5Z" fill="#B47444"/>
<path d="M87.6463 0.5H81.4141V6.70728H87.6463V0.5Z" fill="#B47444"/>
<path d="M93.8785 0.5H87.6462V6.70728H93.8785V0.5Z" fill="#B47444"/>
<path d="M100.114 0.5H93.8821V6.70728H100.114V0.5Z" fill="#B47444"/>
<path d="M106.347 0.5H100.115V6.70728H106.347V0.5Z" fill="#B47444"/>
<path d="M112.579 0.5H106.347V6.70728H112.579V0.5Z" fill="#B47444"/>
<path d="M118.815 0.5H112.583V6.70728H118.815V0.5Z" fill="#B47444"/>
<path d="M125.047 0.5H118.815V6.70728H125.047V0.5Z" fill="#B47444"/>
<path d="M131.279 0.5H125.047V6.70728H131.279V0.5Z" fill="#B47444"/>
<path d="M137.515 0.5H131.283V6.70728H137.515V0.5Z" fill="#B47444"/>
<path d="M143.747 0.5H137.515V6.70728H143.747V0.5Z" fill="#B47444"/>
<path d="M149.98 0.5H143.747V6.70728H149.98V0.5Z" fill="#B47444"/>
<path d="M156.212 0.5H149.98V6.70728H156.212V0.5Z" fill="#B47444"/>
<path d="M162.448 0.5H156.216V6.70728H162.448V0.5Z" fill="#B47444"/>
<path d="M168.68 0.5H162.448V6.70728H168.68V0.5Z" fill="#B47444"/>
<path d="M174.912 0.5H168.68V6.70728H174.912V0.5Z" fill="#B47444"/>
<path d="M181.148 0.5H174.916V6.70728H181.148V0.5Z" fill="#B47444"/>
<path d="M187.38 0.5H181.148V6.70728H187.38V0.5Z" fill="#754138"/>
<path d="M6.61262 6.70728H0.380371V12.9146H6.61262V6.70728Z" fill="#754138"/>
<path d="M12.8448 6.70728H6.61255V12.9146H12.8448V6.70728Z" fill="#B47444"/>
<path d="M19.0806 6.70728H12.8484V12.9146H19.0806V6.70728Z" fill="#E3B783"/>
<path d="M25.3131 6.70728H19.0808V12.9146H25.3131V6.70728Z" fill="#B47444"/>
<path d="M31.5452 6.70728H25.313V12.9146H31.5452V6.70728Z" fill="#E3B783"/>
<path d="M37.7811 6.70728H31.5488V12.9146H37.7811V6.70728Z" fill="#B47444"/>
<path d="M44.0132 6.70728H37.781V12.9146H44.0132V6.70728Z" fill="#E3B783"/>
<path d="M50.2457 6.70728H44.0134V12.9146H50.2457V6.70728Z" fill="#B47444"/>
<path d="M56.4779 6.70728H50.2456V12.9146H56.4779V6.70728Z" fill="#E3B783"/>
<path d="M62.7137 6.70728H56.4814V12.9146H62.7137V6.70728Z" fill="#B47444"/>
<path d="M68.9459 6.70728H62.7136V12.9146H68.9459V6.70728Z" fill="#E3B783"/>
<path d="M75.1783 6.70728H68.946V12.9146H75.1783V6.70728Z" fill="#B47444"/>
<path d="M81.4141 6.70728H75.1819V12.9146H81.4141V6.70728Z" fill="#E3B783"/>
<path d="M87.6463 6.70728H81.4141V12.9146H87.6463V6.70728Z" fill="#B47444"/>
<path d="M93.8785 6.70728H87.6462V12.9146H93.8785V6.70728Z" fill="#E3B783"/>
<path d="M100.114 6.70728H93.8821V12.9146H100.114V6.70728Z" fill="#B47444"/>
<path d="M106.347 6.70728H100.115V12.9146H106.347V6.70728Z" fill="#E3B783"/>
<path d="M112.579 6.70728H106.347V12.9146H112.579V6.70728Z" fill="#B47444"/>
<path d="M118.815 6.70728H112.583V12.9146H118.815V6.70728Z" fill="#E3B783"/>
<path d="M125.047 6.70728H118.815V12.9146H125.047V6.70728Z" fill="#B47444"/>
<path d="M131.279 6.70728H125.047V12.9146H131.279V6.70728Z" fill="#E3B783"/>
<path d="M137.515 6.70728H131.283V12.9146H137.515V6.70728Z" fill="#B47444"/>
<path d="M143.747 6.70728H137.515V12.9146H143.747V6.70728Z" fill="#E3B783"/>
<path d="M149.98 6.70728H143.747V12.9146H149.98V6.70728Z" fill="#B47444"/>
<path d="M156.212 6.70728H149.98V12.9146H156.212V6.70728Z" fill="#E3B783"/>
<path d="M162.448 6.70728H156.216V12.9146H162.448V6.70728Z" fill="#B47444"/>
<path d="M168.68 6.70728H162.448V12.9146H168.68V6.70728Z" fill="#E3B783"/>
<path d="M174.912 6.70728H168.68V12.9146H174.912V6.70728Z" fill="#B47444"/>
<path d="M181.148 6.70728H174.916V12.9146H181.148V6.70728Z" fill="#B47444"/>
<path d="M187.38 6.70728H181.148V12.9146H187.38V6.70728Z" fill="#754138"/>
<path d="M6.61262 12.9182H0.380371V19.1255H6.61262V12.9182Z" fill="#754138"/>
<path d="M12.8448 12.9182H6.61255V19.1255H12.8448V12.9182Z" fill="#B47444"/>
<path d="M19.0806 12.9182H12.8484V19.1255H19.0806V12.9182Z" fill="#B47444"/>
<path d="M25.3131 12.9182H19.0808V19.1255H25.3131V12.9182Z" fill="#E3B783"/>
<path d="M31.5452 12.9182H25.313V19.1255H31.5452V12.9182Z" fill="#B47444"/>
<path d="M37.7811 12.9182H31.5488V19.1255H37.7811V12.9182Z" fill="#E3B783"/>
<path d="M44.0132 12.9182H37.781V19.1255H44.0132V12.9182Z" fill="#B47444"/>
<path d="M50.2457 12.9182H44.0134V19.1255H50.2457V12.9182Z" fill="#E3B783"/>
<path d="M56.4779 12.9182H50.2456V19.1255H56.4779V12.9182Z" fill="#B47444"/>
<path d="M62.7137 12.9182H56.4814V19.1255H62.7137V12.9182Z" fill="#E3B783"/>
<path d="M68.9459 12.9182H62.7136V19.1255H68.9459V12.9182Z" fill="#B47444"/>
<path d="M75.1783 12.9182H68.946V19.1255H75.1783V12.9182Z" fill="#E3B783"/>
<path d="M81.4141 12.9182H75.1819V19.1255H81.4141V12.9182Z" fill="#B47444"/>
<path d="M87.6463 12.9182H81.4141V19.1255H87.6463V12.9182Z" fill="#E3B783"/>
<path d="M93.8785 12.9182H87.6462V19.1255H93.8785V12.9182Z" fill="#B47444"/>
<path d="M100.114 12.9182H93.8821V19.1255H100.114V12.9182Z" fill="#E3B783"/>
<path d="M106.347 12.9182H100.115V19.1255H106.347V12.9182Z" fill="#B47444"/>
<path d="M112.579 12.9182H106.347V19.1255H112.579V12.9182Z" fill="#E3B783"/>
<path d="M118.815 12.9182H112.583V19.1255H118.815V12.9182Z" fill="#B47444"/>
<path d="M125.047 12.9182H118.815V19.1255H125.047V12.9182Z" fill="#E3B783"/>
<path d="M131.279 12.9182H125.047V19.1255H131.279V12.9182Z" fill="#B47444"/>
<path d="M137.515 12.9182H131.283V19.1255H137.515V12.9182Z" fill="#E3B783"/>
<path d="M143.747 12.9182H137.515V19.1255H143.747V12.9182Z" fill="#B47444"/>
<path d="M149.98 12.9182H143.747V19.1255H149.98V12.9182Z" fill="#E3B783"/>
<path d="M156.212 12.9182H149.98V19.1255H156.212V12.9182Z" fill="#B47444"/>
<path d="M162.448 12.9182H156.216V19.1255H162.448V12.9182Z" fill="#E3B783"/>
<path d="M168.68 12.9182H162.448V19.1255H168.68V12.9182Z" fill="#B47444"/>
<path d="M174.912 12.9182H168.68V19.1255H174.912V12.9182Z" fill="#E3B783"/>
<path d="M181.148 12.9182H174.916V19.1255H181.148V12.9182Z" fill="#B47444"/>
<path d="M187.38 12.9182H181.148V19.1255H187.38V12.9182Z" fill="#754138"/>
<path d="M6.61262 19.1255H0.380371V25.3328H6.61262V19.1255Z" fill="#754138"/>
<path d="M12.8448 19.1255H6.61255V25.3328H12.8448V19.1255Z" fill="#B47444"/>
<path d="M19.0806 19.1255H12.8484V25.3328H19.0806V19.1255Z" fill="#E3B783"/>
<path d="M25.3131 19.1255H19.0808V25.3328H25.3131V19.1255Z" fill="#E3B783"/>
<path d="M31.5452 19.1255H25.313V25.3328H31.5452V19.1255Z" fill="#E3B783"/>
<path d="M37.7811 19.1255H31.5488V25.3328H37.7811V19.1255Z" fill="#E3B783"/>
<path d="M44.0132 19.1255H37.781V25.3328H44.0132V19.1255Z" fill="#E3B783"/>
<path d="M50.2457 19.1255H44.0134V25.3328H50.2457V19.1255Z" fill="#E3B783"/>
<path d="M56.4779 19.1255H50.2456V25.3328H56.4779V19.1255Z" fill="#E3B783"/>
<path d="M62.7137 19.1255H56.4814V25.3328H62.7137V19.1255Z" fill="#E3B783"/>
<path d="M68.9459 19.1255H62.7136V25.3328H68.9459V19.1255Z" fill="#E3B783"/>
<path d="M75.1783 19.1255H68.946V25.3328H75.1783V19.1255Z" fill="#E3B783"/>
<path d="M81.4141 19.1255H75.1819V25.3328H81.4141V19.1255Z" fill="#E3B783"/>
<path d="M87.6463 19.1255H81.4141V25.3328H87.6463V19.1255Z" fill="#E3B783"/>
<path d="M93.8785 19.1255H87.6462V25.3328H93.8785V19.1255Z" fill="#E3B783"/>
<path d="M100.114 19.1255H93.8821V25.3328H100.114V19.1255Z" fill="#E3B783"/>
<path d="M106.347 19.1255H100.115V25.3328H106.347V19.1255Z" fill="#E3B783"/>
<path d="M112.579 19.1255H106.347V25.3328H112.579V19.1255Z" fill="#E3B783"/>
<path d="M118.815 19.1255H112.583V25.3328H118.815V19.1255Z" fill="#E3B783"/>
<path d="M125.047 19.1255H118.815V25.3328H125.047V19.1255Z" fill="#E3B783"/>
<path d="M131.279 19.1255H125.047V25.3328H131.279V19.1255Z" fill="#E3B783"/>
<path d="M137.515 19.1255H131.283V25.3328H137.515V19.1255Z" fill="#E3B783"/>
<path d="M143.747 19.1255H137.515V25.3328H143.747V19.1255Z" fill="#E3B783"/>
<path d="M149.98 19.1255H143.747V25.3328H149.98V19.1255Z" fill="#E3B783"/>
<path d="M156.212 19.1255H149.98V25.3328H156.212V19.1255Z" fill="#E3B783"/>
<path d="M162.448 19.1255H156.216V25.3328H162.448V19.1255Z" fill="#E3B783"/>
<path d="M168.68 19.1255H162.448V25.3328H168.68V19.1255Z" fill="#E3B783"/>
<path d="M174.912 19.1255H168.68V25.3328H174.912V19.1255Z" fill="#E3B783"/>
<path d="M181.148 19.1255H174.916V25.3328H181.148V19.1255Z" fill="#B47444"/>
<path d="M187.38 19.1255H181.148V25.3328H187.38V19.1255Z" fill="#754138"/>
<path d="M6.61262 25.3328H0.380371V31.54H6.61262V25.3328Z" fill="#754138"/>
<path d="M12.8448 25.3328H6.61255V31.54H12.8448V25.3328Z" fill="#B47444"/>
<path d="M19.0806 25.3328H12.8484V31.54H19.0806V25.3328Z" fill="#E3B783"/>
<path d="M25.3131 25.3328H19.0808V31.54H25.3131V25.3328Z" fill="#E3B783"/>
<path d="M31.5452 25.3328H25.313V31.54H31.5452V25.3328Z" fill="#E3B783"/>
<path d="M37.7811 25.3328H31.5488V31.54H37.7811V25.3328Z" fill="#E3B783"/>
<path d="M44.0132 25.3328H37.781V31.54H44.0132V25.3328Z" fill="#E3B783"/>
<path d="M50.2457 25.3328H44.0134V31.54H50.2457V25.3328Z" fill="#E3B783"/>
<path d="M56.4779 25.3328H50.2456V31.54H56.4779V25.3328Z" fill="#E3B783"/>
<path d="M62.7137 25.3328H56.4814V31.54H62.7137V25.3328Z" fill="#E3B783"/>
<path d="M68.9459 25.3328H62.7136V31.54H68.9459V25.3328Z" fill="#E3B783"/>
<path d="M75.1783 25.3328H68.946V31.54H75.1783V25.3328Z" fill="#E3B783"/>
<path d="M81.4141 25.3328H75.1819V31.54H81.4141V25.3328Z" fill="#E3B783"/>
<path d="M87.6463 25.3328H81.4141V31.54H87.6463V25.3328Z" fill="#E3B783"/>
<path d="M93.8785 25.3328H87.6462V31.54H93.8785V25.3328Z" fill="#E3B783"/>
<path d="M100.114 25.3328H93.8821V31.54H100.114V25.3328Z" fill="#E3B783"/>
<path d="M106.347 25.3328H100.115V31.54H106.347V25.3328Z" fill="#E3B783"/>
<path d="M112.579 25.3328H106.347V31.54H112.579V25.3328Z" fill="#E3B783"/>
<path d="M118.815 25.3328H112.583V31.54H118.815V25.3328Z" fill="#E3B783"/>
<path d="M125.047 25.3328H118.815V31.54H125.047V25.3328Z" fill="#E3B783"/>
<path d="M131.279 25.3328H125.047V31.54H131.279V25.3328Z" fill="#E3B783"/>
<path d="M137.515 25.3328H131.283V31.54H137.515V25.3328Z" fill="#E3B783"/>
<path d="M143.747 25.3328H137.515V31.54H143.747V25.3328Z" fill="#E3B783"/>
<path d="M149.98 25.3328H143.747V31.54H149.98V25.3328Z" fill="#E3B783"/>
<path d="M156.212 25.3328H149.98V31.54H156.212V25.3328Z" fill="#E3B783"/>
<path d="M162.448 25.3328H156.216V31.54H162.448V25.3328Z" fill="#E3B783"/>
<path d="M168.68 25.3328H162.448V31.54H168.68V25.3328Z" fill="#E3B783"/>
<path d="M174.912 25.3328H168.68V31.54H174.912V25.3328Z" fill="#E3B783"/>
<path d="M181.148 25.3328H174.916V31.54H181.148V25.3328Z" fill="#B47444"/>
<path d="M187.38 25.3328H181.148V31.54H187.38V25.3328Z" fill="#754138"/>
<path d="M6.61262 31.5436H0.380371V37.7509H6.61262V31.5436Z" fill="#754138"/>
<path d="M12.8448 31.5436H6.61255V37.7509H12.8448V31.5436Z" fill="#B47444"/>
<path d="M19.0806 31.5436H12.8484V37.7509H19.0806V31.5436Z" fill="#E3B783"/>
<path d="M25.3131 31.5436H19.0808V37.7509H25.3131V31.5436Z" fill="#E3B783"/>
<path d="M31.5452 31.5436H25.313V37.7509H31.5452V31.5436Z" fill="#E3B783"/>
<path d="M37.7811 31.5436H31.5488V37.7509H37.7811V31.5436Z" fill="#E3B783"/>
<path d="M44.0132 31.5436H37.781V37.7509H44.0132V31.5436Z" fill="#E3B783"/>
<path d="M50.2457 31.5436H44.0134V37.7509H50.2457V31.5436Z" fill="#E3B783"/>
<path d="M56.4779 31.5436H50.2456V37.7509H56.4779V31.5436Z" fill="#E3B783"/>
<path d="M62.7137 31.5436H56.4814V37.7509H62.7137V31.5436Z" fill="#E3B783"/>
<path d="M68.9459 31.5436H62.7136V37.7509H68.9459V31.5436Z" fill="#E3B783"/>
<path d="M75.1783 31.5436H68.946V37.7509H75.1783V31.5436Z" fill="#E3B783"/>
<path d="M81.4141 31.5436H75.1819V37.7509H81.4141V31.5436Z" fill="#E3B783"/>
<path d="M87.6463 31.5436H81.4141V37.7509H87.6463V31.5436Z" fill="#E3B783"/>
<path d="M93.8785 31.5436H87.6462V37.7509H93.8785V31.5436Z" fill="#E3B783"/>
<path d="M100.114 31.5436H93.8821V37.7509H100.114V31.5436Z" fill="#E3B783"/>
<path d="M106.347 31.5436H100.115V37.7509H106.347V31.5436Z" fill="#E3B783"/>
<path d="M112.579 31.5436H106.347V37.7509H112.579V31.5436Z" fill="#E3B783"/>
<path d="M118.815 31.5436H112.583V37.7509H118.815V31.5436Z" fill="#E3B783"/>
<path d="M125.047 31.5436H118.815V37.7509H125.047V31.5436Z" fill="#E3B783"/>
<path d="M131.279 31.5436H125.047V37.7509H131.279V31.5436Z" fill="#E3B783"/>
<path d="M137.515 31.5436H131.283V37.7509H137.515V31.5436Z" fill="#E3B783"/>
<path d="M143.747 31.5436H137.515V37.7509H143.747V31.5436Z" fill="#E3B783"/>
<path d="M149.98 31.5436H143.747V37.7509H149.98V31.5436Z" fill="#E3B783"/>
<path d="M156.212 31.5436H149.98V37.7509H156.212V31.5436Z" fill="#E3B783"/>
<path d="M162.448 31.5436H156.216V37.7509H162.448V31.5436Z" fill="#E3B783"/>
<path d="M168.68 31.5436H162.448V37.7509H168.68V31.5436Z" fill="#E3B783"/>
<path d="M174.912 31.5436H168.68V37.7509H174.912V31.5436Z" fill="#E3B783"/>
<path d="M181.148 31.5436H174.916V37.7509H181.148V31.5436Z" fill="#B47444"/>
<path d="M187.38 31.5436H181.148V37.7509H187.38V31.5436Z" fill="#754138"/>
<path d="M6.61262 37.7509H0.380371V43.9581H6.61262V37.7509Z" fill="#754138"/>
<path d="M12.8448 37.7509H6.61255V43.9581H12.8448V37.7509Z" fill="#B47444"/>
<path d="M19.0806 37.7509H12.8484V43.9581H19.0806V37.7509Z" fill="#E3B783"/>
<path d="M25.3131 37.7509H19.0808V43.9581H25.3131V37.7509Z" fill="#E3B783"/>
<path d="M31.5452 37.7509H25.313V43.9581H31.5452V37.7509Z" fill="#E3B783"/>
<path d="M37.7811 37.7509H31.5488V43.9581H37.7811V37.7509Z" fill="#E3B783"/>
<path d="M44.0132 37.7509H37.781V43.9581H44.0132V37.7509Z" fill="#E3B783"/>
<path d="M50.2457 37.7509H44.0134V43.9581H50.2457V37.7509Z" fill="#E3B783"/>
<path d="M56.4779 37.7509H50.2456V43.9581H56.4779V37.7509Z" fill="#E3B783"/>
<path d="M62.7137 37.7509H56.4814V43.9581H62.7137V37.7509Z" fill="#E3B783"/>
<path d="M68.9459 37.7509H62.7136V43.9581H68.9459V37.7509Z" fill="#E3B783"/>
<path d="M75.1783 37.7509H68.946V43.9581H75.1783V37.7509Z" fill="#E3B783"/>
<path d="M81.4141 37.7509H75.1819V43.9581H81.4141V37.7509Z" fill="#E3B783"/>
<path d="M87.6463 37.7509H81.4141V43.9581H87.6463V37.7509Z" fill="#E3B783"/>
<path d="M93.8785 37.7509H87.6462V43.9581H93.8785V37.7509Z" fill="#E3B783"/>
<path d="M100.114 37.7509H93.8821V43.9581H100.114V37.7509Z" fill="#E3B783"/>
<path d="M106.347 37.7509H100.115V43.9581H106.347V37.7509Z" fill="#E3B783"/>
<path d="M112.579 37.7509H106.347V43.9581H112.579V37.7509Z" fill="#E3B783"/>
<path d="M118.815 37.7509H112.583V43.9581H118.815V37.7509Z" fill="#E3B783"/>
<path d="M125.047 37.7509H118.815V43.9581H125.047V37.7509Z" fill="#E3B783"/>
<path d="M131.279 37.7509H125.047V43.9581H131.279V37.7509Z" fill="#E3B783"/>
<path d="M137.515 37.7509H131.283V43.9581H137.515V37.7509Z" fill="#E3B783"/>
<path d="M143.747 37.7509H137.515V43.9581H143.747V37.7509Z" fill="#E3B783"/>
<path d="M149.98 37.7509H143.747V43.9581H149.98V37.7509Z" fill="#E3B783"/>
<path d="M156.212 37.7509H149.98V43.9581H156.212V37.7509Z" fill="#E3B783"/>
<path d="M162.448 37.7509H156.216V43.9581H162.448V37.7509Z" fill="#E3B783"/>
<path d="M168.68 37.7509H162.448V43.9581H168.68V37.7509Z" fill="#E3B783"/>
<path d="M174.912 37.7509H168.68V43.9581H174.912V37.7509Z" fill="#E3B783"/>
<path d="M181.148 37.7509H174.916V43.9581H181.148V37.7509Z" fill="#B47444"/>
<path d="M187.38 37.7509H181.148V43.9581H187.38V37.7509Z" fill="#754138"/>
<path d="M6.61262 43.9581H0.380371V50.1654H6.61262V43.9581Z" fill="#754138"/>
<path d="M12.8448 43.9581H6.61255V50.1654H12.8448V43.9581Z" fill="#B47444"/>
<path d="M19.0806 43.9581H12.8484V50.1654H19.0806V43.9581Z" fill="#E3B783"/>
<path d="M25.3131 43.9581H19.0808V50.1654H25.3131V43.9581Z" fill="#E3B783"/>
<path d="M31.5452 43.9581H25.313V50.1654H31.5452V43.9581Z" fill="#E3B783"/>
<path d="M37.7811 43.9581H31.5488V50.1654H37.7811V43.9581Z" fill="#E3B783"/>
<path d="M44.0132 43.9581H37.781V50.1654H44.0132V43.9581Z" fill="#E3B783"/>
<path d="M50.2457 43.9581H44.0134V50.1654H50.2457V43.9581Z" fill="#E3B783"/>
<path d="M56.4779 43.9581H50.2456V50.1654H56.4779V43.9581Z" fill="#E3B783"/>
<path d="M62.7137 43.9581H56.4814V50.1654H62.7137V43.9581Z" fill="#E3B783"/>
<path d="M68.9459 43.9581H62.7136V50.1654H68.9459V43.9581Z" fill="#E3B783"/>
<path d="M75.1783 43.9581H68.946V50.1654H75.1783V43.9581Z" fill="#E3B783"/>
<path d="M81.4141 43.9581H75.1819V50.1654H81.4141V43.9581Z" fill="#E3B783"/>
<path d="M87.6463 43.9581H81.4141V50.1654H87.6463V43.9581Z" fill="#E3B783"/>
<path d="M93.8785 43.9581H87.6462V50.1654H93.8785V43.9581Z" fill="#E3B783"/>
<path d="M100.114 43.9581H93.8821V50.1654H100.114V43.9581Z" fill="#E3B783"/>
<path d="M106.347 43.9581H100.115V50.1654H106.347V43.9581Z" fill="#E3B783"/>
<path d="M112.579 43.9581H106.347V50.1654H112.579V43.9581Z" fill="#E3B783"/>
<path d="M118.815 43.9581H112.583V50.1654H118.815V43.9581Z" fill="#E3B783"/>
<path d="M125.047 43.9581H118.815V50.1654H125.047V43.9581Z" fill="#E3B783"/>
<path d="M131.279 43.9581H125.047V50.1654H131.279V43.9581Z" fill="#E3B783"/>
<path d="M137.515 43.9581H131.283V50.1654H137.515V43.9581Z" fill="#E3B783"/>
<path d="M143.747 43.9581H137.515V50.1654H143.747V43.9581Z" fill="#E3B783"/>
<path d="M149.98 43.9581H143.747V50.1654H149.98V43.9581Z" fill="#E3B783"/>
<path d="M156.212 43.9581H149.98V50.1654H156.212V43.9581Z" fill="#E3B783"/>
<path d="M162.448 43.9581H156.216V50.1654H162.448V43.9581Z" fill="#E3B783"/>
<path d="M168.68 43.9581H162.448V50.1654H168.68V43.9581Z" fill="#E3B783"/>
<path d="M174.912 43.9581H168.68V50.1654H174.912V43.9581Z" fill="#E3B783"/>
<path d="M181.148 43.9581H174.916V50.1654H181.148V43.9581Z" fill="#B47444"/>
<path d="M187.38 43.9581H181.148V50.1654H187.38V43.9581Z" fill="#754138"/>
<path d="M6.61262 50.1654H0.380371V56.3727H6.61262V50.1654Z" fill="#754138"/>
<path d="M12.8448 50.1654H6.61255V56.3727H12.8448V50.1654Z" fill="#B47444"/>
<path d="M19.0806 50.1654H12.8484V56.3727H19.0806V50.1654Z" fill="#E3B783"/>
<path d="M25.3131 50.1654H19.0808V56.3727H25.3131V50.1654Z" fill="#E3B783"/>
<path d="M31.5452 50.1654H25.313V56.3727H31.5452V50.1654Z" fill="#E3B783"/>
<path d="M37.7811 50.1654H31.5488V56.3727H37.7811V50.1654Z" fill="#E3B783"/>
<path d="M44.0132 50.1654H37.781V56.3727H44.0132V50.1654Z" fill="#E3B783"/>
<path d="M50.2457 50.1654H44.0134V56.3727H50.2457V50.1654Z" fill="#E3B783"/>
<path d="M56.4779 50.1654H50.2456V56.3727H56.4779V50.1654Z" fill="#E3B783"/>
<path d="M62.7137 50.1654H56.4814V56.3727H62.7137V50.1654Z" fill="#E3B783"/>
<path d="M68.9459 50.1654H62.7136V56.3727H68.9459V50.1654Z" fill="#E3B783"/>
<path d="M75.1783 50.1654H68.946V56.3727H75.1783V50.1654Z" fill="#E3B783"/>
<path d="M81.4141 50.1654H75.1819V56.3727H81.4141V50.1654Z" fill="#E3B783"/>
<path d="M87.6463 50.1654H81.4141V56.3727H87.6463V50.1654Z" fill="#E3B783"/>
<path d="M93.8785 50.1654H87.6462V56.3727H93.8785V50.1654Z" fill="#E3B783"/>
<path d="M100.114 50.1654H93.8821V56.3727H100.114V50.1654Z" fill="#E3B783"/>
<path d="M106.347 50.1654H100.115V56.3727H106.347V50.1654Z" fill="#E3B783"/>
<path d="M112.579 50.1654H106.347V56.3727H112.579V50.1654Z" fill="#E3B783"/>
<path d="M118.815 50.1654H112.583V56.3727H118.815V50.1654Z" fill="#E3B783"/>
<path d="M125.047 50.1654H118.815V56.3727H125.047V50.1654Z" fill="#E3B783"/>
<path d="M131.279 50.1654H125.047V56.3727H131.279V50.1654Z" fill="#E3B783"/>
<path d="M137.515 50.1654H131.283V56.3727H137.515V50.1654Z" fill="#E3B783"/>
<path d="M143.747 50.1654H137.515V56.3727H143.747V50.1654Z" fill="#E3B783"/>
<path d="M149.98 50.1654H143.747V56.3727H149.98V50.1654Z" fill="#E3B783"/>
<path d="M156.212 50.1654H149.98V56.3727H156.212V50.1654Z" fill="#E3B783"/>
<path d="M162.448 50.1654H156.216V56.3727H162.448V50.1654Z" fill="#E3B783"/>
<path d="M168.68 50.1654H162.448V56.3727H168.68V50.1654Z" fill="#E3B783"/>
<path d="M174.912 50.1654H168.68V56.3727H174.912V50.1654Z" fill="#E3B783"/>
<path d="M181.148 50.1654H174.916V56.3727H181.148V50.1654Z" fill="#B47444"/>
<path d="M187.38 50.1654H181.148V56.3727H187.38V50.1654Z" fill="#754138"/>
<path d="M6.61262 56.3763H0.380371V62.5836H6.61262V56.3763Z" fill="#754138"/>
<path d="M12.8448 56.3763H6.61255V62.5836H12.8448V56.3763Z" fill="#B47444"/>
<path d="M19.0806 56.3763H12.8484V62.5836H19.0806V56.3763Z" fill="#E3B783"/>
<path d="M25.3131 56.3763H19.0808V62.5836H25.3131V56.3763Z" fill="#E3B783"/>
<path d="M31.5452 56.3763H25.313V62.5836H31.5452V56.3763Z" fill="#E3B783"/>
<path d="M37.7811 56.3763H31.5488V62.5836H37.7811V56.3763Z" fill="#E3B783"/>
<path d="M44.0132 56.3763H37.781V62.5836H44.0132V56.3763Z" fill="#E3B783"/>
<path d="M50.2457 56.3763H44.0134V62.5836H50.2457V56.3763Z" fill="#E3B783"/>
<path d="M56.4779 56.3763H50.2456V62.5836H56.4779V56.3763Z" fill="#E3B783"/>
<path d="M62.7137 56.3763H56.4814V62.5836H62.7137V56.3763Z" fill="#E3B783"/>
<path d="M68.9459 56.3763H62.7136V62.5836H68.9459V56.3763Z" fill="#E3B783"/>
<path d="M75.1783 56.3763H68.946V62.5836H75.1783V56.3763Z" fill="#E3B783"/>
<path d="M81.4141 56.3763H75.1819V62.5836H81.4141V56.3763Z" fill="#E3B783"/>
<path d="M87.6463 56.3763H81.4141V62.5836H87.6463V56.3763Z" fill="#E3B783"/>
<path d="M93.8785 56.3763H87.6462V62.5836H93.8785V56.3763Z" fill="#E3B783"/>
<path d="M100.114 56.3763H93.8821V62.5836H100.114V56.3763Z" fill="#E3B783"/>
<path d="M106.347 56.3763H100.115V62.5836H106.347V56.3763Z" fill="#E3B783"/>
<path d="M112.579 56.3763H106.347V62.5836H112.579V56.3763Z" fill="#E3B783"/>
<path d="M118.815 56.3763H112.583V62.5836H118.815V56.3763Z" fill="#E3B783"/>
<path d="M125.047 56.3763H118.815V62.5836H125.047V56.3763Z" fill="#E3B783"/>
<path d="M131.279 56.3763H125.047V62.5836H131.279V56.3763Z" fill="#E3B783"/>
<path d="M137.515 56.3763H131.283V62.5836H137.515V56.3763Z" fill="#E3B783"/>
<path d="M143.747 56.3763H137.515V62.5836H143.747V56.3763Z" fill="#E3B783"/>
<path d="M149.98 56.3763H143.747V62.5836H149.98V56.3763Z" fill="#E3B783"/>
<path d="M156.212 56.3763H149.98V62.5836H156.212V56.3763Z" fill="#E3B783"/>
<path d="M162.448 56.3763H156.216V62.5836H162.448V56.3763Z" fill="#E3B783"/>
<path d="M168.68 56.3763H162.448V62.5836H168.68V56.3763Z" fill="#E3B783"/>
<path d="M174.912 56.3763H168.68V62.5836H174.912V56.3763Z" fill="#E3B783"/>
<path d="M181.148 56.3763H174.916V62.5836H181.148V56.3763Z" fill="#B47444"/>
<path d="M187.38 56.3763H181.148V62.5836H187.38V56.3763Z" fill="#754138"/>
<path d="M6.61262 62.5836H0.380371V68.7909H6.61262V62.5836Z" fill="#754138"/>
<path d="M12.8448 62.5836H6.61255V68.7909H12.8448V62.5836Z" fill="#B47444"/>
<path d="M19.0806 62.5836H12.8484V68.7909H19.0806V62.5836Z" fill="#E3B783"/>
<path d="M25.3131 62.5836H19.0808V68.7909H25.3131V62.5836Z" fill="#E3B783"/>
<path d="M31.5452 62.5836H25.313V68.7909H31.5452V62.5836Z" fill="#E3B783"/>
<path d="M37.7811 62.5836H31.5488V68.7909H37.7811V62.5836Z" fill="#E3B783"/>
<path d="M44.0132 62.5836H37.781V68.7909H44.0132V62.5836Z" fill="#E3B783"/>
<path d="M50.2457 62.5836H44.0134V68.7909H50.2457V62.5836Z" fill="#E3B783"/>
<path d="M56.4779 62.5836H50.2456V68.7909H56.4779V62.5836Z" fill="#E3B783"/>
<path d="M62.7137 62.5836H56.4814V68.7909H62.7137V62.5836Z" fill="#E3B783"/>
<path d="M68.9459 62.5836H62.7136V68.7909H68.9459V62.5836Z" fill="#E3B783"/>
<path d="M75.1783 62.5836H68.946V68.7909H75.1783V62.5836Z" fill="#E3B783"/>
<path d="M81.4141 62.5836H75.1819V68.7909H81.4141V62.5836Z" fill="#E3B783"/>
<path d="M87.6463 62.5836H81.4141V68.7909H87.6463V62.5836Z" fill="#E3B783"/>
<path d="M93.8785 62.5836H87.6462V68.7909H93.8785V62.5836Z" fill="#E3B783"/>
<path d="M100.114 62.5836H93.8821V68.7909H100.114V62.5836Z" fill="#E3B783"/>
<path d="M106.347 62.5836H100.115V68.7909H106.347V62.5836Z" fill="#E3B783"/>
<path d="M112.579 62.5836H106.347V68.7909H112.579V62.5836Z" fill="#E3B783"/>
<path d="M118.815 62.5836H112.583V68.7909H118.815V62.5836Z" fill="#E3B783"/>
<path d="M125.047 62.5836H118.815V68.7909H125.047V62.5836Z" fill="#E3B783"/>
<path d="M131.279 62.5836H125.047V68.7909H131.279V62.5836Z" fill="#E3B783"/>
<path d="M137.515 62.5836H131.283V68.7909H137.515V62.5836Z" fill="#E3B783"/>
<path d="M143.747 62.5836H137.515V68.7909H143.747V62.5836Z" fill="#E3B783"/>
<path d="M149.98 62.5836H143.747V68.7909H149.98V62.5836Z" fill="#E3B783"/>
<path d="M156.212 62.5836H149.98V68.7909H156.212V62.5836Z" fill="#E3B783"/>
<path d="M162.448 62.5836H156.216V68.7909H162.448V62.5836Z" fill="#E3B783"/>
<path d="M168.68 62.5836H162.448V68.7909H168.68V62.5836Z" fill="#E3B783"/>
<path d="M174.912 62.5836H168.68V68.7909H174.912V62.5836Z" fill="#E3B783"/>
<path d="M181.148 62.5836H174.916V68.7909H181.148V62.5836Z" fill="#B47444"/>
<path d="M187.38 62.5836H181.148V68.7909H187.38V62.5836Z" fill="#754138"/>
<path d="M6.61262 68.7909H0.380371V74.9982H6.61262V68.7909Z" fill="#754138"/>
<path d="M12.8448 68.7909H6.61255V74.9982H12.8448V68.7909Z" fill="#B47444"/>
<path d="M19.0806 68.7909H12.8484V74.9982H19.0806V68.7909Z" fill="#E3B783"/>
<path d="M25.3131 68.7909H19.0808V74.9982H25.3131V68.7909Z" fill="#E3B783"/>
<path d="M31.5452 68.7909H25.313V74.9982H31.5452V68.7909Z" fill="#E3B783"/>
<path d="M37.7811 68.7909H31.5488V74.9982H37.7811V68.7909Z" fill="#E3B783"/>
<path d="M44.0132 68.7909H37.781V74.9982H44.0132V68.7909Z" fill="#E3B783"/>
<path d="M50.2457 68.7909H44.0134V74.9982H50.2457V68.7909Z" fill="#E3B783"/>
<path d="M56.4779 68.7909H50.2456V74.9982H56.4779V68.7909Z" fill="#E3B783"/>
<path d="M62.7137 68.7909H56.4814V74.9982H62.7137V68.7909Z" fill="#E3B783"/>
<path d="M68.9459 68.7909H62.7136V74.9982H68.9459V68.7909Z" fill="#E3B783"/>
<path d="M75.1783 68.7909H68.946V74.9982H75.1783V68.7909Z" fill="#E3B783"/>
<path d="M81.4141 68.7909H75.1819V74.9982H81.4141V68.7909Z" fill="#E3B783"/>
<path d="M87.6463 68.7909H81.4141V74.9982H87.6463V68.7909Z" fill="#E3B783"/>
<path d="M93.8785 68.7909H87.6462V74.9982H93.8785V68.7909Z" fill="#E3B783"/>
<path d="M100.114 68.7909H93.8821V74.9982H100.114V68.7909Z" fill="#E3B783"/>
<path d="M106.347 68.7909H100.115V74.9982H106.347V68.7909Z" fill="#E3B783"/>
<path d="M112.579 68.7909H106.347V74.9982H112.579V68.7909Z" fill="#E3B783"/>
<path d="M118.815 68.7909H112.583V74.9982H118.815V68.7909Z" fill="#E3B783"/>
<path d="M125.047 68.7909H118.815V74.9982H125.047V68.7909Z" fill="#E3B783"/>
<path d="M131.279 68.7909H125.047V74.9982H131.279V68.7909Z" fill="#E3B783"/>
<path d="M137.515 68.7909H131.283V74.9982H137.515V68.7909Z" fill="#E3B783"/>
<path d="M143.747 68.7909H137.515V74.9982H143.747V68.7909Z" fill="#E3B783"/>
<path d="M149.98 68.7909H143.747V74.9982H149.98V68.7909Z" fill="#E3B783"/>
<path d="M156.212 68.7909H149.98V74.9982H156.212V68.7909Z" fill="#E3B783"/>
<path d="M162.448 68.7909H156.216V74.9982H162.448V68.7909Z" fill="#E3B783"/>
<path d="M168.68 68.7909H162.448V74.9982H168.68V68.7909Z" fill="#E3B783"/>
<path d="M174.912 68.7909H168.68V74.9982H174.912V68.7909Z" fill="#E3B783"/>
<path d="M181.148 68.7909H174.916V74.9982H181.148V68.7909Z" fill="#B47444"/>
<path d="M187.38 68.7909H181.148V74.9982H187.38V68.7909Z" fill="#754138"/>
<path d="M6.61262 75.0018H0.380371V81.2091H6.61262V75.0018Z" fill="#754138"/>
<path d="M12.8448 75.0018H6.61255V81.2091H12.8448V75.0018Z" fill="#B47444"/>
<path d="M19.0806 75.0018H12.8484V81.2091H19.0806V75.0018Z" fill="#E3B783"/>
<path d="M25.3131 75.0018H19.0808V81.2091H25.3131V75.0018Z" fill="#E3B783"/>
<path d="M31.5452 75.0018H25.313V81.2091H31.5452V75.0018Z" fill="#E3B783"/>
<path d="M37.7811 75.0018H31.5488V81.2091H37.7811V75.0018Z" fill="#E3B783"/>
<path d="M44.0132 75.0018H37.781V81.2091H44.0132V75.0018Z" fill="#E3B783"/>
<path d="M50.2457 75.0018H44.0134V81.2091H50.2457V75.0018Z" fill="#E3B783"/>
<path d="M56.4779 75.0018H50.2456V81.2091H56.4779V75.0018Z" fill="#E3B783"/>
<path d="M62.7137 75.0018H56.4814V81.2091H62.7137V75.0018Z" fill="#E3B783"/>
<path d="M68.9459 75.0018H62.7136V81.2091H68.9459V75.0018Z" fill="#E3B783"/>
<path d="M75.1783 75.0018H68.946V81.2091H75.1783V75.0018Z" fill="#E3B783"/>
<path d="M81.4141 75.0018H75.1819V81.2091H81.4141V75.0018Z" fill="#E3B783"/>
<path d="M87.6463 75.0018H81.4141V81.2091H87.6463V75.0018Z" fill="#E3B783"/>
<path d="M93.8785 75.0018H87.6462V81.2091H93.8785V75.0018Z" fill="#E3B783"/>
<path d="M100.114 75.0018H93.8821V81.2091H100.114V75.0018Z" fill="#E3B783"/>
<path d="M106.347 75.0018H100.115V81.2091H106.347V75.0018Z" fill="#E3B783"/>
<path d="M112.579 75.0018H106.347V81.2091H112.579V75.0018Z" fill="#E3B783"/>
<path d="M118.815 75.0018H112.583V81.2091H118.815V75.0018Z" fill="#E3B783"/>
<path d="M125.047 75.0018H118.815V81.2091H125.047V75.0018Z" fill="#E3B783"/>
<path d="M131.279 75.0018H125.047V81.2091H131.279V75.0018Z" fill="#E3B783"/>
<path d="M137.515 75.0018H131.283V81.2091H137.515V75.0018Z" fill="#E3B783"/>
<path d="M143.747 75.0018H137.515V81.2091H143.747V75.0018Z" fill="#E3B783"/>
<path d="M149.98 75.0018H143.747V81.2091H149.98V75.0018Z" fill="#E3B783"/>
<path d="M156.212 75.0018H149.98V81.2091H156.212V75.0018Z" fill="#E3B783"/>
<path d="M162.448 75.0018H156.216V81.2091H162.448V75.0018Z" fill="#E3B783"/>
<path d="M168.68 75.0018H162.448V81.2091H168.68V75.0018Z" fill="#E3B783"/>
<path d="M174.912 75.0018H168.68V81.2091H174.912V75.0018Z" fill="#E3B783"/>
<path d="M181.148 75.0018H174.916V81.2091H181.148V75.0018Z" fill="#B47444"/>
<path d="M187.38 75.0018H181.148V81.2091H187.38V75.0018Z" fill="#754138"/>
<path d="M6.61262 81.2091H0.380371V87.4164H6.61262V81.2091Z" fill="#754138"/>
<path d="M12.8448 81.2091H6.61255V87.4164H12.8448V81.2091Z" fill="#B47444"/>
<path d="M19.0806 81.2091H12.8484V87.4164H19.0806V81.2091Z" fill="#E3B783"/>
<path d="M25.3131 81.2091H19.0808V87.4164H25.3131V81.2091Z" fill="#E3B783"/>
<path d="M31.5452 81.2091H25.313V87.4164H31.5452V81.2091Z" fill="#E3B783"/>
<path d="M37.7811 81.2091H31.5488V87.4164H37.7811V81.2091Z" fill="#E3B783"/>
<path d="M44.0132 81.2091H37.781V87.4164H44.0132V81.2091Z" fill="#E3B783"/>
<path d="M50.2457 81.2091H44.0134V87.4164H50.2457V81.2091Z" fill="#E3B783"/>
<path d="M56.4779 81.2091H50.2456V87.4164H56.4779V81.2091Z" fill="#E3B783"/>
<path d="M62.7137 81.2091H56.4814V87.4164H62.7137V81.2091Z" fill="#E3B783"/>
<path d="M68.9459 81.2091H62.7136V87.4164H68.9459V81.2091Z" fill="#E3B783"/>
<path d="M75.1783 81.2091H68.946V87.4164H75.1783V81.2091Z" fill="#E3B783"/>
<path d="M81.4141 81.2091H75.1819V87.4164H81.4141V81.2091Z" fill="#E3B783"/>
<path d="M87.6463 81.2091H81.4141V87.4164H87.6463V81.2091Z" fill="#E3B783"/>
<path d="M93.8785 81.2091H87.6462V87.4164H93.8785V81.2091Z" fill="#E3B783"/>
<path d="M100.114 81.2091H93.8821V87.4164H100.114V81.2091Z" fill="#E3B783"/>
<path d="M106.347 81.2091H100.115V87.4164H106.347V81.2091Z" fill="#E3B783"/>
<path d="M112.579 81.2091H106.347V87.4164H112.579V81.2091Z" fill="#E3B783"/>
<path d="M118.815 81.2091H112.583V87.4164H118.815V81.2091Z" fill="#E3B783"/>
<path d="M125.047 81.2091H118.815V87.4164H125.047V81.2091Z" fill="#E3B783"/>
<path d="M131.279 81.2091H125.047V87.4164H131.279V81.2091Z" fill="#E3B783"/>
<path d="M137.515 81.2091H131.283V87.4164H137.515V81.2091Z" fill="#E3B783"/>
<path d="M143.747 81.2091H137.515V87.4164H143.747V81.2091Z" fill="#E3B783"/>
<path d="M149.98 81.2091H143.747V87.4164H149.98V81.2091Z" fill="#E3B783"/>
<path d="M156.212 81.2091H149.98V87.4164H156.212V81.2091Z" fill="#E3B783"/>
<path d="M162.448 81.2091H156.216V87.4164H162.448V81.2091Z" fill="#E3B783"/>
<path d="M168.68 81.2091H162.448V87.4164H168.68V81.2091Z" fill="#E3B783"/>
<path d="M174.912 81.2091H168.68V87.4164H174.912V81.2091Z" fill="#E3B783"/>
<path d="M181.148 81.2091H174.916V87.4164H181.148V81.2091Z" fill="#B47444"/>
<path d="M187.38 81.2091H181.148V87.4164H187.38V81.2091Z" fill="#754138"/>
<path d="M6.61262 87.4164H0.380371V93.6237H6.61262V87.4164Z" fill="#754138"/>
<path d="M12.8448 87.4164H6.61255V93.6237H12.8448V87.4164Z" fill="#B47444"/>
<path d="M19.0806 87.4164H12.8484V93.6237H19.0806V87.4164Z" fill="#E3B783"/>
<path d="M25.3131 87.4164H19.0808V93.6237H25.3131V87.4164Z" fill="#E3B783"/>
<path d="M31.5452 87.4164H25.313V93.6237H31.5452V87.4164Z" fill="#E3B783"/>
<path d="M37.7811 87.4164H31.5488V93.6237H37.7811V87.4164Z" fill="#E3B783"/>
<path d="M44.0132 87.4164H37.781V93.6237H44.0132V87.4164Z" fill="#E3B783"/>
<path d="M50.2457 87.4164H44.0134V93.6237H50.2457V87.4164Z" fill="#E3B783"/>
<path d="M56.4779 87.4164H50.2456V93.6237H56.4779V87.4164Z" fill="#E3B783"/>
<path d="M62.7137 87.4164H56.4814V93.6237H62.7137V87.4164Z" fill="#E3B783"/>
<path d="M68.9459 87.4164H62.7136V93.6237H68.9459V87.4164Z" fill="#E3B783"/>
<path d="M75.1783 87.4164H68.946V93.6237H75.1783V87.4164Z" fill="#E3B783"/>
<path d="M81.4141 87.4164H75.1819V93.6237H81.4141V87.4164Z" fill="#E3B783"/>
<path d="M87.6463 87.4164H81.4141V93.6237H87.6463V87.4164Z" fill="#E3B783"/>
<path d="M93.8785 87.4164H87.6462V93.6237H93.8785V87.4164Z" fill="#E3B783"/>
<path d="M100.114 87.4164H93.8821V93.6237H100.114V87.4164Z" fill="#E3B783"/>
<path d="M106.347 87.4164H100.115V93.6237H106.347V87.4164Z" fill="#E3B783"/>
<path d="M112.579 87.4164H106.347V93.6237H112.579V87.4164Z" fill="#E3B783"/>
<path d="M118.815 87.4164H112.583V93.6237H118.815V87.4164Z" fill="#E3B783"/>
<path d="M125.047 87.4164H118.815V93.6237H125.047V87.4164Z" fill="#E3B783"/>
<path d="M131.279 87.4164H125.047V93.6237H131.279V87.4164Z" fill="#E3B783"/>
<path d="M137.515 87.4164H131.283V93.6237H137.515V87.4164Z" fill="#E3B783"/>
<path d="M143.747 87.4164H137.515V93.6237H143.747V87.4164Z" fill="#E3B783"/>
<path d="M149.98 87.4164H143.747V93.6237H149.98V87.4164Z" fill="#E3B783"/>
<path d="M156.212 87.4164H149.98V93.6237H156.212V87.4164Z" fill="#E3B783"/>
<path d="M162.448 87.4164H156.216V93.6237H162.448V87.4164Z" fill="#E3B783"/>
<path d="M168.68 87.4164H162.448V93.6237H168.68V87.4164Z" fill="#E3B783"/>
<path d="M174.912 87.4164H168.68V93.6237H174.912V87.4164Z" fill="#E3B783"/>
<path d="M181.148 87.4164H174.916V93.6237H181.148V87.4164Z" fill="#B47444"/>
<path d="M187.38 87.4164H181.148V93.6237H187.38V87.4164Z" fill="#754138"/>
<path d="M6.61262 93.6272H0.380371V99.8345H6.61262V93.6272Z" fill="#754138"/>
<path d="M12.8448 93.6272H6.61255V99.8345H12.8448V93.6272Z" fill="#B47444"/>
<path d="M19.0806 93.6272H12.8484V99.8345H19.0806V93.6272Z" fill="#E3B783"/>
<path d="M25.3131 93.6272H19.0808V99.8345H25.3131V93.6272Z" fill="#E3B783"/>
<path d="M31.5452 93.6272H25.313V99.8345H31.5452V93.6272Z" fill="#E3B783"/>
<path d="M37.7811 93.6272H31.5488V99.8345H37.7811V93.6272Z" fill="#E3B783"/>
<path d="M44.0132 93.6272H37.781V99.8345H44.0132V93.6272Z" fill="#E3B783"/>
<path d="M50.2457 93.6272H44.0134V99.8345H50.2457V93.6272Z" fill="#E3B783"/>
<path d="M56.4779 93.6272H50.2456V99.8345H56.4779V93.6272Z" fill="#E3B783"/>
<path d="M62.7137 93.6272H56.4814V99.8345H62.7137V93.6272Z" fill="#E3B783"/>
<path d="M68.9459 93.6272H62.7136V99.8345H68.9459V93.6272Z" fill="#E3B783"/>
<path d="M75.1783 93.6272H68.946V99.8345H75.1783V93.6272Z" fill="#E3B783"/>
<path d="M81.4141 93.6272H75.1819V99.8345H81.4141V93.6272Z" fill="#E3B783"/>
<path d="M87.6463 93.6272H81.4141V99.8345H87.6463V93.6272Z" fill="#E3B783"/>
<path d="M93.8785 93.6272H87.6462V99.8345H93.8785V93.6272Z" fill="#E3B783"/>
<path d="M100.114 93.6272H93.8821V99.8345H100.114V93.6272Z" fill="#E3B783"/>
<path d="M106.347 93.6272H100.115V99.8345H106.347V93.6272Z" fill="#E3B783"/>
<path d="M112.579 93.6272H106.347V99.8345H112.579V93.6272Z" fill="#E3B783"/>
<path d="M118.815 93.6272H112.583V99.8345H118.815V93.6272Z" fill="#E3B783"/>
<path d="M125.047 93.6272H118.815V99.8345H125.047V93.6272Z" fill="#E3B783"/>
<path d="M131.279 93.6272H125.047V99.8345H131.279V93.6272Z" fill="#E3B783"/>
<path d="M137.515 93.6272H131.283V99.8345H137.515V93.6272Z" fill="#E3B783"/>
<path d="M143.747 93.6272H137.515V99.8345H143.747V93.6272Z" fill="#E3B783"/>
<path d="M149.98 93.6272H143.747V99.8345H149.98V93.6272Z" fill="#E3B783"/>
<path d="M156.212 93.6272H149.98V99.8345H156.212V93.6272Z" fill="#E3B783"/>
<path d="M162.448 93.6272H156.216V99.8345H162.448V93.6272Z" fill="#E3B783"/>
<path d="M168.68 93.6272H162.448V99.8345H168.68V93.6272Z" fill="#E3B783"/>
<path d="M174.912 93.6272H168.68V99.8345H174.912V93.6272Z" fill="#E3B783"/>
<path d="M181.148 93.6272H174.916V99.8345H181.148V93.6272Z" fill="#B47444"/>
<path d="M187.38 93.6272H181.148V99.8345H187.38V93.6272Z" fill="#754138"/>
<path d="M6.61262 99.8345H0.380371V106.042H6.61262V99.8345Z" fill="#754138"/>
<path d="M12.8448 99.8345H6.61255V106.042H12.8448V99.8345Z" fill="#B47444"/>
<path d="M19.0806 99.8345H12.8484V106.042H19.0806V99.8345Z" fill="#E3B783"/>
<path d="M25.3131 99.8345H19.0808V106.042H25.3131V99.8345Z" fill="#E3B783"/>
<path d="M31.5452 99.8345H25.313V106.042H31.5452V99.8345Z" fill="#E3B783"/>
<path d="M37.7811 99.8345H31.5488V106.042H37.7811V99.8345Z" fill="#E3B783"/>
<path d="M44.0132 99.8345H37.781V106.042H44.0132V99.8345Z" fill="#E3B783"/>
<path d="M50.2457 99.8345H44.0134V106.042H50.2457V99.8345Z" fill="#E3B783"/>
<path d="M56.4779 99.8345H50.2456V106.042H56.4779V99.8345Z" fill="#E3B783"/>
<path d="M62.7137 99.8345H56.4814V106.042H62.7137V99.8345Z" fill="#E3B783"/>
<path d="M68.9459 99.8345H62.7136V106.042H68.9459V99.8345Z" fill="#E3B783"/>
<path d="M75.1783 99.8345H68.946V106.042H75.1783V99.8345Z" fill="#E3B783"/>
<path d="M81.4141 99.8345H75.1819V106.042H81.4141V99.8345Z" fill="#E3B783"/>
<path d="M87.6463 99.8345H81.4141V106.042H87.6463V99.8345Z" fill="#E3B783"/>
<path d="M93.8785 99.8345H87.6462V106.042H93.8785V99.8345Z" fill="#E3B783"/>
<path d="M100.114 99.8345H93.8821V106.042H100.114V99.8345Z" fill="#E3B783"/>
<path d="M106.347 99.8345H100.115V106.042H106.347V99.8345Z" fill="#E3B783"/>
<path d="M112.579 99.8345H106.347V106.042H112.579V99.8345Z" fill="#E3B783"/>
<path d="M118.815 99.8345H112.583V106.042H118.815V99.8345Z" fill="#E3B783"/>
<path d="M125.047 99.8345H118.815V106.042H125.047V99.8345Z" fill="#E3B783"/>
<path d="M131.279 99.8345H125.047V106.042H131.279V99.8345Z" fill="#E3B783"/>
<path d="M137.515 99.8345H131.283V106.042H137.515V99.8345Z" fill="#E3B783"/>
<path d="M143.747 99.8345H137.515V106.042H143.747V99.8345Z" fill="#E3B783"/>
<path d="M149.98 99.8345H143.747V106.042H149.98V99.8345Z" fill="#E3B783"/>
<path d="M156.212 99.8345H149.98V106.042H156.212V99.8345Z" fill="#E3B783"/>
<path d="M162.448 99.8345H156.216V106.042H162.448V99.8345Z" fill="#E3B783"/>
<path d="M168.68 99.8345H162.448V106.042H168.68V99.8345Z" fill="#E3B783"/>
<path d="M174.912 99.8345H168.68V106.042H174.912V99.8345Z" fill="#E3B783"/>
<path d="M181.148 99.8345H174.916V106.042H181.148V99.8345Z" fill="#B47444"/>
<path d="M187.38 99.8345H181.148V106.042H187.38V99.8345Z" fill="#754138"/>
<path d="M6.61262 106.042H0.380371V112.249H6.61262V106.042Z" fill="#754138"/>
<path d="M12.8448 106.042H6.61255V112.249H12.8448V106.042Z" fill="#B47444"/>
<path d="M19.0806 106.042H12.8484V112.249H19.0806V106.042Z" fill="#E3B783"/>
<path d="M25.3131 106.042H19.0808V112.249H25.3131V106.042Z" fill="#E3B783"/>
<path d="M31.5452 106.042H25.313V112.249H31.5452V106.042Z" fill="#E3B783"/>
<path d="M37.7811 106.042H31.5488V112.249H37.7811V106.042Z" fill="#E3B783"/>
<path d="M44.0132 106.042H37.781V112.249H44.0132V106.042Z" fill="#E3B783"/>
<path d="M50.2457 106.042H44.0134V112.249H50.2457V106.042Z" fill="#E3B783"/>
<path d="M56.4779 106.042H50.2456V112.249H56.4779V106.042Z" fill="#E3B783"/>
<path d="M62.7137 106.042H56.4814V112.249H62.7137V106.042Z" fill="#E3B783"/>
<path d="M68.9459 106.042H62.7136V112.249H68.9459V106.042Z" fill="#E3B783"/>
<path d="M75.1783 106.042H68.946V112.249H75.1783V106.042Z" fill="#E3B783"/>
<path d="M81.4141 106.042H75.1819V112.249H81.4141V106.042Z" fill="#E3B783"/>
<path d="M87.6463 106.042H81.4141V112.249H87.6463V106.042Z" fill="#E3B783"/>
<path d="M93.8785 106.042H87.6462V112.249H93.8785V106.042Z" fill="#E3B783"/>
<path d="M100.114 106.042H93.8821V112.249H100.114V106.042Z" fill="#E3B783"/>
<path d="M106.347 106.042H100.115V112.249H106.347V106.042Z" fill="#E3B783"/>
<path d="M112.579 106.042H106.347V112.249H112.579V106.042Z" fill="#E3B783"/>
<path d="M118.815 106.042H112.583V112.249H118.815V106.042Z" fill="#E3B783"/>
<path d="M125.047 106.042H118.815V112.249H125.047V106.042Z" fill="#E3B783"/>
<path d="M131.279 106.042H125.047V112.249H131.279V106.042Z" fill="#E3B783"/>
<path d="M137.515 106.042H131.283V112.249H137.515V106.042Z" fill="#E3B783"/>
<path d="M143.747 106.042H137.515V112.249H143.747V106.042Z" fill="#E3B783"/>
<path d="M149.98 106.042H143.747V112.249H149.98V106.042Z" fill="#E3B783"/>
<path d="M156.212 106.042H149.98V112.249H156.212V106.042Z" fill="#E3B783"/>
<path d="M162.448 106.042H156.216V112.249H162.448V106.042Z" fill="#E3B783"/>
<path d="M168.68 106.042H162.448V112.249H168.68V106.042Z" fill="#E3B783"/>
<path d="M174.912 106.042H168.68V112.249H174.912V106.042Z" fill="#E3B783"/>
<path d="M181.148 106.042H174.916V112.249H181.148V106.042Z" fill="#B47444"/>
<path d="M187.38 106.042H181.148V112.249H187.38V106.042Z" fill="#754138"/>
<path d="M6.61262 112.253H0.380371V118.46H6.61262V112.253Z" fill="#754138"/>
<path d="M12.8448 112.253H6.61255V118.46H12.8448V112.253Z" fill="#B47444"/>
<path d="M19.0806 112.253H12.8484V118.46H19.0806V112.253Z" fill="#E3B783"/>
<path d="M25.3131 112.253H19.0808V118.46H25.3131V112.253Z" fill="#E3B783"/>
<path d="M31.5452 112.253H25.313V118.46H31.5452V112.253Z" fill="#E3B783"/>
<path d="M37.7811 112.253H31.5488V118.46H37.7811V112.253Z" fill="#E3B783"/>
<path d="M44.0132 112.253H37.781V118.46H44.0132V112.253Z" fill="#E3B783"/>
<path d="M50.2457 112.253H44.0134V118.46H50.2457V112.253Z" fill="#E3B783"/>
<path d="M56.4779 112.253H50.2456V118.46H56.4779V112.253Z" fill="#E3B783"/>
<path d="M62.7137 112.253H56.4814V118.46H62.7137V112.253Z" fill="#E3B783"/>
<path d="M68.9459 112.253H62.7136V118.46H68.9459V112.253Z" fill="#E3B783"/>
<path d="M75.1783 112.253H68.946V118.46H75.1783V112.253Z" fill="#E3B783"/>
<path d="M81.4141 112.253H75.1819V118.46H81.4141V112.253Z" fill="#E3B783"/>
<path d="M87.6463 112.253H81.4141V118.46H87.6463V112.253Z" fill="#E3B783"/>
<path d="M93.8785 112.253H87.6462V118.46H93.8785V112.253Z" fill="#E3B783"/>
<path d="M100.114 112.253H93.8821V118.46H100.114V112.253Z" fill="#E3B783"/>
<path d="M106.347 112.253H100.115V118.46H106.347V112.253Z" fill="#E3B783"/>
<path d="M112.579 112.253H106.347V118.46H112.579V112.253Z" fill="#E3B783"/>
<path d="M118.815 112.253H112.583V118.46H118.815V112.253Z" fill="#E3B783"/>
<path d="M125.047 112.253H118.815V118.46H125.047V112.253Z" fill="#E3B783"/>
<path d="M131.279 112.253H125.047V118.46H131.279V112.253Z" fill="#E3B783"/>
<path d="M137.515 112.253H131.283V118.46H137.515V112.253Z" fill="#E3B783"/>
<path d="M143.747 112.253H137.515V118.46H143.747V112.253Z" fill="#E3B783"/>
<path d="M149.98 112.253H143.747V118.46H149.98V112.253Z" fill="#E3B783"/>
<path d="M156.212 112.253H149.98V118.46H156.212V112.253Z" fill="#E3B783"/>
<path d="M162.448 112.253H156.216V118.46H162.448V112.253Z" fill="#E3B783"/>
<path d="M168.68 112.253H162.448V118.46H168.68V112.253Z" fill="#E3B783"/>
<path d="M174.912 112.253H168.68V118.46H174.912V112.253Z" fill="#E3B783"/>
<path d="M181.148 112.253H174.916V118.46H181.148V112.253Z" fill="#B47444"/>
<path d="M187.38 112.253H181.148V118.46H187.38V112.253Z" fill="#754138"/>
<path d="M6.61262 118.46H0.380371V124.667H6.61262V118.46Z" fill="#754138"/>
<path d="M12.8448 118.46H6.61255V124.667H12.8448V118.46Z" fill="#B47444"/>
<path d="M19.0806 118.46H12.8484V124.667H19.0806V118.46Z" fill="#E3B783"/>
<path d="M25.3131 118.46H19.0808V124.667H25.3131V118.46Z" fill="#E3B783"/>
<path d="M31.5452 118.46H25.313V124.667H31.5452V118.46Z" fill="#E3B783"/>
<path d="M37.7811 118.46H31.5488V124.667H37.7811V118.46Z" fill="#E3B783"/>
<path d="M44.0132 118.46H37.781V124.667H44.0132V118.46Z" fill="#E3B783"/>
<path d="M50.2457 118.46H44.0134V124.667H50.2457V118.46Z" fill="#E3B783"/>
<path d="M56.4779 118.46H50.2456V124.667H56.4779V118.46Z" fill="#E3B783"/>
<path d="M62.7137 118.46H56.4814V124.667H62.7137V118.46Z" fill="#E3B783"/>
<path d="M68.9459 118.46H62.7136V124.667H68.9459V118.46Z" fill="#E3B783"/>
<path d="M75.1783 118.46H68.946V124.667H75.1783V118.46Z" fill="#E3B783"/>
<path d="M81.4141 118.46H75.1819V124.667H81.4141V118.46Z" fill="#E3B783"/>
<path d="M87.6463 118.46H81.4141V124.667H87.6463V118.46Z" fill="#E3B783"/>
<path d="M93.8785 118.46H87.6462V124.667H93.8785V118.46Z" fill="#E3B783"/>
<path d="M100.114 118.46H93.8821V124.667H100.114V118.46Z" fill="#E3B783"/>
<path d="M106.347 118.46H100.115V124.667H106.347V118.46Z" fill="#E3B783"/>
<path d="M112.579 118.46H106.347V124.667H112.579V118.46Z" fill="#E3B783"/>
<path d="M118.815 118.46H112.583V124.667H118.815V118.46Z" fill="#E3B783"/>
<path d="M125.047 118.46H118.815V124.667H125.047V118.46Z" fill="#E3B783"/>
<path d="M131.279 118.46H125.047V124.667H131.279V118.46Z" fill="#E3B783"/>
<path d="M137.515 118.46H131.283V124.667H137.515V118.46Z" fill="#E3B783"/>
<path d="M143.747 118.46H137.515V124.667H143.747V118.46Z" fill="#E3B783"/>
<path d="M149.98 118.46H143.747V124.667H149.98V118.46Z" fill="#E3B783"/>
<path d="M156.212 118.46H149.98V124.667H156.212V118.46Z" fill="#E3B783"/>
<path d="M162.448 118.46H156.216V124.667H162.448V118.46Z" fill="#E3B783"/>
<path d="M168.68 118.46H162.448V124.667H168.68V118.46Z" fill="#E3B783"/>
<path d="M174.912 118.46H168.68V124.667H174.912V118.46Z" fill="#E3B783"/>
<path d="M181.148 118.46H174.916V124.667H181.148V118.46Z" fill="#B47444"/>
<path d="M187.38 118.46H181.148V124.667H187.38V118.46Z" fill="#754138"/>
<path d="M6.61262 124.667H0.380371V130.875H6.61262V124.667Z" fill="#754138"/>
<path d="M12.8448 124.667H6.61255V130.875H12.8448V124.667Z" fill="#B47444"/>
<path d="M19.0806 124.667H12.8484V130.875H19.0806V124.667Z" fill="#E3B783"/>
<path d="M25.3131 124.667H19.0808V130.875H25.3131V124.667Z" fill="#E3B783"/>
<path d="M31.5452 124.667H25.313V130.875H31.5452V124.667Z" fill="#E3B783"/>
<path d="M37.7811 124.667H31.5488V130.875H37.7811V124.667Z" fill="#E3B783"/>
<path d="M44.0132 124.667H37.781V130.875H44.0132V124.667Z" fill="#E3B783"/>
<path d="M50.2457 124.667H44.0134V130.875H50.2457V124.667Z" fill="#E3B783"/>
<path d="M56.4779 124.667H50.2456V130.875H56.4779V124.667Z" fill="#E3B783"/>
<path d="M62.7137 124.667H56.4814V130.875H62.7137V124.667Z" fill="#E3B783"/>
<path d="M68.9459 124.667H62.7136V130.875H68.9459V124.667Z" fill="#E3B783"/>
<path d="M75.1783 124.667H68.946V130.875H75.1783V124.667Z" fill="#E3B783"/>
<path d="M81.4141 124.667H75.1819V130.875H81.4141V124.667Z" fill="#E3B783"/>
<path d="M87.6463 124.667H81.4141V130.875H87.6463V124.667Z" fill="#E3B783"/>
<path d="M93.8785 124.667H87.6462V130.875H93.8785V124.667Z" fill="#E3B783"/>
<path d="M100.114 124.667H93.8821V130.875H100.114V124.667Z" fill="#E3B783"/>
<path d="M106.347 124.667H100.115V130.875H106.347V124.667Z" fill="#E3B783"/>
<path d="M112.579 124.667H106.347V130.875H112.579V124.667Z" fill="#E3B783"/>
<path d="M118.815 124.667H112.583V130.875H118.815V124.667Z" fill="#E3B783"/>
<path d="M125.047 124.667H118.815V130.875H125.047V124.667Z" fill="#E3B783"/>
<path d="M131.279 124.667H125.047V130.875H131.279V124.667Z" fill="#E3B783"/>
<path d="M137.515 124.667H131.283V130.875H137.515V124.667Z" fill="#E3B783"/>
<path d="M143.747 124.667H137.515V130.875H143.747V124.667Z" fill="#E3B783"/>
<path d="M149.98 124.667H143.747V130.875H149.98V124.667Z" fill="#E3B783"/>
<path d="M156.212 124.667H149.98V130.875H156.212V124.667Z" fill="#E3B783"/>
<path d="M162.448 124.667H156.216V130.875H162.448V124.667Z" fill="#E3B783"/>
<path d="M168.68 124.667H162.448V130.875H168.68V124.667Z" fill="#E3B783"/>
<path d="M174.912 124.667H168.68V130.875H174.912V124.667Z" fill="#E3B783"/>
<path d="M181.148 124.667H174.916V130.875H181.148V124.667Z" fill="#B47444"/>
<path d="M187.38 124.667H181.148V130.875H187.38V124.667Z" fill="#754138"/>
<path d="M12.8448 130.878H6.61255V137.085H12.8448V130.878Z" fill="#754138"/>
<path d="M19.0806 130.878H12.8484V137.085H19.0806V130.878Z" fill="#B47444"/>
<path d="M25.3131 130.878H19.0808V137.085H25.3131V130.878Z" fill="#E3B783"/>
<path d="M31.5452 130.878H25.313V137.085H31.5452V130.878Z" fill="#E3B783"/>
<path d="M37.7811 130.878H31.5488V137.085H37.7811V130.878Z" fill="#E3B783"/>
<path d="M44.0132 130.878H37.781V137.085H44.0132V130.878Z" fill="#E3B783"/>
<path d="M50.2457 130.878H44.0134V137.085H50.2457V130.878Z" fill="#E3B783"/>
<path d="M56.4779 130.878H50.2456V137.085H56.4779V130.878Z" fill="#E3B783"/>
<path d="M62.7137 130.878H56.4814V137.085H62.7137V130.878Z" fill="#E3B783"/>
<path d="M68.9459 130.878H62.7136V137.085H68.9459V130.878Z" fill="#E3B783"/>
<path d="M75.1783 130.878H68.946V137.085H75.1783V130.878Z" fill="#E3B783"/>
<path d="M81.4141 130.878H75.1819V137.085H81.4141V130.878Z" fill="#E3B783"/>
<path d="M87.6463 130.878H81.4141V137.085H87.6463V130.878Z" fill="#E3B783"/>
<path d="M93.8785 130.878H87.6462V137.085H93.8785V130.878Z" fill="#E3B783"/>
<path d="M100.114 130.878H93.8821V137.085H100.114V130.878Z" fill="#E3B783"/>
<path d="M106.347 130.878H100.115V137.085H106.347V130.878Z" fill="#E3B783"/>
<path d="M112.579 130.878H106.347V137.085H112.579V130.878Z" fill="#E3B783"/>
<path d="M118.815 130.878H112.583V137.085H118.815V130.878Z" fill="#E3B783"/>
<path d="M125.047 130.878H118.815V137.085H125.047V130.878Z" fill="#E3B783"/>
<path d="M131.279 130.878H125.047V137.085H131.279V130.878Z" fill="#E3B783"/>
<path d="M137.515 130.878H131.283V137.085H137.515V130.878Z" fill="#E3B783"/>
<path d="M143.747 130.878H137.515V137.085H143.747V130.878Z" fill="#E3B783"/>
<path d="M149.98 130.878H143.747V137.085H149.98V130.878Z" fill="#E3B783"/>
<path d="M156.212 130.878H149.98V137.085H156.212V130.878Z" fill="#E3B783"/>
<path d="M162.448 130.878H156.216V137.085H162.448V130.878Z" fill="#E3B783"/>
<path d="M168.68 130.878H162.448V137.085H168.68V130.878Z" fill="#E3B783"/>
<path d="M174.912 130.878H168.68V137.085H174.912V130.878Z" fill="#B47444"/>
<path d="M181.148 130.878H174.916V137.085H181.148V130.878Z" fill="#754138"/>
<path d="M19.0806 137.085H12.8484V143.293H19.0806V137.085Z" fill="#754138"/>
<path d="M25.3131 137.085H19.0808V143.293H25.3131V137.085Z" fill="#B47444"/>
<path d="M31.5452 137.085H25.313V143.293H31.5452V137.085Z" fill="#B47444"/>
<path d="M37.7811 137.085H31.5488V143.293H37.7811V137.085Z" fill="#B47444"/>
<path d="M44.0132 137.085H37.781V143.293H44.0132V137.085Z" fill="#B47444"/>
<path d="M50.2457 137.085H44.0134V143.293H50.2457V137.085Z" fill="#B47444"/>
<path d="M56.4779 137.085H50.2456V143.293H56.4779V137.085Z" fill="#B47444"/>
<path d="M62.7137 137.085H56.4814V143.293H62.7137V137.085Z" fill="#B47444"/>
<path d="M68.9459 137.085H62.7136V143.293H68.9459V137.085Z" fill="#B47444"/>
<path d="M75.1783 137.085H68.946V143.293H75.1783V137.085Z" fill="#B47444"/>
<path d="M81.4141 137.085H75.1819V143.293H81.4141V137.085Z" fill="#B47444"/>
<path d="M87.6463 137.085H81.4141V143.293H87.6463V137.085Z" fill="#B47444"/>
<path d="M93.8785 137.085H87.6462V143.293H93.8785V137.085Z" fill="#B47444"/>
<path d="M100.114 137.085H93.8821V143.293H100.114V137.085Z" fill="#B47444"/>
<path d="M106.347 137.085H100.115V143.293H106.347V137.085Z" fill="#B47444"/>
<path d="M112.579 137.085H106.347V143.293H112.579V137.085Z" fill="#B47444"/>
<path d="M118.815 137.085H112.583V143.293H118.815V137.085Z" fill="#B47444"/>
<path d="M125.047 137.085H118.815V143.293H125.047V137.085Z" fill="#B47444"/>
<path d="M131.279 137.085H125.047V143.293H131.279V137.085Z" fill="#B47444"/>
<path d="M137.515 137.085H131.283V143.293H137.515V137.085Z" fill="#B47444"/>
<path d="M143.747 137.085H137.515V143.293H143.747V137.085Z" fill="#B47444"/>
<path d="M149.98 137.085H143.747V143.293H149.98V137.085Z" fill="#B47444"/>
<path d="M156.212 137.085H149.98V143.293H156.212V137.085Z" fill="#B47444"/>
<path d="M162.448 137.085H156.216V143.293H162.448V137.085Z" fill="#B47444"/>
<path d="M168.68 137.085H162.448V143.293H168.68V137.085Z" fill="#B47444"/>
<path d="M174.912 137.085H168.68V143.293H174.912V137.085Z" fill="#754138"/>
<path d="M25.3131 143.293H19.0808V149.5H25.3131V143.293Z" fill="#754138"/>
<path d="M31.5452 143.293H25.313V149.5H31.5452V143.293Z" fill="#754138"/>
<path d="M37.7811 143.293H31.5488V149.5H37.7811V143.293Z" fill="#754138"/>
<path d="M44.0132 143.293H37.781V149.5H44.0132V143.293Z" fill="#754138"/>
<path d="M50.2457 143.293H44.0134V149.5H50.2457V143.293Z" fill="#754138"/>
<path d="M56.4779 143.293H50.2456V149.5H56.4779V143.293Z" fill="#754138"/>
<path d="M62.7137 143.293H56.4814V149.5H62.7137V143.293Z" fill="#754138"/>
<path d="M68.9459 143.293H62.7136V149.5H68.9459V143.293Z" fill="#754138"/>
<path d="M75.1783 143.293H68.946V149.5H75.1783V143.293Z" fill="#754138"/>
<path d="M81.4141 143.293H75.1819V149.5H81.4141V143.293Z" fill="#754138"/>
<path d="M87.6463 143.293H81.4141V149.5H87.6463V143.293Z" fill="#754138"/>
<path d="M93.8785 143.293H87.6462V149.5H93.8785V143.293Z" fill="#754138"/>
<path d="M100.114 143.293H93.8821V149.5H100.114V143.293Z" fill="#754138"/>
<path d="M106.347 143.293H100.115V149.5H106.347V143.293Z" fill="#754138"/>
<path d="M112.579 143.293H106.347V149.5H112.579V143.293Z" fill="#754138"/>
<path d="M118.815 143.293H112.583V149.5H118.815V143.293Z" fill="#754138"/>
<path d="M125.047 143.293H118.815V149.5H125.047V143.293Z" fill="#754138"/>
<path d="M131.279 143.293H125.047V149.5H131.279V143.293Z" fill="#754138"/>
<path d="M137.515 143.293H131.283V149.5H137.515V143.293Z" fill="#754138"/>
<path d="M143.747 143.293H137.515V149.5H143.747V143.293Z" fill="#754138"/>
<path d="M149.98 143.293H143.747V149.5H149.98V143.293Z" fill="#754138"/>
<path d="M156.212 143.293H149.98V149.5H156.212V143.293Z" fill="#754138"/>
<path d="M162.448 143.293H156.216V149.5H162.448V143.293Z" fill="#754138"/>
<path d="M168.68 143.293H162.448V149.5H168.68V143.293Z" fill="#754138"/>
<path d="M39.4204 45.8086H38.2954H37.1704H36.0454H34.9204H33.7954V44.6836H32.6704V43.5586V42.4336H33.7954H34.9204V43.5586H36.0454H37.1704H38.2954H39.4204V42.4336V41.3086V40.1836H38.2954H37.1704H36.0454H34.9204H33.7954V39.0586H32.6704V37.9336V36.8086V35.6836V34.5586H33.7954V33.4336H34.9204H36.0454H37.1704H38.2954H39.4204H40.5454V34.5586H41.6704V35.6836V36.8086H40.5454H39.4204V35.6836H38.2954H37.1704H36.0454H34.9204V36.8086V37.9336H36.0454H37.1704H38.2954H39.4204H40.5454V39.0586H41.6704V40.1836V41.3086V42.4336V43.5586V44.6836H40.5454V45.8086H39.4204ZM46.1704 45.8086H45.0454V44.6836H43.9204V43.5586V42.4336V41.3086V40.1836V39.0586H42.7954V37.9336V36.8086H43.9204V35.6836V34.5586V33.4336H45.0454H46.1704V34.5586V35.6836V36.8086H47.2954V37.9336V39.0586H46.1704V40.1836V41.3086V42.4336V43.5586H47.2954V44.6836V45.8086H46.1704ZM55.1704 45.8086H54.0454H52.9204H51.7954H50.6704V44.6836H49.5454V43.5586V42.4336V41.3086V40.1836V39.0586V37.9336H50.6704V36.8086H51.7954H52.9204H54.0454H55.1704V37.9336H56.2954V39.0586V40.1836V41.3086V42.4336V43.5586V44.6836V45.8086H55.1704ZM52.9204 43.5586H54.0454V42.4336V41.3086V40.1836V39.0586H52.9204H51.7954V40.1836V41.3086V42.4336V43.5586H52.9204ZM60.7954 45.8086H59.6704V44.6836H58.5454V43.5586V42.4336V41.3086V40.1836V39.0586H57.4204V37.9336V36.8086H58.5454V35.6836V34.5586V33.4336H59.6704H60.7954V34.5586V35.6836V36.8086H61.9204V37.9336V39.0586H60.7954V40.1836V41.3086V42.4336V43.5586H61.9204V44.6836V45.8086H60.7954ZM69.7954 45.8086H68.6704H67.5454H66.4204H65.2954V44.6836H64.1704V43.5586V42.4336V41.3086V40.1836V39.0586V37.9336V36.8086H65.2954H66.4204V37.9336V39.0586V40.1836V41.3086V42.4336V43.5586H67.5454H68.6704V42.4336V41.3086V40.1836V39.0586V37.9336V36.8086H69.7954H70.9204V37.9336V39.0586V40.1836V41.3086V42.4336V43.5586V44.6836V45.8086H69.7954ZM77.6704 45.8086H76.5454H75.4204H74.2954H73.1704V44.6836V43.5586H74.2954H75.4204H76.5454H77.6704V42.4336H76.5454H75.4204H74.2954V41.3086H73.1704V40.1836V39.0586V37.9336H74.2954V36.8086H75.4204H76.5454H77.6704H78.7954H79.9204V37.9336V39.0586H78.7954H77.6704H76.5454H75.4204V40.1836H76.5454H77.6704H78.7954V41.3086H79.9204V42.4336V43.5586V44.6836H78.7954V45.8086H77.6704ZM83.2954 45.8086H82.1704V44.6836V43.5586H83.2954H84.4204V44.6836V45.8086H83.2954ZM83.2954 39.0586H82.1704V37.9336V36.8086H83.2954H84.4204V37.9336V39.0586H83.2954Z" fill="#3C2C15"/>
<path d="M119.921 45.8086H118.796H117.671H116.546H115.421H114.296V44.6836H113.171V43.5586V42.4336V41.3086V40.1836V39.0586V37.9336V36.8086V35.6836V34.5586H114.296V33.4336H115.421H116.546H117.671H118.796H119.921H121.046V34.5586H122.171V35.6836V36.8086V37.9336V39.0586V40.1836V41.3086V42.4336V43.5586V44.6836H121.046V45.8086H119.921ZM118.796 43.5586H119.921V42.4336V41.3086V40.1836V39.0586V37.9336V36.8086V35.6836H118.796H117.671H116.546H115.421V36.8086V37.9336V39.0586V40.1836V41.3086V42.4336V43.5586H116.546H117.671H118.796ZM130.046 45.8086H128.921V44.6836V43.5586V42.4336V41.3086V40.1836V39.0586H127.796H126.671V40.1836V41.3086V42.4336V43.5586V44.6836V45.8086H125.546H124.421V44.6836V43.5586V42.4336V41.3086V40.1836V39.0586V37.9336V36.8086H125.546H126.671H127.796H128.921H130.046V37.9336H131.171V39.0586V40.1836V41.3086V42.4336V43.5586V44.6836V45.8086H130.046ZM134.546 45.8086H133.421V44.6836V43.5586V42.4336V41.3086V40.1836V39.0586V37.9336V36.8086V35.6836V34.5586V33.4336H134.546H135.671V34.5586V35.6836V36.8086V37.9336V39.0586V40.1836V41.3086V42.4336V43.5586V44.6836V45.8086H134.546ZM139.046 45.8086H137.921V44.6836V43.5586V42.4336V41.3086V40.1836V39.0586V37.9336V36.8086H139.046H140.171V37.9336V39.0586V40.1836V41.3086V42.4336V43.5586V44.6836V45.8086H139.046ZM139.046 35.6836H137.921V34.5586V33.4336H139.046H140.171V34.5586V35.6836H139.046ZM148.046 45.8086H146.921V44.6836V43.5586V42.4336V41.3086V40.1836V39.0586H145.796H144.671V40.1836V41.3086V42.4336V43.5586V44.6836V45.8086H143.546H142.421V44.6836V43.5586V42.4336V41.3086V40.1836V39.0586V37.9336V36.8086H143.546H144.671H145.796H146.921H148.046V37.9336H149.171V39.0586V40.1836V41.3086V42.4336V43.5586V44.6836V45.8086H148.046ZM155.921 45.8086H154.796H153.671H152.546V44.6836H151.421V43.5586V42.4336V41.3086V40.1836V39.0586V37.9336H152.546V36.8086H153.671H154.796H155.921H157.046V37.9336H158.171V39.0586V40.1836V41.3086H157.046H155.921H154.796H153.671V42.4336V43.5586H154.796H155.921V42.4336H157.046H158.171V43.5586V44.6836H157.046V45.8086H155.921ZM154.796 40.1836H155.921V39.0586H154.796H153.671V40.1836H154.796Z" fill="#3C2C15"/>
<path d="M33.7954 79.6343H32.6704V78.5093V77.3843V76.2593V75.1343V74.0093V72.8843V71.7593V70.6343V69.5093V68.3843V67.2593H33.7954H34.9204H36.0454H37.1704H38.2954H39.4204V68.3843H40.5454V69.5093V70.6343V71.7593V72.8843V74.0093H39.4204V75.1343H38.2954H37.1704H36.0454H34.9204V76.2593V77.3843V78.5093V79.6343H33.7954ZM37.1704 72.8843H38.2954V71.7593V70.6343V69.5093H37.1704H36.0454H34.9204V70.6343V71.7593V72.8843H36.0454H37.1704ZM43.9204 79.6343H42.7954V78.5093V77.3843V76.2593V75.1343V74.0093V72.8843V71.7593V70.6343V69.5093V68.3843V67.2593H43.9204H45.0454V68.3843V69.5093V70.6343V71.7593V72.8843V74.0093V75.1343V76.2593V77.3843V78.5093V79.6343H43.9204ZM52.9204 79.6343H51.7954H50.6704H49.5454H48.4204V78.5093H47.2954V77.3843V76.2593V75.1343V74.0093V72.8843V71.7593H48.4204V70.6343H49.5454H50.6704H51.7954H52.9204V71.7593H54.0454V72.8843V74.0093V75.1343V76.2593V77.3843V78.5093V79.6343H52.9204ZM50.6704 77.3843H51.7954V76.2593V75.1343V74.0093V72.8843H50.6704H49.5454V74.0093V75.1343V76.2593V77.3843H50.6704ZM58.5454 83.0093H57.4204H56.2954V81.8843V80.7593H57.4204H58.5454V79.6343H57.4204V78.5093H56.2954V77.3843V76.2593V75.1343V74.0093V72.8843V71.7593V70.6343H57.4204H58.5454V71.7593V72.8843V74.0093V75.1343V76.2593V77.3843H59.6704H60.7954V76.2593V75.1343V74.0093V72.8843V71.7593V70.6343H61.9204H63.0454V71.7593V72.8843V74.0093V75.1343V76.2593V77.3843V78.5093H61.9204V79.6343V80.7593H60.7954V81.8843H59.6704V83.0093H58.5454ZM69.7954 79.6343H68.6704H67.5454H66.4204V78.5093H65.2954V77.3843V76.2593V75.1343V74.0093V72.8843V71.7593H66.4204V70.6343H67.5454H68.6704H69.7954H70.9204V71.7593H72.0454V72.8843V74.0093V75.1343H70.9204H69.7954H68.6704H67.5454V76.2593V77.3843H68.6704H69.7954V76.2593H70.9204H72.0454V77.3843V78.5093H70.9204V79.6343H69.7954ZM68.6704 74.0093H69.7954V72.8843H68.6704H67.5454V74.0093H68.6704ZM75.4204 79.6343H74.2954V78.5093V77.3843V76.2593V75.1343V74.0093V72.8843V71.7593V70.6343H75.4204H76.5454H77.6704H78.7954H79.9204V71.7593H81.0454V72.8843V74.0093H79.9204H78.7954V72.8843H77.6704H76.5454V74.0093V75.1343V76.2593V77.3843V78.5093V79.6343H75.4204ZM87.7954 79.6343H86.6704H85.5454H84.4204H83.2954V78.5093V77.3843H84.4204H85.5454H86.6704H87.7954V76.2593H86.6704H85.5454H84.4204V75.1343H83.2954V74.0093V72.8843V71.7593H84.4204V70.6343H85.5454H86.6704H87.7954H88.9204H90.0454V71.7593V72.8843H88.9204H87.7954H86.6704H85.5454V74.0093H86.6704H87.7954H88.9204V75.1343H90.0454V76.2593V77.3843V78.5093H88.9204V79.6343H87.7954ZM93.4204 79.6343H92.2954V78.5093V77.3843H93.4204H94.5454V78.5093V79.6343H93.4204ZM93.4204 72.8843H92.2954V71.7593V70.6343H93.4204H94.5454V71.7593V72.8843H93.4204Z" fill="#3C2C15"/>
<path d="M117.671 79.6343H116.546V78.5093V77.3843V76.2593H115.421H114.296H113.171H112.046V75.1343V74.0093V72.8843V71.7593H113.171V70.6343H114.296V69.5093H115.421V68.3843H116.546V67.2593H117.671H118.796V68.3843V69.5093V70.6343V71.7593V72.8843V74.0093H119.921V75.1343V76.2593H118.796V77.3843V78.5093V79.6343H117.671ZM115.421 74.0093H116.546V72.8843V71.7593H115.421V72.8843H114.296V74.0093H115.421ZM128.921 79.6343H127.796H126.671H125.546H124.421H123.296V78.5093V77.3843H124.421H125.546V76.2593V75.1343V74.0093V72.8843V71.7593H124.421H123.296V70.6343V69.5093H124.421V68.3843H125.546V67.2593H126.671H127.796V68.3843V69.5093V70.6343V71.7593V72.8843V74.0093V75.1343V76.2593V77.3843H128.921H130.046V78.5093V79.6343H128.921ZM135.671 79.6343H134.546V78.5093V77.3843V76.2593V75.1343V74.0093V72.8843H135.671V71.7593H136.796V70.6343H137.921V69.5093H136.796H135.671H134.546H133.421H132.296V68.3843V67.2593H133.421H134.546H135.671H136.796H137.921H139.046H140.171V68.3843V69.5093V70.6343V71.7593H139.046V72.8843H137.921V74.0093H136.796V75.1343V76.2593V77.3843V78.5093V79.6343H135.671Z" fill="#3C2C15"/>
<path d="M40.5454 113.46H39.4204H38.2954H37.1704H36.0454H34.9204V112.335H33.7954V111.21V110.085V108.96V107.835V106.71V105.585V104.46V103.335V102.21V101.085H34.9204H36.0454V102.21V103.335V104.46V105.585V106.71V107.835V108.96V110.085V111.21H37.1704H38.2954H39.4204H40.5454V110.085V108.96V107.835V106.71V105.585V104.46V103.335V102.21V101.085H41.6704H42.7954V102.21V103.335V104.46V105.585V106.71V107.835V108.96V110.085V111.21V112.335H41.6704V113.46H40.5454ZM46.1704 116.835H45.0454V115.71V114.585V113.46V112.335V111.21V110.085V108.96V107.835V106.71V105.585V104.46H46.1704H47.2954V105.585H48.4204V104.46H49.5454H50.6704H51.7954V105.585H52.9204V106.71V107.835V108.96V110.085V111.21V112.335H51.7954V113.46H50.6704H49.5454H48.4204V112.335H47.2954V113.46V114.585V115.71V116.835H46.1704ZM49.5454 111.21H50.6704V110.085V108.96V107.835V106.71H49.5454H48.4204V107.835H47.2954V108.96V110.085H48.4204V111.21H49.5454ZM57.4204 113.46H56.2954V112.335H55.1704V111.21V110.085V108.96V107.835V106.71H54.0454V105.585V104.46H55.1704V103.335V102.21V101.085H56.2954H57.4204V102.21V103.335V104.46H58.5454V105.585V106.71H57.4204V107.835V108.96V110.085V111.21H58.5454V112.335V113.46H57.4204ZM61.9204 113.46H60.7954V112.335V111.21V110.085V108.96V107.835V106.71V105.585V104.46H61.9204H63.0454V105.585V106.71V107.835V108.96V110.085V111.21V112.335V113.46H61.9204ZM61.9204 103.335H60.7954V102.21V101.085H61.9204H63.0454V102.21V103.335H61.9204ZM75.4204 113.46H74.2954V112.335V111.21V110.085V108.96V107.835V106.71H73.1704H72.0454V107.835V108.96V110.085V111.21V112.335V113.46H70.9204H69.7954V112.335V111.21V110.085V108.96V107.835V106.71H68.6704H67.5454V107.835V108.96V110.085V111.21V112.335V113.46H66.4204H65.2954V112.335V111.21V110.085V108.96V107.835V106.71V105.585V104.46H66.4204H67.5454H68.6704H69.7954H70.9204H72.0454H73.1704H74.2954H75.4204V105.585H76.5454V106.71V107.835V108.96V110.085V111.21V112.335V113.46H75.4204ZM83.2954 113.46H82.1704H81.0454H79.9204V112.335H78.7954V111.21V110.085V108.96V107.835V106.71V105.585H79.9204V104.46H81.0454H82.1704H83.2954H84.4204V105.585H85.5454V106.71V107.835V108.96H84.4204H83.2954H82.1704H81.0454V110.085V111.21H82.1704H83.2954V110.085H84.4204H85.5454V111.21V112.335H84.4204V113.46H83.2954ZM82.1704 107.835H83.2954V106.71H82.1704H81.0454V107.835H82.1704ZM88.9204 113.46H87.7954V112.335V111.21H88.9204H90.0454V112.335V113.46H88.9204ZM88.9204 106.71H87.7954V105.585V104.46H88.9204H90.0454V105.585V106.71H88.9204Z" fill="#3C2C15"/>
<path d="M117.671 113.46H116.546H115.421H114.296H113.171V112.335H112.046V111.21V110.085V108.96V107.835V106.71V105.585V104.46V103.335V102.21H113.171V101.085H114.296H115.421H116.546H117.671H118.796V102.21H119.921V103.335V104.46V105.585V106.71V107.835V108.96V110.085V111.21V112.335H118.796V113.46H117.671ZM117.671 111.21V110.085V108.96V107.835V106.71H116.546V107.835V108.96V110.085V111.21H117.671ZM115.421 107.835V106.71V105.585V104.46V103.335H114.296V104.46V105.585V106.71V107.835H115.421ZM126.671 113.46H125.546H124.421H123.296V112.335H122.171V111.21V110.085H123.296H124.421V111.21H125.546H126.671V110.085V108.96V107.835H125.546H124.421H123.296H122.171V106.71V105.585V104.46V103.335V102.21V101.085H123.296H124.421H125.546H126.671H127.796H128.921V102.21V103.335H127.796H126.671H125.546H124.421V104.46V105.585H125.546H126.671H127.796V106.71H128.921V107.835V108.96V110.085V111.21V112.335H127.796V113.46H126.671ZM132.296 113.46H131.171V112.335V111.21H132.296H133.421V112.335V113.46H132.296ZM132.296 106.71H131.171V105.585V104.46H132.296H133.421V105.585V106.71H132.296ZM141.296 113.46H140.171H139.046H137.921H136.796H135.671V112.335V111.21V110.085H136.796V108.96H137.921V107.835H139.046V106.71H140.171V105.585V104.46V103.335H139.046H137.921V104.46H136.796H135.671V103.335V102.21H136.796V101.085H137.921H139.046H140.171H141.296V102.21H142.421V103.335V104.46V105.585V106.71V107.835H141.296V108.96H140.171V110.085V111.21H141.296H142.421V112.335V113.46H141.296ZM149.171 113.46H148.046H146.921H145.796V112.335H144.671V111.21V110.085V108.96V107.835V106.71H145.796V105.585H144.671V104.46V103.335V102.21H145.796V101.085H146.921H148.046H149.171H150.296V102.21H151.421V103.335V104.46V105.585H150.296V106.71H151.421V107.835V108.96V110.085V111.21V112.335H150.296V113.46H149.171ZM148.046 111.21H149.171V110.085V108.96V107.835H148.046H146.921V108.96V110.085V111.21H148.046ZM148.046 105.585H149.171V104.46V103.335H148.046H146.921V104.46V105.585H148.046Z" fill="#3C2C15"/>
</g>
<defs>
<clipPath id="clip0_13319_16938">
<rect width="187" height="149" fill="white" transform="translate(0.380371 0.5)"/>
</clipPath>
</defs>
</svg>
