<svg width="134" height="48" viewBox="0 0 134 48" fill="none" xmlns="http://www.w3.org/2000/svg">
<g clip-path="url(#clip0_13294_8967)">
<path d="M9.11684 0H6.29297V2.82388H9.11684V0Z" fill="#55162B"/>
<path d="M11.9411 0H9.11719V2.82388H11.9411V0Z" fill="#55162B"/>
<path d="M14.7653 0H11.9414V2.82388H14.7653V0Z" fill="#55162B"/>
<path d="M17.5875 0H14.7637V2.82388H17.5875V0Z" fill="#55162B"/>
<path d="M20.4118 0H17.5879V2.82388H20.4118V0Z" fill="#55162B"/>
<path d="M23.236 0H20.4121V2.82388H23.236V0Z" fill="#55162B"/>
<path d="M26.0583 0H23.2344V2.82388H26.0583V0Z" fill="#55162B"/>
<path d="M28.8825 0H26.0586V2.82388H28.8825V0Z" fill="#55162B"/>
<path d="M31.7057 0H28.8818V2.82388H31.7057V0Z" fill="#55162B"/>
<path d="M34.529 0H31.7051V2.82388H34.529V0Z" fill="#55162B"/>
<path d="M37.3532 0H34.5293V2.82388H37.3532V0Z" fill="#55162B"/>
<path d="M40.1764 0H37.3525V2.82388H40.1764V0Z" fill="#55162B"/>
<path d="M42.9997 0H40.1758V2.82388H42.9997V0Z" fill="#55162B"/>
<path d="M45.8239 0H43V2.82388H45.8239V0Z" fill="#55162B"/>
<path d="M48.6471 0H45.8232V2.82388H48.6471V0Z" fill="#55162B"/>
<path d="M51.4704 0H48.6465V2.82388H51.4704V0Z" fill="#55162B"/>
<path d="M54.2946 0H51.4707V2.82388H54.2946V0Z" fill="#55162B"/>
<path d="M57.1178 0H54.2939V2.82388H57.1178V0Z" fill="#55162B"/>
<path d="M110.765 0H107.941V2.82388H110.765V0Z" fill="#55162B"/>
<path d="M113.589 0H110.765V2.82388H113.589V0Z" fill="#55162B"/>
<path d="M116.413 0H113.589V2.82388H116.413V0Z" fill="#55162B"/>
<path d="M119.236 0H116.412V2.82388H119.236V0Z" fill="#55162B"/>
<path d="M122.059 0H119.235V2.82388H122.059V0Z" fill="#55162B"/>
<path d="M124.883 0H122.06V2.82388H124.883V0Z" fill="#55162B"/>
<path d="M127.706 0H124.882V2.82388H127.706V0Z" fill="#55162B"/>
<path d="M6.29458 2.82385H3.4707V5.64773H6.29458V2.82385Z" fill="#55162B"/>
<path d="M9.11684 2.82385H6.29297V5.64773H9.11684V2.82385Z" fill="#993328"/>
<path d="M11.9411 2.82385H9.11719V5.64773H11.9411V2.82385Z" fill="#993328"/>
<path d="M14.7653 2.82385H11.9414V5.64773H14.7653V2.82385Z" fill="#993328"/>
<path d="M17.5875 2.82385H14.7637V5.64773H17.5875V2.82385Z" fill="#993328"/>
<path d="M20.4118 2.82385H17.5879V5.64773H20.4118V2.82385Z" fill="#FAF1D4"/>
<path d="M23.236 2.82385H20.4121V5.64773H23.236V2.82385Z" fill="#FAF1D4"/>
<path d="M26.0583 2.82385H23.2344V5.64773H26.0583V2.82385Z" fill="#EBC24F"/>
<path d="M28.8825 2.82385H26.0586V5.64773H28.8825V2.82385Z" fill="#EBC24F"/>
<path d="M31.7057 2.82385H28.8818V5.64773H31.7057V2.82385Z" fill="#EBC24F"/>
<path d="M34.529 2.82385H31.7051V5.64773H34.529V2.82385Z" fill="#EBC24F"/>
<path d="M37.3532 2.82385H34.5293V5.64773H37.3532V2.82385Z" fill="#EBC24F"/>
<path d="M40.1764 2.82385H37.3525V5.64773H40.1764V2.82385Z" fill="#EBC24F"/>
<path d="M42.9997 2.82385H40.1758V5.64773H42.9997V2.82385Z" fill="#EBC24F"/>
<path d="M45.8239 2.82385H43V5.64773H45.8239V2.82385Z" fill="#EBC24F"/>
<path d="M48.6471 2.82385H45.8232V5.64773H48.6471V2.82385Z" fill="#EBC24F"/>
<path d="M51.4704 2.82385H48.6465V5.64773H51.4704V2.82385Z" fill="#EBC24F"/>
<path d="M54.2946 2.82385H51.4707V5.64773H54.2946V2.82385Z" fill="#EBC24F"/>
<path d="M57.1178 2.82385H54.2939V5.64773H57.1178V2.82385Z" fill="#EBC24F"/>
<path d="M110.765 2.82385H107.941V5.64773H110.765V2.82385Z" fill="#EBC24F"/>
<path d="M113.589 2.82385H110.765V5.64773H113.589V2.82385Z" fill="#EBC24F"/>
<path d="M116.413 2.82385H113.589V5.64773H116.413V2.82385Z" fill="#EBC24F"/>
<path d="M119.236 2.82385H116.412V5.64773H119.236V2.82385Z" fill="#993328"/>
<path d="M122.059 2.82385H119.235V5.64773H122.059V2.82385Z" fill="#993328"/>
<path d="M124.883 2.82385H122.06V5.64773H124.883V2.82385Z" fill="#993328"/>
<path d="M127.706 2.82385H124.882V5.64773H127.706V2.82385Z" fill="#993328"/>
<path d="M130.53 2.82385H127.706V5.64773H130.53V2.82385Z" fill="#55162B"/>
<path d="M3.47036 5.64679H0.646484V8.47066H3.47036V5.64679Z" fill="#55162B"/>
<path d="M6.29458 5.64679H3.4707V8.47066H6.29458V5.64679Z" fill="#993328"/>
<path d="M9.11684 5.64679H6.29297V8.47066H9.11684V5.64679Z" fill="#993328"/>
<path d="M11.9411 5.64679H9.11719V8.47066H11.9411V5.64679Z" fill="#993328"/>
<path d="M14.7653 5.64679H11.9414V8.47066H14.7653V5.64679Z" fill="#993328"/>
<path d="M17.5875 5.64679H14.7637V8.47066H17.5875V5.64679Z" fill="#FAF1D4"/>
<path d="M20.4118 5.64679H17.5879V8.47066H20.4118V5.64679Z" fill="#D2742E"/>
<path d="M23.236 5.64679H20.4121V8.47066H23.236V5.64679Z" fill="#D2742E"/>
<path d="M26.0583 5.64679H23.2344V8.47066H26.0583V5.64679Z" fill="#D2742E"/>
<path d="M28.8825 5.64679H26.0586V8.47066H28.8825V5.64679Z" fill="#D2742E"/>
<path d="M31.7057 5.64679H28.8818V8.47066H31.7057V5.64679Z" fill="#D2742E"/>
<path d="M34.529 5.64679H31.7051V8.47066H34.529V5.64679Z" fill="#D2742E"/>
<path d="M37.3532 5.64679H34.5293V8.47066H37.3532V5.64679Z" fill="#D2742E"/>
<path d="M40.1764 5.64679H37.3525V8.47066H40.1764V5.64679Z" fill="#D2742E"/>
<path d="M42.9997 5.64679H40.1758V8.47066H42.9997V5.64679Z" fill="#D2742E"/>
<path d="M45.8239 5.64679H43V8.47066H45.8239V5.64679Z" fill="#D2742E"/>
<path d="M48.6471 5.64679H45.8232V8.47066H48.6471V5.64679Z" fill="#D2742E"/>
<path d="M51.4704 5.64679H48.6465V8.47066H51.4704V5.64679Z" fill="#D2742E"/>
<path d="M54.2946 5.64679H51.4707V8.47066H54.2946V5.64679Z" fill="#D2742E"/>
<path d="M57.1178 5.64679H54.2939V8.47066H57.1178V5.64679Z" fill="#D2742E"/>
<path d="M110.765 5.64679H107.941V8.47066H110.765V5.64679Z" fill="#D2742E"/>
<path d="M113.589 5.64679H110.765V8.47066H113.589V5.64679Z" fill="#D2742E"/>
<path d="M116.413 5.64679H113.589V8.47066H116.413V5.64679Z" fill="#D2742E"/>
<path d="M119.236 5.64679H116.412V8.47066H119.236V5.64679Z" fill="#EBC24F"/>
<path d="M122.059 5.64679H119.235V8.47066H122.059V5.64679Z" fill="#993328"/>
<path d="M124.883 5.64679H122.06V8.47066H124.883V5.64679Z" fill="#993328"/>
<path d="M127.706 5.64679H124.882V8.47066H127.706V5.64679Z" fill="#993328"/>
<path d="M130.53 5.64679H127.706V8.47066H130.53V5.64679Z" fill="#993328"/>
<path d="M133.354 5.64679H130.53V8.47066H133.354V5.64679Z" fill="#55162B"/>
<path d="M3.47036 8.47064H0.646484V11.2945H3.47036V8.47064Z" fill="#55162B"/>
<path d="M6.29458 8.47064H3.4707V11.2945H6.29458V8.47064Z" fill="#993328"/>
<path d="M9.11684 8.47064H6.29297V11.2945H9.11684V8.47064Z" fill="#993328"/>
<path d="M11.9411 8.47064H9.11719V11.2945H11.9411V8.47064Z" fill="#993328"/>
<path d="M14.7653 8.47064H11.9414V11.2945H14.7653V8.47064Z" fill="#993328"/>
<path d="M17.5875 8.47064H14.7637V11.2945H17.5875V8.47064Z" fill="#FAF1D4"/>
<path d="M20.4118 8.47064H17.5879V11.2945H20.4118V8.47064Z" fill="#D2742E"/>
<path d="M23.236 8.47064H20.4121V11.2945H23.236V8.47064Z" fill="#D2742E"/>
<path d="M26.0583 8.47064H23.2344V11.2945H26.0583V8.47064Z" fill="#D2742E"/>
<path d="M28.8825 8.47064H26.0586V11.2945H28.8825V8.47064Z" fill="#D2742E"/>
<path d="M31.7057 8.47064H28.8818V11.2945H31.7057V8.47064Z" fill="#D2742E"/>
<path d="M34.529 8.47064H31.7051V11.2945H34.529V8.47064Z" fill="#D2742E"/>
<path d="M37.3532 8.47064H34.5293V11.2945H37.3532V8.47064Z" fill="#D2742E"/>
<path d="M40.1764 8.47064H37.3525V11.2945H40.1764V8.47064Z" fill="#D2742E"/>
<path d="M42.9997 8.47064H40.1758V11.2945H42.9997V8.47064Z" fill="#D2742E"/>
<path d="M45.8239 8.47064H43V11.2945H45.8239V8.47064Z" fill="#D2742E"/>
<path d="M48.6471 8.47064H45.8232V11.2945H48.6471V8.47064Z" fill="#D2742E"/>
<path d="M51.4704 8.47064H48.6465V11.2945H51.4704V8.47064Z" fill="#D2742E"/>
<path d="M54.2946 8.47064H51.4707V11.2945H54.2946V8.47064Z" fill="#D2742E"/>
<path d="M57.1178 8.47064H54.2939V11.2945H57.1178V8.47064Z" fill="#D2742E"/>
<path d="M110.765 8.47064H107.941V11.2945H110.765V8.47064Z" fill="#D2742E"/>
<path d="M113.589 8.47064H110.765V11.2945H113.589V8.47064Z" fill="#D2742E"/>
<path d="M116.413 8.47064H113.589V11.2945H116.413V8.47064Z" fill="#D2742E"/>
<path d="M119.236 8.47064H116.412V11.2945H119.236V8.47064Z" fill="#EBC24F"/>
<path d="M122.059 8.47064H119.235V11.2945H122.059V8.47064Z" fill="#993328"/>
<path d="M124.883 8.47064H122.06V11.2945H124.883V8.47064Z" fill="#993328"/>
<path d="M127.706 8.47064H124.882V11.2945H127.706V8.47064Z" fill="#993328"/>
<path d="M130.53 8.47064H127.706V11.2945H130.53V8.47064Z" fill="#993328"/>
<path d="M133.354 8.47064H130.53V11.2945H133.354V8.47064Z" fill="#55162B"/>
<path d="M3.47036 11.2945H0.646484V14.1184H3.47036V11.2945Z" fill="#55162B"/>
<path d="M6.29458 11.2945H3.4707V14.1184H6.29458V11.2945Z" fill="#993328"/>
<path d="M9.11684 11.2945H6.29297V14.1184H9.11684V11.2945Z" fill="#993328"/>
<path d="M11.9411 11.2945H9.11719V14.1184H11.9411V11.2945Z" fill="#993328"/>
<path d="M14.7653 11.2945H11.9414V14.1184H14.7653V11.2945Z" fill="#993328"/>
<path d="M17.5875 11.2945H14.7637V14.1184H17.5875V11.2945Z" fill="#EBC24F"/>
<path d="M20.4118 11.2945H17.5879V14.1184H20.4118V11.2945Z" fill="#D2742E"/>
<path d="M23.236 11.2945H20.4121V14.1184H23.236V11.2945Z" fill="#D2742E"/>
<path d="M26.0583 11.2945H23.2344V14.1184H26.0583V11.2945Z" fill="#D2742E"/>
<path d="M28.8825 11.2945H26.0586V14.1184H28.8825V11.2945Z" fill="#D2742E"/>
<path d="M31.7057 11.2945H28.8818V14.1184H31.7057V11.2945Z" fill="#D2742E"/>
<path d="M34.529 11.2945H31.7051V14.1184H34.529V11.2945Z" fill="#D2742E"/>
<path d="M37.3532 11.2945H34.5293V14.1184H37.3532V11.2945Z" fill="#D2742E"/>
<path d="M40.1764 11.2945H37.3525V14.1184H40.1764V11.2945Z" fill="#D2742E"/>
<path d="M42.9997 11.2945H40.1758V14.1184H42.9997V11.2945Z" fill="#D2742E"/>
<path d="M45.8239 11.2945H43V14.1184H45.8239V11.2945Z" fill="#D2742E"/>
<path d="M48.6471 11.2945H45.8232V14.1184H48.6471V11.2945Z" fill="#D2742E"/>
<path d="M51.4704 11.2945H48.6465V14.1184H51.4704V11.2945Z" fill="#D2742E"/>
<path d="M54.2946 11.2945H51.4707V14.1184H54.2946V11.2945Z" fill="#D2742E"/>
<path d="M57.1178 11.2945H54.2939V14.1184H57.1178V11.2945Z" fill="#D2742E"/>
<path d="M110.765 11.2945H107.941V14.1184H110.765V11.2945Z" fill="#D2742E"/>
<path d="M113.589 11.2945H110.765V14.1184H113.589V11.2945Z" fill="#D2742E"/>
<path d="M116.413 11.2945H113.589V14.1184H116.413V11.2945Z" fill="#D2742E"/>
<path d="M119.236 11.2945H116.412V14.1184H119.236V11.2945Z" fill="#EBC24F"/>
<path d="M122.059 11.2945H119.235V14.1184H122.059V11.2945Z" fill="#993328"/>
<path d="M124.883 11.2945H122.06V14.1184H124.883V11.2945Z" fill="#993328"/>
<path d="M127.706 11.2945H124.882V14.1184H127.706V11.2945Z" fill="#993328"/>
<path d="M130.53 11.2945H127.706V14.1184H130.53V11.2945Z" fill="#993328"/>
<path d="M133.354 11.2945H130.53V14.1184H133.354V11.2945Z" fill="#55162B"/>
<path d="M3.47036 14.1174H0.646484V16.9413H3.47036V14.1174Z" fill="#55162B"/>
<path d="M6.29458 14.1174H3.4707V16.9413H6.29458V14.1174Z" fill="#993328"/>
<path d="M9.11684 14.1174H6.29297V16.9413H9.11684V14.1174Z" fill="#993328"/>
<path d="M11.9411 14.1174H9.11719V16.9413H11.9411V14.1174Z" fill="#993328"/>
<path d="M14.7653 14.1174H11.9414V16.9413H14.7653V14.1174Z" fill="#993328"/>
<path d="M17.5875 14.1174H14.7637V16.9413H17.5875V14.1174Z" fill="#EBC24F"/>
<path d="M20.4118 14.1174H17.5879V16.9413H20.4118V14.1174Z" fill="#D2742E"/>
<path d="M23.236 14.1174H20.4121V16.9413H23.236V14.1174Z" fill="#D2742E"/>
<path d="M26.0583 14.1174H23.2344V16.9413H26.0583V14.1174Z" fill="#D2742E"/>
<path d="M28.8825 14.1174H26.0586V16.9413H28.8825V14.1174Z" fill="#D2742E"/>
<path d="M31.7057 14.1174H28.8818V16.9413H31.7057V14.1174Z" fill="#D2742E"/>
<path d="M34.529 14.1174H31.7051V16.9413H34.529V14.1174Z" fill="#D2742E"/>
<path d="M37.3532 14.1174H34.5293V16.9413H37.3532V14.1174Z" fill="#D2742E"/>
<path d="M40.1764 14.1174H37.3525V16.9413H40.1764V14.1174Z" fill="#D2742E"/>
<path d="M42.9997 14.1174H40.1758V16.9413H42.9997V14.1174Z" fill="#D2742E"/>
<path d="M45.8239 14.1174H43V16.9413H45.8239V14.1174Z" fill="#D2742E"/>
<path d="M48.6471 14.1174H45.8232V16.9413H48.6471V14.1174Z" fill="#D2742E"/>
<path d="M51.4704 14.1174H48.6465V16.9413H51.4704V14.1174Z" fill="#D2742E"/>
<path d="M54.2946 14.1174H51.4707V16.9413H54.2946V14.1174Z" fill="#D2742E"/>
<path d="M57.1178 14.1174H54.2939V16.9413H57.1178V14.1174Z" fill="#D2742E"/>
<path d="M110.765 14.1174H107.941V16.9413H110.765V14.1174Z" fill="#D2742E"/>
<path d="M113.589 14.1174H110.765V16.9413H113.589V14.1174Z" fill="#D2742E"/>
<path d="M116.413 14.1174H113.589V16.9413H116.413V14.1174Z" fill="#D2742E"/>
<path d="M119.236 14.1174H116.412V16.9413H119.236V14.1174Z" fill="#EBC24F"/>
<path d="M122.059 14.1174H119.235V16.9413H122.059V14.1174Z" fill="#993328"/>
<path d="M124.883 14.1174H122.06V16.9413H124.883V14.1174Z" fill="#993328"/>
<path d="M127.706 14.1174H124.882V16.9413H127.706V14.1174Z" fill="#993328"/>
<path d="M130.53 14.1174H127.706V16.9413H130.53V14.1174Z" fill="#993328"/>
<path d="M133.354 14.1174H130.53V16.9413H133.354V14.1174Z" fill="#55162B"/>
<path d="M3.47036 16.9413H0.646484V19.7652H3.47036V16.9413Z" fill="#55162B"/>
<path d="M6.29458 16.9413H3.4707V19.7652H6.29458V16.9413Z" fill="#993328"/>
<path d="M9.11684 16.9413H6.29297V19.7652H9.11684V16.9413Z" fill="#993328"/>
<path d="M11.9411 16.9413H9.11719V19.7652H11.9411V16.9413Z" fill="#993328"/>
<path d="M14.7653 16.9413H11.9414V19.7652H14.7653V16.9413Z" fill="#993328"/>
<path d="M17.5875 16.9413H14.7637V19.7652H17.5875V16.9413Z" fill="#EBC24F"/>
<path d="M20.4118 16.9413H17.5879V19.7652H20.4118V16.9413Z" fill="#D2742E"/>
<path d="M23.236 16.9413H20.4121V19.7652H23.236V16.9413Z" fill="#D2742E"/>
<path d="M26.0583 16.9413H23.2344V19.7652H26.0583V16.9413Z" fill="#D2742E"/>
<path d="M28.8825 16.9413H26.0586V19.7652H28.8825V16.9413Z" fill="#D2742E"/>
<path d="M31.7057 16.9413H28.8818V19.7652H31.7057V16.9413Z" fill="#D2742E"/>
<path d="M34.529 16.9413H31.7051V19.7652H34.529V16.9413Z" fill="#D2742E"/>
<path d="M37.3532 16.9413H34.5293V19.7652H37.3532V16.9413Z" fill="#D2742E"/>
<path d="M40.1764 16.9413H37.3525V19.7652H40.1764V16.9413Z" fill="#D2742E"/>
<path d="M42.9997 16.9413H40.1758V19.7652H42.9997V16.9413Z" fill="#D2742E"/>
<path d="M45.8239 16.9413H43V19.7652H45.8239V16.9413Z" fill="#D2742E"/>
<path d="M48.6471 16.9413H45.8232V19.7652H48.6471V16.9413Z" fill="#D2742E"/>
<path d="M51.4704 16.9413H48.6465V19.7652H51.4704V16.9413Z" fill="#D2742E"/>
<path d="M54.2946 16.9413H51.4707V19.7652H54.2946V16.9413Z" fill="#D2742E"/>
<path d="M57.1178 16.9413H54.2939V19.7652H57.1178V16.9413Z" fill="#D2742E"/>
<path d="M110.765 16.9413H107.941V19.7652H110.765V16.9413Z" fill="#D2742E"/>
<path d="M113.589 16.9413H110.765V19.7652H113.589V16.9413Z" fill="#D2742E"/>
<path d="M116.413 16.9413H113.589V19.7652H116.413V16.9413Z" fill="#D2742E"/>
<path d="M119.236 16.9413H116.412V19.7652H119.236V16.9413Z" fill="#EBC24F"/>
<path d="M122.059 16.9413H119.235V19.7652H122.059V16.9413Z" fill="#993328"/>
<path d="M124.883 16.9413H122.06V19.7652H124.883V16.9413Z" fill="#993328"/>
<path d="M127.706 16.9413H124.882V19.7652H127.706V16.9413Z" fill="#993328"/>
<path d="M130.53 16.9413H127.706V19.7652H130.53V16.9413Z" fill="#993328"/>
<path d="M133.354 16.9413H130.53V19.7652H133.354V16.9413Z" fill="#55162B"/>
<path d="M3.47036 19.7651H0.646484V22.589H3.47036V19.7651Z" fill="#55162B"/>
<path d="M6.29458 19.7651H3.4707V22.589H6.29458V19.7651Z" fill="#993328"/>
<path d="M9.11684 19.7651H6.29297V22.589H9.11684V19.7651Z" fill="#993328"/>
<path d="M11.9411 19.7651H9.11719V22.589H11.9411V19.7651Z" fill="#993328"/>
<path d="M14.7653 19.7651H11.9414V22.589H14.7653V19.7651Z" fill="#993328"/>
<path d="M17.5875 19.7651H14.7637V22.589H17.5875V19.7651Z" fill="#EBC24F"/>
<path d="M20.4118 19.7651H17.5879V22.589H20.4118V19.7651Z" fill="#D2742E"/>
<path d="M23.236 19.7651H20.4121V22.589H23.236V19.7651Z" fill="#D2742E"/>
<path d="M26.0583 19.7651H23.2344V22.589H26.0583V19.7651Z" fill="#D2742E"/>
<path d="M28.8825 19.7651H26.0586V22.589H28.8825V19.7651Z" fill="#D2742E"/>
<path d="M31.7057 19.7651H28.8818V22.589H31.7057V19.7651Z" fill="#D2742E"/>
<path d="M34.529 19.7651H31.7051V22.589H34.529V19.7651Z" fill="#D2742E"/>
<path d="M37.3532 19.7651H34.5293V22.589H37.3532V19.7651Z" fill="#D2742E"/>
<path d="M40.1764 19.7651H37.3525V22.589H40.1764V19.7651Z" fill="#D2742E"/>
<path d="M42.9997 19.7651H40.1758V22.589H42.9997V19.7651Z" fill="#D2742E"/>
<path d="M45.8239 19.7651H43V22.589H45.8239V19.7651Z" fill="#D2742E"/>
<path d="M48.6471 19.7651H45.8232V22.589H48.6471V19.7651Z" fill="#D2742E"/>
<path d="M51.4704 19.7651H48.6465V22.589H51.4704V19.7651Z" fill="#D2742E"/>
<path d="M54.2946 19.7651H51.4707V22.589H54.2946V19.7651Z" fill="#D2742E"/>
<path d="M57.1178 19.7651H54.2939V22.589H57.1178V19.7651Z" fill="#D2742E"/>
<path d="M110.765 19.7651H107.941V22.589H110.765V19.7651Z" fill="#D2742E"/>
<path d="M113.589 19.7651H110.765V22.589H113.589V19.7651Z" fill="#D2742E"/>
<path d="M116.413 19.7651H113.589V22.589H116.413V19.7651Z" fill="#D2742E"/>
<path d="M119.236 19.7651H116.412V22.589H119.236V19.7651Z" fill="#EBC24F"/>
<path d="M122.059 19.7651H119.235V22.589H122.059V19.7651Z" fill="#993328"/>
<path d="M124.883 19.7651H122.06V22.589H124.883V19.7651Z" fill="#993328"/>
<path d="M127.706 19.7651H124.882V22.589H127.706V19.7651Z" fill="#993328"/>
<path d="M130.53 19.7651H127.706V22.589H130.53V19.7651Z" fill="#993328"/>
<path d="M133.354 19.7651H130.53V22.589H133.354V19.7651Z" fill="#55162B"/>
<path d="M3.47036 22.5881H0.646484V25.412H3.47036V22.5881Z" fill="#55162B"/>
<path d="M6.29458 22.5881H3.4707V25.412H6.29458V22.5881Z" fill="#993328"/>
<path d="M9.11684 22.5881H6.29297V25.412H9.11684V22.5881Z" fill="#993328"/>
<path d="M11.9411 22.5881H9.11719V25.412H11.9411V22.5881Z" fill="#993328"/>
<path d="M14.7653 22.5881H11.9414V25.412H14.7653V22.5881Z" fill="#993328"/>
<path d="M17.5875 22.5881H14.7637V25.412H17.5875V22.5881Z" fill="#EBC24F"/>
<path d="M20.4118 22.5881H17.5879V25.412H20.4118V22.5881Z" fill="#D2742E"/>
<path d="M23.236 22.5881H20.4121V25.412H23.236V22.5881Z" fill="#D2742E"/>
<path d="M26.0583 22.5881H23.2344V25.412H26.0583V22.5881Z" fill="#D2742E"/>
<path d="M28.8825 22.5881H26.0586V25.412H28.8825V22.5881Z" fill="#D2742E"/>
<path d="M31.7057 22.5881H28.8818V25.412H31.7057V22.5881Z" fill="#D2742E"/>
<path d="M34.529 22.5881H31.7051V25.412H34.529V22.5881Z" fill="#D2742E"/>
<path d="M37.3532 22.5881H34.5293V25.412H37.3532V22.5881Z" fill="#D2742E"/>
<path d="M40.1764 22.5881H37.3525V25.412H40.1764V22.5881Z" fill="#D2742E"/>
<path d="M42.9997 22.5881H40.1758V25.412H42.9997V22.5881Z" fill="#D2742E"/>
<path d="M45.8239 22.5881H43V25.412H45.8239V22.5881Z" fill="#D2742E"/>
<path d="M48.6471 22.5881H45.8232V25.412H48.6471V22.5881Z" fill="#D2742E"/>
<path d="M51.4704 22.5881H48.6465V25.412H51.4704V22.5881Z" fill="#D2742E"/>
<path d="M54.2946 22.5881H51.4707V25.412H54.2946V22.5881Z" fill="#D2742E"/>
<path d="M57.1178 22.5881H54.2939V25.412H57.1178V22.5881Z" fill="#D2742E"/>
<path d="M110.765 22.5881H107.941V25.412H110.765V22.5881Z" fill="#D2742E"/>
<path d="M113.589 22.5881H110.765V25.412H113.589V22.5881Z" fill="#D2742E"/>
<path d="M116.413 22.5881H113.589V25.412H116.413V22.5881Z" fill="#D2742E"/>
<path d="M119.236 22.5881H116.412V25.412H119.236V22.5881Z" fill="#EBC24F"/>
<path d="M122.059 22.5881H119.235V25.412H122.059V22.5881Z" fill="#993328"/>
<path d="M124.883 22.5881H122.06V25.412H124.883V22.5881Z" fill="#993328"/>
<path d="M127.706 22.5881H124.882V25.412H127.706V22.5881Z" fill="#993328"/>
<path d="M130.53 22.5881H127.706V25.412H130.53V22.5881Z" fill="#993328"/>
<path d="M133.354 22.5881H130.53V25.412H133.354V22.5881Z" fill="#55162B"/>
<path d="M3.47036 25.4119H0.646484V28.2358H3.47036V25.4119Z" fill="#55162B"/>
<path d="M6.29458 25.4119H3.4707V28.2358H6.29458V25.4119Z" fill="#993328"/>
<path d="M9.11684 25.4119H6.29297V28.2358H9.11684V25.4119Z" fill="#993328"/>
<path d="M11.9411 25.4119H9.11719V28.2358H11.9411V25.4119Z" fill="#993328"/>
<path d="M14.7653 25.4119H11.9414V28.2358H14.7653V25.4119Z" fill="#993328"/>
<path d="M17.5875 25.4119H14.7637V28.2358H17.5875V25.4119Z" fill="#EBC24F"/>
<path d="M20.4118 25.4119H17.5879V28.2358H20.4118V25.4119Z" fill="#D2742E"/>
<path d="M23.236 25.4119H20.4121V28.2358H23.236V25.4119Z" fill="#D2742E"/>
<path d="M26.0583 25.4119H23.2344V28.2358H26.0583V25.4119Z" fill="#D2742E"/>
<path d="M28.8825 25.4119H26.0586V28.2358H28.8825V25.4119Z" fill="#D2742E"/>
<path d="M31.7057 25.4119H28.8818V28.2358H31.7057V25.4119Z" fill="#D2742E"/>
<path d="M34.529 25.4119H31.7051V28.2358H34.529V25.4119Z" fill="#D2742E"/>
<path d="M37.3532 25.4119H34.5293V28.2358H37.3532V25.4119Z" fill="#D2742E"/>
<path d="M40.1764 25.4119H37.3525V28.2358H40.1764V25.4119Z" fill="#D2742E"/>
<path d="M42.9997 25.4119H40.1758V28.2358H42.9997V25.4119Z" fill="#D2742E"/>
<path d="M45.8239 25.4119H43V28.2358H45.8239V25.4119Z" fill="#D2742E"/>
<path d="M48.6471 25.4119H45.8232V28.2358H48.6471V25.4119Z" fill="#D2742E"/>
<path d="M51.4704 25.4119H48.6465V28.2358H51.4704V25.4119Z" fill="#D2742E"/>
<path d="M54.2946 25.4119H51.4707V28.2358H54.2946V25.4119Z" fill="#D2742E"/>
<path d="M57.1178 25.4119H54.2939V28.2358H57.1178V25.4119Z" fill="#D2742E"/>
<path d="M110.765 25.4119H107.941V28.2358H110.765V25.4119Z" fill="#D2742E"/>
<path d="M113.589 25.4119H110.765V28.2358H113.589V25.4119Z" fill="#D2742E"/>
<path d="M116.413 25.4119H113.589V28.2358H116.413V25.4119Z" fill="#D2742E"/>
<path d="M119.236 25.4119H116.412V28.2358H119.236V25.4119Z" fill="#FAF1D4"/>
<path d="M122.059 25.4119H119.235V28.2358H122.059V25.4119Z" fill="#993328"/>
<path d="M124.883 25.4119H122.06V28.2358H124.883V25.4119Z" fill="#993328"/>
<path d="M127.706 25.4119H124.882V28.2358H127.706V25.4119Z" fill="#993328"/>
<path d="M130.53 25.4119H127.706V28.2358H130.53V25.4119Z" fill="#993328"/>
<path d="M133.354 25.4119H130.53V28.2358H133.354V25.4119Z" fill="#55162B"/>
<path d="M3.47036 28.2358H0.646484V31.0597H3.47036V28.2358Z" fill="#55162B"/>
<path d="M6.29458 28.2358H3.4707V31.0597H6.29458V28.2358Z" fill="#993328"/>
<path d="M9.11684 28.2358H6.29297V31.0597H9.11684V28.2358Z" fill="#993328"/>
<path d="M11.9411 28.2358H9.11719V31.0597H11.9411V28.2358Z" fill="#993328"/>
<path d="M14.7653 28.2358H11.9414V31.0597H14.7653V28.2358Z" fill="#993328"/>
<path d="M17.5875 28.2358H14.7637V31.0597H17.5875V28.2358Z" fill="#EBC24F"/>
<path d="M20.4118 28.2358H17.5879V31.0597H20.4118V28.2358Z" fill="#D2742E"/>
<path d="M23.236 28.2358H20.4121V31.0597H23.236V28.2358Z" fill="#D2742E"/>
<path d="M26.0583 28.2358H23.2344V31.0597H26.0583V28.2358Z" fill="#D2742E"/>
<path d="M28.8825 28.2358H26.0586V31.0597H28.8825V28.2358Z" fill="#D2742E"/>
<path d="M31.7057 28.2358H28.8818V31.0597H31.7057V28.2358Z" fill="#D2742E"/>
<path d="M34.529 28.2358H31.7051V31.0597H34.529V28.2358Z" fill="#D2742E"/>
<path d="M37.3532 28.2358H34.5293V31.0597H37.3532V28.2358Z" fill="#D2742E"/>
<path d="M40.1764 28.2358H37.3525V31.0597H40.1764V28.2358Z" fill="#D2742E"/>
<path d="M42.9997 28.2358H40.1758V31.0597H42.9997V28.2358Z" fill="#D2742E"/>
<path d="M45.8239 28.2358H43V31.0597H45.8239V28.2358Z" fill="#D2742E"/>
<path d="M48.6471 28.2358H45.8232V31.0597H48.6471V28.2358Z" fill="#D2742E"/>
<path d="M51.4704 28.2358H48.6465V31.0597H51.4704V28.2358Z" fill="#D2742E"/>
<path d="M54.2946 28.2358H51.4707V31.0597H54.2946V28.2358Z" fill="#D2742E"/>
<path d="M57.1178 28.2358H54.2939V31.0597H57.1178V28.2358Z" fill="#D2742E"/>
<path d="M110.765 28.2358H107.941V31.0597H110.765V28.2358Z" fill="#D2742E"/>
<path d="M113.589 28.2358H110.765V31.0597H113.589V28.2358Z" fill="#D2742E"/>
<path d="M116.413 28.2358H113.589V31.0597H116.413V28.2358Z" fill="#D2742E"/>
<path d="M119.236 28.2358H116.412V31.0597H119.236V28.2358Z" fill="#FAF1D4"/>
<path d="M122.059 28.2358H119.235V31.0597H122.059V28.2358Z" fill="#993328"/>
<path d="M124.883 28.2358H122.06V31.0597H124.883V28.2358Z" fill="#993328"/>
<path d="M127.706 28.2358H124.882V31.0597H127.706V28.2358Z" fill="#993328"/>
<path d="M130.53 28.2358H127.706V31.0597H130.53V28.2358Z" fill="#993328"/>
<path d="M133.354 28.2358H130.53V31.0597H133.354V28.2358Z" fill="#55162B"/>
<path d="M3.47036 31.0587H0.646484V33.8826H3.47036V31.0587Z" fill="#55162B"/>
<path d="M6.29458 31.0587H3.4707V33.8826H6.29458V31.0587Z" fill="#993328"/>
<path d="M9.11684 31.0587H6.29297V33.8826H9.11684V31.0587Z" fill="#993328"/>
<path d="M11.9411 31.0587H9.11719V33.8826H11.9411V31.0587Z" fill="#993328"/>
<path d="M14.7653 31.0587H11.9414V33.8826H14.7653V31.0587Z" fill="#993328"/>
<path d="M17.5875 31.0587H14.7637V33.8826H17.5875V31.0587Z" fill="#55162B"/>
<path d="M20.4118 31.0587H17.5879V33.8826H20.4118V31.0587Z" fill="#EBC24F"/>
<path d="M23.236 31.0587H20.4121V33.8826H23.236V31.0587Z" fill="#EBC24F"/>
<path d="M26.0583 31.0587H23.2344V33.8826H26.0583V31.0587Z" fill="#EBC24F"/>
<path d="M28.8825 31.0587H26.0586V33.8826H28.8825V31.0587Z" fill="#EBC24F"/>
<path d="M31.7057 31.0587H28.8818V33.8826H31.7057V31.0587Z" fill="#EBC24F"/>
<path d="M34.529 31.0587H31.7051V33.8826H34.529V31.0587Z" fill="#EBC24F"/>
<path d="M37.3532 31.0587H34.5293V33.8826H37.3532V31.0587Z" fill="#EBC24F"/>
<path d="M40.1764 31.0587H37.3525V33.8826H40.1764V31.0587Z" fill="#EBC24F"/>
<path d="M42.9997 31.0587H40.1758V33.8826H42.9997V31.0587Z" fill="#EBC24F"/>
<path d="M45.8239 31.0587H43V33.8826H45.8239V31.0587Z" fill="#EBC24F"/>
<path d="M48.6471 31.0587H45.8232V33.8826H48.6471V31.0587Z" fill="#EBC24F"/>
<path d="M51.4704 31.0587H48.6465V33.8826H51.4704V31.0587Z" fill="#EBC24F"/>
<path d="M54.2946 31.0587H51.4707V33.8826H54.2946V31.0587Z" fill="#EBC24F"/>
<path d="M57.1178 31.0587H54.2939V33.8826H57.1178V31.0587Z" fill="#EBC24F"/>
<path d="M110.765 31.0587H107.941V33.8826H110.765V31.0587Z" fill="#EBC24F"/>
<path d="M113.589 31.0587H110.765V33.8826H113.589V31.0587Z" fill="#FAF1D4"/>
<path d="M116.413 31.0587H113.589V33.8826H116.413V31.0587Z" fill="#FAF1D4"/>
<path d="M119.236 31.0587H116.412V33.8826H119.236V31.0587Z" fill="#55162B"/>
<path d="M122.059 31.0587H119.235V33.8826H122.059V31.0587Z" fill="#993328"/>
<path d="M124.883 31.0587H122.06V33.8826H124.883V31.0587Z" fill="#993328"/>
<path d="M127.706 31.0587H124.882V33.8826H127.706V31.0587Z" fill="#993328"/>
<path d="M130.53 31.0587H127.706V33.8826H130.53V31.0587Z" fill="#993328"/>
<path d="M133.354 31.0587H130.53V33.8826H133.354V31.0587Z" fill="#55162B"/>
<path d="M3.47036 33.8826H0.646484V36.7064H3.47036V33.8826Z" fill="#55162B"/>
<path d="M6.29458 33.8826H3.4707V36.7064H6.29458V33.8826Z" fill="#993328"/>
<path d="M9.11684 33.8826H6.29297V36.7064H9.11684V33.8826Z" fill="#993328"/>
<path d="M11.9411 33.8826H9.11719V36.7064H11.9411V33.8826Z" fill="#993328"/>
<path d="M14.7653 33.8826H11.9414V36.7064H14.7653V33.8826Z" fill="#55162B"/>
<path d="M17.5875 33.8826H14.7637V36.7064H17.5875V33.8826Z" fill="#993328"/>
<path d="M20.4118 33.8826H17.5879V36.7064H20.4118V33.8826Z" fill="#993328"/>
<path d="M23.236 33.8826H20.4121V36.7064H23.236V33.8826Z" fill="#993328"/>
<path d="M26.0583 33.8826H23.2344V36.7064H26.0583V33.8826Z" fill="#993328"/>
<path d="M28.8825 33.8826H26.0586V36.7064H28.8825V33.8826Z" fill="#993328"/>
<path d="M31.7057 33.8826H28.8818V36.7064H31.7057V33.8826Z" fill="#993328"/>
<path d="M34.529 33.8826H31.7051V36.7064H34.529V33.8826Z" fill="#993328"/>
<path d="M37.3532 33.8826H34.5293V36.7064H37.3532V33.8826Z" fill="#993328"/>
<path d="M40.1764 33.8826H37.3525V36.7064H40.1764V33.8826Z" fill="#993328"/>
<path d="M42.9997 33.8826H40.1758V36.7064H42.9997V33.8826Z" fill="#993328"/>
<path d="M45.8239 33.8826H43V36.7064H45.8239V33.8826Z" fill="#993328"/>
<path d="M48.6471 33.8826H45.8232V36.7064H48.6471V33.8826Z" fill="#993328"/>
<path d="M51.4704 33.8826H48.6465V36.7064H51.4704V33.8826Z" fill="#993328"/>
<path d="M54.2946 33.8826H51.4707V36.7064H54.2946V33.8826Z" fill="#993328"/>
<path d="M57.1178 33.8826H54.2939V36.7064H57.1178V33.8826Z" fill="#993328"/>
<path d="M110.765 33.8826H107.941V36.7064H110.765V33.8826Z" fill="#993328"/>
<path d="M113.589 33.8826H110.765V36.7064H113.589V33.8826Z" fill="#993328"/>
<path d="M116.413 33.8826H113.589V36.7064H116.413V33.8826Z" fill="#993328"/>
<path d="M119.236 33.8826H116.412V36.7064H119.236V33.8826Z" fill="#993328"/>
<path d="M122.059 33.8826H119.235V36.7064H122.059V33.8826Z" fill="#55162B"/>
<path d="M124.883 33.8826H122.06V36.7064H124.883V33.8826Z" fill="#993328"/>
<path d="M127.706 33.8826H124.882V36.7064H127.706V33.8826Z" fill="#993328"/>
<path d="M130.53 33.8826H127.706V36.7064H130.53V33.8826Z" fill="#993328"/>
<path d="M133.354 33.8826H130.53V36.7064H133.354V33.8826Z" fill="#55162B"/>
<path d="M3.47036 36.7065H0.646484V39.5304H3.47036V36.7065Z" fill="#55162B"/>
<path d="M6.29458 36.7065H3.4707V39.5304H6.29458V36.7065Z" fill="#993328"/>
<path d="M9.11684 36.7065H6.29297V39.5304H9.11684V36.7065Z" fill="#993328"/>
<path d="M11.9411 36.7065H9.11719V39.5304H11.9411V36.7065Z" fill="#55162B"/>
<path d="M14.7653 36.7065H11.9414V39.5304H14.7653V36.7065Z" fill="#993328"/>
<path d="M17.5875 36.7065H14.7637V39.5304H17.5875V36.7065Z" fill="#993328"/>
<path d="M20.4118 36.7065H17.5879V39.5304H20.4118V36.7065Z" fill="#993328"/>
<path d="M23.236 36.7065H20.4121V39.5304H23.236V36.7065Z" fill="#993328"/>
<path d="M26.0583 36.7065H23.2344V39.5304H26.0583V36.7065Z" fill="#993328"/>
<path d="M28.8825 36.7065H26.0586V39.5304H28.8825V36.7065Z" fill="#993328"/>
<path d="M31.7057 36.7065H28.8818V39.5304H31.7057V36.7065Z" fill="#993328"/>
<path d="M34.529 36.7065H31.7051V39.5304H34.529V36.7065Z" fill="#993328"/>
<path d="M37.3532 36.7065H34.5293V39.5304H37.3532V36.7065Z" fill="#993328"/>
<path d="M40.1764 36.7065H37.3525V39.5304H40.1764V36.7065Z" fill="#993328"/>
<path d="M42.9997 36.7065H40.1758V39.5304H42.9997V36.7065Z" fill="#993328"/>
<path d="M45.8239 36.7065H43V39.5304H45.8239V36.7065Z" fill="#993328"/>
<path d="M48.6471 36.7065H45.8232V39.5304H48.6471V36.7065Z" fill="#993328"/>
<path d="M51.4704 36.7065H48.6465V39.5304H51.4704V36.7065Z" fill="#993328"/>
<path d="M54.2946 36.7065H51.4707V39.5304H54.2946V36.7065Z" fill="#993328"/>
<path d="M57.1178 36.7065H54.2939V39.5304H57.1178V36.7065Z" fill="#993328"/>
<path d="M110.765 36.7065H107.941V39.5304H110.765V36.7065Z" fill="#993328"/>
<path d="M113.589 36.7065H110.765V39.5304H113.589V36.7065Z" fill="#993328"/>
<path d="M116.413 36.7065H113.589V39.5304H116.413V36.7065Z" fill="#993328"/>
<path d="M119.236 36.7065H116.412V39.5304H119.236V36.7065Z" fill="#993328"/>
<path d="M122.059 36.7065H119.235V39.5304H122.059V36.7065Z" fill="#993328"/>
<path d="M124.883 36.7065H122.06V39.5304H124.883V36.7065Z" fill="#55162B"/>
<path d="M127.706 36.7065H124.882V39.5304H127.706V36.7065Z" fill="#993328"/>
<path d="M130.53 36.7065H127.706V39.5304H130.53V36.7065Z" fill="#993328"/>
<path d="M133.354 36.7065H130.53V39.5304H133.354V36.7065Z" fill="#55162B"/>
<path d="M3.47036 39.5294H0.646484V42.3532H3.47036V39.5294Z" fill="#55162B"/>
<path d="M6.29458 39.5294H3.4707V42.3532H6.29458V39.5294Z" fill="#993328"/>
<path d="M9.11684 39.5294H6.29297V42.3532H9.11684V39.5294Z" fill="#55162B"/>
<path d="M11.9411 39.5294H9.11719V42.3532H11.9411V39.5294Z" fill="#993328"/>
<path d="M14.7653 39.5294H11.9414V42.3532H14.7653V39.5294Z" fill="#993328"/>
<path d="M17.5875 39.5294H14.7637V42.3532H17.5875V39.5294Z" fill="#993328"/>
<path d="M20.4118 39.5294H17.5879V42.3532H20.4118V39.5294Z" fill="#993328"/>
<path d="M23.236 39.5294H20.4121V42.3532H23.236V39.5294Z" fill="#993328"/>
<path d="M26.0583 39.5294H23.2344V42.3532H26.0583V39.5294Z" fill="#993328"/>
<path d="M28.8825 39.5294H26.0586V42.3532H28.8825V39.5294Z" fill="#993328"/>
<path d="M31.7057 39.5294H28.8818V42.3532H31.7057V39.5294Z" fill="#993328"/>
<path d="M34.529 39.5294H31.7051V42.3532H34.529V39.5294Z" fill="#993328"/>
<path d="M37.3532 39.5294H34.5293V42.3532H37.3532V39.5294Z" fill="#993328"/>
<path d="M40.1764 39.5294H37.3525V42.3532H40.1764V39.5294Z" fill="#993328"/>
<path d="M42.9997 39.5294H40.1758V42.3532H42.9997V39.5294Z" fill="#993328"/>
<path d="M45.8239 39.5294H43V42.3532H45.8239V39.5294Z" fill="#993328"/>
<path d="M48.6471 39.5294H45.8232V42.3532H48.6471V39.5294Z" fill="#993328"/>
<path d="M51.4704 39.5294H48.6465V42.3532H51.4704V39.5294Z" fill="#993328"/>
<path d="M54.2946 39.5294H51.4707V42.3532H54.2946V39.5294Z" fill="#993328"/>
<path d="M57.1178 39.5294H54.2939V42.3532H57.1178V39.5294Z" fill="#993328"/>
<path d="M110.765 39.5294H107.941V42.3532H110.765V39.5294Z" fill="#993328"/>
<path d="M113.589 39.5294H110.765V42.3532H113.589V39.5294Z" fill="#993328"/>
<path d="M116.413 39.5294H113.589V42.3532H116.413V39.5294Z" fill="#993328"/>
<path d="M119.236 39.5294H116.412V42.3532H119.236V39.5294Z" fill="#993328"/>
<path d="M122.059 39.5294H119.235V42.3532H122.059V39.5294Z" fill="#993328"/>
<path d="M124.883 39.5294H122.06V42.3532H124.883V39.5294Z" fill="#993328"/>
<path d="M127.706 39.5294H124.882V42.3532H127.706V39.5294Z" fill="#55162B"/>
<path d="M130.53 39.5294H127.706V42.3532H130.53V39.5294Z" fill="#993328"/>
<path d="M133.354 39.5294H130.53V42.3532H133.354V39.5294Z" fill="#55162B"/>
<path d="M6.29458 42.3532H3.4707V45.1771H6.29458V42.3532Z" fill="#55162B"/>
<path d="M9.11684 42.3532H6.29297V45.1771H9.11684V42.3532Z" fill="#993328"/>
<path d="M11.9411 42.3532H9.11719V45.1771H11.9411V42.3532Z" fill="#993328"/>
<path d="M14.7653 42.3532H11.9414V45.1771H14.7653V42.3532Z" fill="#993328"/>
<path d="M17.5875 42.3532H14.7637V45.1771H17.5875V42.3532Z" fill="#993328"/>
<path d="M20.4118 42.3532H17.5879V45.1771H20.4118V42.3532Z" fill="#993328"/>
<path d="M23.236 42.3532H20.4121V45.1771H23.236V42.3532Z" fill="#993328"/>
<path d="M26.0583 42.3532H23.2344V45.1771H26.0583V42.3532Z" fill="#993328"/>
<path d="M28.8825 42.3532H26.0586V45.1771H28.8825V42.3532Z" fill="#993328"/>
<path d="M31.7057 42.3532H28.8818V45.1771H31.7057V42.3532Z" fill="#993328"/>
<path d="M34.529 42.3532H31.7051V45.1771H34.529V42.3532Z" fill="#993328"/>
<path d="M37.3532 42.3532H34.5293V45.1771H37.3532V42.3532Z" fill="#993328"/>
<path d="M40.1764 42.3532H37.3525V45.1771H40.1764V42.3532Z" fill="#993328"/>
<path d="M42.9997 42.3532H40.1758V45.1771H42.9997V42.3532Z" fill="#993328"/>
<path d="M45.8239 42.3532H43V45.1771H45.8239V42.3532Z" fill="#993328"/>
<path d="M48.6471 42.3532H45.8232V45.1771H48.6471V42.3532Z" fill="#993328"/>
<path d="M51.4704 42.3532H48.6465V45.1771H51.4704V42.3532Z" fill="#993328"/>
<path d="M54.2946 42.3532H51.4707V45.1771H54.2946V42.3532Z" fill="#993328"/>
<path d="M57.1178 42.3532H54.2939V45.1771H57.1178V42.3532Z" fill="#993328"/>
<path d="M110.765 42.3532H107.941V45.1771H110.765V42.3532Z" fill="#993328"/>
<path d="M113.589 42.3532H110.765V45.1771H113.589V42.3532Z" fill="#993328"/>
<path d="M116.413 42.3532H113.589V45.1771H116.413V42.3532Z" fill="#993328"/>
<path d="M119.236 42.3532H116.412V45.1771H119.236V42.3532Z" fill="#993328"/>
<path d="M122.059 42.3532H119.235V45.1771H122.059V42.3532Z" fill="#993328"/>
<path d="M124.883 42.3532H122.06V45.1771H124.883V42.3532Z" fill="#993328"/>
<path d="M127.706 42.3532H124.882V45.1771H127.706V42.3532Z" fill="#993328"/>
<path d="M130.53 42.3532H127.706V45.1771H130.53V42.3532Z" fill="#55162B"/>
<path d="M9.11684 45.1771H6.29297V48.001H9.11684V45.1771Z" fill="#55162B"/>
<path d="M11.9411 45.1771H9.11719V48.001H11.9411V45.1771Z" fill="#55162B"/>
<path d="M14.7653 45.1771H11.9414V48.001H14.7653V45.1771Z" fill="#55162B"/>
<path d="M17.5875 45.1771H14.7637V48.001H17.5875V45.1771Z" fill="#55162B"/>
<path d="M20.4118 45.1771H17.5879V48.001H20.4118V45.1771Z" fill="#55162B"/>
<path d="M23.236 45.1771H20.4121V48.001H23.236V45.1771Z" fill="#55162B"/>
<path d="M26.0583 45.1771H23.2344V48.001H26.0583V45.1771Z" fill="#55162B"/>
<path d="M28.8825 45.1771H26.0586V48.001H28.8825V45.1771Z" fill="#55162B"/>
<path d="M31.7057 45.1771H28.8818V48.001H31.7057V45.1771Z" fill="#55162B"/>
<path d="M34.529 45.1771H31.7051V48.001H34.529V45.1771Z" fill="#55162B"/>
<path d="M37.3532 45.1771H34.5293V48.001H37.3532V45.1771Z" fill="#55162B"/>
<path d="M40.1764 45.1771H37.3525V48.001H40.1764V45.1771Z" fill="#55162B"/>
<path d="M42.9997 45.1771H40.1758V48.001H42.9997V45.1771Z" fill="#55162B"/>
<path d="M45.8239 45.1771H43V48.001H45.8239V45.1771Z" fill="#55162B"/>
<path d="M48.6471 45.1771H45.8232V48.001H48.6471V45.1771Z" fill="#55162B"/>
<path d="M51.4704 45.1771H48.6465V48.001H51.4704V45.1771Z" fill="#55162B"/>
<path d="M54.2946 45.1771H51.4707V48.001H54.2946V45.1771Z" fill="#55162B"/>
<path d="M57.1178 45.1771H54.2939V48.001H57.1178V45.1771Z" fill="#55162B"/>
<path d="M59.9411 0H57.1172V2.82388H59.9411V0Z" fill="#55162B"/>
<path d="M62.7653 0H59.9414V2.82388H62.7653V0Z" fill="#55162B"/>
<path d="M65.5885 0H62.7646V2.82388H65.5885V0Z" fill="#55162B"/>
<path d="M68.4118 0H65.5879V2.82388H68.4118V0Z" fill="#55162B"/>
<path d="M71.236 0H68.4121V2.82388H71.236V0Z" fill="#55162B"/>
<path d="M74.0592 0H71.2354V2.82388H74.0592V0Z" fill="#55162B"/>
<path d="M59.9411 2.82385H57.1172V5.64773H59.9411V2.82385Z" fill="#EBC24F"/>
<path d="M62.7653 2.82385H59.9414V5.64773H62.7653V2.82385Z" fill="#EBC24F"/>
<path d="M65.5885 2.82385H62.7646V5.64773H65.5885V2.82385Z" fill="#EBC24F"/>
<path d="M68.4118 2.82385H65.5879V5.64773H68.4118V2.82385Z" fill="#EBC24F"/>
<path d="M71.236 2.82385H68.4121V5.64773H71.236V2.82385Z" fill="#EBC24F"/>
<path d="M74.0592 2.82385H71.2354V5.64773H74.0592V2.82385Z" fill="#EBC24F"/>
<path d="M59.9411 5.64679H57.1172V8.47066H59.9411V5.64679Z" fill="#D2742E"/>
<path d="M62.7653 5.64679H59.9414V8.47066H62.7653V5.64679Z" fill="#D2742E"/>
<path d="M65.5885 5.64679H62.7646V8.47066H65.5885V5.64679Z" fill="#D2742E"/>
<path d="M68.4118 5.64679H65.5879V8.47066H68.4118V5.64679Z" fill="#D2742E"/>
<path d="M71.236 5.64679H68.4121V8.47066H71.236V5.64679Z" fill="#D2742E"/>
<path d="M74.0592 5.64679H71.2354V8.47066H74.0592V5.64679Z" fill="#D2742E"/>
<path d="M59.9411 8.47064H57.1172V11.2945H59.9411V8.47064Z" fill="#D2742E"/>
<path d="M62.7653 8.47064H59.9414V11.2945H62.7653V8.47064Z" fill="#D2742E"/>
<path d="M65.5885 8.47064H62.7646V11.2945H65.5885V8.47064Z" fill="#D2742E"/>
<path d="M68.4118 8.47064H65.5879V11.2945H68.4118V8.47064Z" fill="#D2742E"/>
<path d="M71.236 8.47064H68.4121V11.2945H71.236V8.47064Z" fill="#D2742E"/>
<path d="M74.0592 8.47064H71.2354V11.2945H74.0592V8.47064Z" fill="#D2742E"/>
<path d="M59.9411 11.2945H57.1172V14.1184H59.9411V11.2945Z" fill="#D2742E"/>
<path d="M62.7653 11.2945H59.9414V14.1184H62.7653V11.2945Z" fill="#D2742E"/>
<path d="M65.5885 11.2945H62.7646V14.1184H65.5885V11.2945Z" fill="#D2742E"/>
<path d="M68.4118 11.2945H65.5879V14.1184H68.4118V11.2945Z" fill="#D2742E"/>
<path d="M71.236 11.2945H68.4121V14.1184H71.236V11.2945Z" fill="#D2742E"/>
<path d="M74.0592 11.2945H71.2354V14.1184H74.0592V11.2945Z" fill="#D2742E"/>
<path d="M59.9411 14.1174H57.1172V16.9413H59.9411V14.1174Z" fill="#D2742E"/>
<path d="M62.7653 14.1174H59.9414V16.9413H62.7653V14.1174Z" fill="#D2742E"/>
<path d="M65.5885 14.1174H62.7646V16.9413H65.5885V14.1174Z" fill="#D2742E"/>
<path d="M68.4118 14.1174H65.5879V16.9413H68.4118V14.1174Z" fill="#D2742E"/>
<path d="M71.236 14.1174H68.4121V16.9413H71.236V14.1174Z" fill="#D2742E"/>
<path d="M74.0592 14.1174H71.2354V16.9413H74.0592V14.1174Z" fill="#D2742E"/>
<path d="M59.9411 16.9413H57.1172V19.7652H59.9411V16.9413Z" fill="#D2742E"/>
<path d="M62.7653 16.9413H59.9414V19.7652H62.7653V16.9413Z" fill="#D2742E"/>
<path d="M65.5885 16.9413H62.7646V19.7652H65.5885V16.9413Z" fill="#D2742E"/>
<path d="M68.4118 16.9413H65.5879V19.7652H68.4118V16.9413Z" fill="#D2742E"/>
<path d="M71.236 16.9413H68.4121V19.7652H71.236V16.9413Z" fill="#D2742E"/>
<path d="M74.0592 16.9413H71.2354V19.7652H74.0592V16.9413Z" fill="#D2742E"/>
<path d="M59.9411 19.7651H57.1172V22.589H59.9411V19.7651Z" fill="#D2742E"/>
<path d="M62.7653 19.7651H59.9414V22.589H62.7653V19.7651Z" fill="#D2742E"/>
<path d="M65.5885 19.7651H62.7646V22.589H65.5885V19.7651Z" fill="#D2742E"/>
<path d="M68.4118 19.7651H65.5879V22.589H68.4118V19.7651Z" fill="#D2742E"/>
<path d="M71.236 19.7651H68.4121V22.589H71.236V19.7651Z" fill="#D2742E"/>
<path d="M74.0592 19.7651H71.2354V22.589H74.0592V19.7651Z" fill="#D2742E"/>
<path d="M59.9411 22.5881H57.1172V25.412H59.9411V22.5881Z" fill="#D2742E"/>
<path d="M62.7653 22.5881H59.9414V25.412H62.7653V22.5881Z" fill="#D2742E"/>
<path d="M65.5885 22.5881H62.7646V25.412H65.5885V22.5881Z" fill="#D2742E"/>
<path d="M68.4118 22.5881H65.5879V25.412H68.4118V22.5881Z" fill="#D2742E"/>
<path d="M71.236 22.5881H68.4121V25.412H71.236V22.5881Z" fill="#D2742E"/>
<path d="M74.0592 22.5881H71.2354V25.412H74.0592V22.5881Z" fill="#D2742E"/>
<path d="M59.9411 25.4119H57.1172V28.2358H59.9411V25.4119Z" fill="#D2742E"/>
<path d="M62.7653 25.4119H59.9414V28.2358H62.7653V25.4119Z" fill="#D2742E"/>
<path d="M65.5885 25.4119H62.7646V28.2358H65.5885V25.4119Z" fill="#D2742E"/>
<path d="M68.4118 25.4119H65.5879V28.2358H68.4118V25.4119Z" fill="#D2742E"/>
<path d="M71.236 25.4119H68.4121V28.2358H71.236V25.4119Z" fill="#D2742E"/>
<path d="M74.0592 25.4119H71.2354V28.2358H74.0592V25.4119Z" fill="#D2742E"/>
<path d="M59.9411 28.2358H57.1172V31.0597H59.9411V28.2358Z" fill="#D2742E"/>
<path d="M62.7653 28.2358H59.9414V31.0597H62.7653V28.2358Z" fill="#D2742E"/>
<path d="M65.5885 28.2358H62.7646V31.0597H65.5885V28.2358Z" fill="#D2742E"/>
<path d="M68.4118 28.2358H65.5879V31.0597H68.4118V28.2358Z" fill="#D2742E"/>
<path d="M71.236 28.2358H68.4121V31.0597H71.236V28.2358Z" fill="#D2742E"/>
<path d="M74.0592 28.2358H71.2354V31.0597H74.0592V28.2358Z" fill="#D2742E"/>
<path d="M59.9411 31.0587H57.1172V33.8826H59.9411V31.0587Z" fill="#EBC24F"/>
<path d="M62.7653 31.0587H59.9414V33.8826H62.7653V31.0587Z" fill="#EBC24F"/>
<path d="M65.5885 31.0587H62.7646V33.8826H65.5885V31.0587Z" fill="#EBC24F"/>
<path d="M68.4118 31.0587H65.5879V33.8826H68.4118V31.0587Z" fill="#EBC24F"/>
<path d="M71.236 31.0587H68.4121V33.8826H71.236V31.0587Z" fill="#EBC24F"/>
<path d="M74.0592 31.0587H71.2354V33.8826H74.0592V31.0587Z" fill="#EBC24F"/>
<path d="M59.9411 33.8826H57.1172V36.7064H59.9411V33.8826Z" fill="#993328"/>
<path d="M62.7653 33.8826H59.9414V36.7064H62.7653V33.8826Z" fill="#993328"/>
<path d="M65.5885 33.8826H62.7646V36.7064H65.5885V33.8826Z" fill="#993328"/>
<path d="M68.4118 33.8826H65.5879V36.7064H68.4118V33.8826Z" fill="#993328"/>
<path d="M71.236 33.8826H68.4121V36.7064H71.236V33.8826Z" fill="#993328"/>
<path d="M74.0592 33.8826H71.2354V36.7064H74.0592V33.8826Z" fill="#993328"/>
<path d="M59.9411 36.7065H57.1172V39.5304H59.9411V36.7065Z" fill="#993328"/>
<path d="M62.7653 36.7065H59.9414V39.5304H62.7653V36.7065Z" fill="#993328"/>
<path d="M65.5885 36.7065H62.7646V39.5304H65.5885V36.7065Z" fill="#993328"/>
<path d="M68.4118 36.7065H65.5879V39.5304H68.4118V36.7065Z" fill="#993328"/>
<path d="M71.236 36.7065H68.4121V39.5304H71.236V36.7065Z" fill="#993328"/>
<path d="M74.0592 36.7065H71.2354V39.5304H74.0592V36.7065Z" fill="#993328"/>
<path d="M59.9411 39.5294H57.1172V42.3532H59.9411V39.5294Z" fill="#993328"/>
<path d="M62.7653 39.5294H59.9414V42.3532H62.7653V39.5294Z" fill="#993328"/>
<path d="M65.5885 39.5294H62.7646V42.3532H65.5885V39.5294Z" fill="#993328"/>
<path d="M68.4118 39.5294H65.5879V42.3532H68.4118V39.5294Z" fill="#993328"/>
<path d="M71.236 39.5294H68.4121V42.3532H71.236V39.5294Z" fill="#993328"/>
<path d="M74.0592 39.5294H71.2354V42.3532H74.0592V39.5294Z" fill="#993328"/>
<path d="M59.9411 42.3532H57.1172V45.1771H59.9411V42.3532Z" fill="#993328"/>
<path d="M62.7653 42.3532H59.9414V45.1771H62.7653V42.3532Z" fill="#993328"/>
<path d="M65.5885 42.3532H62.7646V45.1771H65.5885V42.3532Z" fill="#993328"/>
<path d="M68.4118 42.3532H65.5879V45.1771H68.4118V42.3532Z" fill="#993328"/>
<path d="M71.236 42.3532H68.4121V45.1771H71.236V42.3532Z" fill="#993328"/>
<path d="M74.0592 42.3532H71.2354V45.1771H74.0592V42.3532Z" fill="#993328"/>
<path d="M59.9411 45.1771H57.1172V48.001H59.9411V45.1771Z" fill="#55162B"/>
<path d="M62.7653 45.1771H59.9414V48.001H62.7653V45.1771Z" fill="#55162B"/>
<path d="M65.5885 45.1771H62.7646V48.001H65.5885V45.1771Z" fill="#55162B"/>
<path d="M68.4118 45.1771H65.5879V48.001H68.4118V45.1771Z" fill="#55162B"/>
<path d="M71.236 45.1771H68.4121V48.001H71.236V45.1771Z" fill="#55162B"/>
<path d="M74.0592 45.1771H71.2354V48.001H74.0592V45.1771Z" fill="#55162B"/>
<path d="M76.8825 0H74.0586V2.82388H76.8825V0Z" fill="#55162B"/>
<path d="M79.7057 0H76.8818V2.82388H79.7057V0Z" fill="#55162B"/>
<path d="M82.5299 0H79.7061V2.82388H82.5299V0Z" fill="#55162B"/>
<path d="M85.3532 0H82.5293V2.82388H85.3532V0Z" fill="#55162B"/>
<path d="M88.1764 0H85.3525V2.82388H88.1764V0Z" fill="#55162B"/>
<path d="M91.0006 0H88.1768V2.82388H91.0006V0Z" fill="#55162B"/>
<path d="M76.8825 2.82385H74.0586V5.64773H76.8825V2.82385Z" fill="#EBC24F"/>
<path d="M79.7057 2.82385H76.8818V5.64773H79.7057V2.82385Z" fill="#EBC24F"/>
<path d="M82.5299 2.82385H79.7061V5.64773H82.5299V2.82385Z" fill="#EBC24F"/>
<path d="M85.3532 2.82385H82.5293V5.64773H85.3532V2.82385Z" fill="#EBC24F"/>
<path d="M88.1764 2.82385H85.3525V5.64773H88.1764V2.82385Z" fill="#EBC24F"/>
<path d="M91.0006 2.82385H88.1768V5.64773H91.0006V2.82385Z" fill="#EBC24F"/>
<path d="M76.8825 5.64679H74.0586V8.47066H76.8825V5.64679Z" fill="#D2742E"/>
<path d="M79.7057 5.64679H76.8818V8.47066H79.7057V5.64679Z" fill="#D2742E"/>
<path d="M82.5299 5.64679H79.7061V8.47066H82.5299V5.64679Z" fill="#D2742E"/>
<path d="M85.3532 5.64679H82.5293V8.47066H85.3532V5.64679Z" fill="#D2742E"/>
<path d="M88.1764 5.64679H85.3525V8.47066H88.1764V5.64679Z" fill="#D2742E"/>
<path d="M91.0006 5.64679H88.1768V8.47066H91.0006V5.64679Z" fill="#D2742E"/>
<path d="M76.8825 8.47064H74.0586V11.2945H76.8825V8.47064Z" fill="#D2742E"/>
<path d="M79.7057 8.47064H76.8818V11.2945H79.7057V8.47064Z" fill="#D2742E"/>
<path d="M82.5299 8.47064H79.7061V11.2945H82.5299V8.47064Z" fill="#D2742E"/>
<path d="M85.3532 8.47064H82.5293V11.2945H85.3532V8.47064Z" fill="#D2742E"/>
<path d="M88.1764 8.47064H85.3525V11.2945H88.1764V8.47064Z" fill="#D2742E"/>
<path d="M91.0006 8.47064H88.1768V11.2945H91.0006V8.47064Z" fill="#D2742E"/>
<path d="M76.8825 11.2945H74.0586V14.1184H76.8825V11.2945Z" fill="#D2742E"/>
<path d="M79.7057 11.2945H76.8818V14.1184H79.7057V11.2945Z" fill="#D2742E"/>
<path d="M82.5299 11.2945H79.7061V14.1184H82.5299V11.2945Z" fill="#D2742E"/>
<path d="M85.3532 11.2945H82.5293V14.1184H85.3532V11.2945Z" fill="#D2742E"/>
<path d="M88.1764 11.2945H85.3525V14.1184H88.1764V11.2945Z" fill="#D2742E"/>
<path d="M91.0006 11.2945H88.1768V14.1184H91.0006V11.2945Z" fill="#D2742E"/>
<path d="M76.8825 14.1174H74.0586V16.9413H76.8825V14.1174Z" fill="#D2742E"/>
<path d="M79.7057 14.1174H76.8818V16.9413H79.7057V14.1174Z" fill="#D2742E"/>
<path d="M82.5299 14.1174H79.7061V16.9413H82.5299V14.1174Z" fill="#D2742E"/>
<path d="M85.3532 14.1174H82.5293V16.9413H85.3532V14.1174Z" fill="#D2742E"/>
<path d="M88.1764 14.1174H85.3525V16.9413H88.1764V14.1174Z" fill="#D2742E"/>
<path d="M91.0006 14.1174H88.1768V16.9413H91.0006V14.1174Z" fill="#D2742E"/>
<path d="M76.8825 16.9413H74.0586V19.7652H76.8825V16.9413Z" fill="#D2742E"/>
<path d="M79.7057 16.9413H76.8818V19.7652H79.7057V16.9413Z" fill="#D2742E"/>
<path d="M82.5299 16.9413H79.7061V19.7652H82.5299V16.9413Z" fill="#D2742E"/>
<path d="M85.3532 16.9413H82.5293V19.7652H85.3532V16.9413Z" fill="#D2742E"/>
<path d="M88.1764 16.9413H85.3525V19.7652H88.1764V16.9413Z" fill="#D2742E"/>
<path d="M91.0006 16.9413H88.1768V19.7652H91.0006V16.9413Z" fill="#D2742E"/>
<path d="M76.8825 19.7651H74.0586V22.589H76.8825V19.7651Z" fill="#D2742E"/>
<path d="M79.7057 19.7651H76.8818V22.589H79.7057V19.7651Z" fill="#D2742E"/>
<path d="M82.5299 19.7651H79.7061V22.589H82.5299V19.7651Z" fill="#D2742E"/>
<path d="M85.3532 19.7651H82.5293V22.589H85.3532V19.7651Z" fill="#D2742E"/>
<path d="M88.1764 19.7651H85.3525V22.589H88.1764V19.7651Z" fill="#D2742E"/>
<path d="M91.0006 19.7651H88.1768V22.589H91.0006V19.7651Z" fill="#D2742E"/>
<path d="M76.8825 22.5881H74.0586V25.412H76.8825V22.5881Z" fill="#D2742E"/>
<path d="M79.7057 22.5881H76.8818V25.412H79.7057V22.5881Z" fill="#D2742E"/>
<path d="M82.5299 22.5881H79.7061V25.412H82.5299V22.5881Z" fill="#D2742E"/>
<path d="M85.3532 22.5881H82.5293V25.412H85.3532V22.5881Z" fill="#D2742E"/>
<path d="M88.1764 22.5881H85.3525V25.412H88.1764V22.5881Z" fill="#D2742E"/>
<path d="M91.0006 22.5881H88.1768V25.412H91.0006V22.5881Z" fill="#D2742E"/>
<path d="M76.8825 25.4119H74.0586V28.2358H76.8825V25.4119Z" fill="#D2742E"/>
<path d="M79.7057 25.4119H76.8818V28.2358H79.7057V25.4119Z" fill="#D2742E"/>
<path d="M82.5299 25.4119H79.7061V28.2358H82.5299V25.4119Z" fill="#D2742E"/>
<path d="M85.3532 25.4119H82.5293V28.2358H85.3532V25.4119Z" fill="#D2742E"/>
<path d="M88.1764 25.4119H85.3525V28.2358H88.1764V25.4119Z" fill="#D2742E"/>
<path d="M91.0006 25.4119H88.1768V28.2358H91.0006V25.4119Z" fill="#D2742E"/>
<path d="M76.8825 28.2358H74.0586V31.0597H76.8825V28.2358Z" fill="#D2742E"/>
<path d="M79.7057 28.2358H76.8818V31.0597H79.7057V28.2358Z" fill="#D2742E"/>
<path d="M82.5299 28.2358H79.7061V31.0597H82.5299V28.2358Z" fill="#D2742E"/>
<path d="M85.3532 28.2358H82.5293V31.0597H85.3532V28.2358Z" fill="#D2742E"/>
<path d="M88.1764 28.2358H85.3525V31.0597H88.1764V28.2358Z" fill="#D2742E"/>
<path d="M91.0006 28.2358H88.1768V31.0597H91.0006V28.2358Z" fill="#D2742E"/>
<path d="M76.8825 31.0587H74.0586V33.8826H76.8825V31.0587Z" fill="#EBC24F"/>
<path d="M79.7057 31.0587H76.8818V33.8826H79.7057V31.0587Z" fill="#EBC24F"/>
<path d="M82.5299 31.0587H79.7061V33.8826H82.5299V31.0587Z" fill="#EBC24F"/>
<path d="M85.3532 31.0587H82.5293V33.8826H85.3532V31.0587Z" fill="#EBC24F"/>
<path d="M88.1764 31.0587H85.3525V33.8826H88.1764V31.0587Z" fill="#EBC24F"/>
<path d="M91.0006 31.0587H88.1768V33.8826H91.0006V31.0587Z" fill="#EBC24F"/>
<path d="M76.8825 33.8826H74.0586V36.7064H76.8825V33.8826Z" fill="#993328"/>
<path d="M79.7057 33.8826H76.8818V36.7064H79.7057V33.8826Z" fill="#993328"/>
<path d="M82.5299 33.8826H79.7061V36.7064H82.5299V33.8826Z" fill="#993328"/>
<path d="M85.3532 33.8826H82.5293V36.7064H85.3532V33.8826Z" fill="#993328"/>
<path d="M88.1764 33.8826H85.3525V36.7064H88.1764V33.8826Z" fill="#993328"/>
<path d="M91.0006 33.8826H88.1768V36.7064H91.0006V33.8826Z" fill="#993328"/>
<path d="M76.8825 36.7065H74.0586V39.5304H76.8825V36.7065Z" fill="#993328"/>
<path d="M79.7057 36.7065H76.8818V39.5304H79.7057V36.7065Z" fill="#993328"/>
<path d="M82.5299 36.7065H79.7061V39.5304H82.5299V36.7065Z" fill="#993328"/>
<path d="M85.3532 36.7065H82.5293V39.5304H85.3532V36.7065Z" fill="#993328"/>
<path d="M88.1764 36.7065H85.3525V39.5304H88.1764V36.7065Z" fill="#993328"/>
<path d="M91.0006 36.7065H88.1768V39.5304H91.0006V36.7065Z" fill="#993328"/>
<path d="M76.8825 39.5294H74.0586V42.3532H76.8825V39.5294Z" fill="#993328"/>
<path d="M79.7057 39.5294H76.8818V42.3532H79.7057V39.5294Z" fill="#993328"/>
<path d="M82.5299 39.5294H79.7061V42.3532H82.5299V39.5294Z" fill="#993328"/>
<path d="M85.3532 39.5294H82.5293V42.3532H85.3532V39.5294Z" fill="#993328"/>
<path d="M88.1764 39.5294H85.3525V42.3532H88.1764V39.5294Z" fill="#993328"/>
<path d="M91.0006 39.5294H88.1768V42.3532H91.0006V39.5294Z" fill="#993328"/>
<path d="M76.8825 42.3532H74.0586V45.1771H76.8825V42.3532Z" fill="#993328"/>
<path d="M79.7057 42.3532H76.8818V45.1771H79.7057V42.3532Z" fill="#993328"/>
<path d="M82.5299 42.3532H79.7061V45.1771H82.5299V42.3532Z" fill="#993328"/>
<path d="M85.3532 42.3532H82.5293V45.1771H85.3532V42.3532Z" fill="#993328"/>
<path d="M88.1764 42.3532H85.3525V45.1771H88.1764V42.3532Z" fill="#993328"/>
<path d="M91.0006 42.3532H88.1768V45.1771H91.0006V42.3532Z" fill="#993328"/>
<path d="M76.8825 45.1771H74.0586V48.001H76.8825V45.1771Z" fill="#55162B"/>
<path d="M79.7057 45.1771H76.8818V48.001H79.7057V45.1771Z" fill="#55162B"/>
<path d="M82.5299 45.1771H79.7061V48.001H82.5299V45.1771Z" fill="#55162B"/>
<path d="M85.3532 45.1771H82.5293V48.001H85.3532V45.1771Z" fill="#55162B"/>
<path d="M88.1764 45.1771H85.3525V48.001H88.1764V45.1771Z" fill="#55162B"/>
<path d="M91.0006 45.1771H88.1768V48.001H91.0006V45.1771Z" fill="#55162B"/>
<path d="M110.765 45.1771H107.941V48.001H110.765V45.1771Z" fill="#55162B"/>
<path d="M113.589 45.1771H110.765V48.001H113.589V45.1771Z" fill="#55162B"/>
<path d="M116.413 45.1771H113.589V48.001H116.413V45.1771Z" fill="#55162B"/>
<path d="M119.236 45.1771H116.412V48.001H119.236V45.1771Z" fill="#55162B"/>
<path d="M122.059 45.1771H119.235V48.001H122.059V45.1771Z" fill="#55162B"/>
<path d="M124.883 45.1771H122.06V48.001H124.883V45.1771Z" fill="#55162B"/>
<path d="M127.706 45.1771H124.882V48.001H127.706V45.1771Z" fill="#55162B"/>
<path d="M93.8239 0H91V2.82388H93.8239V0Z" fill="#55162B"/>
<path d="M96.6471 0H93.8232V2.82388H96.6471V0Z" fill="#55162B"/>
<path d="M99.4713 0H96.6475V2.82388H99.4713V0Z" fill="#55162B"/>
<path d="M102.295 0H99.4707V2.82388H102.295V0Z" fill="#55162B"/>
<path d="M105.118 0H102.294V2.82388H105.118V0Z" fill="#55162B"/>
<path d="M107.942 0H105.118V2.82388H107.942V0Z" fill="#55162B"/>
<path d="M93.8239 2.82385H91V5.64773H93.8239V2.82385Z" fill="#EBC24F"/>
<path d="M96.6471 2.82385H93.8232V5.64773H96.6471V2.82385Z" fill="#EBC24F"/>
<path d="M99.4713 2.82385H96.6475V5.64773H99.4713V2.82385Z" fill="#EBC24F"/>
<path d="M102.295 2.82385H99.4707V5.64773H102.295V2.82385Z" fill="#EBC24F"/>
<path d="M105.118 2.82385H102.294V5.64773H105.118V2.82385Z" fill="#EBC24F"/>
<path d="M107.942 2.82385H105.118V5.64773H107.942V2.82385Z" fill="#EBC24F"/>
<path d="M93.8239 5.64679H91V8.47066H93.8239V5.64679Z" fill="#D2742E"/>
<path d="M96.6471 5.64679H93.8232V8.47066H96.6471V5.64679Z" fill="#D2742E"/>
<path d="M99.4713 5.64679H96.6475V8.47066H99.4713V5.64679Z" fill="#D2742E"/>
<path d="M102.295 5.64679H99.4707V8.47066H102.295V5.64679Z" fill="#D2742E"/>
<path d="M105.118 5.64679H102.294V8.47066H105.118V5.64679Z" fill="#D2742E"/>
<path d="M107.942 5.64679H105.118V8.47066H107.942V5.64679Z" fill="#D2742E"/>
<path d="M93.8239 8.47064H91V11.2945H93.8239V8.47064Z" fill="#D2742E"/>
<path d="M96.6471 8.47064H93.8232V11.2945H96.6471V8.47064Z" fill="#D2742E"/>
<path d="M99.4713 8.47064H96.6475V11.2945H99.4713V8.47064Z" fill="#D2742E"/>
<path d="M102.295 8.47064H99.4707V11.2945H102.295V8.47064Z" fill="#D2742E"/>
<path d="M105.118 8.47064H102.294V11.2945H105.118V8.47064Z" fill="#D2742E"/>
<path d="M107.942 8.47064H105.118V11.2945H107.942V8.47064Z" fill="#D2742E"/>
<path d="M93.8239 11.2945H91V14.1184H93.8239V11.2945Z" fill="#D2742E"/>
<path d="M96.6471 11.2945H93.8232V14.1184H96.6471V11.2945Z" fill="#D2742E"/>
<path d="M99.4713 11.2945H96.6475V14.1184H99.4713V11.2945Z" fill="#D2742E"/>
<path d="M102.295 11.2945H99.4707V14.1184H102.295V11.2945Z" fill="#D2742E"/>
<path d="M105.118 11.2945H102.294V14.1184H105.118V11.2945Z" fill="#D2742E"/>
<path d="M107.942 11.2945H105.118V14.1184H107.942V11.2945Z" fill="#D2742E"/>
<path d="M93.8239 14.1174H91V16.9413H93.8239V14.1174Z" fill="#D2742E"/>
<path d="M96.6471 14.1174H93.8232V16.9413H96.6471V14.1174Z" fill="#D2742E"/>
<path d="M99.4713 14.1174H96.6475V16.9413H99.4713V14.1174Z" fill="#D2742E"/>
<path d="M102.295 14.1174H99.4707V16.9413H102.295V14.1174Z" fill="#D2742E"/>
<path d="M105.118 14.1174H102.294V16.9413H105.118V14.1174Z" fill="#D2742E"/>
<path d="M107.942 14.1174H105.118V16.9413H107.942V14.1174Z" fill="#D2742E"/>
<path d="M93.8239 16.9413H91V19.7652H93.8239V16.9413Z" fill="#D2742E"/>
<path d="M96.6471 16.9413H93.8232V19.7652H96.6471V16.9413Z" fill="#D2742E"/>
<path d="M99.4713 16.9413H96.6475V19.7652H99.4713V16.9413Z" fill="#D2742E"/>
<path d="M102.295 16.9413H99.4707V19.7652H102.295V16.9413Z" fill="#D2742E"/>
<path d="M105.118 16.9413H102.294V19.7652H105.118V16.9413Z" fill="#D2742E"/>
<path d="M107.942 16.9413H105.118V19.7652H107.942V16.9413Z" fill="#D2742E"/>
<path d="M93.8239 19.7651H91V22.589H93.8239V19.7651Z" fill="#D2742E"/>
<path d="M96.6471 19.7651H93.8232V22.589H96.6471V19.7651Z" fill="#D2742E"/>
<path d="M99.4713 19.7651H96.6475V22.589H99.4713V19.7651Z" fill="#D2742E"/>
<path d="M102.295 19.7651H99.4707V22.589H102.295V19.7651Z" fill="#D2742E"/>
<path d="M105.118 19.7651H102.294V22.589H105.118V19.7651Z" fill="#D2742E"/>
<path d="M107.942 19.7651H105.118V22.589H107.942V19.7651Z" fill="#D2742E"/>
<path d="M93.8239 22.5881H91V25.412H93.8239V22.5881Z" fill="#D2742E"/>
<path d="M96.6471 22.5881H93.8232V25.412H96.6471V22.5881Z" fill="#D2742E"/>
<path d="M99.4713 22.5881H96.6475V25.412H99.4713V22.5881Z" fill="#D2742E"/>
<path d="M102.295 22.5881H99.4707V25.412H102.295V22.5881Z" fill="#D2742E"/>
<path d="M105.118 22.5881H102.294V25.412H105.118V22.5881Z" fill="#D2742E"/>
<path d="M107.942 22.5881H105.118V25.412H107.942V22.5881Z" fill="#D2742E"/>
<path d="M93.8239 25.4119H91V28.2358H93.8239V25.4119Z" fill="#D2742E"/>
<path d="M96.6471 25.4119H93.8232V28.2358H96.6471V25.4119Z" fill="#D2742E"/>
<path d="M99.4713 25.4119H96.6475V28.2358H99.4713V25.4119Z" fill="#D2742E"/>
<path d="M102.295 25.4119H99.4707V28.2358H102.295V25.4119Z" fill="#D2742E"/>
<path d="M105.118 25.4119H102.294V28.2358H105.118V25.4119Z" fill="#D2742E"/>
<path d="M107.942 25.4119H105.118V28.2358H107.942V25.4119Z" fill="#D2742E"/>
<path d="M93.8239 28.2358H91V31.0597H93.8239V28.2358Z" fill="#D2742E"/>
<path d="M96.6471 28.2358H93.8232V31.0597H96.6471V28.2358Z" fill="#D2742E"/>
<path d="M99.4713 28.2358H96.6475V31.0597H99.4713V28.2358Z" fill="#D2742E"/>
<path d="M102.295 28.2358H99.4707V31.0597H102.295V28.2358Z" fill="#D2742E"/>
<path d="M105.118 28.2358H102.294V31.0597H105.118V28.2358Z" fill="#D2742E"/>
<path d="M107.942 28.2358H105.118V31.0597H107.942V28.2358Z" fill="#D2742E"/>
<path d="M93.8239 31.0587H91V33.8826H93.8239V31.0587Z" fill="#EBC24F"/>
<path d="M96.6471 31.0587H93.8232V33.8826H96.6471V31.0587Z" fill="#EBC24F"/>
<path d="M99.4713 31.0587H96.6475V33.8826H99.4713V31.0587Z" fill="#EBC24F"/>
<path d="M102.295 31.0587H99.4707V33.8826H102.295V31.0587Z" fill="#EBC24F"/>
<path d="M105.118 31.0587H102.294V33.8826H105.118V31.0587Z" fill="#EBC24F"/>
<path d="M107.942 31.0587H105.118V33.8826H107.942V31.0587Z" fill="#EBC24F"/>
<path d="M93.8239 33.8826H91V36.7064H93.8239V33.8826Z" fill="#993328"/>
<path d="M96.6471 33.8826H93.8232V36.7064H96.6471V33.8826Z" fill="#993328"/>
<path d="M99.4713 33.8826H96.6475V36.7064H99.4713V33.8826Z" fill="#993328"/>
<path d="M102.295 33.8826H99.4707V36.7064H102.295V33.8826Z" fill="#993328"/>
<path d="M105.118 33.8826H102.294V36.7064H105.118V33.8826Z" fill="#993328"/>
<path d="M107.942 33.8826H105.118V36.7064H107.942V33.8826Z" fill="#993328"/>
<path d="M93.8239 36.7065H91V39.5304H93.8239V36.7065Z" fill="#993328"/>
<path d="M96.6471 36.7065H93.8232V39.5304H96.6471V36.7065Z" fill="#993328"/>
<path d="M99.4713 36.7065H96.6475V39.5304H99.4713V36.7065Z" fill="#993328"/>
<path d="M102.295 36.7065H99.4707V39.5304H102.295V36.7065Z" fill="#993328"/>
<path d="M105.118 36.7065H102.294V39.5304H105.118V36.7065Z" fill="#993328"/>
<path d="M107.942 36.7065H105.118V39.5304H107.942V36.7065Z" fill="#993328"/>
<path d="M93.8239 39.5294H91V42.3532H93.8239V39.5294Z" fill="#993328"/>
<path d="M96.6471 39.5294H93.8232V42.3532H96.6471V39.5294Z" fill="#993328"/>
<path d="M99.4713 39.5294H96.6475V42.3532H99.4713V39.5294Z" fill="#993328"/>
<path d="M102.295 39.5294H99.4707V42.3532H102.295V39.5294Z" fill="#993328"/>
<path d="M105.118 39.5294H102.294V42.3532H105.118V39.5294Z" fill="#993328"/>
<path d="M107.942 39.5294H105.118V42.3532H107.942V39.5294Z" fill="#993328"/>
<path d="M93.8239 42.3532H91V45.1771H93.8239V42.3532Z" fill="#993328"/>
<path d="M96.6471 42.3532H93.8232V45.1771H96.6471V42.3532Z" fill="#993328"/>
<path d="M99.4713 42.3532H96.6475V45.1771H99.4713V42.3532Z" fill="#993328"/>
<path d="M102.295 42.3532H99.4707V45.1771H102.295V42.3532Z" fill="#993328"/>
<path d="M105.118 42.3532H102.294V45.1771H105.118V42.3532Z" fill="#993328"/>
<path d="M107.942 42.3532H105.118V45.1771H107.942V42.3532Z" fill="#993328"/>
<path d="M93.8239 45.1771H91V48.001H93.8239V45.1771Z" fill="#55162B"/>
<path d="M96.6471 45.1771H93.8232V48.001H96.6471V45.1771Z" fill="#55162B"/>
<path d="M99.4713 45.1771H96.6475V48.001H99.4713V45.1771Z" fill="#55162B"/>
<path d="M102.295 45.1771H99.4707V48.001H102.295V45.1771Z" fill="#55162B"/>
<path d="M105.118 45.1771H102.294V48.001H105.118V45.1771Z" fill="#55162B"/>
<path d="M107.942 45.1771H105.118V48.001H107.942V45.1771Z" fill="#55162B"/>
<path d="M34.7832 25.3972H33.4943V24.1083H30.9174V25.3972H28.3405V24.1083H27.0516V22.8194H25.7627V11.222H28.3396V21.5314H30.9164V15.0878H33.4933V21.5314H36.0702V11.222H38.6471V22.8204H37.3581V24.1093H36.0692V25.3982H34.7803L34.7832 25.3972Z" fill="#FAF3D4"/>
<path d="M42.5155 13.7989H41.2266V11.222H43.8034V13.7989H42.5145H42.5155ZM42.5155 25.3972H41.2266V15.0878H43.8034V25.3972H42.5145H42.5155Z" fill="#FAF3D4"/>
<path d="M52.8244 25.3972H51.5354V24.1083H50.2465V22.8194H48.9576V21.5305H47.6687V25.3963H45.0918V11.222H47.6687V18.9536H48.9576V17.6647H50.2465V16.3757H51.5354V15.0868H54.1123V17.6637H52.8234V18.9526H51.5345V21.5295H52.8234V22.8184H54.1123V25.3953H52.8234L52.8244 25.3972Z" fill="#FAF3D4"/>
<path d="M57.9794 13.7989H56.6904V11.222H59.2673V13.7989H57.9784H57.9794ZM57.9794 25.3972H56.6904V15.0878H59.2673V25.3972H57.9784H57.9794Z" fill="#FAF3D4"/>
<path d="M63.1337 29.263H61.8447V15.0878H64.4216V16.3767H65.7105V15.0878H69.5763V16.3767H70.8653V24.1083H69.5763V25.3972H65.7105V24.1083H64.4216V29.263H63.1327H63.1337ZM66.9995 22.8194H68.2884V17.6646H65.7115V18.9536H64.4226V21.5304H65.7115V22.8194H67.0004H66.9995Z" fill="#FAF3D4"/>
<path d="M78.5981 25.3972H74.7323V24.1083H73.4434V16.3767H74.7323V15.0878H79.887V16.3767H81.1759V20.2425H76.0212V22.8194H78.5981V21.5304H81.175V24.1073H79.886V25.3962H78.5971L78.5981 25.3972ZM77.3092 18.9536H78.5981V17.6646H76.0212V18.9536H77.3101H77.3092Z" fill="#FAF3D4"/>
<path d="M91.4855 25.3972H90.1966V24.1083H88.9077V25.3972H85.0419V24.1083H83.7529V16.3767H85.0419V15.0878H88.9077V16.3767H90.1966V11.222H92.7735V25.3972H91.4845H91.4855ZM87.6197 22.8204H88.9086V21.5314H90.1976V18.9546H88.9086V17.6656H86.3318V22.8204H87.6207H87.6197Z" fill="#FAF3D4"/>
<path d="M96.6395 13.7989H95.3506V11.222H97.9275V13.7989H96.6385H96.6395ZM96.6395 25.3972H95.3506V15.0878H97.9275V25.3972H96.6385H96.6395Z" fill="#FAF3D4"/>
<path d="M106.95 25.3972H101.795V24.1083H100.506V16.3767H101.795V15.0878H106.95V16.3767H108.238V25.3972H106.95ZM104.373 22.8203H105.662V17.6656H103.085V22.8203H104.374H104.373Z" fill="#FAF3D4"/>
</g>
<defs>
<clipPath id="clip0_13294_8967">
<rect width="132.706" height="48" fill="white" transform="translate(0.646484)"/>
</clipPath>
</defs>
</svg>
